M48
; DRILL file {KiCad 9.0.7} date 2026-06-10T11:41:54-0400
; FORMAT={-:-/ absolute / inch / decimal}
; #@! TF.CreationDate,2026-06-10T11:41:54-04:00
; #@! TF.GenerationSoftware,Kicad,Pcbnew,9.0.7
; #@! TF.FileFunction,MixedPlating,1,6
FMAT,2
INCH
; #@! TA.AperFunction,Plated,PTH,ViaDrill
T1C0.0118
; #@! TA.AperFunction,Plated,PTH,ComponentDrill
T2C0.0118
; #@! TA.AperFunction,Plated,PTH,ViaDrill
T3C0.0197
; #@! TA.AperFunction,Plated,PTH,ComponentDrill
T4C0.0240
; #@! TA.AperFunction,Plated,PTH,ComponentDrill
T5C0.0382
; #@! TA.AperFunction,Plated,PTH,ComponentDrill
T6C0.0591
; #@! TA.AperFunction,Plated,PTH,ComponentDrill
T7C0.0669
; #@! TA.AperFunction,Plated,PTH,ComponentDrill
T8C0.0709
; #@! TA.AperFunction,Plated,PTH,ComponentDrill
T9C0.1693
; #@! TA.AperFunction,NonPlated,NPTH,ComponentDrill
T10C0.1059
; #@! TA.AperFunction,NonPlated,NPTH,ComponentDrill
T11C0.1181
%
G90
G05
T1
X3.0472Y-12.8504
X3.252Y-10.4567
X4.6614Y-11.6496
X5.0945Y-12.2705
X5.0945Y-12.4803
X5.4629Y-12.354
X5.4759Y-12.264
X5.4979Y-11.309
X5.5329Y-12.188
X5.5379Y-11.639
X5.5379Y-12.366
X5.5439Y-12.262
X5.6069Y-12.114
X5.6079Y-11.639
X5.6079Y-12.199
X5.6181Y-11.5059
X5.6476Y-11.5945
X5.6479Y-11.339
X5.6575Y-11.6732
X5.6759Y-12.037
X5.6781Y-3.6476
X5.6849Y-12.122
X5.6879Y-11.549
X5.7379Y-11.349
X5.7679Y-11.549
X5.7679Y-12.04
X5.7739Y-11.94
X5.8179Y-11.349
X5.8479Y-11.549
X5.8543Y-11.7835
X5.8629Y-11.856
X5.8639Y-11.944
X5.8879Y-11.349
X5.8937Y-11.7835
X5.9252Y-11.6752
X5.9279Y-11.549
X5.9579Y-11.349
X5.9779Y-11.549
X5.9779Y-11.865
X5.9855Y-12.0943
X6.015Y-12.0943
X6.0379Y-11.409
X6.0379Y-11.509
X6.0571Y-11.7776
X6.0769Y-11.492
X6.0787Y-11.7362
X6.0879Y-11.419
X6.1179Y-11.493
X6.1191Y-12.0233
X6.122Y-11.6102
X6.1379Y-11.419
X6.1486Y-12.0233
X6.1579Y-11.529
X6.1879Y-11.449
X6.2136Y-12.0077
X6.2279Y-11.489
X6.2432Y-12.0077
X6.261Y-11.565
X6.2618Y-11.4094
X6.3209Y-11.3642
X6.3514Y-11.9795
X6.376Y-11.5866
X6.3809Y-11.9795
X6.4016Y-11.3602
X6.4429Y-11.6437
X6.4547Y-11.6811
X6.4587Y-11.4094
X6.4705Y-11.7421
X6.4744Y-11.7067
X6.6063Y-11.7008
X6.6063Y-11.7756
X6.6457Y-11.7756
X6.6476Y-11.7008
X6.6476Y-11.9882
X6.7854Y-11.9213
X6.7953Y-11.3071
X6.8484Y-11.9685
X6.8484Y-12.0059
X6.8642Y-11.252
X6.8642Y-11.7815
X6.9094Y-11.9665
X6.9488Y-11.25
X6.9488Y-11.6856
X6.9488Y-11.7795
X6.9606Y-11.9665
X6.9685Y-12.1969
X7.0276Y-12.1969
X7.1102Y-11.2604
X7.1102Y-11.6384
X7.1142Y-11.7598
X7.1378Y-11.2604
X7.2933Y-12.0118
X7.2953Y-11.9252
X7.2953Y-12.1024
X7.2972Y-11.6069
X7.2972Y-11.7598
X7.2992Y-11.5163
X7.3091Y-11.3431
X7.3091Y-11.4252
X7.311Y-11.8425
X7.3189Y-11.9252
X7.3189Y-12.0118
X7.3189Y-12.1024
X7.3268Y-11.2643
X7.3268Y-11.5163
X7.3268Y-11.6069
X7.3268Y-11.7598
X7.3465Y-11.4252
X8.6693Y-11.8268
X9.3228Y-12.2638
X9.3425Y-12.1732
X9.3543Y-12.2244
X9.7047Y-11.6732
X9.815Y-12.0512
X9.815Y-12.1575
X9.8209Y-12.1043
X9.8937Y-11.2323
X9.9055Y-10.8976
X9.9685Y-10.811
X9.9685Y-11.3268
X10.0197Y-12.2205
X10.0236Y-12.0433
X10.0315Y-11.0157
X10.0394Y-11.1142
X10.0551Y-10.9567
X10.0551Y-11.3346
X10.0571Y-10.7894
X10.0591Y-11.1732
X10.0748Y-11.6732
X10.0787Y-11.7913
X10.1654Y-10.7874
X10.1654Y-11.3346
X10.1693Y-10.9567
X10.1693Y-11.1732
X10.1929Y-12.1575
X10.1967Y-12.2049
X10.1969Y-12.1063
X10.2008Y-11.0157
X10.2008Y-11.1142
X10.2598Y-10.7992
X10.2638Y-11.3268
X10.2874Y-12.8071
X10.2953Y-12.5669
X10.3386Y-12.0236
X10.3386Y-13.0709
X10.374Y-12.8071
X10.3819Y-12.5669
X10.4606Y-12.1929
X10.4685Y-12.8071
X10.4724Y-12.5669
X10.5197Y-12.4409
X10.5591Y-12.8071
X10.5827Y-11.9961
X10.6299Y-12.2165
X10.6457Y-12.8071
X10.6929Y-12.7165
X10.7362Y-12.6811
X10.7441Y-12.1575
X10.7795Y-11.9724
X10.7953Y-12.7244
X10.8583Y-12.4921
X10.8819Y-12.7244
X10.9134Y-12.1772
X10.9291Y-10.4319
X10.9293Y-10.8445
X10.9295Y-10.5965
X10.9295Y-10.6791
X10.9295Y-10.7618
X10.9295Y-10.9272
X10.9295Y-11.0925
X10.9295Y-11.1752
X10.9295Y-11.4232
X10.9295Y-11.5059
X10.9295Y-11.5886
X10.9295Y-11.6713
X10.9311Y-10.5138
X10.9345Y-11.0098
X10.9345Y-11.2598
X10.9345Y-11.3406
X10.9488Y-12.0118
X10.9685Y-12.7244
X10.9882Y-12.1811
X11.0217Y-12.8248
X11.0276Y-12.5433
X11.0472Y-12.563
X11.1305Y-12.6648
X11.1811Y-12.8268
X11.1811Y-13.0315
X11.2992Y-12.9606
X11.7047Y-10.7756
T2
X6.189Y-11.6732
X6.189Y-11.7323
X6.189Y-11.7815
X6.189Y-11.8307
X6.2382Y-11.6732
X6.2382Y-11.7323
X6.2382Y-11.7815
X6.2382Y-11.8307
X6.2874Y-11.6732
X6.2874Y-11.7323
X6.2874Y-11.7815
X6.2874Y-11.8307
X6.3366Y-11.6732
X6.3366Y-11.7323
X6.3366Y-11.7815
X6.3366Y-11.8307
X6.9685Y-11.5714
X6.9685Y-12.0787
X6.9882Y-11.5517
X6.9882Y-11.5911
X6.9882Y-12.0591
X6.9882Y-12.0984
X7.0079Y-11.5714
X7.0079Y-12.0787
X10.5906Y-12.624
X10.6161Y-12.6024
X10.6161Y-12.6457
X10.6417Y-12.624
X10.6624Y-12.0354
X10.685Y-11.998
X10.685Y-12.0728
X10.7077Y-12.0354
X11.1693Y-12.5866
X11.1693Y-12.6299
T3
X6.6417Y-11.4606
X9.6811Y-11.1495
X9.7224Y-11.2402
X9.7323Y-11.1811
X9.7421Y-10.9744
X9.752Y-11.0925
X9.7717Y-10.8366
X9.7815Y-11.2598
X9.7913Y-11.0236
X9.8012Y-10.7874
X9.8012Y-10.8957
X9.8012Y-10.9449
X9.8209Y-11.0728
X9.8307Y-11.2894
X9.8406Y-11.0039
X9.8701Y-11.3189
X9.8799Y-11.1122
T4
X5.682Y-12.3537
X5.682Y-12.4128
X5.682Y-12.4718
X5.682Y-12.5309
X5.682Y-12.5899
X5.682Y-12.649
X5.7805Y-12.3537
X5.7805Y-12.4128
X5.7805Y-12.4718
X5.7805Y-12.5309
X5.7805Y-12.5899
X5.7805Y-12.649
X5.8789Y-12.3537
X5.8789Y-12.4128
X5.8789Y-12.4718
X5.8789Y-12.5309
X5.8789Y-12.5899
X5.8789Y-12.649
X5.9773Y-12.3537
X5.9773Y-12.4128
X5.9773Y-12.4718
X5.9773Y-12.5309
X5.9773Y-12.5899
X5.9773Y-12.649
X6.0757Y-12.3537
X6.0757Y-12.4128
X6.0757Y-12.4718
X6.0757Y-12.5309
X6.0757Y-12.5899
X6.0757Y-12.649
X6.1742Y-12.3537
X6.1742Y-12.4128
X6.1742Y-12.4718
X6.1742Y-12.5309
X6.1742Y-12.5899
X6.1742Y-12.649
X6.2726Y-12.3537
X6.2726Y-12.4128
X6.2726Y-12.4718
X6.2726Y-12.5309
X6.2726Y-12.5899
X6.2726Y-12.649
X6.371Y-12.3537
X6.371Y-12.4128
X6.371Y-12.4718
X6.371Y-12.5309
X6.371Y-12.5899
X6.371Y-12.649
X6.4694Y-12.3537
X6.4694Y-12.4128
X6.4694Y-12.4718
X6.4694Y-12.5309
X6.4694Y-12.5899
X6.4694Y-12.649
X6.5679Y-12.3537
X6.5679Y-12.4128
X6.5679Y-12.4718
X6.5679Y-12.5309
X6.5679Y-12.5899
X6.5679Y-12.649
X7.682Y-12.3537
X7.682Y-12.4128
X7.682Y-12.4718
X7.682Y-12.5309
X7.682Y-12.5899
X7.682Y-12.649
X7.7805Y-12.3537
X7.7805Y-12.4128
X7.7805Y-12.4718
X7.7805Y-12.5309
X7.7805Y-12.5899
X7.7805Y-12.649
X7.8789Y-12.3537
X7.8789Y-12.4128
X7.8789Y-12.4718
X7.8789Y-12.5309
X7.8789Y-12.5899
X7.8789Y-12.649
X7.9773Y-12.3537
X7.9773Y-12.4128
X7.9773Y-12.4718
X7.9773Y-12.5309
X7.9773Y-12.5899
X7.9773Y-12.649
X8.0757Y-12.3537
X8.0757Y-12.4128
X8.0757Y-12.4718
X8.0757Y-12.5309
X8.0757Y-12.5899
X8.0757Y-12.649
X8.1742Y-12.3537
X8.1742Y-12.4128
X8.1742Y-12.4718
X8.1742Y-12.5309
X8.1742Y-12.5899
X8.1742Y-12.649
X8.2726Y-12.3537
X8.2726Y-12.4128
X8.2726Y-12.4718
X8.2726Y-12.5309
X8.2726Y-12.5899
X8.2726Y-12.649
X8.371Y-12.3537
X8.371Y-12.4128
X8.371Y-12.4718
X8.371Y-12.5309
X8.371Y-12.5899
X8.371Y-12.649
X8.4694Y-12.3537
X8.4694Y-12.4128
X8.4694Y-12.4718
X8.4694Y-12.5309
X8.4694Y-12.5899
X8.4694Y-12.649
X8.5679Y-12.3537
X8.5679Y-12.4128
X8.5679Y-12.4718
X8.5679Y-12.5309
X8.5679Y-12.5899
X8.5679Y-12.649
X8.682Y-12.3537
X8.682Y-12.4128
X8.682Y-12.4718
X8.682Y-12.5309
X8.682Y-12.5899
X8.682Y-12.649
X8.7805Y-12.3537
X8.7805Y-12.4128
X8.7805Y-12.4718
X8.7805Y-12.5309
X8.7805Y-12.5899
X8.7805Y-12.649
X8.8789Y-12.3537
X8.8789Y-12.4128
X8.8789Y-12.4718
X8.8789Y-12.5309
X8.8789Y-12.5899
X8.8789Y-12.649
X8.9773Y-12.3537
X8.9773Y-12.4128
X8.9773Y-12.4718
X8.9773Y-12.5309
X8.9773Y-12.5899
X8.9773Y-12.649
X9.0757Y-12.3537
X9.0757Y-12.4128
X9.0757Y-12.4718
X9.0757Y-12.5309
X9.0757Y-12.5899
X9.0757Y-12.649
X9.1742Y-12.3537
X9.1742Y-12.4128
X9.1742Y-12.4718
X9.1742Y-12.5309
X9.1742Y-12.5899
X9.1742Y-12.649
X9.2726Y-12.3537
X9.2726Y-12.4128
X9.2726Y-12.4718
X9.2726Y-12.5309
X9.2726Y-12.5899
X9.2726Y-12.649
X9.371Y-12.3537
X9.371Y-12.4128
X9.371Y-12.4718
X9.371Y-12.5309
X9.371Y-12.5899
X9.371Y-12.649
X9.4694Y-12.3537
X9.4694Y-12.4128
X9.4694Y-12.4718
X9.4694Y-12.5309
X9.4694Y-12.5899
X9.4694Y-12.649
X9.5679Y-12.3537
X9.5679Y-12.4128
X9.5679Y-12.4718
X9.5679Y-12.5309
X9.5679Y-12.5899
X9.5679Y-12.649
T5
X4.3795Y-10.4315
X4.3795Y-10.5315
X4.4795Y-10.4315
X4.4795Y-10.5315
X4.5795Y-10.4315
X4.5795Y-10.5315
X4.6795Y-10.4315
X4.6795Y-10.5315
X4.7795Y-10.4315
X4.7795Y-10.5315
X4.8795Y-10.4315
X4.8795Y-10.5315
X4.9795Y-10.4315
X4.9795Y-10.5315
X5.0795Y-10.4315
X5.0795Y-10.5315
X5.1795Y-10.4315
X5.1795Y-10.5315
X5.2795Y-10.4315
X5.2795Y-10.5315
X8.0378Y-10.4315
X8.0378Y-10.5315
X8.1378Y-10.4315
X8.1378Y-10.5315
X8.2378Y-10.4315
X8.2378Y-10.5315
X8.3378Y-10.4315
X8.3378Y-10.5315
X8.4378Y-10.4315
X8.4378Y-10.5315
X8.5378Y-10.4315
X8.5378Y-10.5315
X8.6378Y-10.4315
X8.6378Y-10.5315
X8.7378Y-10.4315
X8.7378Y-10.5315
X8.8378Y-10.4315
X8.8378Y-10.5315
X8.9378Y-10.4315
X8.9378Y-10.5315
T6
X4.337Y-11.3665
T7
X4.237Y-11.2665
X4.237Y-11.4665
X4.437Y-11.2665
X4.437Y-11.4665
T8
X11.3492Y-12.5886
X11.5657Y-12.5886
T9
X2.7079Y-10.389
X2.7079Y-12.989
X4.4079Y-12.989
X6.4858Y-10.389
X9.7079Y-10.389
X9.8679Y-12.989
X11.8079Y-10.389
X11.8079Y-12.989
T10
X4.0295Y-10.4913
X5.6295Y-10.4913
X7.6878Y-10.4913
X9.2878Y-10.4913
T11
X11.8531Y-12.5886
M30
