%TF.GenerationSoftware,KiCad,Pcbnew,9.0.7*%
%TF.CreationDate,2026-06-10T11:41:42-04:00*%
%TF.ProjectId,acmi2-afe,61636d69-322d-4616-9665-2e6b69636164,rev?*%
%TF.SameCoordinates,Original*%
%TF.FileFunction,Soldermask,Top*%
%TF.FilePolarity,Negative*%
%FSLAX46Y46*%
G04 Gerber Fmt 4.6, Leading zero omitted, Abs format (unit mm)*
G04 Created by KiCad (PCBNEW 9.0.7) date 2026-06-10 11:41:42*
%MOMM*%
%LPD*%
G01*
G04 APERTURE LIST*
G04 Aperture macros list*
%AMRoundRect*
0 Rectangle with rounded corners*
0 $1 Rounding radius*
0 $2 $3 $4 $5 $6 $7 $8 $9 X,Y pos of 4 corners*
0 Add a 4 corners polygon primitive as box body*
4,1,4,$2,$3,$4,$5,$6,$7,$8,$9,$2,$3,0*
0 Add four circle primitives for the rounded corners*
1,1,$1+$1,$2,$3*
1,1,$1+$1,$4,$5*
1,1,$1+$1,$6,$7*
1,1,$1+$1,$8,$9*
0 Add four rect primitives between the rounded corners*
20,1,$1+$1,$2,$3,$4,$5,0*
20,1,$1+$1,$4,$5,$6,$7,0*
20,1,$1+$1,$6,$7,$8,$9,0*
20,1,$1+$1,$8,$9,$2,$3,0*%
%AMFreePoly0*
4,1,17,0.275001,0.550001,0.275001,-0.174999,0.225001,-0.225001,-0.499999,-0.224999,-0.550001,-0.174999,-0.549999,-0.024999,-0.499999,0.025001,-0.275000,0.025001,-0.225001,0.075000,-0.225001,0.225000,-0.175001,0.275000,-0.025001,0.275000,0.024999,0.325000,0.024999,0.550001,0.074999,0.599998,0.224999,0.599998,0.275001,0.550001,0.275001,0.550001,$1*%
%AMFreePoly1*
4,1,17,0.275001,0.174999,0.275001,-0.550001,0.224999,-0.599998,0.074999,-0.599998,0.024999,-0.550001,0.025001,-0.325000,-0.025001,-0.275000,-0.175001,-0.275000,-0.225001,-0.225000,-0.224998,-0.075000,-0.275000,-0.025001,-0.499999,-0.025001,-0.549999,0.024999,-0.550001,0.174999,-0.499999,0.224999,0.225001,0.224999,0.275001,0.174999,0.275001,0.174999,$1*%
%AMFreePoly2*
4,1,17,0.499999,0.224999,0.550001,0.174999,0.549999,0.024999,0.499999,-0.025001,0.275000,-0.025001,0.224998,-0.075000,0.225001,-0.225000,0.175001,-0.275000,0.024998,-0.275000,-0.025001,-0.325000,-0.024999,-0.550001,-0.074999,-0.599998,-0.225001,-0.599998,-0.275001,-0.550001,-0.275001,0.174999,-0.225001,0.225001,0.499999,0.224999,0.499999,0.224999,$1*%
%AMFreePoly3*
4,1,17,-0.024999,0.550001,-0.025001,0.325000,0.024998,0.275000,0.175001,0.275000,0.225001,0.225000,0.224998,0.075000,0.275000,0.025001,0.499999,0.025001,0.549999,-0.024999,0.550001,-0.174999,0.499999,-0.224999,-0.225001,-0.225001,-0.275001,-0.175002,-0.275001,0.550001,-0.225001,0.599998,-0.074999,0.599998,-0.024999,0.550001,-0.024999,0.550001,$1*%
G04 Aperture macros list end*
%ADD10C,0.150000*%
%ADD11C,0.010000*%
%ADD12C,1.226200*%
%ADD13C,1.576200*%
%ADD14RoundRect,0.250000X-0.262500X-0.450000X0.262500X-0.450000X0.262500X0.450000X-0.262500X0.450000X0*%
%ADD15RoundRect,0.250000X-0.250000X-0.475000X0.250000X-0.475000X0.250000X0.475000X-0.250000X0.475000X0*%
%ADD16C,2.050000*%
%ADD17C,2.250000*%
%ADD18RoundRect,0.250000X0.262500X0.450000X-0.262500X0.450000X-0.262500X-0.450000X0.262500X-0.450000X0*%
%ADD19RoundRect,0.250000X0.450000X-0.262500X0.450000X0.262500X-0.450000X0.262500X-0.450000X-0.262500X0*%
%ADD20RoundRect,0.250000X0.475000X-0.250000X0.475000X0.250000X-0.475000X0.250000X-0.475000X-0.250000X0*%
%ADD21RoundRect,0.243750X0.243750X0.456250X-0.243750X0.456250X-0.243750X-0.456250X0.243750X-0.456250X0*%
%ADD22RoundRect,0.222222X-1.552778X-0.577778X1.552778X-0.577778X1.552778X0.577778X-1.552778X0.577778X0*%
%ADD23RoundRect,0.250000X-0.475000X0.250000X-0.475000X-0.250000X0.475000X-0.250000X0.475000X0.250000X0*%
%ADD24RoundRect,0.102000X-0.990600X-0.279400X0.990600X-0.279400X0.990600X0.279400X-0.990600X0.279400X0*%
%ADD25C,7.500000*%
%ADD26O,1.084000X0.464000*%
%ADD27O,0.464000X1.084000*%
%ADD28C,0.704000*%
%ADD29RoundRect,0.102000X-1.025000X-1.025000X1.025000X-1.025000X1.025000X1.025000X-1.025000X1.025000X0*%
%ADD30RoundRect,0.102000X-0.800000X0.800000X-0.800000X-0.800000X0.800000X-0.800000X0.800000X0.800000X0*%
%ADD31RoundRect,0.243750X-0.456250X0.243750X-0.456250X-0.243750X0.456250X-0.243750X0.456250X0.243750X0*%
%ADD32R,0.812800X0.889000*%
%ADD33FreePoly0,270.000000*%
%ADD34R,0.249999X0.700001*%
%ADD35FreePoly1,270.000000*%
%ADD36R,0.700001X0.249999*%
%ADD37FreePoly2,270.000000*%
%ADD38FreePoly3,270.000000*%
%ADD39C,0.500000*%
%ADD40R,1.799999X1.599999*%
%ADD41RoundRect,0.125000X-0.487500X-0.125000X0.487500X-0.125000X0.487500X0.125000X-0.487500X0.125000X0*%
%ADD42RoundRect,0.250000X0.250000X0.475000X-0.250000X0.475000X-0.250000X-0.475000X0.250000X-0.475000X0*%
%ADD43C,2.690000*%
%ADD44RoundRect,0.102000X-0.660000X-0.660000X0.660000X-0.660000X0.660000X0.660000X-0.660000X0.660000X0*%
%ADD45C,1.524000*%
%ADD46RoundRect,0.060500X-0.826500X-0.181500X0.826500X-0.181500X0.826500X0.181500X-0.826500X0.181500X0*%
%ADD47R,0.249200X0.804800*%
%ADD48R,0.804800X0.249200*%
%ADD49R,5.250000X5.250000*%
%ADD50RoundRect,0.102000X-0.500000X-0.500000X0.500000X-0.500000X0.500000X0.500000X-0.500000X0.500000X0*%
%ADD51C,1.204000*%
%ADD52C,3.000000*%
%ADD53RoundRect,0.102000X-1.590000X0.635000X-1.590000X-0.635000X1.590000X-0.635000X1.590000X0.635000X0*%
%ADD54RoundRect,0.250000X-0.450000X0.262500X-0.450000X-0.262500X0.450000X-0.262500X0.450000X0.262500X0*%
%TA.AperFunction,Profile*%
%ADD55C,0.050000*%
%TD*%
G04 APERTURE END LIST*
D10*
G36*
X171799227Y-366872369D02*
G01*
X171986805Y-366855882D01*
X172000406Y-366931180D01*
X172021318Y-366993349D01*
X172048721Y-367044468D01*
X172085517Y-367088831D01*
X172135102Y-367128558D01*
X172199846Y-367163628D01*
X172269511Y-367188452D01*
X172346014Y-367203768D01*
X172430472Y-367209057D01*
X172540043Y-367200157D01*
X172631240Y-367175169D01*
X172686547Y-367148481D01*
X172729053Y-367117453D01*
X172760841Y-367082204D01*
X172792896Y-367020015D01*
X172803431Y-366953152D01*
X172793023Y-366886321D01*
X172762398Y-366829412D01*
X172711741Y-366783122D01*
X172627210Y-366740478D01*
X172548327Y-366715369D01*
X172359764Y-366667021D01*
X172169225Y-366613783D01*
X172069787Y-366572957D01*
X172001927Y-366530628D01*
X171949167Y-366483922D01*
X171909411Y-366432732D01*
X171880219Y-366374994D01*
X171862643Y-366312891D01*
X171856654Y-366245245D01*
X171863778Y-366171038D01*
X171885059Y-366100373D01*
X171921134Y-366032021D01*
X171969792Y-365972189D01*
X172031959Y-365922109D01*
X172109720Y-365881445D01*
X172193815Y-365853327D01*
X172285326Y-365836020D01*
X172385410Y-365830062D01*
X172495713Y-365836446D01*
X172593325Y-365854717D01*
X172679966Y-365883918D01*
X172759921Y-365926353D01*
X172824677Y-365978962D01*
X172876154Y-366042187D01*
X172914676Y-366114376D01*
X172939283Y-366192757D01*
X172949977Y-366278767D01*
X172759376Y-366293147D01*
X172739777Y-366202184D01*
X172704866Y-366131702D01*
X172655328Y-366077450D01*
X172592103Y-366039127D01*
X172507011Y-366013860D01*
X172393561Y-366004452D01*
X172274509Y-366013334D01*
X172189730Y-366036559D01*
X172130695Y-366070580D01*
X172083826Y-366119170D01*
X172057163Y-366171644D01*
X172048263Y-366230040D01*
X172054915Y-366281412D01*
X172074206Y-366325209D01*
X172106698Y-366363306D01*
X172150685Y-366391505D01*
X172242038Y-366426965D01*
X172406384Y-366470467D01*
X172628937Y-366527206D01*
X172738859Y-366566271D01*
X172821999Y-366612428D01*
X172885510Y-366663553D01*
X172932483Y-366719595D01*
X172966965Y-366783919D01*
X172987862Y-366854638D01*
X172995040Y-366933368D01*
X172987493Y-367011385D01*
X172964865Y-367086339D01*
X172926346Y-367159507D01*
X172874883Y-367224025D01*
X172809789Y-367278913D01*
X172729151Y-367324554D01*
X172641646Y-367356757D01*
X172545621Y-367376599D01*
X172439631Y-367383447D01*
X172304461Y-367376069D01*
X172191708Y-367355531D01*
X172097905Y-367323729D01*
X172011815Y-367276594D01*
X171940309Y-367216930D01*
X171881750Y-367143936D01*
X171837963Y-367060947D01*
X171810457Y-366970987D01*
X171799227Y-366872369D01*
G37*
G36*
X174028357Y-365836486D02*
G01*
X174124563Y-365855327D01*
X174214888Y-365886267D01*
X174300212Y-365929439D01*
X174378888Y-365984072D01*
X174447097Y-366047995D01*
X174505622Y-366121785D01*
X174554836Y-366206410D01*
X174602774Y-366327615D01*
X174632291Y-366461172D01*
X174642488Y-366609319D01*
X174631787Y-366759294D01*
X174600765Y-366894719D01*
X174550256Y-367017907D01*
X174498571Y-367103662D01*
X174438095Y-367177019D01*
X174368504Y-367239147D01*
X174289038Y-367290757D01*
X174173381Y-367342243D01*
X174052343Y-367373051D01*
X173924231Y-367383447D01*
X173819042Y-367376797D01*
X173721507Y-367357341D01*
X173630493Y-367325460D01*
X173545044Y-367281048D01*
X173466327Y-367224941D01*
X173398379Y-367160060D01*
X173340397Y-367085881D01*
X173291978Y-367001512D01*
X173244151Y-366880992D01*
X173215577Y-366756521D01*
X173206171Y-366629378D01*
X173410863Y-366629378D01*
X173421029Y-366764995D01*
X173449675Y-366879375D01*
X173495050Y-366976191D01*
X173556859Y-367058299D01*
X173634965Y-367127123D01*
X173720826Y-367175478D01*
X173816106Y-367204814D01*
X173923224Y-367214919D01*
X174032455Y-367204643D01*
X174128846Y-367174912D01*
X174214974Y-367126073D01*
X174292610Y-367056741D01*
X174353285Y-366974121D01*
X174398414Y-366874231D01*
X174427260Y-366753579D01*
X174437599Y-366607762D01*
X174430214Y-366486445D01*
X174409154Y-366380184D01*
X174375592Y-366286827D01*
X174327140Y-366201151D01*
X174266928Y-366130843D01*
X174194242Y-366074153D01*
X174111900Y-366032360D01*
X174023139Y-366007177D01*
X173926246Y-365998590D01*
X173823468Y-366007849D01*
X173729860Y-366034953D01*
X173643500Y-366079885D01*
X173562996Y-366143945D01*
X173512576Y-366203425D01*
X173471168Y-366278339D01*
X173439305Y-366371695D01*
X173418444Y-366487251D01*
X173410863Y-366629378D01*
X173206171Y-366629378D01*
X173205974Y-366626721D01*
X173215052Y-366475098D01*
X173240841Y-366343387D01*
X173281750Y-366228742D01*
X173337017Y-366128753D01*
X173406742Y-366041546D01*
X173491373Y-365965702D01*
X173584145Y-365907210D01*
X173686216Y-365865034D01*
X173799232Y-365839051D01*
X173925239Y-365830062D01*
X174028357Y-365836486D01*
G37*
G36*
X174890700Y-367360000D02*
G01*
X174890700Y-365853510D01*
X175089544Y-365853510D01*
X175089544Y-367185610D01*
X175829325Y-367185610D01*
X175829325Y-367360000D01*
X174890700Y-367360000D01*
G37*
G36*
X176747703Y-365859797D02*
G01*
X176850291Y-365875125D01*
X176933593Y-365900905D01*
X177006602Y-365936890D01*
X177070659Y-365983019D01*
X177142568Y-366055593D01*
X177201677Y-366140833D01*
X177248346Y-366240390D01*
X177280329Y-366346432D01*
X177300347Y-366465200D01*
X177307330Y-366598511D01*
X177302542Y-366712574D01*
X177288898Y-366813502D01*
X177267305Y-366902777D01*
X177220002Y-367027524D01*
X177164815Y-367122137D01*
X177097856Y-367201248D01*
X177028069Y-367258791D01*
X176948244Y-367301684D01*
X176848734Y-367334354D01*
X176739597Y-367353193D01*
X176607483Y-367360000D01*
X176065447Y-367360000D01*
X176065447Y-367185610D01*
X176264200Y-367185610D01*
X176584952Y-367185610D01*
X176725328Y-367177674D01*
X176818051Y-367157766D01*
X176895892Y-367123042D01*
X176952781Y-367079181D01*
X176994939Y-367028330D01*
X177031756Y-366965093D01*
X177062874Y-366887390D01*
X177083883Y-366806155D01*
X177097477Y-366709626D01*
X177102350Y-366595397D01*
X177096526Y-366473241D01*
X177080540Y-366374007D01*
X177056250Y-366294015D01*
X177024955Y-366230040D01*
X176967180Y-366151454D01*
X176904752Y-366095605D01*
X176837010Y-366058948D01*
X176782099Y-366043479D01*
X176699307Y-366032285D01*
X176579822Y-366027899D01*
X176264200Y-366027899D01*
X176264200Y-367185610D01*
X176065447Y-367185610D01*
X176065447Y-365853510D01*
X176582845Y-365853510D01*
X176747703Y-365859797D01*
G37*
G36*
X177584760Y-367360000D02*
G01*
X177584760Y-365853510D01*
X178670938Y-365853510D01*
X178670938Y-366027899D01*
X177783604Y-366027899D01*
X177783604Y-366492449D01*
X178614610Y-366492449D01*
X178614610Y-366666838D01*
X177783604Y-366666838D01*
X177783604Y-367185610D01*
X178705834Y-367185610D01*
X178705834Y-367360000D01*
X177584760Y-367360000D01*
G37*
G36*
X179784127Y-365858970D02*
G01*
X179883447Y-365873287D01*
X179954679Y-365893810D01*
X180019248Y-365927247D01*
X180074571Y-365974169D01*
X180121649Y-366036142D01*
X180156337Y-366106312D01*
X180177145Y-366180981D01*
X180184206Y-366261456D01*
X180177480Y-366339327D01*
X180157958Y-366409033D01*
X180125922Y-366472122D01*
X180080708Y-366529726D01*
X180026192Y-366576363D01*
X179956792Y-366615499D01*
X179869609Y-366646613D01*
X179761055Y-366668395D01*
X179834043Y-366708796D01*
X179880856Y-366744050D01*
X179963611Y-366832531D01*
X180045903Y-366946283D01*
X180307121Y-367360000D01*
X180057169Y-367360000D01*
X179858325Y-367043461D01*
X179714893Y-366833900D01*
X179657862Y-366768478D01*
X179613960Y-366732143D01*
X179568350Y-366707221D01*
X179523285Y-366691659D01*
X179412643Y-366684424D01*
X179182108Y-366684424D01*
X179182108Y-367360000D01*
X178983264Y-367360000D01*
X178983264Y-366515896D01*
X179182108Y-366515896D01*
X179609380Y-366515896D01*
X179737958Y-366507934D01*
X179822513Y-366487961D01*
X179870583Y-366464966D01*
X179909062Y-366435173D01*
X179939291Y-366398293D01*
X179969282Y-366333862D01*
X179979225Y-366264387D01*
X179970431Y-366197284D01*
X179944906Y-366140068D01*
X179901831Y-366090273D01*
X179846014Y-366054851D01*
X179767121Y-366031058D01*
X179657557Y-366022037D01*
X179182108Y-366022037D01*
X179182108Y-366515896D01*
X178983264Y-366515896D01*
X178983264Y-365853510D01*
X179649314Y-365853510D01*
X179784127Y-365858970D01*
G37*
G36*
X181072639Y-367360000D02*
G01*
X181072639Y-365853510D01*
X181371776Y-365853510D01*
X181727332Y-366920637D01*
X181799048Y-367143753D01*
X181879007Y-366902136D01*
X182238685Y-365853510D01*
X182506131Y-365853510D01*
X182506131Y-367360000D01*
X182314522Y-367360000D01*
X182314522Y-366098424D01*
X181877999Y-367360000D01*
X181698664Y-367360000D01*
X181264248Y-366076900D01*
X181264248Y-367360000D01*
X181072639Y-367360000D01*
G37*
G36*
X184067942Y-367360000D02*
G01*
X183841437Y-367360000D01*
X183666223Y-366902777D01*
X183038092Y-366902777D01*
X182873136Y-367360000D01*
X182662019Y-367360000D01*
X182899975Y-366738646D01*
X183095519Y-366738646D01*
X183604766Y-366738646D01*
X183447962Y-366322731D01*
X183382443Y-366141235D01*
X183341441Y-366011321D01*
X183307011Y-366154743D01*
X183260475Y-366298184D01*
X183095519Y-366738646D01*
X182899975Y-366738646D01*
X183238951Y-365853510D01*
X183453091Y-365853510D01*
X184067942Y-367360000D01*
G37*
G36*
X184158892Y-366872369D02*
G01*
X184346470Y-366855882D01*
X184360071Y-366931180D01*
X184380983Y-366993349D01*
X184408386Y-367044468D01*
X184445182Y-367088831D01*
X184494767Y-367128558D01*
X184559511Y-367163628D01*
X184629176Y-367188452D01*
X184705679Y-367203768D01*
X184790137Y-367209057D01*
X184899708Y-367200157D01*
X184990905Y-367175169D01*
X185046212Y-367148481D01*
X185088718Y-367117453D01*
X185120506Y-367082204D01*
X185152561Y-367020015D01*
X185163096Y-366953152D01*
X185152688Y-366886321D01*
X185122063Y-366829412D01*
X185071406Y-366783122D01*
X184986875Y-366740478D01*
X184907992Y-366715369D01*
X184719429Y-366667021D01*
X184528890Y-366613783D01*
X184429452Y-366572957D01*
X184361592Y-366530628D01*
X184308832Y-366483922D01*
X184269076Y-366432732D01*
X184239884Y-366374994D01*
X184222308Y-366312891D01*
X184216319Y-366245245D01*
X184223443Y-366171038D01*
X184244724Y-366100373D01*
X184280799Y-366032021D01*
X184329457Y-365972189D01*
X184391624Y-365922109D01*
X184469385Y-365881445D01*
X184553480Y-365853327D01*
X184644991Y-365836020D01*
X184745075Y-365830062D01*
X184855378Y-365836446D01*
X184952990Y-365854717D01*
X185039631Y-365883918D01*
X185119587Y-365926353D01*
X185184342Y-365978962D01*
X185235820Y-366042187D01*
X185274341Y-366114376D01*
X185298948Y-366192757D01*
X185309642Y-366278767D01*
X185119041Y-366293147D01*
X185099442Y-366202184D01*
X185064531Y-366131702D01*
X185014993Y-366077450D01*
X184951768Y-366039127D01*
X184866676Y-366013860D01*
X184753226Y-366004452D01*
X184634174Y-366013334D01*
X184549395Y-366036559D01*
X184490360Y-366070580D01*
X184443492Y-366119170D01*
X184416828Y-366171644D01*
X184407928Y-366230040D01*
X184414580Y-366281412D01*
X184433871Y-366325209D01*
X184466363Y-366363306D01*
X184510350Y-366391505D01*
X184601703Y-366426965D01*
X184766049Y-366470467D01*
X184988602Y-366527206D01*
X185098525Y-366566271D01*
X185181664Y-366612428D01*
X185245175Y-366663553D01*
X185292148Y-366719595D01*
X185326630Y-366783919D01*
X185347527Y-366854638D01*
X185354705Y-366933368D01*
X185347158Y-367011385D01*
X185324530Y-367086339D01*
X185286011Y-367159507D01*
X185234548Y-367224025D01*
X185169454Y-367278913D01*
X185088816Y-367324554D01*
X185001311Y-367356757D01*
X184905286Y-367376599D01*
X184799296Y-367383447D01*
X184664126Y-367376069D01*
X184551373Y-367355531D01*
X184457570Y-367323729D01*
X184371480Y-367276594D01*
X184299974Y-367216930D01*
X184241415Y-367143936D01*
X184197628Y-367060947D01*
X184170122Y-366970987D01*
X184158892Y-366872369D01*
G37*
G36*
X185617846Y-367360000D02*
G01*
X185617846Y-365853510D01*
X185816690Y-365853510D01*
X185816690Y-366601534D01*
X186562608Y-365853510D01*
X186832069Y-365853510D01*
X186201922Y-366464147D01*
X186859729Y-367360000D01*
X186597412Y-367360000D01*
X186062612Y-366597412D01*
X185816690Y-366838297D01*
X185816690Y-367360000D01*
X185617846Y-367360000D01*
G37*
G36*
X187952960Y-367360000D02*
G01*
X187952960Y-366027899D01*
X187458002Y-366027899D01*
X187458002Y-365853510D01*
X188648686Y-365853510D01*
X188648686Y-366027899D01*
X188151713Y-366027899D01*
X188151713Y-367360000D01*
X187952960Y-367360000D01*
G37*
G36*
X189576857Y-365836486D02*
G01*
X189673063Y-365855327D01*
X189763388Y-365886267D01*
X189848712Y-365929439D01*
X189927387Y-365984072D01*
X189995597Y-366047995D01*
X190054122Y-366121785D01*
X190103335Y-366206410D01*
X190151274Y-366327615D01*
X190180791Y-366461172D01*
X190190988Y-366609319D01*
X190180287Y-366759294D01*
X190149264Y-366894719D01*
X190098756Y-367017907D01*
X190047071Y-367103662D01*
X189986594Y-367177019D01*
X189917003Y-367239147D01*
X189837538Y-367290757D01*
X189721881Y-367342243D01*
X189600843Y-367373051D01*
X189472731Y-367383447D01*
X189367542Y-367376797D01*
X189270006Y-367357341D01*
X189178993Y-367325460D01*
X189093544Y-367281048D01*
X189014827Y-367224941D01*
X188946878Y-367160060D01*
X188888896Y-367085881D01*
X188840478Y-367001512D01*
X188792651Y-366880992D01*
X188764076Y-366756521D01*
X188754671Y-366629378D01*
X188959363Y-366629378D01*
X188969529Y-366764995D01*
X188998175Y-366879375D01*
X189043550Y-366976191D01*
X189105359Y-367058299D01*
X189183465Y-367127123D01*
X189269326Y-367175478D01*
X189364606Y-367204814D01*
X189471723Y-367214919D01*
X189580954Y-367204643D01*
X189677345Y-367174912D01*
X189763474Y-367126073D01*
X189841110Y-367056741D01*
X189901785Y-366974121D01*
X189946913Y-366874231D01*
X189975760Y-366753579D01*
X189986099Y-366607762D01*
X189978713Y-366486445D01*
X189957654Y-366380184D01*
X189924092Y-366286827D01*
X189875639Y-366201151D01*
X189815428Y-366130843D01*
X189742741Y-366074153D01*
X189660399Y-366032360D01*
X189571639Y-366007177D01*
X189474746Y-365998590D01*
X189371968Y-366007849D01*
X189278360Y-366034953D01*
X189191999Y-366079885D01*
X189111496Y-366143945D01*
X189061075Y-366203425D01*
X189019667Y-366278339D01*
X188987805Y-366371695D01*
X188966944Y-366487251D01*
X188959363Y-366629378D01*
X188754671Y-366629378D01*
X188754474Y-366626721D01*
X188763552Y-366475098D01*
X188789340Y-366343387D01*
X188830250Y-366228742D01*
X188885517Y-366128753D01*
X188955241Y-366041546D01*
X189039872Y-365965702D01*
X189132644Y-365907210D01*
X189234716Y-365865034D01*
X189347731Y-365839051D01*
X189473738Y-365830062D01*
X189576857Y-365836486D01*
G37*
G36*
X191154820Y-365857663D02*
G01*
X191242545Y-365867798D01*
X191346688Y-365895455D01*
X191428017Y-365937865D01*
X191473813Y-365976067D01*
X191513877Y-366023875D01*
X191548367Y-366082579D01*
X191573501Y-366145941D01*
X191588770Y-366213779D01*
X191593980Y-366287010D01*
X191586050Y-366380738D01*
X191563029Y-366464806D01*
X191525274Y-366541012D01*
X191472072Y-366610693D01*
X191422318Y-366653700D01*
X191357161Y-366689549D01*
X191273221Y-366717574D01*
X191166297Y-366736195D01*
X191031519Y-366743042D01*
X190646195Y-366743042D01*
X190646195Y-367360000D01*
X190447443Y-367360000D01*
X190447443Y-366568653D01*
X190646195Y-366568653D01*
X191034542Y-366568653D01*
X191133981Y-366562953D01*
X191209653Y-366547712D01*
X191266369Y-366525128D01*
X191308124Y-366496479D01*
X191352154Y-366443372D01*
X191379365Y-366376934D01*
X191389091Y-366293147D01*
X191383512Y-366231342D01*
X191367503Y-366177669D01*
X191341463Y-366130573D01*
X191306036Y-366090331D01*
X191264516Y-366060857D01*
X191215892Y-366041271D01*
X191155127Y-366032082D01*
X191030420Y-366027899D01*
X190646195Y-366027899D01*
X190646195Y-366568653D01*
X190447443Y-366568653D01*
X190447443Y-365853510D01*
X191014025Y-365853510D01*
X191154820Y-365857663D01*
G37*
G36*
X176191201Y-371912369D02*
G01*
X176378779Y-371895882D01*
X176392380Y-371971180D01*
X176413292Y-372033349D01*
X176440695Y-372084468D01*
X176477491Y-372128831D01*
X176527076Y-372168558D01*
X176591820Y-372203628D01*
X176661485Y-372228452D01*
X176737988Y-372243768D01*
X176822446Y-372249057D01*
X176932017Y-372240157D01*
X177023214Y-372215169D01*
X177078521Y-372188481D01*
X177121027Y-372157453D01*
X177152815Y-372122204D01*
X177184870Y-372060015D01*
X177195405Y-371993152D01*
X177184997Y-371926321D01*
X177154372Y-371869412D01*
X177103715Y-371823122D01*
X177019184Y-371780478D01*
X176940301Y-371755369D01*
X176751738Y-371707021D01*
X176561199Y-371653783D01*
X176461761Y-371612957D01*
X176393901Y-371570628D01*
X176341141Y-371523922D01*
X176301385Y-371472732D01*
X176272193Y-371414994D01*
X176254617Y-371352891D01*
X176248628Y-371285245D01*
X176255752Y-371211038D01*
X176277033Y-371140373D01*
X176313108Y-371072021D01*
X176361766Y-371012189D01*
X176423933Y-370962109D01*
X176501694Y-370921445D01*
X176585789Y-370893327D01*
X176677300Y-370876020D01*
X176777384Y-370870062D01*
X176887687Y-370876446D01*
X176985299Y-370894717D01*
X177071940Y-370923918D01*
X177151895Y-370966353D01*
X177216651Y-371018962D01*
X177268128Y-371082187D01*
X177306650Y-371154376D01*
X177331257Y-371232757D01*
X177341951Y-371318767D01*
X177151350Y-371333147D01*
X177131751Y-371242184D01*
X177096840Y-371171702D01*
X177047302Y-371117450D01*
X176984077Y-371079127D01*
X176898985Y-371053860D01*
X176785535Y-371044452D01*
X176666483Y-371053334D01*
X176581704Y-371076559D01*
X176522669Y-371110580D01*
X176475800Y-371159170D01*
X176449137Y-371211644D01*
X176440237Y-371270040D01*
X176446889Y-371321412D01*
X176466180Y-371365209D01*
X176498672Y-371403306D01*
X176542659Y-371431505D01*
X176634012Y-371466965D01*
X176798358Y-371510467D01*
X177020911Y-371567206D01*
X177130833Y-371606271D01*
X177213973Y-371652428D01*
X177277484Y-371703553D01*
X177324457Y-371759595D01*
X177358939Y-371823919D01*
X177379836Y-371894638D01*
X177387014Y-371973368D01*
X177379467Y-372051385D01*
X177356839Y-372126339D01*
X177318320Y-372199507D01*
X177266857Y-372264025D01*
X177201763Y-372318913D01*
X177121125Y-372364554D01*
X177033620Y-372396757D01*
X176937595Y-372416599D01*
X176831605Y-372423447D01*
X176696435Y-372416069D01*
X176583682Y-372395531D01*
X176489879Y-372363729D01*
X176403789Y-372316594D01*
X176332283Y-372256930D01*
X176273724Y-372183936D01*
X176229937Y-372100947D01*
X176202431Y-372010987D01*
X176191201Y-371912369D01*
G37*
G36*
X177650155Y-372400000D02*
G01*
X177650155Y-370893510D01*
X177848999Y-370893510D01*
X177848999Y-371641534D01*
X178594917Y-370893510D01*
X178864378Y-370893510D01*
X178234231Y-371504147D01*
X178892038Y-372400000D01*
X178629721Y-372400000D01*
X178094921Y-371637412D01*
X177848999Y-371878297D01*
X177848999Y-372400000D01*
X177650155Y-372400000D01*
G37*
G36*
X178962563Y-371948639D02*
G01*
X178962563Y-371761060D01*
X179529237Y-371761060D01*
X179529237Y-371948639D01*
X178962563Y-371948639D01*
G37*
G36*
X180651411Y-372225610D02*
G01*
X180651411Y-372400000D01*
X179658564Y-372400000D01*
X179662907Y-372334696D01*
X179680088Y-372272138D01*
X179728050Y-372173891D01*
X179801446Y-372072745D01*
X179896500Y-371973552D01*
X180042788Y-371845690D01*
X180204869Y-371705475D01*
X180310464Y-371601458D01*
X180373707Y-371526038D01*
X180423833Y-371444216D01*
X180451226Y-371370613D01*
X180459802Y-371303013D01*
X180450954Y-371232931D01*
X180425104Y-371171775D01*
X180381400Y-371117267D01*
X180325114Y-371075845D01*
X180258018Y-371050460D01*
X180177061Y-371041521D01*
X180091557Y-371051078D01*
X180021641Y-371078091D01*
X179963837Y-371122029D01*
X179920575Y-371180253D01*
X179893239Y-371253145D01*
X179882962Y-371344870D01*
X179693368Y-371325270D01*
X179711144Y-371219615D01*
X179742046Y-371132028D01*
X179784967Y-371059468D01*
X179839914Y-370999664D01*
X179906135Y-370952218D01*
X179983564Y-370917379D01*
X180074320Y-370895420D01*
X180181091Y-370887648D01*
X180288499Y-370895969D01*
X180379553Y-370919491D01*
X180457113Y-370956920D01*
X180523367Y-371008182D01*
X180578792Y-371072420D01*
X180617711Y-371142630D01*
X180641290Y-371220120D01*
X180649396Y-371306769D01*
X180640275Y-371396078D01*
X180612485Y-371484913D01*
X180565862Y-371571077D01*
X180490027Y-371669286D01*
X180388225Y-371772733D01*
X180205729Y-371934900D01*
X180055313Y-372065210D01*
X179992505Y-372125135D01*
X179948789Y-372176166D01*
X179914744Y-372225610D01*
X180651411Y-372225610D01*
G37*
G36*
X181467224Y-370894337D02*
G01*
X181543733Y-370913458D01*
X181610802Y-370944213D01*
X181669904Y-370986658D01*
X181719847Y-371039599D01*
X181759061Y-371101802D01*
X181787833Y-371174695D01*
X181805642Y-371260240D01*
X181622276Y-371274528D01*
X181590168Y-371177098D01*
X181552575Y-371119190D01*
X181498636Y-371075930D01*
X181437912Y-371050304D01*
X181368111Y-371041521D01*
X181310985Y-371047113D01*
X181259849Y-371063412D01*
X181213414Y-371090430D01*
X181160968Y-371137394D01*
X181115161Y-371198163D01*
X181076027Y-371275078D01*
X181050089Y-371357789D01*
X181031726Y-371470477D01*
X181023820Y-371620651D01*
X181072605Y-371557720D01*
X181126746Y-371508056D01*
X181186669Y-371470259D01*
X181252326Y-371442805D01*
X181319384Y-371426518D01*
X181388627Y-371421074D01*
X181478004Y-371429695D01*
X181558996Y-371454936D01*
X181633465Y-371496924D01*
X181702693Y-371557178D01*
X181758545Y-371628808D01*
X181798729Y-371709984D01*
X181823606Y-371802531D01*
X181832295Y-371908888D01*
X181825401Y-372001950D01*
X181805057Y-372089416D01*
X181771295Y-372172396D01*
X181724736Y-372248341D01*
X181669071Y-372309934D01*
X181603775Y-372358784D01*
X181530406Y-372394395D01*
X181450329Y-372416026D01*
X181361974Y-372423447D01*
X181250167Y-372412454D01*
X181151940Y-372380656D01*
X181064472Y-372328302D01*
X180985902Y-372253637D01*
X180938578Y-372185999D01*
X180898991Y-372100211D01*
X180868137Y-371992607D01*
X180855371Y-371908705D01*
X181052488Y-371908705D01*
X181062589Y-372001922D01*
X181092971Y-372091246D01*
X181124287Y-372145764D01*
X181161926Y-372189562D01*
X181206178Y-372223961D01*
X181281449Y-372258377D01*
X181358860Y-372269574D01*
X181432646Y-372259242D01*
X181498800Y-372228524D01*
X181559720Y-372175327D01*
X181604950Y-372107860D01*
X181633458Y-372023908D01*
X181643709Y-371918963D01*
X181633594Y-371818240D01*
X181605460Y-371737898D01*
X181560727Y-371673499D01*
X181500552Y-371623589D01*
X181431819Y-371593947D01*
X181351716Y-371583740D01*
X181272139Y-371593831D01*
X181202276Y-371623392D01*
X181139591Y-371673499D01*
X181092002Y-371738002D01*
X181062791Y-371815208D01*
X181052488Y-371908705D01*
X180855371Y-371908705D01*
X180847784Y-371858846D01*
X180840363Y-371694016D01*
X180848492Y-371510062D01*
X180870868Y-371359492D01*
X180904921Y-371237203D01*
X180948763Y-371138666D01*
X181001289Y-371060022D01*
X181061477Y-370997852D01*
X181128242Y-370950245D01*
X181202478Y-370916039D01*
X181285584Y-370894962D01*
X181379377Y-370887648D01*
X181467224Y-370894337D01*
G37*
G36*
X182584326Y-370893373D02*
G01*
X182654515Y-370909824D01*
X182716973Y-370936374D01*
X182773885Y-370973361D01*
X182823940Y-371019920D01*
X182867640Y-371076967D01*
X182919356Y-371175636D01*
X182960880Y-371300632D01*
X182985092Y-371443932D01*
X182994677Y-371656097D01*
X182987668Y-371833055D01*
X182968678Y-371973444D01*
X182940363Y-372083369D01*
X182896377Y-372186966D01*
X182842161Y-372269685D01*
X182777972Y-372334695D01*
X182701600Y-372383063D01*
X182611745Y-372412934D01*
X182504939Y-372423447D01*
X182399241Y-372413106D01*
X182309044Y-372383554D01*
X182231204Y-372335469D01*
X182163671Y-372267467D01*
X182115578Y-372193342D01*
X182075156Y-372099435D01*
X182043570Y-371981775D01*
X182022714Y-371835729D01*
X182015110Y-371656097D01*
X182015132Y-371655547D01*
X182204704Y-371655547D01*
X182212304Y-371852814D01*
X182231855Y-371991878D01*
X182259181Y-372086207D01*
X182291257Y-372147300D01*
X182339378Y-372202960D01*
X182390323Y-372240343D01*
X182444968Y-372262205D01*
X182504939Y-372269574D01*
X182564831Y-372262183D01*
X182619433Y-372240242D01*
X182670375Y-372202699D01*
X182718530Y-372146750D01*
X182750681Y-372085397D01*
X182778034Y-371990976D01*
X182797582Y-371852125D01*
X182805175Y-371655547D01*
X182797553Y-371457659D01*
X182777961Y-371318413D01*
X182750606Y-371224182D01*
X182718530Y-371163337D01*
X182670455Y-371108054D01*
X182619206Y-371070790D01*
X182563885Y-371048916D01*
X182502833Y-371041521D01*
X182442067Y-371048341D01*
X182389067Y-371068131D01*
X182342037Y-371101086D01*
X182299959Y-371148957D01*
X182263875Y-371217478D01*
X182233848Y-371317899D01*
X182212779Y-371460094D01*
X182204704Y-371655547D01*
X182015132Y-371655547D01*
X182022197Y-371477638D01*
X182041363Y-371336624D01*
X182069882Y-371226718D01*
X182114212Y-371123130D01*
X182168614Y-371040608D01*
X182232822Y-370975942D01*
X182309202Y-370927793D01*
X182398779Y-370898089D01*
X182504939Y-370887648D01*
X182584326Y-370893373D01*
G37*
G36*
X183876332Y-372400000D02*
G01*
X183691868Y-372400000D01*
X183691868Y-371221589D01*
X183618466Y-371282660D01*
X183517204Y-371348992D01*
X183410637Y-371406654D01*
X183323031Y-371444521D01*
X183323031Y-371268667D01*
X183423355Y-371215296D01*
X183513238Y-371155932D01*
X183593499Y-371090614D01*
X183667133Y-371017232D01*
X183720687Y-370949865D01*
X183757447Y-370887648D01*
X183876332Y-370887648D01*
X183876332Y-372400000D01*
G37*
G36*
X184327602Y-371948639D02*
G01*
X184327602Y-371761060D01*
X184894276Y-371761060D01*
X184894276Y-371948639D01*
X184327602Y-371948639D01*
G37*
G36*
X185047141Y-372001395D02*
G01*
X185240765Y-371985000D01*
X185262983Y-372076151D01*
X185296647Y-372145781D01*
X185340690Y-372198224D01*
X185396408Y-372237792D01*
X185458735Y-372261450D01*
X185529734Y-372269574D01*
X185594176Y-372263199D01*
X185652363Y-372244545D01*
X185705702Y-372213488D01*
X185755140Y-372168824D01*
X185794468Y-372116060D01*
X185823118Y-372055045D01*
X185841054Y-371984219D01*
X185847372Y-371901561D01*
X185841245Y-371822962D01*
X185823937Y-371756470D01*
X185796411Y-371699955D01*
X185758712Y-371651792D01*
X185694602Y-371601551D01*
X185618450Y-371571007D01*
X185526712Y-371560293D01*
X185441124Y-371570790D01*
X185365786Y-371601509D01*
X185301307Y-371649204D01*
X185253129Y-371708304D01*
X185079931Y-371685772D01*
X185225469Y-370911095D01*
X185972394Y-370911095D01*
X185972394Y-371085484D01*
X185373022Y-371085484D01*
X185292056Y-371494164D01*
X185385796Y-371439580D01*
X185479795Y-371408029D01*
X185575896Y-371397627D01*
X185671702Y-371406423D01*
X185757729Y-371432036D01*
X185835968Y-371474316D01*
X185907822Y-371534464D01*
X185966405Y-371606846D01*
X186008303Y-371688330D01*
X186034115Y-371780692D01*
X186043102Y-371886357D01*
X186035365Y-371987228D01*
X186012843Y-372078826D01*
X185975942Y-372162753D01*
X185924217Y-372240265D01*
X185862077Y-372306334D01*
X185792789Y-372356899D01*
X185715399Y-372393239D01*
X185628379Y-372415655D01*
X185529734Y-372423447D01*
X185428275Y-372415633D01*
X185340103Y-372393311D01*
X185262973Y-372357416D01*
X185195152Y-372307859D01*
X185137823Y-372246047D01*
X185094295Y-372175396D01*
X185063941Y-372094507D01*
X185047141Y-372001395D01*
G37*
G36*
X186908363Y-372400000D02*
G01*
X186723899Y-372400000D01*
X186723899Y-371221589D01*
X186650497Y-371282660D01*
X186549235Y-371348992D01*
X186442667Y-371406654D01*
X186355061Y-371444521D01*
X186355061Y-371268667D01*
X186455385Y-371215296D01*
X186545269Y-371155932D01*
X186625530Y-371090614D01*
X186699164Y-371017232D01*
X186752717Y-370949865D01*
X186789478Y-370887648D01*
X186908363Y-370887648D01*
X186908363Y-372400000D01*
G37*
G36*
X179337162Y-373418970D02*
G01*
X179436482Y-373433287D01*
X179507714Y-373453810D01*
X179572283Y-373487247D01*
X179627606Y-373534169D01*
X179674684Y-373596142D01*
X179709372Y-373666312D01*
X179730181Y-373740981D01*
X179737241Y-373821456D01*
X179730515Y-373899327D01*
X179710994Y-373969033D01*
X179678957Y-374032122D01*
X179633743Y-374089726D01*
X179579227Y-374136363D01*
X179509827Y-374175499D01*
X179422644Y-374206613D01*
X179314090Y-374228395D01*
X179387078Y-374268796D01*
X179433891Y-374304050D01*
X179516647Y-374392531D01*
X179598939Y-374506283D01*
X179860156Y-374920000D01*
X179610204Y-374920000D01*
X179411360Y-374603461D01*
X179267928Y-374393900D01*
X179210897Y-374328478D01*
X179166995Y-374292143D01*
X179121386Y-374267221D01*
X179076320Y-374251659D01*
X178965678Y-374244424D01*
X178735143Y-374244424D01*
X178735143Y-374920000D01*
X178536299Y-374920000D01*
X178536299Y-374075896D01*
X178735143Y-374075896D01*
X179162416Y-374075896D01*
X179290993Y-374067934D01*
X179375548Y-374047961D01*
X179423618Y-374024966D01*
X179462098Y-373995173D01*
X179492327Y-373958293D01*
X179522317Y-373893862D01*
X179532260Y-373824387D01*
X179523466Y-373757284D01*
X179497941Y-373700068D01*
X179454866Y-373650273D01*
X179399049Y-373614851D01*
X179320156Y-373591058D01*
X179210592Y-373582037D01*
X178735143Y-373582037D01*
X178735143Y-374075896D01*
X178536299Y-374075896D01*
X178536299Y-373413510D01*
X179202349Y-373413510D01*
X179337162Y-373418970D01*
G37*
G36*
X180052589Y-374920000D02*
G01*
X180052589Y-373413510D01*
X181138768Y-373413510D01*
X181138768Y-373587899D01*
X180251433Y-373587899D01*
X180251433Y-374052449D01*
X181082439Y-374052449D01*
X181082439Y-374226838D01*
X180251433Y-374226838D01*
X180251433Y-374745610D01*
X181173664Y-374745610D01*
X181173664Y-374920000D01*
X180052589Y-374920000D01*
G37*
G36*
X181877358Y-374920000D02*
G01*
X181295388Y-373413510D01*
X181510536Y-373413510D01*
X181900988Y-374508298D01*
X181979848Y-374755044D01*
X182060815Y-374508298D01*
X182466563Y-373413510D01*
X182669438Y-373413510D01*
X182081331Y-374920000D01*
X181877358Y-374920000D01*
G37*
G36*
X182636465Y-374468639D02*
G01*
X182636465Y-374281060D01*
X183203139Y-374281060D01*
X183203139Y-374468639D01*
X182636465Y-374468639D01*
G37*
G36*
X184050722Y-374920000D02*
G01*
X183866258Y-374920000D01*
X183866258Y-373741589D01*
X183792856Y-373802660D01*
X183691594Y-373868992D01*
X183585027Y-373926654D01*
X183497421Y-373964521D01*
X183497421Y-373788667D01*
X183597745Y-373735296D01*
X183687628Y-373675932D01*
X183767889Y-373610614D01*
X183841523Y-373537232D01*
X183895077Y-373469865D01*
X183931837Y-373407648D01*
X184050722Y-373407648D01*
X184050722Y-374920000D01*
G37*
D11*
%TO.C,U6*%
X282993000Y-319306000D02*
X282995000Y-319306000D01*
X282998000Y-319307000D01*
X283000000Y-319307000D01*
X283003000Y-319308000D01*
X283005000Y-319309000D01*
X283008000Y-319310000D01*
X283010000Y-319312000D01*
X283012000Y-319313000D01*
X283014000Y-319315000D01*
X283016000Y-319316000D01*
X283018000Y-319318000D01*
X283020000Y-319320000D01*
X283022000Y-319322000D01*
X283024000Y-319324000D01*
X283025000Y-319326000D01*
X283027000Y-319328000D01*
X283028000Y-319330000D01*
X283030000Y-319332000D01*
X283031000Y-319335000D01*
X283032000Y-319337000D01*
X283033000Y-319340000D01*
X283033000Y-319342000D01*
X283034000Y-319345000D01*
X283034000Y-319347000D01*
X283035000Y-319350000D01*
X283035000Y-319352000D01*
X283035000Y-319355000D01*
X283035000Y-319645000D01*
X283035000Y-319648000D01*
X283035000Y-319650000D01*
X283034000Y-319653000D01*
X283034000Y-319655000D01*
X283033000Y-319658000D01*
X283033000Y-319660000D01*
X283032000Y-319663000D01*
X283031000Y-319665000D01*
X283030000Y-319668000D01*
X283028000Y-319670000D01*
X283027000Y-319672000D01*
X283025000Y-319674000D01*
X283024000Y-319676000D01*
X283022000Y-319678000D01*
X283020000Y-319680000D01*
X283018000Y-319682000D01*
X283016000Y-319684000D01*
X283014000Y-319685000D01*
X283012000Y-319687000D01*
X283010000Y-319688000D01*
X283008000Y-319690000D01*
X283005000Y-319691000D01*
X283003000Y-319692000D01*
X283000000Y-319693000D01*
X282998000Y-319693000D01*
X282995000Y-319694000D01*
X282993000Y-319694000D01*
X282990000Y-319695000D01*
X282988000Y-319695000D01*
X282985000Y-319695000D01*
X282445000Y-319695000D01*
X282442000Y-319695000D01*
X282440000Y-319695000D01*
X282437000Y-319694000D01*
X282435000Y-319694000D01*
X282432000Y-319693000D01*
X282430000Y-319693000D01*
X282427000Y-319692000D01*
X282425000Y-319691000D01*
X282422000Y-319690000D01*
X282420000Y-319688000D01*
X282418000Y-319687000D01*
X282416000Y-319685000D01*
X282414000Y-319684000D01*
X282412000Y-319682000D01*
X282410000Y-319680000D01*
X282408000Y-319678000D01*
X282406000Y-319676000D01*
X282405000Y-319674000D01*
X282403000Y-319672000D01*
X282402000Y-319670000D01*
X282400000Y-319668000D01*
X282399000Y-319665000D01*
X282398000Y-319663000D01*
X282397000Y-319660000D01*
X282397000Y-319658000D01*
X282396000Y-319655000D01*
X282396000Y-319653000D01*
X282395000Y-319650000D01*
X282395000Y-319648000D01*
X282395000Y-319645000D01*
X282395000Y-319355000D01*
X282395000Y-319352000D01*
X282395000Y-319350000D01*
X282396000Y-319347000D01*
X282396000Y-319345000D01*
X282397000Y-319342000D01*
X282397000Y-319340000D01*
X282398000Y-319337000D01*
X282399000Y-319335000D01*
X282400000Y-319332000D01*
X282402000Y-319330000D01*
X282403000Y-319328000D01*
X282405000Y-319326000D01*
X282406000Y-319324000D01*
X282408000Y-319322000D01*
X282410000Y-319320000D01*
X282412000Y-319318000D01*
X282414000Y-319316000D01*
X282416000Y-319315000D01*
X282418000Y-319313000D01*
X282420000Y-319312000D01*
X282422000Y-319310000D01*
X282425000Y-319309000D01*
X282427000Y-319308000D01*
X282430000Y-319307000D01*
X282432000Y-319307000D01*
X282435000Y-319306000D01*
X282437000Y-319306000D01*
X282440000Y-319305000D01*
X282442000Y-319305000D01*
X282445000Y-319305000D01*
X282985000Y-319305000D01*
X282988000Y-319305000D01*
X282990000Y-319305000D01*
X282993000Y-319306000D01*
G36*
X282993000Y-319306000D02*
G01*
X282995000Y-319306000D01*
X282998000Y-319307000D01*
X283000000Y-319307000D01*
X283003000Y-319308000D01*
X283005000Y-319309000D01*
X283008000Y-319310000D01*
X283010000Y-319312000D01*
X283012000Y-319313000D01*
X283014000Y-319315000D01*
X283016000Y-319316000D01*
X283018000Y-319318000D01*
X283020000Y-319320000D01*
X283022000Y-319322000D01*
X283024000Y-319324000D01*
X283025000Y-319326000D01*
X283027000Y-319328000D01*
X283028000Y-319330000D01*
X283030000Y-319332000D01*
X283031000Y-319335000D01*
X283032000Y-319337000D01*
X283033000Y-319340000D01*
X283033000Y-319342000D01*
X283034000Y-319345000D01*
X283034000Y-319347000D01*
X283035000Y-319350000D01*
X283035000Y-319352000D01*
X283035000Y-319355000D01*
X283035000Y-319645000D01*
X283035000Y-319648000D01*
X283035000Y-319650000D01*
X283034000Y-319653000D01*
X283034000Y-319655000D01*
X283033000Y-319658000D01*
X283033000Y-319660000D01*
X283032000Y-319663000D01*
X283031000Y-319665000D01*
X283030000Y-319668000D01*
X283028000Y-319670000D01*
X283027000Y-319672000D01*
X283025000Y-319674000D01*
X283024000Y-319676000D01*
X283022000Y-319678000D01*
X283020000Y-319680000D01*
X283018000Y-319682000D01*
X283016000Y-319684000D01*
X283014000Y-319685000D01*
X283012000Y-319687000D01*
X283010000Y-319688000D01*
X283008000Y-319690000D01*
X283005000Y-319691000D01*
X283003000Y-319692000D01*
X283000000Y-319693000D01*
X282998000Y-319693000D01*
X282995000Y-319694000D01*
X282993000Y-319694000D01*
X282990000Y-319695000D01*
X282988000Y-319695000D01*
X282985000Y-319695000D01*
X282445000Y-319695000D01*
X282442000Y-319695000D01*
X282440000Y-319695000D01*
X282437000Y-319694000D01*
X282435000Y-319694000D01*
X282432000Y-319693000D01*
X282430000Y-319693000D01*
X282427000Y-319692000D01*
X282425000Y-319691000D01*
X282422000Y-319690000D01*
X282420000Y-319688000D01*
X282418000Y-319687000D01*
X282416000Y-319685000D01*
X282414000Y-319684000D01*
X282412000Y-319682000D01*
X282410000Y-319680000D01*
X282408000Y-319678000D01*
X282406000Y-319676000D01*
X282405000Y-319674000D01*
X282403000Y-319672000D01*
X282402000Y-319670000D01*
X282400000Y-319668000D01*
X282399000Y-319665000D01*
X282398000Y-319663000D01*
X282397000Y-319660000D01*
X282397000Y-319658000D01*
X282396000Y-319655000D01*
X282396000Y-319653000D01*
X282395000Y-319650000D01*
X282395000Y-319648000D01*
X282395000Y-319645000D01*
X282395000Y-319355000D01*
X282395000Y-319352000D01*
X282395000Y-319350000D01*
X282396000Y-319347000D01*
X282396000Y-319345000D01*
X282397000Y-319342000D01*
X282397000Y-319340000D01*
X282398000Y-319337000D01*
X282399000Y-319335000D01*
X282400000Y-319332000D01*
X282402000Y-319330000D01*
X282403000Y-319328000D01*
X282405000Y-319326000D01*
X282406000Y-319324000D01*
X282408000Y-319322000D01*
X282410000Y-319320000D01*
X282412000Y-319318000D01*
X282414000Y-319316000D01*
X282416000Y-319315000D01*
X282418000Y-319313000D01*
X282420000Y-319312000D01*
X282422000Y-319310000D01*
X282425000Y-319309000D01*
X282427000Y-319308000D01*
X282430000Y-319307000D01*
X282432000Y-319307000D01*
X282435000Y-319306000D01*
X282437000Y-319306000D01*
X282440000Y-319305000D01*
X282442000Y-319305000D01*
X282445000Y-319305000D01*
X282985000Y-319305000D01*
X282988000Y-319305000D01*
X282990000Y-319305000D01*
X282993000Y-319306000D01*
G37*
X282993000Y-319806000D02*
X282995000Y-319806000D01*
X282998000Y-319807000D01*
X283000000Y-319807000D01*
X283003000Y-319808000D01*
X283005000Y-319809000D01*
X283008000Y-319810000D01*
X283010000Y-319812000D01*
X283012000Y-319813000D01*
X283014000Y-319815000D01*
X283016000Y-319816000D01*
X283018000Y-319818000D01*
X283020000Y-319820000D01*
X283022000Y-319822000D01*
X283024000Y-319824000D01*
X283025000Y-319826000D01*
X283027000Y-319828000D01*
X283028000Y-319830000D01*
X283030000Y-319832000D01*
X283031000Y-319835000D01*
X283032000Y-319837000D01*
X283033000Y-319840000D01*
X283033000Y-319842000D01*
X283034000Y-319845000D01*
X283034000Y-319847000D01*
X283035000Y-319850000D01*
X283035000Y-319852000D01*
X283035000Y-319855000D01*
X283035000Y-320145000D01*
X283035000Y-320148000D01*
X283035000Y-320150000D01*
X283034000Y-320153000D01*
X283034000Y-320155000D01*
X283033000Y-320158000D01*
X283033000Y-320160000D01*
X283032000Y-320163000D01*
X283031000Y-320165000D01*
X283030000Y-320168000D01*
X283028000Y-320170000D01*
X283027000Y-320172000D01*
X283025000Y-320174000D01*
X283024000Y-320176000D01*
X283022000Y-320178000D01*
X283020000Y-320180000D01*
X283018000Y-320182000D01*
X283016000Y-320184000D01*
X283014000Y-320185000D01*
X283012000Y-320187000D01*
X283010000Y-320188000D01*
X283008000Y-320190000D01*
X283005000Y-320191000D01*
X283003000Y-320192000D01*
X283000000Y-320193000D01*
X282998000Y-320193000D01*
X282995000Y-320194000D01*
X282993000Y-320194000D01*
X282990000Y-320195000D01*
X282988000Y-320195000D01*
X282985000Y-320195000D01*
X282445000Y-320195000D01*
X282442000Y-320195000D01*
X282440000Y-320195000D01*
X282437000Y-320194000D01*
X282435000Y-320194000D01*
X282432000Y-320193000D01*
X282430000Y-320193000D01*
X282427000Y-320192000D01*
X282425000Y-320191000D01*
X282422000Y-320190000D01*
X282420000Y-320188000D01*
X282418000Y-320187000D01*
X282416000Y-320185000D01*
X282414000Y-320184000D01*
X282412000Y-320182000D01*
X282410000Y-320180000D01*
X282408000Y-320178000D01*
X282406000Y-320176000D01*
X282405000Y-320174000D01*
X282403000Y-320172000D01*
X282402000Y-320170000D01*
X282400000Y-320168000D01*
X282399000Y-320165000D01*
X282398000Y-320163000D01*
X282397000Y-320160000D01*
X282397000Y-320158000D01*
X282396000Y-320155000D01*
X282396000Y-320153000D01*
X282395000Y-320150000D01*
X282395000Y-320148000D01*
X282395000Y-320145000D01*
X282395000Y-319855000D01*
X282395000Y-319852000D01*
X282395000Y-319850000D01*
X282396000Y-319847000D01*
X282396000Y-319845000D01*
X282397000Y-319842000D01*
X282397000Y-319840000D01*
X282398000Y-319837000D01*
X282399000Y-319835000D01*
X282400000Y-319832000D01*
X282402000Y-319830000D01*
X282403000Y-319828000D01*
X282405000Y-319826000D01*
X282406000Y-319824000D01*
X282408000Y-319822000D01*
X282410000Y-319820000D01*
X282412000Y-319818000D01*
X282414000Y-319816000D01*
X282416000Y-319815000D01*
X282418000Y-319813000D01*
X282420000Y-319812000D01*
X282422000Y-319810000D01*
X282425000Y-319809000D01*
X282427000Y-319808000D01*
X282430000Y-319807000D01*
X282432000Y-319807000D01*
X282435000Y-319806000D01*
X282437000Y-319806000D01*
X282440000Y-319805000D01*
X282442000Y-319805000D01*
X282445000Y-319805000D01*
X282985000Y-319805000D01*
X282988000Y-319805000D01*
X282990000Y-319805000D01*
X282993000Y-319806000D01*
G36*
X282993000Y-319806000D02*
G01*
X282995000Y-319806000D01*
X282998000Y-319807000D01*
X283000000Y-319807000D01*
X283003000Y-319808000D01*
X283005000Y-319809000D01*
X283008000Y-319810000D01*
X283010000Y-319812000D01*
X283012000Y-319813000D01*
X283014000Y-319815000D01*
X283016000Y-319816000D01*
X283018000Y-319818000D01*
X283020000Y-319820000D01*
X283022000Y-319822000D01*
X283024000Y-319824000D01*
X283025000Y-319826000D01*
X283027000Y-319828000D01*
X283028000Y-319830000D01*
X283030000Y-319832000D01*
X283031000Y-319835000D01*
X283032000Y-319837000D01*
X283033000Y-319840000D01*
X283033000Y-319842000D01*
X283034000Y-319845000D01*
X283034000Y-319847000D01*
X283035000Y-319850000D01*
X283035000Y-319852000D01*
X283035000Y-319855000D01*
X283035000Y-320145000D01*
X283035000Y-320148000D01*
X283035000Y-320150000D01*
X283034000Y-320153000D01*
X283034000Y-320155000D01*
X283033000Y-320158000D01*
X283033000Y-320160000D01*
X283032000Y-320163000D01*
X283031000Y-320165000D01*
X283030000Y-320168000D01*
X283028000Y-320170000D01*
X283027000Y-320172000D01*
X283025000Y-320174000D01*
X283024000Y-320176000D01*
X283022000Y-320178000D01*
X283020000Y-320180000D01*
X283018000Y-320182000D01*
X283016000Y-320184000D01*
X283014000Y-320185000D01*
X283012000Y-320187000D01*
X283010000Y-320188000D01*
X283008000Y-320190000D01*
X283005000Y-320191000D01*
X283003000Y-320192000D01*
X283000000Y-320193000D01*
X282998000Y-320193000D01*
X282995000Y-320194000D01*
X282993000Y-320194000D01*
X282990000Y-320195000D01*
X282988000Y-320195000D01*
X282985000Y-320195000D01*
X282445000Y-320195000D01*
X282442000Y-320195000D01*
X282440000Y-320195000D01*
X282437000Y-320194000D01*
X282435000Y-320194000D01*
X282432000Y-320193000D01*
X282430000Y-320193000D01*
X282427000Y-320192000D01*
X282425000Y-320191000D01*
X282422000Y-320190000D01*
X282420000Y-320188000D01*
X282418000Y-320187000D01*
X282416000Y-320185000D01*
X282414000Y-320184000D01*
X282412000Y-320182000D01*
X282410000Y-320180000D01*
X282408000Y-320178000D01*
X282406000Y-320176000D01*
X282405000Y-320174000D01*
X282403000Y-320172000D01*
X282402000Y-320170000D01*
X282400000Y-320168000D01*
X282399000Y-320165000D01*
X282398000Y-320163000D01*
X282397000Y-320160000D01*
X282397000Y-320158000D01*
X282396000Y-320155000D01*
X282396000Y-320153000D01*
X282395000Y-320150000D01*
X282395000Y-320148000D01*
X282395000Y-320145000D01*
X282395000Y-319855000D01*
X282395000Y-319852000D01*
X282395000Y-319850000D01*
X282396000Y-319847000D01*
X282396000Y-319845000D01*
X282397000Y-319842000D01*
X282397000Y-319840000D01*
X282398000Y-319837000D01*
X282399000Y-319835000D01*
X282400000Y-319832000D01*
X282402000Y-319830000D01*
X282403000Y-319828000D01*
X282405000Y-319826000D01*
X282406000Y-319824000D01*
X282408000Y-319822000D01*
X282410000Y-319820000D01*
X282412000Y-319818000D01*
X282414000Y-319816000D01*
X282416000Y-319815000D01*
X282418000Y-319813000D01*
X282420000Y-319812000D01*
X282422000Y-319810000D01*
X282425000Y-319809000D01*
X282427000Y-319808000D01*
X282430000Y-319807000D01*
X282432000Y-319807000D01*
X282435000Y-319806000D01*
X282437000Y-319806000D01*
X282440000Y-319805000D01*
X282442000Y-319805000D01*
X282445000Y-319805000D01*
X282985000Y-319805000D01*
X282988000Y-319805000D01*
X282990000Y-319805000D01*
X282993000Y-319806000D01*
G37*
X282993000Y-320306000D02*
X282995000Y-320306000D01*
X282998000Y-320307000D01*
X283000000Y-320307000D01*
X283003000Y-320308000D01*
X283005000Y-320309000D01*
X283008000Y-320310000D01*
X283010000Y-320312000D01*
X283012000Y-320313000D01*
X283014000Y-320315000D01*
X283016000Y-320316000D01*
X283018000Y-320318000D01*
X283020000Y-320320000D01*
X283022000Y-320322000D01*
X283024000Y-320324000D01*
X283025000Y-320326000D01*
X283027000Y-320328000D01*
X283028000Y-320330000D01*
X283030000Y-320332000D01*
X283031000Y-320335000D01*
X283032000Y-320337000D01*
X283033000Y-320340000D01*
X283033000Y-320342000D01*
X283034000Y-320345000D01*
X283034000Y-320347000D01*
X283035000Y-320350000D01*
X283035000Y-320352000D01*
X283035000Y-320355000D01*
X283035000Y-320645000D01*
X283035000Y-320648000D01*
X283035000Y-320650000D01*
X283034000Y-320653000D01*
X283034000Y-320655000D01*
X283033000Y-320658000D01*
X283033000Y-320660000D01*
X283032000Y-320663000D01*
X283031000Y-320665000D01*
X283030000Y-320668000D01*
X283028000Y-320670000D01*
X283027000Y-320672000D01*
X283025000Y-320674000D01*
X283024000Y-320676000D01*
X283022000Y-320678000D01*
X283020000Y-320680000D01*
X283018000Y-320682000D01*
X283016000Y-320684000D01*
X283014000Y-320685000D01*
X283012000Y-320687000D01*
X283010000Y-320688000D01*
X283008000Y-320690000D01*
X283005000Y-320691000D01*
X283003000Y-320692000D01*
X283000000Y-320693000D01*
X282998000Y-320693000D01*
X282995000Y-320694000D01*
X282993000Y-320694000D01*
X282990000Y-320695000D01*
X282988000Y-320695000D01*
X282985000Y-320695000D01*
X282445000Y-320695000D01*
X282442000Y-320695000D01*
X282440000Y-320695000D01*
X282437000Y-320694000D01*
X282435000Y-320694000D01*
X282432000Y-320693000D01*
X282430000Y-320693000D01*
X282427000Y-320692000D01*
X282425000Y-320691000D01*
X282422000Y-320690000D01*
X282420000Y-320688000D01*
X282418000Y-320687000D01*
X282416000Y-320685000D01*
X282414000Y-320684000D01*
X282412000Y-320682000D01*
X282410000Y-320680000D01*
X282408000Y-320678000D01*
X282406000Y-320676000D01*
X282405000Y-320674000D01*
X282403000Y-320672000D01*
X282402000Y-320670000D01*
X282400000Y-320668000D01*
X282399000Y-320665000D01*
X282398000Y-320663000D01*
X282397000Y-320660000D01*
X282397000Y-320658000D01*
X282396000Y-320655000D01*
X282396000Y-320653000D01*
X282395000Y-320650000D01*
X282395000Y-320648000D01*
X282395000Y-320645000D01*
X282395000Y-320355000D01*
X282395000Y-320352000D01*
X282395000Y-320350000D01*
X282396000Y-320347000D01*
X282396000Y-320345000D01*
X282397000Y-320342000D01*
X282397000Y-320340000D01*
X282398000Y-320337000D01*
X282399000Y-320335000D01*
X282400000Y-320332000D01*
X282402000Y-320330000D01*
X282403000Y-320328000D01*
X282405000Y-320326000D01*
X282406000Y-320324000D01*
X282408000Y-320322000D01*
X282410000Y-320320000D01*
X282412000Y-320318000D01*
X282414000Y-320316000D01*
X282416000Y-320315000D01*
X282418000Y-320313000D01*
X282420000Y-320312000D01*
X282422000Y-320310000D01*
X282425000Y-320309000D01*
X282427000Y-320308000D01*
X282430000Y-320307000D01*
X282432000Y-320307000D01*
X282435000Y-320306000D01*
X282437000Y-320306000D01*
X282440000Y-320305000D01*
X282442000Y-320305000D01*
X282445000Y-320305000D01*
X282985000Y-320305000D01*
X282988000Y-320305000D01*
X282990000Y-320305000D01*
X282993000Y-320306000D01*
G36*
X282993000Y-320306000D02*
G01*
X282995000Y-320306000D01*
X282998000Y-320307000D01*
X283000000Y-320307000D01*
X283003000Y-320308000D01*
X283005000Y-320309000D01*
X283008000Y-320310000D01*
X283010000Y-320312000D01*
X283012000Y-320313000D01*
X283014000Y-320315000D01*
X283016000Y-320316000D01*
X283018000Y-320318000D01*
X283020000Y-320320000D01*
X283022000Y-320322000D01*
X283024000Y-320324000D01*
X283025000Y-320326000D01*
X283027000Y-320328000D01*
X283028000Y-320330000D01*
X283030000Y-320332000D01*
X283031000Y-320335000D01*
X283032000Y-320337000D01*
X283033000Y-320340000D01*
X283033000Y-320342000D01*
X283034000Y-320345000D01*
X283034000Y-320347000D01*
X283035000Y-320350000D01*
X283035000Y-320352000D01*
X283035000Y-320355000D01*
X283035000Y-320645000D01*
X283035000Y-320648000D01*
X283035000Y-320650000D01*
X283034000Y-320653000D01*
X283034000Y-320655000D01*
X283033000Y-320658000D01*
X283033000Y-320660000D01*
X283032000Y-320663000D01*
X283031000Y-320665000D01*
X283030000Y-320668000D01*
X283028000Y-320670000D01*
X283027000Y-320672000D01*
X283025000Y-320674000D01*
X283024000Y-320676000D01*
X283022000Y-320678000D01*
X283020000Y-320680000D01*
X283018000Y-320682000D01*
X283016000Y-320684000D01*
X283014000Y-320685000D01*
X283012000Y-320687000D01*
X283010000Y-320688000D01*
X283008000Y-320690000D01*
X283005000Y-320691000D01*
X283003000Y-320692000D01*
X283000000Y-320693000D01*
X282998000Y-320693000D01*
X282995000Y-320694000D01*
X282993000Y-320694000D01*
X282990000Y-320695000D01*
X282988000Y-320695000D01*
X282985000Y-320695000D01*
X282445000Y-320695000D01*
X282442000Y-320695000D01*
X282440000Y-320695000D01*
X282437000Y-320694000D01*
X282435000Y-320694000D01*
X282432000Y-320693000D01*
X282430000Y-320693000D01*
X282427000Y-320692000D01*
X282425000Y-320691000D01*
X282422000Y-320690000D01*
X282420000Y-320688000D01*
X282418000Y-320687000D01*
X282416000Y-320685000D01*
X282414000Y-320684000D01*
X282412000Y-320682000D01*
X282410000Y-320680000D01*
X282408000Y-320678000D01*
X282406000Y-320676000D01*
X282405000Y-320674000D01*
X282403000Y-320672000D01*
X282402000Y-320670000D01*
X282400000Y-320668000D01*
X282399000Y-320665000D01*
X282398000Y-320663000D01*
X282397000Y-320660000D01*
X282397000Y-320658000D01*
X282396000Y-320655000D01*
X282396000Y-320653000D01*
X282395000Y-320650000D01*
X282395000Y-320648000D01*
X282395000Y-320645000D01*
X282395000Y-320355000D01*
X282395000Y-320352000D01*
X282395000Y-320350000D01*
X282396000Y-320347000D01*
X282396000Y-320345000D01*
X282397000Y-320342000D01*
X282397000Y-320340000D01*
X282398000Y-320337000D01*
X282399000Y-320335000D01*
X282400000Y-320332000D01*
X282402000Y-320330000D01*
X282403000Y-320328000D01*
X282405000Y-320326000D01*
X282406000Y-320324000D01*
X282408000Y-320322000D01*
X282410000Y-320320000D01*
X282412000Y-320318000D01*
X282414000Y-320316000D01*
X282416000Y-320315000D01*
X282418000Y-320313000D01*
X282420000Y-320312000D01*
X282422000Y-320310000D01*
X282425000Y-320309000D01*
X282427000Y-320308000D01*
X282430000Y-320307000D01*
X282432000Y-320307000D01*
X282435000Y-320306000D01*
X282437000Y-320306000D01*
X282440000Y-320305000D01*
X282442000Y-320305000D01*
X282445000Y-320305000D01*
X282985000Y-320305000D01*
X282988000Y-320305000D01*
X282990000Y-320305000D01*
X282993000Y-320306000D01*
G37*
X282993000Y-320806000D02*
X282995000Y-320806000D01*
X282998000Y-320807000D01*
X283000000Y-320807000D01*
X283003000Y-320808000D01*
X283005000Y-320809000D01*
X283008000Y-320810000D01*
X283010000Y-320812000D01*
X283012000Y-320813000D01*
X283014000Y-320815000D01*
X283016000Y-320816000D01*
X283018000Y-320818000D01*
X283020000Y-320820000D01*
X283022000Y-320822000D01*
X283024000Y-320824000D01*
X283025000Y-320826000D01*
X283027000Y-320828000D01*
X283028000Y-320830000D01*
X283030000Y-320832000D01*
X283031000Y-320835000D01*
X283032000Y-320837000D01*
X283033000Y-320840000D01*
X283033000Y-320842000D01*
X283034000Y-320845000D01*
X283034000Y-320847000D01*
X283035000Y-320850000D01*
X283035000Y-320852000D01*
X283035000Y-320855000D01*
X283035000Y-321145000D01*
X283035000Y-321148000D01*
X283035000Y-321150000D01*
X283034000Y-321153000D01*
X283034000Y-321155000D01*
X283033000Y-321158000D01*
X283033000Y-321160000D01*
X283032000Y-321163000D01*
X283031000Y-321165000D01*
X283030000Y-321168000D01*
X283028000Y-321170000D01*
X283027000Y-321172000D01*
X283025000Y-321174000D01*
X283024000Y-321176000D01*
X283022000Y-321178000D01*
X283020000Y-321180000D01*
X283018000Y-321182000D01*
X283016000Y-321184000D01*
X283014000Y-321185000D01*
X283012000Y-321187000D01*
X283010000Y-321188000D01*
X283008000Y-321190000D01*
X283005000Y-321191000D01*
X283003000Y-321192000D01*
X283000000Y-321193000D01*
X282998000Y-321193000D01*
X282995000Y-321194000D01*
X282993000Y-321194000D01*
X282990000Y-321195000D01*
X282988000Y-321195000D01*
X282985000Y-321195000D01*
X282445000Y-321195000D01*
X282442000Y-321195000D01*
X282440000Y-321195000D01*
X282437000Y-321194000D01*
X282435000Y-321194000D01*
X282432000Y-321193000D01*
X282430000Y-321193000D01*
X282427000Y-321192000D01*
X282425000Y-321191000D01*
X282422000Y-321190000D01*
X282420000Y-321188000D01*
X282418000Y-321187000D01*
X282416000Y-321185000D01*
X282414000Y-321184000D01*
X282412000Y-321182000D01*
X282410000Y-321180000D01*
X282408000Y-321178000D01*
X282406000Y-321176000D01*
X282405000Y-321174000D01*
X282403000Y-321172000D01*
X282402000Y-321170000D01*
X282400000Y-321168000D01*
X282399000Y-321165000D01*
X282398000Y-321163000D01*
X282397000Y-321160000D01*
X282397000Y-321158000D01*
X282396000Y-321155000D01*
X282396000Y-321153000D01*
X282395000Y-321150000D01*
X282395000Y-321148000D01*
X282395000Y-321145000D01*
X282395000Y-320855000D01*
X282395000Y-320852000D01*
X282395000Y-320850000D01*
X282396000Y-320847000D01*
X282396000Y-320845000D01*
X282397000Y-320842000D01*
X282397000Y-320840000D01*
X282398000Y-320837000D01*
X282399000Y-320835000D01*
X282400000Y-320832000D01*
X282402000Y-320830000D01*
X282403000Y-320828000D01*
X282405000Y-320826000D01*
X282406000Y-320824000D01*
X282408000Y-320822000D01*
X282410000Y-320820000D01*
X282412000Y-320818000D01*
X282414000Y-320816000D01*
X282416000Y-320815000D01*
X282418000Y-320813000D01*
X282420000Y-320812000D01*
X282422000Y-320810000D01*
X282425000Y-320809000D01*
X282427000Y-320808000D01*
X282430000Y-320807000D01*
X282432000Y-320807000D01*
X282435000Y-320806000D01*
X282437000Y-320806000D01*
X282440000Y-320805000D01*
X282442000Y-320805000D01*
X282445000Y-320805000D01*
X282985000Y-320805000D01*
X282988000Y-320805000D01*
X282990000Y-320805000D01*
X282993000Y-320806000D01*
G36*
X282993000Y-320806000D02*
G01*
X282995000Y-320806000D01*
X282998000Y-320807000D01*
X283000000Y-320807000D01*
X283003000Y-320808000D01*
X283005000Y-320809000D01*
X283008000Y-320810000D01*
X283010000Y-320812000D01*
X283012000Y-320813000D01*
X283014000Y-320815000D01*
X283016000Y-320816000D01*
X283018000Y-320818000D01*
X283020000Y-320820000D01*
X283022000Y-320822000D01*
X283024000Y-320824000D01*
X283025000Y-320826000D01*
X283027000Y-320828000D01*
X283028000Y-320830000D01*
X283030000Y-320832000D01*
X283031000Y-320835000D01*
X283032000Y-320837000D01*
X283033000Y-320840000D01*
X283033000Y-320842000D01*
X283034000Y-320845000D01*
X283034000Y-320847000D01*
X283035000Y-320850000D01*
X283035000Y-320852000D01*
X283035000Y-320855000D01*
X283035000Y-321145000D01*
X283035000Y-321148000D01*
X283035000Y-321150000D01*
X283034000Y-321153000D01*
X283034000Y-321155000D01*
X283033000Y-321158000D01*
X283033000Y-321160000D01*
X283032000Y-321163000D01*
X283031000Y-321165000D01*
X283030000Y-321168000D01*
X283028000Y-321170000D01*
X283027000Y-321172000D01*
X283025000Y-321174000D01*
X283024000Y-321176000D01*
X283022000Y-321178000D01*
X283020000Y-321180000D01*
X283018000Y-321182000D01*
X283016000Y-321184000D01*
X283014000Y-321185000D01*
X283012000Y-321187000D01*
X283010000Y-321188000D01*
X283008000Y-321190000D01*
X283005000Y-321191000D01*
X283003000Y-321192000D01*
X283000000Y-321193000D01*
X282998000Y-321193000D01*
X282995000Y-321194000D01*
X282993000Y-321194000D01*
X282990000Y-321195000D01*
X282988000Y-321195000D01*
X282985000Y-321195000D01*
X282445000Y-321195000D01*
X282442000Y-321195000D01*
X282440000Y-321195000D01*
X282437000Y-321194000D01*
X282435000Y-321194000D01*
X282432000Y-321193000D01*
X282430000Y-321193000D01*
X282427000Y-321192000D01*
X282425000Y-321191000D01*
X282422000Y-321190000D01*
X282420000Y-321188000D01*
X282418000Y-321187000D01*
X282416000Y-321185000D01*
X282414000Y-321184000D01*
X282412000Y-321182000D01*
X282410000Y-321180000D01*
X282408000Y-321178000D01*
X282406000Y-321176000D01*
X282405000Y-321174000D01*
X282403000Y-321172000D01*
X282402000Y-321170000D01*
X282400000Y-321168000D01*
X282399000Y-321165000D01*
X282398000Y-321163000D01*
X282397000Y-321160000D01*
X282397000Y-321158000D01*
X282396000Y-321155000D01*
X282396000Y-321153000D01*
X282395000Y-321150000D01*
X282395000Y-321148000D01*
X282395000Y-321145000D01*
X282395000Y-320855000D01*
X282395000Y-320852000D01*
X282395000Y-320850000D01*
X282396000Y-320847000D01*
X282396000Y-320845000D01*
X282397000Y-320842000D01*
X282397000Y-320840000D01*
X282398000Y-320837000D01*
X282399000Y-320835000D01*
X282400000Y-320832000D01*
X282402000Y-320830000D01*
X282403000Y-320828000D01*
X282405000Y-320826000D01*
X282406000Y-320824000D01*
X282408000Y-320822000D01*
X282410000Y-320820000D01*
X282412000Y-320818000D01*
X282414000Y-320816000D01*
X282416000Y-320815000D01*
X282418000Y-320813000D01*
X282420000Y-320812000D01*
X282422000Y-320810000D01*
X282425000Y-320809000D01*
X282427000Y-320808000D01*
X282430000Y-320807000D01*
X282432000Y-320807000D01*
X282435000Y-320806000D01*
X282437000Y-320806000D01*
X282440000Y-320805000D01*
X282442000Y-320805000D01*
X282445000Y-320805000D01*
X282985000Y-320805000D01*
X282988000Y-320805000D01*
X282990000Y-320805000D01*
X282993000Y-320806000D01*
G37*
X284178000Y-319381000D02*
X284180000Y-319381000D01*
X284183000Y-319382000D01*
X284185000Y-319382000D01*
X284188000Y-319383000D01*
X284190000Y-319384000D01*
X284193000Y-319385000D01*
X284195000Y-319387000D01*
X284197000Y-319388000D01*
X284199000Y-319390000D01*
X284201000Y-319391000D01*
X284203000Y-319393000D01*
X284205000Y-319395000D01*
X284207000Y-319397000D01*
X284209000Y-319399000D01*
X284210000Y-319401000D01*
X284212000Y-319403000D01*
X284213000Y-319405000D01*
X284215000Y-319407000D01*
X284216000Y-319410000D01*
X284217000Y-319412000D01*
X284218000Y-319415000D01*
X284218000Y-319417000D01*
X284219000Y-319420000D01*
X284219000Y-319422000D01*
X284220000Y-319425000D01*
X284220000Y-319427000D01*
X284220000Y-319430000D01*
X284220000Y-321070000D01*
X284220000Y-321073000D01*
X284220000Y-321075000D01*
X284219000Y-321078000D01*
X284219000Y-321080000D01*
X284218000Y-321083000D01*
X284218000Y-321085000D01*
X284217000Y-321088000D01*
X284216000Y-321090000D01*
X284215000Y-321093000D01*
X284213000Y-321095000D01*
X284212000Y-321097000D01*
X284210000Y-321099000D01*
X284209000Y-321101000D01*
X284207000Y-321103000D01*
X284205000Y-321105000D01*
X284203000Y-321107000D01*
X284201000Y-321109000D01*
X284199000Y-321110000D01*
X284197000Y-321112000D01*
X284195000Y-321113000D01*
X284193000Y-321115000D01*
X284190000Y-321116000D01*
X284188000Y-321117000D01*
X284185000Y-321118000D01*
X284183000Y-321118000D01*
X284180000Y-321119000D01*
X284178000Y-321119000D01*
X284175000Y-321120000D01*
X284173000Y-321120000D01*
X284170000Y-321120000D01*
X283230000Y-321120000D01*
X283227000Y-321120000D01*
X283225000Y-321120000D01*
X283222000Y-321119000D01*
X283220000Y-321119000D01*
X283217000Y-321118000D01*
X283215000Y-321118000D01*
X283212000Y-321117000D01*
X283210000Y-321116000D01*
X283207000Y-321115000D01*
X283205000Y-321113000D01*
X283203000Y-321112000D01*
X283201000Y-321110000D01*
X283199000Y-321109000D01*
X283197000Y-321107000D01*
X283195000Y-321105000D01*
X283193000Y-321103000D01*
X283191000Y-321101000D01*
X283190000Y-321099000D01*
X283188000Y-321097000D01*
X283187000Y-321095000D01*
X283185000Y-321093000D01*
X283184000Y-321090000D01*
X283183000Y-321088000D01*
X283182000Y-321085000D01*
X283182000Y-321083000D01*
X283181000Y-321080000D01*
X283181000Y-321078000D01*
X283180000Y-321075000D01*
X283180000Y-321073000D01*
X283180000Y-321070000D01*
X283180000Y-319430000D01*
X283180000Y-319427000D01*
X283180000Y-319425000D01*
X283181000Y-319422000D01*
X283181000Y-319420000D01*
X283182000Y-319417000D01*
X283182000Y-319415000D01*
X283183000Y-319412000D01*
X283184000Y-319410000D01*
X283185000Y-319407000D01*
X283187000Y-319405000D01*
X283188000Y-319403000D01*
X283190000Y-319401000D01*
X283191000Y-319399000D01*
X283193000Y-319397000D01*
X283195000Y-319395000D01*
X283197000Y-319393000D01*
X283199000Y-319391000D01*
X283201000Y-319390000D01*
X283203000Y-319388000D01*
X283205000Y-319387000D01*
X283207000Y-319385000D01*
X283210000Y-319384000D01*
X283212000Y-319383000D01*
X283215000Y-319382000D01*
X283217000Y-319382000D01*
X283220000Y-319381000D01*
X283222000Y-319381000D01*
X283225000Y-319380000D01*
X283227000Y-319380000D01*
X283230000Y-319380000D01*
X284170000Y-319380000D01*
X284173000Y-319380000D01*
X284175000Y-319380000D01*
X284178000Y-319381000D01*
G36*
X284178000Y-319381000D02*
G01*
X284180000Y-319381000D01*
X284183000Y-319382000D01*
X284185000Y-319382000D01*
X284188000Y-319383000D01*
X284190000Y-319384000D01*
X284193000Y-319385000D01*
X284195000Y-319387000D01*
X284197000Y-319388000D01*
X284199000Y-319390000D01*
X284201000Y-319391000D01*
X284203000Y-319393000D01*
X284205000Y-319395000D01*
X284207000Y-319397000D01*
X284209000Y-319399000D01*
X284210000Y-319401000D01*
X284212000Y-319403000D01*
X284213000Y-319405000D01*
X284215000Y-319407000D01*
X284216000Y-319410000D01*
X284217000Y-319412000D01*
X284218000Y-319415000D01*
X284218000Y-319417000D01*
X284219000Y-319420000D01*
X284219000Y-319422000D01*
X284220000Y-319425000D01*
X284220000Y-319427000D01*
X284220000Y-319430000D01*
X284220000Y-321070000D01*
X284220000Y-321073000D01*
X284220000Y-321075000D01*
X284219000Y-321078000D01*
X284219000Y-321080000D01*
X284218000Y-321083000D01*
X284218000Y-321085000D01*
X284217000Y-321088000D01*
X284216000Y-321090000D01*
X284215000Y-321093000D01*
X284213000Y-321095000D01*
X284212000Y-321097000D01*
X284210000Y-321099000D01*
X284209000Y-321101000D01*
X284207000Y-321103000D01*
X284205000Y-321105000D01*
X284203000Y-321107000D01*
X284201000Y-321109000D01*
X284199000Y-321110000D01*
X284197000Y-321112000D01*
X284195000Y-321113000D01*
X284193000Y-321115000D01*
X284190000Y-321116000D01*
X284188000Y-321117000D01*
X284185000Y-321118000D01*
X284183000Y-321118000D01*
X284180000Y-321119000D01*
X284178000Y-321119000D01*
X284175000Y-321120000D01*
X284173000Y-321120000D01*
X284170000Y-321120000D01*
X283230000Y-321120000D01*
X283227000Y-321120000D01*
X283225000Y-321120000D01*
X283222000Y-321119000D01*
X283220000Y-321119000D01*
X283217000Y-321118000D01*
X283215000Y-321118000D01*
X283212000Y-321117000D01*
X283210000Y-321116000D01*
X283207000Y-321115000D01*
X283205000Y-321113000D01*
X283203000Y-321112000D01*
X283201000Y-321110000D01*
X283199000Y-321109000D01*
X283197000Y-321107000D01*
X283195000Y-321105000D01*
X283193000Y-321103000D01*
X283191000Y-321101000D01*
X283190000Y-321099000D01*
X283188000Y-321097000D01*
X283187000Y-321095000D01*
X283185000Y-321093000D01*
X283184000Y-321090000D01*
X283183000Y-321088000D01*
X283182000Y-321085000D01*
X283182000Y-321083000D01*
X283181000Y-321080000D01*
X283181000Y-321078000D01*
X283180000Y-321075000D01*
X283180000Y-321073000D01*
X283180000Y-321070000D01*
X283180000Y-319430000D01*
X283180000Y-319427000D01*
X283180000Y-319425000D01*
X283181000Y-319422000D01*
X283181000Y-319420000D01*
X283182000Y-319417000D01*
X283182000Y-319415000D01*
X283183000Y-319412000D01*
X283184000Y-319410000D01*
X283185000Y-319407000D01*
X283187000Y-319405000D01*
X283188000Y-319403000D01*
X283190000Y-319401000D01*
X283191000Y-319399000D01*
X283193000Y-319397000D01*
X283195000Y-319395000D01*
X283197000Y-319393000D01*
X283199000Y-319391000D01*
X283201000Y-319390000D01*
X283203000Y-319388000D01*
X283205000Y-319387000D01*
X283207000Y-319385000D01*
X283210000Y-319384000D01*
X283212000Y-319383000D01*
X283215000Y-319382000D01*
X283217000Y-319382000D01*
X283220000Y-319381000D01*
X283222000Y-319381000D01*
X283225000Y-319380000D01*
X283227000Y-319380000D01*
X283230000Y-319380000D01*
X284170000Y-319380000D01*
X284173000Y-319380000D01*
X284175000Y-319380000D01*
X284178000Y-319381000D01*
G37*
X284963000Y-319306000D02*
X284965000Y-319306000D01*
X284968000Y-319307000D01*
X284970000Y-319307000D01*
X284973000Y-319308000D01*
X284975000Y-319309000D01*
X284978000Y-319310000D01*
X284980000Y-319312000D01*
X284982000Y-319313000D01*
X284984000Y-319315000D01*
X284986000Y-319316000D01*
X284988000Y-319318000D01*
X284990000Y-319320000D01*
X284992000Y-319322000D01*
X284994000Y-319324000D01*
X284995000Y-319326000D01*
X284997000Y-319328000D01*
X284998000Y-319330000D01*
X285000000Y-319332000D01*
X285001000Y-319335000D01*
X285002000Y-319337000D01*
X285003000Y-319340000D01*
X285003000Y-319342000D01*
X285004000Y-319345000D01*
X285004000Y-319347000D01*
X285005000Y-319350000D01*
X285005000Y-319352000D01*
X285005000Y-319355000D01*
X285005000Y-319645000D01*
X285005000Y-319648000D01*
X285005000Y-319650000D01*
X285004000Y-319653000D01*
X285004000Y-319655000D01*
X285003000Y-319658000D01*
X285003000Y-319660000D01*
X285002000Y-319663000D01*
X285001000Y-319665000D01*
X285000000Y-319668000D01*
X284998000Y-319670000D01*
X284997000Y-319672000D01*
X284995000Y-319674000D01*
X284994000Y-319676000D01*
X284992000Y-319678000D01*
X284990000Y-319680000D01*
X284988000Y-319682000D01*
X284986000Y-319684000D01*
X284984000Y-319685000D01*
X284982000Y-319687000D01*
X284980000Y-319688000D01*
X284978000Y-319690000D01*
X284975000Y-319691000D01*
X284973000Y-319692000D01*
X284970000Y-319693000D01*
X284968000Y-319693000D01*
X284965000Y-319694000D01*
X284963000Y-319694000D01*
X284960000Y-319695000D01*
X284958000Y-319695000D01*
X284955000Y-319695000D01*
X284415000Y-319695000D01*
X284412000Y-319695000D01*
X284410000Y-319695000D01*
X284407000Y-319694000D01*
X284405000Y-319694000D01*
X284402000Y-319693000D01*
X284400000Y-319693000D01*
X284397000Y-319692000D01*
X284395000Y-319691000D01*
X284392000Y-319690000D01*
X284390000Y-319688000D01*
X284388000Y-319687000D01*
X284386000Y-319685000D01*
X284384000Y-319684000D01*
X284382000Y-319682000D01*
X284380000Y-319680000D01*
X284378000Y-319678000D01*
X284376000Y-319676000D01*
X284375000Y-319674000D01*
X284373000Y-319672000D01*
X284372000Y-319670000D01*
X284370000Y-319668000D01*
X284369000Y-319665000D01*
X284368000Y-319663000D01*
X284367000Y-319660000D01*
X284367000Y-319658000D01*
X284366000Y-319655000D01*
X284366000Y-319653000D01*
X284365000Y-319650000D01*
X284365000Y-319648000D01*
X284365000Y-319645000D01*
X284365000Y-319355000D01*
X284365000Y-319352000D01*
X284365000Y-319350000D01*
X284366000Y-319347000D01*
X284366000Y-319345000D01*
X284367000Y-319342000D01*
X284367000Y-319340000D01*
X284368000Y-319337000D01*
X284369000Y-319335000D01*
X284370000Y-319332000D01*
X284372000Y-319330000D01*
X284373000Y-319328000D01*
X284375000Y-319326000D01*
X284376000Y-319324000D01*
X284378000Y-319322000D01*
X284380000Y-319320000D01*
X284382000Y-319318000D01*
X284384000Y-319316000D01*
X284386000Y-319315000D01*
X284388000Y-319313000D01*
X284390000Y-319312000D01*
X284392000Y-319310000D01*
X284395000Y-319309000D01*
X284397000Y-319308000D01*
X284400000Y-319307000D01*
X284402000Y-319307000D01*
X284405000Y-319306000D01*
X284407000Y-319306000D01*
X284410000Y-319305000D01*
X284412000Y-319305000D01*
X284415000Y-319305000D01*
X284955000Y-319305000D01*
X284958000Y-319305000D01*
X284960000Y-319305000D01*
X284963000Y-319306000D01*
G36*
X284963000Y-319306000D02*
G01*
X284965000Y-319306000D01*
X284968000Y-319307000D01*
X284970000Y-319307000D01*
X284973000Y-319308000D01*
X284975000Y-319309000D01*
X284978000Y-319310000D01*
X284980000Y-319312000D01*
X284982000Y-319313000D01*
X284984000Y-319315000D01*
X284986000Y-319316000D01*
X284988000Y-319318000D01*
X284990000Y-319320000D01*
X284992000Y-319322000D01*
X284994000Y-319324000D01*
X284995000Y-319326000D01*
X284997000Y-319328000D01*
X284998000Y-319330000D01*
X285000000Y-319332000D01*
X285001000Y-319335000D01*
X285002000Y-319337000D01*
X285003000Y-319340000D01*
X285003000Y-319342000D01*
X285004000Y-319345000D01*
X285004000Y-319347000D01*
X285005000Y-319350000D01*
X285005000Y-319352000D01*
X285005000Y-319355000D01*
X285005000Y-319645000D01*
X285005000Y-319648000D01*
X285005000Y-319650000D01*
X285004000Y-319653000D01*
X285004000Y-319655000D01*
X285003000Y-319658000D01*
X285003000Y-319660000D01*
X285002000Y-319663000D01*
X285001000Y-319665000D01*
X285000000Y-319668000D01*
X284998000Y-319670000D01*
X284997000Y-319672000D01*
X284995000Y-319674000D01*
X284994000Y-319676000D01*
X284992000Y-319678000D01*
X284990000Y-319680000D01*
X284988000Y-319682000D01*
X284986000Y-319684000D01*
X284984000Y-319685000D01*
X284982000Y-319687000D01*
X284980000Y-319688000D01*
X284978000Y-319690000D01*
X284975000Y-319691000D01*
X284973000Y-319692000D01*
X284970000Y-319693000D01*
X284968000Y-319693000D01*
X284965000Y-319694000D01*
X284963000Y-319694000D01*
X284960000Y-319695000D01*
X284958000Y-319695000D01*
X284955000Y-319695000D01*
X284415000Y-319695000D01*
X284412000Y-319695000D01*
X284410000Y-319695000D01*
X284407000Y-319694000D01*
X284405000Y-319694000D01*
X284402000Y-319693000D01*
X284400000Y-319693000D01*
X284397000Y-319692000D01*
X284395000Y-319691000D01*
X284392000Y-319690000D01*
X284390000Y-319688000D01*
X284388000Y-319687000D01*
X284386000Y-319685000D01*
X284384000Y-319684000D01*
X284382000Y-319682000D01*
X284380000Y-319680000D01*
X284378000Y-319678000D01*
X284376000Y-319676000D01*
X284375000Y-319674000D01*
X284373000Y-319672000D01*
X284372000Y-319670000D01*
X284370000Y-319668000D01*
X284369000Y-319665000D01*
X284368000Y-319663000D01*
X284367000Y-319660000D01*
X284367000Y-319658000D01*
X284366000Y-319655000D01*
X284366000Y-319653000D01*
X284365000Y-319650000D01*
X284365000Y-319648000D01*
X284365000Y-319645000D01*
X284365000Y-319355000D01*
X284365000Y-319352000D01*
X284365000Y-319350000D01*
X284366000Y-319347000D01*
X284366000Y-319345000D01*
X284367000Y-319342000D01*
X284367000Y-319340000D01*
X284368000Y-319337000D01*
X284369000Y-319335000D01*
X284370000Y-319332000D01*
X284372000Y-319330000D01*
X284373000Y-319328000D01*
X284375000Y-319326000D01*
X284376000Y-319324000D01*
X284378000Y-319322000D01*
X284380000Y-319320000D01*
X284382000Y-319318000D01*
X284384000Y-319316000D01*
X284386000Y-319315000D01*
X284388000Y-319313000D01*
X284390000Y-319312000D01*
X284392000Y-319310000D01*
X284395000Y-319309000D01*
X284397000Y-319308000D01*
X284400000Y-319307000D01*
X284402000Y-319307000D01*
X284405000Y-319306000D01*
X284407000Y-319306000D01*
X284410000Y-319305000D01*
X284412000Y-319305000D01*
X284415000Y-319305000D01*
X284955000Y-319305000D01*
X284958000Y-319305000D01*
X284960000Y-319305000D01*
X284963000Y-319306000D01*
G37*
X284963000Y-319806000D02*
X284965000Y-319806000D01*
X284968000Y-319807000D01*
X284970000Y-319807000D01*
X284973000Y-319808000D01*
X284975000Y-319809000D01*
X284978000Y-319810000D01*
X284980000Y-319812000D01*
X284982000Y-319813000D01*
X284984000Y-319815000D01*
X284986000Y-319816000D01*
X284988000Y-319818000D01*
X284990000Y-319820000D01*
X284992000Y-319822000D01*
X284994000Y-319824000D01*
X284995000Y-319826000D01*
X284997000Y-319828000D01*
X284998000Y-319830000D01*
X285000000Y-319832000D01*
X285001000Y-319835000D01*
X285002000Y-319837000D01*
X285003000Y-319840000D01*
X285003000Y-319842000D01*
X285004000Y-319845000D01*
X285004000Y-319847000D01*
X285005000Y-319850000D01*
X285005000Y-319852000D01*
X285005000Y-319855000D01*
X285005000Y-320145000D01*
X285005000Y-320148000D01*
X285005000Y-320150000D01*
X285004000Y-320153000D01*
X285004000Y-320155000D01*
X285003000Y-320158000D01*
X285003000Y-320160000D01*
X285002000Y-320163000D01*
X285001000Y-320165000D01*
X285000000Y-320168000D01*
X284998000Y-320170000D01*
X284997000Y-320172000D01*
X284995000Y-320174000D01*
X284994000Y-320176000D01*
X284992000Y-320178000D01*
X284990000Y-320180000D01*
X284988000Y-320182000D01*
X284986000Y-320184000D01*
X284984000Y-320185000D01*
X284982000Y-320187000D01*
X284980000Y-320188000D01*
X284978000Y-320190000D01*
X284975000Y-320191000D01*
X284973000Y-320192000D01*
X284970000Y-320193000D01*
X284968000Y-320193000D01*
X284965000Y-320194000D01*
X284963000Y-320194000D01*
X284960000Y-320195000D01*
X284958000Y-320195000D01*
X284955000Y-320195000D01*
X284415000Y-320195000D01*
X284412000Y-320195000D01*
X284410000Y-320195000D01*
X284407000Y-320194000D01*
X284405000Y-320194000D01*
X284402000Y-320193000D01*
X284400000Y-320193000D01*
X284397000Y-320192000D01*
X284395000Y-320191000D01*
X284392000Y-320190000D01*
X284390000Y-320188000D01*
X284388000Y-320187000D01*
X284386000Y-320185000D01*
X284384000Y-320184000D01*
X284382000Y-320182000D01*
X284380000Y-320180000D01*
X284378000Y-320178000D01*
X284376000Y-320176000D01*
X284375000Y-320174000D01*
X284373000Y-320172000D01*
X284372000Y-320170000D01*
X284370000Y-320168000D01*
X284369000Y-320165000D01*
X284368000Y-320163000D01*
X284367000Y-320160000D01*
X284367000Y-320158000D01*
X284366000Y-320155000D01*
X284366000Y-320153000D01*
X284365000Y-320150000D01*
X284365000Y-320148000D01*
X284365000Y-320145000D01*
X284365000Y-319855000D01*
X284365000Y-319852000D01*
X284365000Y-319850000D01*
X284366000Y-319847000D01*
X284366000Y-319845000D01*
X284367000Y-319842000D01*
X284367000Y-319840000D01*
X284368000Y-319837000D01*
X284369000Y-319835000D01*
X284370000Y-319832000D01*
X284372000Y-319830000D01*
X284373000Y-319828000D01*
X284375000Y-319826000D01*
X284376000Y-319824000D01*
X284378000Y-319822000D01*
X284380000Y-319820000D01*
X284382000Y-319818000D01*
X284384000Y-319816000D01*
X284386000Y-319815000D01*
X284388000Y-319813000D01*
X284390000Y-319812000D01*
X284392000Y-319810000D01*
X284395000Y-319809000D01*
X284397000Y-319808000D01*
X284400000Y-319807000D01*
X284402000Y-319807000D01*
X284405000Y-319806000D01*
X284407000Y-319806000D01*
X284410000Y-319805000D01*
X284412000Y-319805000D01*
X284415000Y-319805000D01*
X284955000Y-319805000D01*
X284958000Y-319805000D01*
X284960000Y-319805000D01*
X284963000Y-319806000D01*
G36*
X284963000Y-319806000D02*
G01*
X284965000Y-319806000D01*
X284968000Y-319807000D01*
X284970000Y-319807000D01*
X284973000Y-319808000D01*
X284975000Y-319809000D01*
X284978000Y-319810000D01*
X284980000Y-319812000D01*
X284982000Y-319813000D01*
X284984000Y-319815000D01*
X284986000Y-319816000D01*
X284988000Y-319818000D01*
X284990000Y-319820000D01*
X284992000Y-319822000D01*
X284994000Y-319824000D01*
X284995000Y-319826000D01*
X284997000Y-319828000D01*
X284998000Y-319830000D01*
X285000000Y-319832000D01*
X285001000Y-319835000D01*
X285002000Y-319837000D01*
X285003000Y-319840000D01*
X285003000Y-319842000D01*
X285004000Y-319845000D01*
X285004000Y-319847000D01*
X285005000Y-319850000D01*
X285005000Y-319852000D01*
X285005000Y-319855000D01*
X285005000Y-320145000D01*
X285005000Y-320148000D01*
X285005000Y-320150000D01*
X285004000Y-320153000D01*
X285004000Y-320155000D01*
X285003000Y-320158000D01*
X285003000Y-320160000D01*
X285002000Y-320163000D01*
X285001000Y-320165000D01*
X285000000Y-320168000D01*
X284998000Y-320170000D01*
X284997000Y-320172000D01*
X284995000Y-320174000D01*
X284994000Y-320176000D01*
X284992000Y-320178000D01*
X284990000Y-320180000D01*
X284988000Y-320182000D01*
X284986000Y-320184000D01*
X284984000Y-320185000D01*
X284982000Y-320187000D01*
X284980000Y-320188000D01*
X284978000Y-320190000D01*
X284975000Y-320191000D01*
X284973000Y-320192000D01*
X284970000Y-320193000D01*
X284968000Y-320193000D01*
X284965000Y-320194000D01*
X284963000Y-320194000D01*
X284960000Y-320195000D01*
X284958000Y-320195000D01*
X284955000Y-320195000D01*
X284415000Y-320195000D01*
X284412000Y-320195000D01*
X284410000Y-320195000D01*
X284407000Y-320194000D01*
X284405000Y-320194000D01*
X284402000Y-320193000D01*
X284400000Y-320193000D01*
X284397000Y-320192000D01*
X284395000Y-320191000D01*
X284392000Y-320190000D01*
X284390000Y-320188000D01*
X284388000Y-320187000D01*
X284386000Y-320185000D01*
X284384000Y-320184000D01*
X284382000Y-320182000D01*
X284380000Y-320180000D01*
X284378000Y-320178000D01*
X284376000Y-320176000D01*
X284375000Y-320174000D01*
X284373000Y-320172000D01*
X284372000Y-320170000D01*
X284370000Y-320168000D01*
X284369000Y-320165000D01*
X284368000Y-320163000D01*
X284367000Y-320160000D01*
X284367000Y-320158000D01*
X284366000Y-320155000D01*
X284366000Y-320153000D01*
X284365000Y-320150000D01*
X284365000Y-320148000D01*
X284365000Y-320145000D01*
X284365000Y-319855000D01*
X284365000Y-319852000D01*
X284365000Y-319850000D01*
X284366000Y-319847000D01*
X284366000Y-319845000D01*
X284367000Y-319842000D01*
X284367000Y-319840000D01*
X284368000Y-319837000D01*
X284369000Y-319835000D01*
X284370000Y-319832000D01*
X284372000Y-319830000D01*
X284373000Y-319828000D01*
X284375000Y-319826000D01*
X284376000Y-319824000D01*
X284378000Y-319822000D01*
X284380000Y-319820000D01*
X284382000Y-319818000D01*
X284384000Y-319816000D01*
X284386000Y-319815000D01*
X284388000Y-319813000D01*
X284390000Y-319812000D01*
X284392000Y-319810000D01*
X284395000Y-319809000D01*
X284397000Y-319808000D01*
X284400000Y-319807000D01*
X284402000Y-319807000D01*
X284405000Y-319806000D01*
X284407000Y-319806000D01*
X284410000Y-319805000D01*
X284412000Y-319805000D01*
X284415000Y-319805000D01*
X284955000Y-319805000D01*
X284958000Y-319805000D01*
X284960000Y-319805000D01*
X284963000Y-319806000D01*
G37*
X284963000Y-320306000D02*
X284965000Y-320306000D01*
X284968000Y-320307000D01*
X284970000Y-320307000D01*
X284973000Y-320308000D01*
X284975000Y-320309000D01*
X284978000Y-320310000D01*
X284980000Y-320312000D01*
X284982000Y-320313000D01*
X284984000Y-320315000D01*
X284986000Y-320316000D01*
X284988000Y-320318000D01*
X284990000Y-320320000D01*
X284992000Y-320322000D01*
X284994000Y-320324000D01*
X284995000Y-320326000D01*
X284997000Y-320328000D01*
X284998000Y-320330000D01*
X285000000Y-320332000D01*
X285001000Y-320335000D01*
X285002000Y-320337000D01*
X285003000Y-320340000D01*
X285003000Y-320342000D01*
X285004000Y-320345000D01*
X285004000Y-320347000D01*
X285005000Y-320350000D01*
X285005000Y-320352000D01*
X285005000Y-320355000D01*
X285005000Y-320645000D01*
X285005000Y-320648000D01*
X285005000Y-320650000D01*
X285004000Y-320653000D01*
X285004000Y-320655000D01*
X285003000Y-320658000D01*
X285003000Y-320660000D01*
X285002000Y-320663000D01*
X285001000Y-320665000D01*
X285000000Y-320668000D01*
X284998000Y-320670000D01*
X284997000Y-320672000D01*
X284995000Y-320674000D01*
X284994000Y-320676000D01*
X284992000Y-320678000D01*
X284990000Y-320680000D01*
X284988000Y-320682000D01*
X284986000Y-320684000D01*
X284984000Y-320685000D01*
X284982000Y-320687000D01*
X284980000Y-320688000D01*
X284978000Y-320690000D01*
X284975000Y-320691000D01*
X284973000Y-320692000D01*
X284970000Y-320693000D01*
X284968000Y-320693000D01*
X284965000Y-320694000D01*
X284963000Y-320694000D01*
X284960000Y-320695000D01*
X284958000Y-320695000D01*
X284955000Y-320695000D01*
X284415000Y-320695000D01*
X284412000Y-320695000D01*
X284410000Y-320695000D01*
X284407000Y-320694000D01*
X284405000Y-320694000D01*
X284402000Y-320693000D01*
X284400000Y-320693000D01*
X284397000Y-320692000D01*
X284395000Y-320691000D01*
X284392000Y-320690000D01*
X284390000Y-320688000D01*
X284388000Y-320687000D01*
X284386000Y-320685000D01*
X284384000Y-320684000D01*
X284382000Y-320682000D01*
X284380000Y-320680000D01*
X284378000Y-320678000D01*
X284376000Y-320676000D01*
X284375000Y-320674000D01*
X284373000Y-320672000D01*
X284372000Y-320670000D01*
X284370000Y-320668000D01*
X284369000Y-320665000D01*
X284368000Y-320663000D01*
X284367000Y-320660000D01*
X284367000Y-320658000D01*
X284366000Y-320655000D01*
X284366000Y-320653000D01*
X284365000Y-320650000D01*
X284365000Y-320648000D01*
X284365000Y-320645000D01*
X284365000Y-320355000D01*
X284365000Y-320352000D01*
X284365000Y-320350000D01*
X284366000Y-320347000D01*
X284366000Y-320345000D01*
X284367000Y-320342000D01*
X284367000Y-320340000D01*
X284368000Y-320337000D01*
X284369000Y-320335000D01*
X284370000Y-320332000D01*
X284372000Y-320330000D01*
X284373000Y-320328000D01*
X284375000Y-320326000D01*
X284376000Y-320324000D01*
X284378000Y-320322000D01*
X284380000Y-320320000D01*
X284382000Y-320318000D01*
X284384000Y-320316000D01*
X284386000Y-320315000D01*
X284388000Y-320313000D01*
X284390000Y-320312000D01*
X284392000Y-320310000D01*
X284395000Y-320309000D01*
X284397000Y-320308000D01*
X284400000Y-320307000D01*
X284402000Y-320307000D01*
X284405000Y-320306000D01*
X284407000Y-320306000D01*
X284410000Y-320305000D01*
X284412000Y-320305000D01*
X284415000Y-320305000D01*
X284955000Y-320305000D01*
X284958000Y-320305000D01*
X284960000Y-320305000D01*
X284963000Y-320306000D01*
G36*
X284963000Y-320306000D02*
G01*
X284965000Y-320306000D01*
X284968000Y-320307000D01*
X284970000Y-320307000D01*
X284973000Y-320308000D01*
X284975000Y-320309000D01*
X284978000Y-320310000D01*
X284980000Y-320312000D01*
X284982000Y-320313000D01*
X284984000Y-320315000D01*
X284986000Y-320316000D01*
X284988000Y-320318000D01*
X284990000Y-320320000D01*
X284992000Y-320322000D01*
X284994000Y-320324000D01*
X284995000Y-320326000D01*
X284997000Y-320328000D01*
X284998000Y-320330000D01*
X285000000Y-320332000D01*
X285001000Y-320335000D01*
X285002000Y-320337000D01*
X285003000Y-320340000D01*
X285003000Y-320342000D01*
X285004000Y-320345000D01*
X285004000Y-320347000D01*
X285005000Y-320350000D01*
X285005000Y-320352000D01*
X285005000Y-320355000D01*
X285005000Y-320645000D01*
X285005000Y-320648000D01*
X285005000Y-320650000D01*
X285004000Y-320653000D01*
X285004000Y-320655000D01*
X285003000Y-320658000D01*
X285003000Y-320660000D01*
X285002000Y-320663000D01*
X285001000Y-320665000D01*
X285000000Y-320668000D01*
X284998000Y-320670000D01*
X284997000Y-320672000D01*
X284995000Y-320674000D01*
X284994000Y-320676000D01*
X284992000Y-320678000D01*
X284990000Y-320680000D01*
X284988000Y-320682000D01*
X284986000Y-320684000D01*
X284984000Y-320685000D01*
X284982000Y-320687000D01*
X284980000Y-320688000D01*
X284978000Y-320690000D01*
X284975000Y-320691000D01*
X284973000Y-320692000D01*
X284970000Y-320693000D01*
X284968000Y-320693000D01*
X284965000Y-320694000D01*
X284963000Y-320694000D01*
X284960000Y-320695000D01*
X284958000Y-320695000D01*
X284955000Y-320695000D01*
X284415000Y-320695000D01*
X284412000Y-320695000D01*
X284410000Y-320695000D01*
X284407000Y-320694000D01*
X284405000Y-320694000D01*
X284402000Y-320693000D01*
X284400000Y-320693000D01*
X284397000Y-320692000D01*
X284395000Y-320691000D01*
X284392000Y-320690000D01*
X284390000Y-320688000D01*
X284388000Y-320687000D01*
X284386000Y-320685000D01*
X284384000Y-320684000D01*
X284382000Y-320682000D01*
X284380000Y-320680000D01*
X284378000Y-320678000D01*
X284376000Y-320676000D01*
X284375000Y-320674000D01*
X284373000Y-320672000D01*
X284372000Y-320670000D01*
X284370000Y-320668000D01*
X284369000Y-320665000D01*
X284368000Y-320663000D01*
X284367000Y-320660000D01*
X284367000Y-320658000D01*
X284366000Y-320655000D01*
X284366000Y-320653000D01*
X284365000Y-320650000D01*
X284365000Y-320648000D01*
X284365000Y-320645000D01*
X284365000Y-320355000D01*
X284365000Y-320352000D01*
X284365000Y-320350000D01*
X284366000Y-320347000D01*
X284366000Y-320345000D01*
X284367000Y-320342000D01*
X284367000Y-320340000D01*
X284368000Y-320337000D01*
X284369000Y-320335000D01*
X284370000Y-320332000D01*
X284372000Y-320330000D01*
X284373000Y-320328000D01*
X284375000Y-320326000D01*
X284376000Y-320324000D01*
X284378000Y-320322000D01*
X284380000Y-320320000D01*
X284382000Y-320318000D01*
X284384000Y-320316000D01*
X284386000Y-320315000D01*
X284388000Y-320313000D01*
X284390000Y-320312000D01*
X284392000Y-320310000D01*
X284395000Y-320309000D01*
X284397000Y-320308000D01*
X284400000Y-320307000D01*
X284402000Y-320307000D01*
X284405000Y-320306000D01*
X284407000Y-320306000D01*
X284410000Y-320305000D01*
X284412000Y-320305000D01*
X284415000Y-320305000D01*
X284955000Y-320305000D01*
X284958000Y-320305000D01*
X284960000Y-320305000D01*
X284963000Y-320306000D01*
G37*
X284963000Y-320806000D02*
X284965000Y-320806000D01*
X284968000Y-320807000D01*
X284970000Y-320807000D01*
X284973000Y-320808000D01*
X284975000Y-320809000D01*
X284978000Y-320810000D01*
X284980000Y-320812000D01*
X284982000Y-320813000D01*
X284984000Y-320815000D01*
X284986000Y-320816000D01*
X284988000Y-320818000D01*
X284990000Y-320820000D01*
X284992000Y-320822000D01*
X284994000Y-320824000D01*
X284995000Y-320826000D01*
X284997000Y-320828000D01*
X284998000Y-320830000D01*
X285000000Y-320832000D01*
X285001000Y-320835000D01*
X285002000Y-320837000D01*
X285003000Y-320840000D01*
X285003000Y-320842000D01*
X285004000Y-320845000D01*
X285004000Y-320847000D01*
X285005000Y-320850000D01*
X285005000Y-320852000D01*
X285005000Y-320855000D01*
X285005000Y-321145000D01*
X285005000Y-321148000D01*
X285005000Y-321150000D01*
X285004000Y-321153000D01*
X285004000Y-321155000D01*
X285003000Y-321158000D01*
X285003000Y-321160000D01*
X285002000Y-321163000D01*
X285001000Y-321165000D01*
X285000000Y-321168000D01*
X284998000Y-321170000D01*
X284997000Y-321172000D01*
X284995000Y-321174000D01*
X284994000Y-321176000D01*
X284992000Y-321178000D01*
X284990000Y-321180000D01*
X284988000Y-321182000D01*
X284986000Y-321184000D01*
X284984000Y-321185000D01*
X284982000Y-321187000D01*
X284980000Y-321188000D01*
X284978000Y-321190000D01*
X284975000Y-321191000D01*
X284973000Y-321192000D01*
X284970000Y-321193000D01*
X284968000Y-321193000D01*
X284965000Y-321194000D01*
X284963000Y-321194000D01*
X284960000Y-321195000D01*
X284958000Y-321195000D01*
X284955000Y-321195000D01*
X284415000Y-321195000D01*
X284412000Y-321195000D01*
X284410000Y-321195000D01*
X284407000Y-321194000D01*
X284405000Y-321194000D01*
X284402000Y-321193000D01*
X284400000Y-321193000D01*
X284397000Y-321192000D01*
X284395000Y-321191000D01*
X284392000Y-321190000D01*
X284390000Y-321188000D01*
X284388000Y-321187000D01*
X284386000Y-321185000D01*
X284384000Y-321184000D01*
X284382000Y-321182000D01*
X284380000Y-321180000D01*
X284378000Y-321178000D01*
X284376000Y-321176000D01*
X284375000Y-321174000D01*
X284373000Y-321172000D01*
X284372000Y-321170000D01*
X284370000Y-321168000D01*
X284369000Y-321165000D01*
X284368000Y-321163000D01*
X284367000Y-321160000D01*
X284367000Y-321158000D01*
X284366000Y-321155000D01*
X284366000Y-321153000D01*
X284365000Y-321150000D01*
X284365000Y-321148000D01*
X284365000Y-321145000D01*
X284365000Y-320855000D01*
X284365000Y-320852000D01*
X284365000Y-320850000D01*
X284366000Y-320847000D01*
X284366000Y-320845000D01*
X284367000Y-320842000D01*
X284367000Y-320840000D01*
X284368000Y-320837000D01*
X284369000Y-320835000D01*
X284370000Y-320832000D01*
X284372000Y-320830000D01*
X284373000Y-320828000D01*
X284375000Y-320826000D01*
X284376000Y-320824000D01*
X284378000Y-320822000D01*
X284380000Y-320820000D01*
X284382000Y-320818000D01*
X284384000Y-320816000D01*
X284386000Y-320815000D01*
X284388000Y-320813000D01*
X284390000Y-320812000D01*
X284392000Y-320810000D01*
X284395000Y-320809000D01*
X284397000Y-320808000D01*
X284400000Y-320807000D01*
X284402000Y-320807000D01*
X284405000Y-320806000D01*
X284407000Y-320806000D01*
X284410000Y-320805000D01*
X284412000Y-320805000D01*
X284415000Y-320805000D01*
X284955000Y-320805000D01*
X284958000Y-320805000D01*
X284960000Y-320805000D01*
X284963000Y-320806000D01*
G36*
X284963000Y-320806000D02*
G01*
X284965000Y-320806000D01*
X284968000Y-320807000D01*
X284970000Y-320807000D01*
X284973000Y-320808000D01*
X284975000Y-320809000D01*
X284978000Y-320810000D01*
X284980000Y-320812000D01*
X284982000Y-320813000D01*
X284984000Y-320815000D01*
X284986000Y-320816000D01*
X284988000Y-320818000D01*
X284990000Y-320820000D01*
X284992000Y-320822000D01*
X284994000Y-320824000D01*
X284995000Y-320826000D01*
X284997000Y-320828000D01*
X284998000Y-320830000D01*
X285000000Y-320832000D01*
X285001000Y-320835000D01*
X285002000Y-320837000D01*
X285003000Y-320840000D01*
X285003000Y-320842000D01*
X285004000Y-320845000D01*
X285004000Y-320847000D01*
X285005000Y-320850000D01*
X285005000Y-320852000D01*
X285005000Y-320855000D01*
X285005000Y-321145000D01*
X285005000Y-321148000D01*
X285005000Y-321150000D01*
X285004000Y-321153000D01*
X285004000Y-321155000D01*
X285003000Y-321158000D01*
X285003000Y-321160000D01*
X285002000Y-321163000D01*
X285001000Y-321165000D01*
X285000000Y-321168000D01*
X284998000Y-321170000D01*
X284997000Y-321172000D01*
X284995000Y-321174000D01*
X284994000Y-321176000D01*
X284992000Y-321178000D01*
X284990000Y-321180000D01*
X284988000Y-321182000D01*
X284986000Y-321184000D01*
X284984000Y-321185000D01*
X284982000Y-321187000D01*
X284980000Y-321188000D01*
X284978000Y-321190000D01*
X284975000Y-321191000D01*
X284973000Y-321192000D01*
X284970000Y-321193000D01*
X284968000Y-321193000D01*
X284965000Y-321194000D01*
X284963000Y-321194000D01*
X284960000Y-321195000D01*
X284958000Y-321195000D01*
X284955000Y-321195000D01*
X284415000Y-321195000D01*
X284412000Y-321195000D01*
X284410000Y-321195000D01*
X284407000Y-321194000D01*
X284405000Y-321194000D01*
X284402000Y-321193000D01*
X284400000Y-321193000D01*
X284397000Y-321192000D01*
X284395000Y-321191000D01*
X284392000Y-321190000D01*
X284390000Y-321188000D01*
X284388000Y-321187000D01*
X284386000Y-321185000D01*
X284384000Y-321184000D01*
X284382000Y-321182000D01*
X284380000Y-321180000D01*
X284378000Y-321178000D01*
X284376000Y-321176000D01*
X284375000Y-321174000D01*
X284373000Y-321172000D01*
X284372000Y-321170000D01*
X284370000Y-321168000D01*
X284369000Y-321165000D01*
X284368000Y-321163000D01*
X284367000Y-321160000D01*
X284367000Y-321158000D01*
X284366000Y-321155000D01*
X284366000Y-321153000D01*
X284365000Y-321150000D01*
X284365000Y-321148000D01*
X284365000Y-321145000D01*
X284365000Y-320855000D01*
X284365000Y-320852000D01*
X284365000Y-320850000D01*
X284366000Y-320847000D01*
X284366000Y-320845000D01*
X284367000Y-320842000D01*
X284367000Y-320840000D01*
X284368000Y-320837000D01*
X284369000Y-320835000D01*
X284370000Y-320832000D01*
X284372000Y-320830000D01*
X284373000Y-320828000D01*
X284375000Y-320826000D01*
X284376000Y-320824000D01*
X284378000Y-320822000D01*
X284380000Y-320820000D01*
X284382000Y-320818000D01*
X284384000Y-320816000D01*
X284386000Y-320815000D01*
X284388000Y-320813000D01*
X284390000Y-320812000D01*
X284392000Y-320810000D01*
X284395000Y-320809000D01*
X284397000Y-320808000D01*
X284400000Y-320807000D01*
X284402000Y-320807000D01*
X284405000Y-320806000D01*
X284407000Y-320806000D01*
X284410000Y-320805000D01*
X284412000Y-320805000D01*
X284415000Y-320805000D01*
X284955000Y-320805000D01*
X284958000Y-320805000D01*
X284960000Y-320805000D01*
X284963000Y-320806000D01*
G37*
%TO.C,U10*%
X270370000Y-304890000D02*
X269630000Y-304890000D01*
X269630000Y-304510000D01*
X270370000Y-304510000D01*
X270370000Y-304890000D01*
G36*
X270370000Y-304890000D02*
G01*
X269630000Y-304890000D01*
X269630000Y-304510000D01*
X270370000Y-304510000D01*
X270370000Y-304890000D01*
G37*
X270370000Y-305390000D02*
X269630000Y-305390000D01*
X269630000Y-305010000D01*
X270370000Y-305010000D01*
X270370000Y-305390000D01*
G36*
X270370000Y-305390000D02*
G01*
X269630000Y-305390000D01*
X269630000Y-305010000D01*
X270370000Y-305010000D01*
X270370000Y-305390000D01*
G37*
X270370000Y-305890000D02*
X269630000Y-305890000D01*
X269630000Y-305510000D01*
X270370000Y-305510000D01*
X270370000Y-305890000D01*
G36*
X270370000Y-305890000D02*
G01*
X269630000Y-305890000D01*
X269630000Y-305510000D01*
X270370000Y-305510000D01*
X270370000Y-305890000D01*
G37*
X270370000Y-306390000D02*
X269630000Y-306390000D01*
X269630000Y-306010000D01*
X270370000Y-306010000D01*
X270370000Y-306390000D01*
G36*
X270370000Y-306390000D02*
G01*
X269630000Y-306390000D01*
X269630000Y-306010000D01*
X270370000Y-306010000D01*
X270370000Y-306390000D01*
G37*
X270370000Y-306890000D02*
X269630000Y-306890000D01*
X269630000Y-306510000D01*
X270370000Y-306510000D01*
X270370000Y-306890000D01*
G36*
X270370000Y-306890000D02*
G01*
X269630000Y-306890000D01*
X269630000Y-306510000D01*
X270370000Y-306510000D01*
X270370000Y-306890000D01*
G37*
X273170000Y-304890000D02*
X272430000Y-304890000D01*
X272430000Y-304510000D01*
X273170000Y-304510000D01*
X273170000Y-304890000D01*
G36*
X273170000Y-304890000D02*
G01*
X272430000Y-304890000D01*
X272430000Y-304510000D01*
X273170000Y-304510000D01*
X273170000Y-304890000D01*
G37*
X273170000Y-305390000D02*
X272430000Y-305390000D01*
X272430000Y-305010000D01*
X273170000Y-305010000D01*
X273170000Y-305390000D01*
G36*
X273170000Y-305390000D02*
G01*
X272430000Y-305390000D01*
X272430000Y-305010000D01*
X273170000Y-305010000D01*
X273170000Y-305390000D01*
G37*
X273170000Y-305890000D02*
X272430000Y-305890000D01*
X272430000Y-305510000D01*
X273170000Y-305510000D01*
X273170000Y-305890000D01*
G36*
X273170000Y-305890000D02*
G01*
X272430000Y-305890000D01*
X272430000Y-305510000D01*
X273170000Y-305510000D01*
X273170000Y-305890000D01*
G37*
X273170000Y-306390000D02*
X272430000Y-306390000D01*
X272430000Y-306010000D01*
X273170000Y-306010000D01*
X273170000Y-306390000D01*
G36*
X273170000Y-306390000D02*
G01*
X272430000Y-306390000D01*
X272430000Y-306010000D01*
X273170000Y-306010000D01*
X273170000Y-306390000D01*
G37*
X273170000Y-306890000D02*
X272430000Y-306890000D01*
X272430000Y-306510000D01*
X273170000Y-306510000D01*
X273170000Y-306890000D01*
G36*
X273170000Y-306890000D02*
G01*
X272430000Y-306890000D01*
X272430000Y-306510000D01*
X273170000Y-306510000D01*
X273170000Y-306890000D01*
G37*
X271345000Y-304430000D02*
X271455000Y-304430000D01*
X271455000Y-303930000D01*
X271845000Y-303930000D01*
X271845000Y-304430000D01*
X272295000Y-304430000D01*
X272295000Y-306970000D01*
X271845000Y-306970000D01*
X271845000Y-307470000D01*
X271455000Y-307470000D01*
X271455000Y-306970000D01*
X271345000Y-306970000D01*
X271345000Y-307470000D01*
X270955000Y-307470000D01*
X270955000Y-306970000D01*
X270505000Y-306970000D01*
X270505000Y-304430000D01*
X270955000Y-304430000D01*
X270955000Y-303930000D01*
X271345000Y-303930000D01*
X271345000Y-304430000D01*
G36*
X271345000Y-304430000D02*
G01*
X271455000Y-304430000D01*
X271455000Y-303930000D01*
X271845000Y-303930000D01*
X271845000Y-304430000D01*
X272295000Y-304430000D01*
X272295000Y-306970000D01*
X271845000Y-306970000D01*
X271845000Y-307470000D01*
X271455000Y-307470000D01*
X271455000Y-306970000D01*
X271345000Y-306970000D01*
X271345000Y-307470000D01*
X270955000Y-307470000D01*
X270955000Y-306970000D01*
X270505000Y-306970000D01*
X270505000Y-304430000D01*
X270955000Y-304430000D01*
X270955000Y-303930000D01*
X271345000Y-303930000D01*
X271345000Y-304430000D01*
G37*
D12*
%TO.C,J6*%
X288883100Y-319750000D02*
G75*
G02*
X287656900Y-319750000I-613100J0D01*
G01*
X287656900Y-319750000D02*
G75*
G02*
X288883100Y-319750000I613100J0D01*
G01*
D13*
X301858100Y-319750000D02*
G75*
G02*
X300281900Y-319750000I-788100J0D01*
G01*
X300281900Y-319750000D02*
G75*
G02*
X301858100Y-319750000I788100J0D01*
G01*
D11*
X294996200Y-320976200D02*
X292543800Y-320976200D01*
X292543800Y-318523800D01*
X294996200Y-318523800D01*
X294996200Y-320976200D01*
G36*
X294996200Y-320976200D02*
G01*
X292543800Y-320976200D01*
X292543800Y-318523800D01*
X294996200Y-318523800D01*
X294996200Y-320976200D01*
G37*
%TD*%
D14*
%TO.C,R15*%
X270425000Y-273350000D03*
X272250000Y-273350000D03*
%TD*%
%TO.C,R39*%
X263900000Y-308300000D03*
X265725000Y-308300000D03*
%TD*%
D15*
%TO.C,C21*%
X182300000Y-302900000D03*
X184200000Y-302900000D03*
%TD*%
D16*
%TO.C,J4*%
X110160000Y-288710000D03*
D17*
X112700000Y-291250000D03*
X112700000Y-286170000D03*
X107620000Y-291250000D03*
X107620000Y-286170000D03*
%TD*%
D18*
%TO.C,R42*%
X254445000Y-299500000D03*
X252620000Y-299500000D03*
%TD*%
D19*
%TO.C,R1*%
X141450000Y-294000000D03*
X141450000Y-292175000D03*
%TD*%
D20*
%TO.C,C5*%
X145150000Y-292050000D03*
X145150000Y-290150000D03*
%TD*%
D21*
%TO.C,D13*%
X276075000Y-288050000D03*
X274200000Y-288050000D03*
%TD*%
D22*
%TO.C,TP3*%
X81000000Y-326400000D03*
%TD*%
D18*
%TO.C,R7*%
X270512500Y-316000000D03*
X268687500Y-316000000D03*
%TD*%
D23*
%TO.C,C33*%
X285450000Y-323850000D03*
X285450000Y-325750000D03*
%TD*%
D22*
%TO.C,TP1*%
X300200000Y-273750000D03*
%TD*%
D24*
%TO.C,U8*%
X251986200Y-306195000D03*
X251986200Y-307465000D03*
X251986200Y-308735000D03*
X251986200Y-310005000D03*
X256913800Y-310005000D03*
X256913800Y-308735000D03*
X256913800Y-307465000D03*
X256913800Y-306195000D03*
%TD*%
D14*
%TO.C,R17*%
X270425000Y-277550000D03*
X272250000Y-277550000D03*
%TD*%
D25*
%TO.C,MT2*%
X111960000Y-329920000D03*
%TD*%
D23*
%TO.C,C6*%
X145250000Y-294600000D03*
X145250000Y-296500000D03*
%TD*%
D26*
%TO.C,U3*%
X175815000Y-292914322D03*
X175815000Y-293414322D03*
X175815000Y-293914322D03*
X175815000Y-294414322D03*
X175815000Y-294914322D03*
D27*
X176500000Y-295599322D03*
X177000000Y-295599322D03*
X177500000Y-295599322D03*
X178000000Y-295599322D03*
X178500000Y-295599322D03*
D26*
X179185000Y-294914322D03*
X179185000Y-294414322D03*
X179185000Y-293914322D03*
X179185000Y-293414322D03*
X179185000Y-292914322D03*
D27*
X178500000Y-292229322D03*
X178000000Y-292229322D03*
X177500000Y-292229322D03*
X177000000Y-292229322D03*
X176500000Y-292229322D03*
D28*
X177000000Y-293914322D03*
X177500000Y-293414322D03*
D29*
X177500000Y-293914322D03*
D28*
X177500000Y-294414322D03*
X178000000Y-293914322D03*
%TD*%
D21*
%TO.C,D12*%
X276075000Y-285950000D03*
X274200000Y-285950000D03*
%TD*%
%TO.C,D9*%
X276075000Y-279650000D03*
X274200000Y-279650000D03*
%TD*%
D30*
%TO.C,U1*%
X127450000Y-311670000D03*
X127450000Y-314210000D03*
X127450000Y-316750000D03*
X131250000Y-316750000D03*
X131250000Y-314210000D03*
X131250000Y-311670000D03*
%TD*%
D22*
%TO.C,TP4*%
X79052280Y-265600000D03*
%TD*%
D18*
%TO.C,R4*%
X149162500Y-290000000D03*
X147337500Y-290000000D03*
%TD*%
D31*
%TO.C,D1*%
X282700000Y-314225000D03*
X282700000Y-316100000D03*
%TD*%
D14*
%TO.C,R18*%
X270425000Y-279650000D03*
X272250000Y-279650000D03*
%TD*%
D32*
%TO.C,L2*%
X182299900Y-300800000D03*
X183900100Y-300800000D03*
%TD*%
D18*
%TO.C,R44*%
X250725000Y-296550000D03*
X248900000Y-296550000D03*
%TD*%
D14*
%TO.C,R23*%
X270425000Y-290150000D03*
X272250000Y-290150000D03*
%TD*%
D21*
%TO.C,D8*%
X276075000Y-277550000D03*
X274200000Y-277550000D03*
%TD*%
D15*
%TO.C,C2*%
X118300000Y-288820000D03*
X120200000Y-288820000D03*
%TD*%
D14*
%TO.C,R25*%
X270425000Y-294350000D03*
X272250000Y-294350000D03*
%TD*%
D15*
%TO.C,C45*%
X275350000Y-307900000D03*
X277250000Y-307900000D03*
%TD*%
%TO.C,C12*%
X182350000Y-292499322D03*
X184250000Y-292499322D03*
%TD*%
D33*
%TO.C,U4*%
X271549999Y-319250001D03*
D34*
X270950000Y-319050002D03*
X270449998Y-319050002D03*
X269949999Y-319050002D03*
X269450000Y-319050002D03*
X268949998Y-319050002D03*
D35*
X268349999Y-319250001D03*
D36*
X268100000Y-319900000D03*
X268100000Y-320400001D03*
X268100000Y-320900001D03*
X268100000Y-321400002D03*
D37*
X268349999Y-322050001D03*
D34*
X268949998Y-322250000D03*
X269450000Y-322250000D03*
X269949999Y-322250000D03*
X270449998Y-322250000D03*
X270950000Y-322250000D03*
D38*
X271549999Y-322050001D03*
D36*
X271799998Y-321400002D03*
X271799998Y-320900001D03*
X271799998Y-320400001D03*
X271799998Y-319900000D03*
D39*
X269650000Y-320100002D03*
X270299998Y-320650001D03*
D40*
X269650000Y-320650001D03*
D39*
X268999998Y-320650001D03*
X269650000Y-321200000D03*
%TD*%
D18*
%TO.C,R43*%
X254400000Y-296500000D03*
X252575000Y-296500000D03*
%TD*%
D14*
%TO.C,R21*%
X270425000Y-285950000D03*
X272250000Y-285950000D03*
%TD*%
D20*
%TO.C,C16*%
X176500000Y-289099322D03*
X176500000Y-287199322D03*
%TD*%
D15*
%TO.C,C3*%
X134450000Y-316500000D03*
X136350000Y-316500000D03*
%TD*%
D41*
%TO.C,Q1*%
X275762500Y-314600000D03*
X275762500Y-315900000D03*
X277637500Y-315250000D03*
%TD*%
D22*
%TO.C,TP5*%
X248100000Y-292500000D03*
%TD*%
D23*
%TO.C,C15*%
X172600000Y-293179322D03*
X172600000Y-295079322D03*
%TD*%
D21*
%TO.C,D6*%
X276075000Y-273350000D03*
X274200000Y-273350000D03*
%TD*%
D18*
%TO.C,R3*%
X149162500Y-292100000D03*
X147337500Y-292100000D03*
%TD*%
D14*
%TO.C,R38*%
X263900000Y-305350000D03*
X265725000Y-305350000D03*
%TD*%
D21*
%TO.C,D5*%
X276075000Y-271250000D03*
X274200000Y-271250000D03*
%TD*%
D20*
%TO.C,C25*%
X263600000Y-323100000D03*
X263600000Y-321200000D03*
%TD*%
D25*
%TO.C,MT4*%
X246580000Y-263880000D03*
%TD*%
D14*
%TO.C,R12*%
X270425000Y-267050000D03*
X272250000Y-267050000D03*
%TD*%
%TO.C,R26*%
X270425000Y-296450000D03*
X272250000Y-296450000D03*
%TD*%
D23*
%TO.C,C19*%
X276400000Y-319950000D03*
X276400000Y-321850000D03*
%TD*%
%TO.C,C17*%
X278600000Y-319950000D03*
X278600000Y-321850000D03*
%TD*%
D42*
%TO.C,C31*%
X184300000Y-286014322D03*
X182400000Y-286014322D03*
%TD*%
D14*
%TO.C,R13*%
X270425000Y-269150000D03*
X272250000Y-269150000D03*
%TD*%
D15*
%TO.C,C13*%
X182400000Y-290199322D03*
X184300000Y-290199322D03*
%TD*%
D18*
%TO.C,R41*%
X280812500Y-305100000D03*
X278987500Y-305100000D03*
%TD*%
D21*
%TO.C,D10*%
X276075000Y-281750000D03*
X274200000Y-281750000D03*
%TD*%
D43*
%TO.C,J5*%
X195270000Y-266480000D03*
X235910000Y-266480000D03*
D44*
X204160000Y-267500000D03*
D45*
X204160000Y-264960000D03*
X206700000Y-267500000D03*
X206700000Y-264960000D03*
X209240000Y-267500000D03*
X209240000Y-264960000D03*
X211780000Y-267500000D03*
X211780000Y-264960000D03*
X214320000Y-267500000D03*
X214320000Y-264960000D03*
X216860000Y-267500000D03*
X216860000Y-264960000D03*
X219400000Y-267500000D03*
X219400000Y-264960000D03*
X221940000Y-267500000D03*
X221940000Y-264960000D03*
X224480000Y-267500000D03*
X224480000Y-264960000D03*
X227020000Y-267500000D03*
X227020000Y-264960000D03*
%TD*%
D25*
%TO.C,MT5*%
X299920000Y-329920000D03*
%TD*%
%TO.C,MT8*%
X68780000Y-263880000D03*
%TD*%
%TO.C,MT6*%
X164738974Y-263880000D03*
%TD*%
D15*
%TO.C,C14*%
X182300000Y-294799322D03*
X184200000Y-294799322D03*
%TD*%
D46*
%TO.C,U7*%
X253205000Y-275300000D03*
X253205000Y-275800000D03*
X253205000Y-276300000D03*
X253205000Y-276800000D03*
X253205000Y-277300000D03*
X253205000Y-277800000D03*
X253205000Y-278300000D03*
X253205000Y-278800000D03*
X253205000Y-279300000D03*
X253205000Y-279800000D03*
X253205000Y-280300000D03*
X253205000Y-280800000D03*
X253205000Y-281300000D03*
X253205000Y-281800000D03*
X253205000Y-282300000D03*
X253205000Y-282800000D03*
X253205000Y-283300000D03*
X253205000Y-283800000D03*
X253205000Y-284300000D03*
X253205000Y-284800000D03*
X253205000Y-285300000D03*
X253205000Y-285800000D03*
X253205000Y-286300000D03*
X253205000Y-286800000D03*
X260645000Y-286800000D03*
X260645000Y-286300000D03*
X260645000Y-285800000D03*
X260645000Y-285300000D03*
X260645000Y-284800000D03*
X260645000Y-284300000D03*
X260645000Y-283800000D03*
X260645000Y-283300000D03*
X260645000Y-282800000D03*
X260645000Y-282300000D03*
X260645000Y-281800000D03*
X260645000Y-281300000D03*
X260645000Y-280800000D03*
X260645000Y-280300000D03*
X260645000Y-279800000D03*
X260645000Y-279300000D03*
X260645000Y-278800000D03*
X260645000Y-278300000D03*
X260645000Y-277800000D03*
X260645000Y-277300000D03*
X260645000Y-276800000D03*
X260645000Y-276300000D03*
X260645000Y-275800000D03*
X260645000Y-275300000D03*
%TD*%
D20*
%TO.C,C9*%
X160500000Y-291700000D03*
X160500000Y-289800000D03*
%TD*%
D14*
%TO.C,R20*%
X270425000Y-283850000D03*
X272250000Y-283850000D03*
%TD*%
D19*
%TO.C,R10*%
X273100000Y-316600000D03*
X273100000Y-314775000D03*
%TD*%
D20*
%TO.C,C28*%
X174350000Y-302550000D03*
X174350000Y-300650000D03*
%TD*%
D42*
%TO.C,C30*%
X172450000Y-304500000D03*
X170550000Y-304500000D03*
%TD*%
D14*
%TO.C,R16*%
X270425000Y-275450000D03*
X272250000Y-275450000D03*
%TD*%
D20*
%TO.C,C8*%
X162600000Y-291700000D03*
X162600000Y-289800000D03*
%TD*%
D23*
%TO.C,C7*%
X151950000Y-294650000D03*
X151950000Y-296550000D03*
%TD*%
D18*
%TO.C,R40*%
X284525000Y-305100000D03*
X282700000Y-305100000D03*
%TD*%
D47*
%TO.C,U2*%
X161950000Y-295047599D03*
X161450001Y-295047599D03*
X160949999Y-295047599D03*
X160450000Y-295047599D03*
X159950001Y-295047599D03*
X159450000Y-295047599D03*
X158950000Y-295047599D03*
X158449999Y-295047599D03*
X157950000Y-295047599D03*
X157450001Y-295047599D03*
X156949999Y-295047599D03*
X156450000Y-295047599D03*
D48*
X155747599Y-295750000D03*
X155747599Y-296249999D03*
X155747599Y-296750001D03*
X155747599Y-297250000D03*
X155747599Y-297749999D03*
X155747599Y-298250000D03*
X155747599Y-298750000D03*
X155747599Y-299250001D03*
X155747599Y-299750000D03*
X155747599Y-300249999D03*
X155747599Y-300750001D03*
X155747599Y-301250000D03*
D47*
X156450000Y-301952401D03*
X156949999Y-301952401D03*
X157450001Y-301952401D03*
X157950000Y-301952401D03*
X158449999Y-301952401D03*
X158950000Y-301952401D03*
X159450000Y-301952401D03*
X159950001Y-301952401D03*
X160450000Y-301952401D03*
X160949999Y-301952401D03*
X161450001Y-301952401D03*
X161950000Y-301952401D03*
D48*
X162652401Y-301250000D03*
X162652401Y-300750001D03*
X162652401Y-300249999D03*
X162652401Y-299750000D03*
X162652401Y-299250001D03*
X162652401Y-298750000D03*
X162652401Y-298250000D03*
X162652401Y-297749999D03*
X162652401Y-297250000D03*
X162652401Y-296750001D03*
X162652401Y-296249999D03*
X162652401Y-295750000D03*
D39*
X160950000Y-296500000D03*
X159700000Y-296500000D03*
X158450000Y-296500000D03*
X157200000Y-296500000D03*
X160950000Y-298000000D03*
X159700000Y-298000000D03*
X158450000Y-298000000D03*
X157200000Y-298000000D03*
D49*
X159200000Y-298500000D03*
D39*
X160950000Y-299250000D03*
X159700000Y-299250000D03*
X158450000Y-299250000D03*
X157200000Y-299250000D03*
X160950000Y-300500000D03*
X159700000Y-300500000D03*
X158450000Y-300500000D03*
X157200000Y-300500000D03*
%TD*%
D23*
%TO.C,C38*%
X274200000Y-319950000D03*
X274200000Y-321850000D03*
%TD*%
D18*
%TO.C,R45*%
X250725000Y-299500000D03*
X248900000Y-299500000D03*
%TD*%
D20*
%TO.C,C18*%
X174350000Y-289114322D03*
X174350000Y-287214322D03*
%TD*%
D15*
%TO.C,C40*%
X118450000Y-294000000D03*
X120350000Y-294000000D03*
%TD*%
D50*
%TO.C,J2*%
X217624000Y-321284000D03*
D51*
X215124000Y-321284000D03*
X212624000Y-321284000D03*
X210124000Y-321284000D03*
X207624000Y-321284000D03*
X205124000Y-321284000D03*
X202624000Y-321284000D03*
X200124000Y-321284000D03*
X197624000Y-321284000D03*
X195124000Y-321284000D03*
X217624000Y-319784000D03*
X215124000Y-319784000D03*
X212624000Y-319784000D03*
X210124000Y-319784000D03*
X207624000Y-319784000D03*
X205124000Y-319784000D03*
X202624000Y-319784000D03*
X200124000Y-319784000D03*
X197624000Y-319784000D03*
X195124000Y-319784000D03*
X217624000Y-318284000D03*
X215124000Y-318284000D03*
X212624000Y-318284000D03*
X210124000Y-318284000D03*
X207624000Y-318284000D03*
X205124000Y-318284000D03*
X202624000Y-318284000D03*
X200124000Y-318284000D03*
X197624000Y-318284000D03*
X195124000Y-318284000D03*
X217624000Y-316784000D03*
X215124000Y-316784000D03*
X212624000Y-316784000D03*
X210124000Y-316784000D03*
X207624000Y-316784000D03*
X205124000Y-316784000D03*
X202624000Y-316784000D03*
X200124000Y-316784000D03*
X197624000Y-316784000D03*
X195124000Y-316784000D03*
X217624000Y-315284000D03*
X215124000Y-315284000D03*
X212624000Y-315284000D03*
X210124000Y-315284000D03*
X207624000Y-315284000D03*
X205124000Y-315284000D03*
X202624000Y-315284000D03*
X200124000Y-315284000D03*
X197624000Y-315284000D03*
X195124000Y-315284000D03*
X217624000Y-313784000D03*
X215124000Y-313784000D03*
X212624000Y-313784000D03*
X210124000Y-313784000D03*
X207624000Y-313784000D03*
X205124000Y-313784000D03*
X202624000Y-313784000D03*
X200124000Y-313784000D03*
X197624000Y-313784000D03*
X195124000Y-313784000D03*
%TD*%
D52*
%TO.C,J6*%
X301070000Y-319750000D03*
%TD*%
D50*
%TO.C,J1*%
X166824000Y-321284000D03*
D51*
X164324000Y-321284000D03*
X161824000Y-321284000D03*
X159324000Y-321284000D03*
X156824000Y-321284000D03*
X154324000Y-321284000D03*
X151824000Y-321284000D03*
X149324000Y-321284000D03*
X146824000Y-321284000D03*
X144324000Y-321284000D03*
X166824000Y-319784000D03*
X164324000Y-319784000D03*
X161824000Y-319784000D03*
X159324000Y-319784000D03*
X156824000Y-319784000D03*
X154324000Y-319784000D03*
X151824000Y-319784000D03*
X149324000Y-319784000D03*
X146824000Y-319784000D03*
X144324000Y-319784000D03*
X166824000Y-318284000D03*
X164324000Y-318284000D03*
X161824000Y-318284000D03*
X159324000Y-318284000D03*
X156824000Y-318284000D03*
X154324000Y-318284000D03*
X151824000Y-318284000D03*
X149324000Y-318284000D03*
X146824000Y-318284000D03*
X144324000Y-318284000D03*
X166824000Y-316784000D03*
X164324000Y-316784000D03*
X161824000Y-316784000D03*
X159324000Y-316784000D03*
X156824000Y-316784000D03*
X154324000Y-316784000D03*
X151824000Y-316784000D03*
X149324000Y-316784000D03*
X146824000Y-316784000D03*
X144324000Y-316784000D03*
X166824000Y-315284000D03*
X164324000Y-315284000D03*
X161824000Y-315284000D03*
X159324000Y-315284000D03*
X156824000Y-315284000D03*
X154324000Y-315284000D03*
X151824000Y-315284000D03*
X149324000Y-315284000D03*
X146824000Y-315284000D03*
X144324000Y-315284000D03*
X166824000Y-313784000D03*
X164324000Y-313784000D03*
X161824000Y-313784000D03*
X159324000Y-313784000D03*
X156824000Y-313784000D03*
X154324000Y-313784000D03*
X151824000Y-313784000D03*
X149324000Y-313784000D03*
X146824000Y-313784000D03*
X144324000Y-313784000D03*
%TD*%
D15*
%TO.C,C23*%
X182300000Y-307400000D03*
X184200000Y-307400000D03*
%TD*%
%TO.C,C22*%
X182300000Y-305100000D03*
X184200000Y-305100000D03*
%TD*%
D21*
%TO.C,D16*%
X276075000Y-294350000D03*
X274200000Y-294350000D03*
%TD*%
D43*
%TO.C,J7*%
X102350000Y-266480000D03*
X142990000Y-266480000D03*
D44*
X111240000Y-267500000D03*
D45*
X111240000Y-264960000D03*
X113780000Y-267500000D03*
X113780000Y-264960000D03*
X116320000Y-267500000D03*
X116320000Y-264960000D03*
X118860000Y-267500000D03*
X118860000Y-264960000D03*
X121400000Y-267500000D03*
X121400000Y-264960000D03*
X123940000Y-267500000D03*
X123940000Y-264960000D03*
X126480000Y-267500000D03*
X126480000Y-264960000D03*
X129020000Y-267500000D03*
X129020000Y-264960000D03*
X131560000Y-267500000D03*
X131560000Y-264960000D03*
X134100000Y-267500000D03*
X134100000Y-264960000D03*
%TD*%
D14*
%TO.C,R24*%
X270425000Y-292250000D03*
X272250000Y-292250000D03*
%TD*%
D26*
%TO.C,U5*%
X175815000Y-305800000D03*
X175815000Y-306300000D03*
X175815000Y-306800000D03*
X175815000Y-307300000D03*
X175815000Y-307800000D03*
D27*
X176500000Y-308485000D03*
X177000000Y-308485000D03*
X177500000Y-308485000D03*
X178000000Y-308485000D03*
X178500000Y-308485000D03*
D26*
X179185000Y-307800000D03*
X179185000Y-307300000D03*
X179185000Y-306800000D03*
X179185000Y-306300000D03*
X179185000Y-305800000D03*
D27*
X178500000Y-305115000D03*
X178000000Y-305115000D03*
X177500000Y-305115000D03*
X177000000Y-305115000D03*
X176500000Y-305115000D03*
D28*
X177000000Y-306800000D03*
X177500000Y-306300000D03*
D29*
X177500000Y-306800000D03*
D28*
X177500000Y-307300000D03*
X178000000Y-306800000D03*
%TD*%
D18*
%TO.C,R36*%
X284525000Y-307900000D03*
X282700000Y-307900000D03*
%TD*%
D23*
%TO.C,C26*%
X172300000Y-306400000D03*
X172300000Y-308300000D03*
%TD*%
D20*
%TO.C,C24*%
X265900000Y-323100000D03*
X265900000Y-321200000D03*
%TD*%
D14*
%TO.C,R14*%
X270425000Y-271250000D03*
X272250000Y-271250000D03*
%TD*%
D21*
%TO.C,D4*%
X276075000Y-269150000D03*
X274200000Y-269150000D03*
%TD*%
%TO.C,D7*%
X276075000Y-275450000D03*
X274200000Y-275450000D03*
%TD*%
D42*
%TO.C,C20*%
X172600000Y-291099322D03*
X170700000Y-291099322D03*
%TD*%
D19*
%TO.C,R2*%
X141450000Y-290325000D03*
X141450000Y-288500000D03*
%TD*%
D25*
%TO.C,MT3*%
X250644000Y-329920000D03*
%TD*%
D14*
%TO.C,R19*%
X270425000Y-281750000D03*
X272250000Y-281750000D03*
%TD*%
%TO.C,R22*%
X270425000Y-288050000D03*
X272250000Y-288050000D03*
%TD*%
D21*
%TO.C,D2*%
X276075000Y-264950000D03*
X274200000Y-264950000D03*
%TD*%
D53*
%TO.C,T1*%
X137050000Y-288820000D03*
X137050000Y-291360000D03*
X137050000Y-293900000D03*
X124990000Y-293900000D03*
X124990000Y-291360000D03*
X124990000Y-288820000D03*
%TD*%
D21*
%TO.C,D11*%
X276075000Y-283850000D03*
X274200000Y-283850000D03*
%TD*%
D15*
%TO.C,C32*%
X182300000Y-298700000D03*
X184200000Y-298700000D03*
%TD*%
D21*
%TO.C,D17*%
X276075000Y-296450000D03*
X274200000Y-296450000D03*
%TD*%
D54*
%TO.C,R8*%
X281450000Y-323925000D03*
X281450000Y-325750000D03*
%TD*%
D50*
%TO.C,J3*%
X243024000Y-321284000D03*
D51*
X240524000Y-321284000D03*
X238024000Y-321284000D03*
X235524000Y-321284000D03*
X233024000Y-321284000D03*
X230524000Y-321284000D03*
X228024000Y-321284000D03*
X225524000Y-321284000D03*
X223024000Y-321284000D03*
X220524000Y-321284000D03*
X243024000Y-319784000D03*
X240524000Y-319784000D03*
X238024000Y-319784000D03*
X235524000Y-319784000D03*
X233024000Y-319784000D03*
X230524000Y-319784000D03*
X228024000Y-319784000D03*
X225524000Y-319784000D03*
X223024000Y-319784000D03*
X220524000Y-319784000D03*
X243024000Y-318284000D03*
X240524000Y-318284000D03*
X238024000Y-318284000D03*
X235524000Y-318284000D03*
X233024000Y-318284000D03*
X230524000Y-318284000D03*
X228024000Y-318284000D03*
X225524000Y-318284000D03*
X223024000Y-318284000D03*
X220524000Y-318284000D03*
X243024000Y-316784000D03*
X240524000Y-316784000D03*
X238024000Y-316784000D03*
X235524000Y-316784000D03*
X233024000Y-316784000D03*
X230524000Y-316784000D03*
X228024000Y-316784000D03*
X225524000Y-316784000D03*
X223024000Y-316784000D03*
X220524000Y-316784000D03*
X243024000Y-315284000D03*
X240524000Y-315284000D03*
X238024000Y-315284000D03*
X235524000Y-315284000D03*
X233024000Y-315284000D03*
X230524000Y-315284000D03*
X228024000Y-315284000D03*
X225524000Y-315284000D03*
X223024000Y-315284000D03*
X220524000Y-315284000D03*
X243024000Y-313784000D03*
X240524000Y-313784000D03*
X238024000Y-313784000D03*
X235524000Y-313784000D03*
X233024000Y-313784000D03*
X230524000Y-313784000D03*
X228024000Y-313784000D03*
X225524000Y-313784000D03*
X223024000Y-313784000D03*
X220524000Y-313784000D03*
%TD*%
D20*
%TO.C,C27*%
X261300000Y-323100000D03*
X261300000Y-321200000D03*
%TD*%
D21*
%TO.C,D3*%
X276075000Y-267050000D03*
X274200000Y-267050000D03*
%TD*%
D19*
%TO.C,R6*%
X151450000Y-291912500D03*
X151450000Y-290087500D03*
%TD*%
D20*
%TO.C,C29*%
X176500000Y-302550000D03*
X176500000Y-300650000D03*
%TD*%
D32*
%TO.C,L1*%
X182350000Y-288114322D03*
X183950200Y-288114322D03*
%TD*%
D22*
%TO.C,TP2*%
X259450000Y-332000000D03*
%TD*%
D25*
%TO.C,MT7*%
X299920000Y-263880000D03*
%TD*%
D14*
%TO.C,R11*%
X270415000Y-264950000D03*
X272240000Y-264950000D03*
%TD*%
D20*
%TO.C,C10*%
X166200000Y-299100000D03*
X166200000Y-297200000D03*
%TD*%
D54*
%TO.C,R9*%
X285450000Y-329200000D03*
X285450000Y-331025000D03*
%TD*%
D15*
%TO.C,C44*%
X275300000Y-305100000D03*
X277200000Y-305100000D03*
%TD*%
D18*
%TO.C,R37*%
X280912500Y-307900000D03*
X279087500Y-307900000D03*
%TD*%
D21*
%TO.C,D15*%
X276075000Y-292250000D03*
X274200000Y-292250000D03*
%TD*%
D54*
%TO.C,R27*%
X280100000Y-314175000D03*
X280100000Y-316000000D03*
%TD*%
D18*
%TO.C,R5*%
X149675000Y-294600000D03*
X147850000Y-294600000D03*
%TD*%
D21*
%TO.C,D14*%
X276075000Y-290150000D03*
X274200000Y-290150000D03*
%TD*%
D25*
%TO.C,MT1*%
X68780000Y-329920000D03*
%TD*%
D15*
%TO.C,C4*%
X134400000Y-314200000D03*
X136300000Y-314200000D03*
%TD*%
D55*
X63700000Y-258800000D02*
X305000000Y-258800000D01*
X246199000Y-335000000D02*
X246199000Y-322300000D01*
X305000000Y-258800000D02*
X305000000Y-335000000D01*
X116405000Y-322300000D02*
X116405000Y-333730000D01*
X246199000Y-322300000D02*
X116405000Y-322300000D01*
X63700000Y-335000000D02*
X63700000Y-258800000D01*
X305000000Y-335000000D02*
X246199000Y-335000000D01*
X116405000Y-333730000D02*
X116405000Y-335000000D01*
X116405000Y-335000000D02*
X63700000Y-335000000D01*
M02*
