%TF.GenerationSoftware,KiCad,Pcbnew,9.0.6*%
%TF.CreationDate,2026-06-05T13:51:10-04:00*%
%TF.ProjectId,acmi2-afe,61636d69-322d-4616-9665-2e6b69636164,rev?*%
%TF.SameCoordinates,Original*%
%TF.FileFunction,Legend,Bot*%
%TF.FilePolarity,Positive*%
%FSLAX46Y46*%
G04 Gerber Fmt 4.6, Leading zero omitted, Abs format (unit mm)*
G04 Created by KiCad (PCBNEW 9.0.6) date 2026-06-05 13:51:10*
%MOMM*%
%LPD*%
G01*
G04 APERTURE LIST*
G04 Aperture macros list*
%AMRoundRect*
0 Rectangle with rounded corners*
0 $1 Rounding radius*
0 $2 $3 $4 $5 $6 $7 $8 $9 X,Y pos of 4 corners*
0 Add a 4 corners polygon primitive as box body*
4,1,4,$2,$3,$4,$5,$6,$7,$8,$9,$2,$3,0*
0 Add four circle primitives for the rounded corners*
1,1,$1+$1,$2,$3*
1,1,$1+$1,$4,$5*
1,1,$1+$1,$6,$7*
1,1,$1+$1,$8,$9*
0 Add four rect primitives between the rounded corners*
20,1,$1+$1,$2,$3,$4,$5,0*
20,1,$1+$1,$4,$5,$6,$7,0*
20,1,$1+$1,$6,$7,$8,$9,0*
20,1,$1+$1,$8,$9,$2,$3,0*%
G04 Aperture macros list end*
%ADD10C,0.150000*%
%ADD11C,0.120000*%
%ADD12C,1.226200*%
%ADD13C,1.576200*%
%ADD14C,0.010000*%
%ADD15C,2.050000*%
%ADD16C,2.250000*%
%ADD17C,7.500000*%
%ADD18C,0.500000*%
%ADD19C,2.690000*%
%ADD20RoundRect,0.102000X-0.660000X-0.660000X0.660000X-0.660000X0.660000X0.660000X-0.660000X0.660000X0*%
%ADD21C,1.524000*%
%ADD22RoundRect,0.102000X-0.500000X-0.500000X0.500000X-0.500000X0.500000X0.500000X-0.500000X0.500000X0*%
%ADD23C,1.204000*%
%ADD24C,3.000000*%
%ADD25RoundRect,0.250000X-0.475000X0.250000X-0.475000X-0.250000X0.475000X-0.250000X0.475000X0.250000X0*%
%ADD26RoundRect,0.250000X0.475000X-0.250000X0.475000X0.250000X-0.475000X0.250000X-0.475000X-0.250000X0*%
%ADD27RoundRect,0.250000X0.250000X0.475000X-0.250000X0.475000X-0.250000X-0.475000X0.250000X-0.475000X0*%
%TA.AperFunction,Profile*%
%ADD28C,0.050000*%
%TD*%
G04 APERTURE END LIST*
D10*
G36*
X170311397Y-352872369D02*
G01*
X170498975Y-352855882D01*
X170512576Y-352931180D01*
X170533488Y-352993349D01*
X170560891Y-353044468D01*
X170597687Y-353088831D01*
X170647272Y-353128558D01*
X170712016Y-353163628D01*
X170781681Y-353188452D01*
X170858184Y-353203768D01*
X170942642Y-353209057D01*
X171052213Y-353200157D01*
X171143410Y-353175169D01*
X171198717Y-353148481D01*
X171241223Y-353117453D01*
X171273011Y-353082204D01*
X171305066Y-353020015D01*
X171315601Y-352953152D01*
X171305193Y-352886321D01*
X171274568Y-352829412D01*
X171223911Y-352783122D01*
X171139380Y-352740478D01*
X171060497Y-352715369D01*
X170871934Y-352667021D01*
X170681395Y-352613783D01*
X170581957Y-352572957D01*
X170514097Y-352530628D01*
X170461337Y-352483922D01*
X170421581Y-352432732D01*
X170392389Y-352374994D01*
X170374813Y-352312891D01*
X170368824Y-352245245D01*
X170375948Y-352171038D01*
X170397229Y-352100373D01*
X170433304Y-352032021D01*
X170481962Y-351972189D01*
X170544129Y-351922109D01*
X170621890Y-351881445D01*
X170705985Y-351853327D01*
X170797496Y-351836020D01*
X170897580Y-351830062D01*
X171007883Y-351836446D01*
X171105495Y-351854717D01*
X171192136Y-351883918D01*
X171272091Y-351926353D01*
X171336847Y-351978962D01*
X171388324Y-352042187D01*
X171426846Y-352114376D01*
X171451453Y-352192757D01*
X171462147Y-352278767D01*
X171271546Y-352293147D01*
X171251947Y-352202184D01*
X171217036Y-352131702D01*
X171167498Y-352077450D01*
X171104273Y-352039127D01*
X171019181Y-352013860D01*
X170905731Y-352004452D01*
X170786679Y-352013334D01*
X170701900Y-352036559D01*
X170642865Y-352070580D01*
X170595996Y-352119170D01*
X170569333Y-352171644D01*
X170560433Y-352230040D01*
X170567085Y-352281412D01*
X170586376Y-352325209D01*
X170618868Y-352363306D01*
X170662855Y-352391505D01*
X170754208Y-352426965D01*
X170918554Y-352470467D01*
X171141107Y-352527206D01*
X171251029Y-352566271D01*
X171334169Y-352612428D01*
X171397680Y-352663553D01*
X171444653Y-352719595D01*
X171479135Y-352783919D01*
X171500032Y-352854638D01*
X171507210Y-352933368D01*
X171499663Y-353011385D01*
X171477035Y-353086339D01*
X171438516Y-353159507D01*
X171387053Y-353224025D01*
X171321959Y-353278913D01*
X171241321Y-353324554D01*
X171153816Y-353356757D01*
X171057791Y-353376599D01*
X170951801Y-353383447D01*
X170816631Y-353376069D01*
X170703878Y-353355531D01*
X170610075Y-353323729D01*
X170523985Y-353276594D01*
X170452479Y-353216930D01*
X170393920Y-353143936D01*
X170350133Y-353060947D01*
X170322627Y-352970987D01*
X170311397Y-352872369D01*
G37*
G36*
X171812391Y-353360000D02*
G01*
X171812391Y-351853510D01*
X172011144Y-351853510D01*
X172011144Y-353360000D01*
X171812391Y-353360000D01*
G37*
G36*
X172353603Y-353360000D02*
G01*
X172353603Y-351853510D01*
X172552447Y-351853510D01*
X172552447Y-353185610D01*
X173292228Y-353185610D01*
X173292228Y-353360000D01*
X172353603Y-353360000D01*
G37*
G36*
X173520107Y-353360000D02*
G01*
X173520107Y-351853510D01*
X173718951Y-351853510D01*
X173718951Y-352601534D01*
X174464868Y-351853510D01*
X174734329Y-351853510D01*
X174104183Y-352464147D01*
X174761990Y-353360000D01*
X174499673Y-353360000D01*
X173964873Y-352597412D01*
X173718951Y-352838297D01*
X173718951Y-353360000D01*
X173520107Y-353360000D01*
G37*
G36*
X174860175Y-352872369D02*
G01*
X175047754Y-352855882D01*
X175061355Y-352931180D01*
X175082266Y-352993349D01*
X175109670Y-353044468D01*
X175146466Y-353088831D01*
X175196051Y-353128558D01*
X175260795Y-353163628D01*
X175330460Y-353188452D01*
X175406962Y-353203768D01*
X175491421Y-353209057D01*
X175600992Y-353200157D01*
X175692189Y-353175169D01*
X175747495Y-353148481D01*
X175790002Y-353117453D01*
X175821790Y-353082204D01*
X175853845Y-353020015D01*
X175864380Y-352953152D01*
X175853972Y-352886321D01*
X175823347Y-352829412D01*
X175772690Y-352783122D01*
X175688159Y-352740478D01*
X175609276Y-352715369D01*
X175420713Y-352667021D01*
X175230173Y-352613783D01*
X175130736Y-352572957D01*
X175062876Y-352530628D01*
X175010116Y-352483922D01*
X174970360Y-352432732D01*
X174941167Y-352374994D01*
X174923591Y-352312891D01*
X174917603Y-352245245D01*
X174924727Y-352171038D01*
X174946007Y-352100373D01*
X174982083Y-352032021D01*
X175030741Y-351972189D01*
X175092908Y-351922109D01*
X175170669Y-351881445D01*
X175254763Y-351853327D01*
X175346275Y-351836020D01*
X175446358Y-351830062D01*
X175556661Y-351836446D01*
X175654274Y-351854717D01*
X175740915Y-351883918D01*
X175820870Y-351926353D01*
X175885626Y-351978962D01*
X175937103Y-352042187D01*
X175975625Y-352114376D01*
X176000232Y-352192757D01*
X176010926Y-352278767D01*
X175820325Y-352293147D01*
X175800726Y-352202184D01*
X175765815Y-352131702D01*
X175716277Y-352077450D01*
X175653051Y-352039127D01*
X175567960Y-352013860D01*
X175454510Y-352004452D01*
X175335458Y-352013334D01*
X175250679Y-352036559D01*
X175191644Y-352070580D01*
X175144775Y-352119170D01*
X175118111Y-352171644D01*
X175109212Y-352230040D01*
X175115864Y-352281412D01*
X175135154Y-352325209D01*
X175167647Y-352363306D01*
X175211634Y-352391505D01*
X175302987Y-352426965D01*
X175467333Y-352470467D01*
X175689886Y-352527206D01*
X175799808Y-352566271D01*
X175882948Y-352612428D01*
X175946458Y-352663553D01*
X175993432Y-352719595D01*
X176027913Y-352783919D01*
X176048811Y-352854638D01*
X176055988Y-352933368D01*
X176048442Y-353011385D01*
X176025813Y-353086339D01*
X175987295Y-353159507D01*
X175935832Y-353224025D01*
X175870737Y-353278913D01*
X175790100Y-353324554D01*
X175702595Y-353356757D01*
X175606570Y-353376599D01*
X175500580Y-353383447D01*
X175365410Y-353376069D01*
X175252657Y-353355531D01*
X175158854Y-353323729D01*
X175072764Y-353276594D01*
X175001258Y-353216930D01*
X174942699Y-353143936D01*
X174898912Y-353060947D01*
X174871406Y-352970987D01*
X174860175Y-352872369D01*
G37*
G36*
X177399171Y-352832435D02*
G01*
X177597924Y-352882627D01*
X177558491Y-353002269D01*
X177507610Y-353102580D01*
X177445843Y-353186229D01*
X177372976Y-353255219D01*
X177288783Y-353310506D01*
X177195683Y-353350358D01*
X177092072Y-353374931D01*
X176975929Y-353383447D01*
X176853441Y-353376487D01*
X176748388Y-353356851D01*
X176658258Y-353325964D01*
X176580897Y-353284620D01*
X176510455Y-353230598D01*
X176448619Y-353165621D01*
X176394927Y-353088653D01*
X176349355Y-352998215D01*
X176305501Y-352871073D01*
X176278951Y-352737272D01*
X176269945Y-352595489D01*
X176280554Y-352441160D01*
X176310907Y-352305692D01*
X176359613Y-352186168D01*
X176409887Y-352103056D01*
X176468876Y-352031772D01*
X176536920Y-351971218D01*
X176614786Y-351920737D01*
X176728085Y-351870613D01*
X176848891Y-351840355D01*
X176979043Y-351830062D01*
X177091138Y-351837732D01*
X177190448Y-351859766D01*
X177278920Y-351895261D01*
X177358139Y-351944093D01*
X177428134Y-352005779D01*
X177486922Y-352078805D01*
X177535018Y-352164459D01*
X177572279Y-352264570D01*
X177376640Y-352310732D01*
X177333833Y-352206527D01*
X177283072Y-352128979D01*
X177224965Y-352073053D01*
X177155255Y-352032648D01*
X177072925Y-352007482D01*
X176974922Y-351998590D01*
X176862085Y-352008518D01*
X176766684Y-352036663D01*
X176685402Y-352081846D01*
X176615726Y-352143480D01*
X176561560Y-352217340D01*
X176522004Y-352305237D01*
X176495853Y-352399672D01*
X176480178Y-352495875D01*
X176474926Y-352594390D01*
X176481618Y-352721653D01*
X176500628Y-352832774D01*
X176530705Y-352929888D01*
X176575999Y-353019156D01*
X176633680Y-353089666D01*
X176704362Y-353144028D01*
X176785349Y-353183505D01*
X176869958Y-353207006D01*
X176959534Y-353214919D01*
X177041952Y-353208565D01*
X177115634Y-353190192D01*
X177182056Y-353160281D01*
X177242368Y-353118565D01*
X177293554Y-353066997D01*
X177336877Y-353003452D01*
X177372305Y-352926069D01*
X177399171Y-352832435D01*
G37*
G36*
X178646541Y-351858970D02*
G01*
X178745861Y-351873287D01*
X178817093Y-351893810D01*
X178881662Y-351927247D01*
X178936985Y-351974169D01*
X178984063Y-352036142D01*
X179018751Y-352106312D01*
X179039560Y-352180981D01*
X179046620Y-352261456D01*
X179039894Y-352339327D01*
X179020373Y-352409033D01*
X178988336Y-352472122D01*
X178943122Y-352529726D01*
X178888606Y-352576363D01*
X178819206Y-352615499D01*
X178732023Y-352646613D01*
X178623469Y-352668395D01*
X178696457Y-352708796D01*
X178743270Y-352744050D01*
X178826025Y-352832531D01*
X178908318Y-352946283D01*
X179169535Y-353360000D01*
X178919583Y-353360000D01*
X178720739Y-353043461D01*
X178577307Y-352833900D01*
X178520276Y-352768478D01*
X178476374Y-352732143D01*
X178430764Y-352707221D01*
X178385699Y-352691659D01*
X178275057Y-352684424D01*
X178044522Y-352684424D01*
X178044522Y-353360000D01*
X177845678Y-353360000D01*
X177845678Y-352515896D01*
X178044522Y-352515896D01*
X178471794Y-352515896D01*
X178600372Y-352507934D01*
X178684927Y-352487961D01*
X178732997Y-352464966D01*
X178771477Y-352435173D01*
X178801706Y-352398293D01*
X178831696Y-352333862D01*
X178841639Y-352264387D01*
X178832845Y-352197284D01*
X178807320Y-352140068D01*
X178764245Y-352090273D01*
X178708428Y-352054851D01*
X178629535Y-352031058D01*
X178519971Y-352022037D01*
X178044522Y-352022037D01*
X178044522Y-352515896D01*
X177845678Y-352515896D01*
X177845678Y-351853510D01*
X178511728Y-351853510D01*
X178646541Y-351858970D01*
G37*
G36*
X179361968Y-353360000D02*
G01*
X179361968Y-351853510D01*
X180448147Y-351853510D01*
X180448147Y-352027899D01*
X179560812Y-352027899D01*
X179560812Y-352492449D01*
X180391818Y-352492449D01*
X180391818Y-352666838D01*
X179560812Y-352666838D01*
X179560812Y-353185610D01*
X180483043Y-353185610D01*
X180483043Y-353360000D01*
X179361968Y-353360000D01*
G37*
G36*
X180761480Y-353360000D02*
G01*
X180761480Y-351853510D01*
X181847658Y-351853510D01*
X181847658Y-352027899D01*
X180960324Y-352027899D01*
X180960324Y-352492449D01*
X181791330Y-352492449D01*
X181791330Y-352666838D01*
X180960324Y-352666838D01*
X180960324Y-353185610D01*
X181882554Y-353185610D01*
X181882554Y-353360000D01*
X180761480Y-353360000D01*
G37*
G36*
X182154854Y-353360000D02*
G01*
X182154854Y-351853510D01*
X182358828Y-351853510D01*
X183147793Y-353036317D01*
X183147793Y-351853510D01*
X183338394Y-351853510D01*
X183338394Y-353360000D01*
X183134513Y-353360000D01*
X182345456Y-352176185D01*
X182345456Y-353360000D01*
X182154854Y-353360000D01*
G37*
G36*
X184925460Y-351859379D02*
G01*
X185016078Y-351875302D01*
X185086959Y-351899214D01*
X185151671Y-351935351D01*
X185205598Y-351981907D01*
X185249900Y-352039714D01*
X185283013Y-352104875D01*
X185302373Y-352170655D01*
X185308793Y-352238101D01*
X185303018Y-352300952D01*
X185285749Y-352361176D01*
X185256494Y-352419726D01*
X185216917Y-352471582D01*
X185164977Y-352517311D01*
X185098775Y-352557112D01*
X185184951Y-352591353D01*
X185253909Y-352636982D01*
X185308335Y-352694041D01*
X185348716Y-352761697D01*
X185373175Y-352837174D01*
X185381608Y-352922561D01*
X185370338Y-353025345D01*
X185337003Y-353119665D01*
X185285685Y-353202172D01*
X185226819Y-353260165D01*
X185155177Y-353302472D01*
X185062321Y-353334812D01*
X184957794Y-353353121D01*
X184820063Y-353360000D01*
X184247252Y-353360000D01*
X184247252Y-353185610D01*
X184446097Y-353185610D01*
X184820063Y-353185610D01*
X184955343Y-353178283D01*
X185020116Y-353160999D01*
X185070015Y-353136700D01*
X185111367Y-353101700D01*
X185145852Y-353051887D01*
X185167909Y-352993045D01*
X185175619Y-352923293D01*
X185170622Y-352867728D01*
X185156188Y-352818720D01*
X185132572Y-352775007D01*
X185100353Y-352737342D01*
X185060915Y-352708004D01*
X185013137Y-352686530D01*
X184928317Y-352668374D01*
X184793410Y-352660976D01*
X184446097Y-352660976D01*
X184446097Y-353185610D01*
X184247252Y-353185610D01*
X184247252Y-352486587D01*
X184446097Y-352486587D01*
X184770879Y-352486587D01*
X184893707Y-352481262D01*
X184960472Y-352469002D01*
X185028351Y-352437769D01*
X185074686Y-352393439D01*
X185103046Y-352335549D01*
X185113154Y-352260907D01*
X185103929Y-352188892D01*
X185077251Y-352127825D01*
X185049920Y-352093533D01*
X185016104Y-352067508D01*
X184974760Y-352049148D01*
X184896271Y-352034407D01*
X184746241Y-352027899D01*
X184446097Y-352027899D01*
X184446097Y-352486587D01*
X184247252Y-352486587D01*
X184247252Y-351853510D01*
X184810812Y-351853510D01*
X184925460Y-351859379D01*
G37*
G36*
X186416940Y-351836486D02*
G01*
X186513146Y-351855327D01*
X186603472Y-351886267D01*
X186688796Y-351929439D01*
X186767471Y-351984072D01*
X186835680Y-352047995D01*
X186894205Y-352121785D01*
X186943419Y-352206410D01*
X186991357Y-352327615D01*
X187020875Y-352461172D01*
X187031071Y-352609319D01*
X187020370Y-352759294D01*
X186989348Y-352894719D01*
X186938839Y-353017907D01*
X186887155Y-353103662D01*
X186826678Y-353177019D01*
X186757087Y-353239147D01*
X186677621Y-353290757D01*
X186561964Y-353342243D01*
X186440926Y-353373051D01*
X186312814Y-353383447D01*
X186207625Y-353376797D01*
X186110090Y-353357341D01*
X186019076Y-353325460D01*
X185933627Y-353281048D01*
X185854910Y-353224941D01*
X185786962Y-353160060D01*
X185728980Y-353085881D01*
X185680561Y-353001512D01*
X185632734Y-352880992D01*
X185604160Y-352756521D01*
X185594754Y-352629378D01*
X185799446Y-352629378D01*
X185809612Y-352764995D01*
X185838258Y-352879375D01*
X185883634Y-352976191D01*
X185945442Y-353058299D01*
X186023549Y-353127123D01*
X186109409Y-353175478D01*
X186204689Y-353204814D01*
X186311807Y-353214919D01*
X186421038Y-353204643D01*
X186517429Y-353174912D01*
X186603558Y-353126073D01*
X186681193Y-353056741D01*
X186741869Y-352974121D01*
X186786997Y-352874231D01*
X186815843Y-352753579D01*
X186826182Y-352607762D01*
X186818797Y-352486445D01*
X186797737Y-352380184D01*
X186764175Y-352286827D01*
X186715723Y-352201151D01*
X186655511Y-352130843D01*
X186582825Y-352074153D01*
X186500483Y-352032360D01*
X186411722Y-352007177D01*
X186314829Y-351998590D01*
X186212052Y-352007849D01*
X186118443Y-352034953D01*
X186032083Y-352079885D01*
X185951579Y-352143945D01*
X185901159Y-352203425D01*
X185859751Y-352278339D01*
X185827888Y-352371695D01*
X185807027Y-352487251D01*
X185799446Y-352629378D01*
X185594754Y-352629378D01*
X185594557Y-352626721D01*
X185603635Y-352475098D01*
X185629424Y-352343387D01*
X185670333Y-352228742D01*
X185725600Y-352128753D01*
X185795325Y-352041546D01*
X185879956Y-351965702D01*
X185972728Y-351907210D01*
X186074799Y-351865034D01*
X186187815Y-351839051D01*
X186313822Y-351830062D01*
X186416940Y-351836486D01*
G37*
G36*
X187669736Y-353360000D02*
G01*
X187669736Y-352027899D01*
X187174778Y-352027899D01*
X187174778Y-351853510D01*
X188365462Y-351853510D01*
X188365462Y-352027899D01*
X187868488Y-352027899D01*
X187868488Y-353360000D01*
X187669736Y-353360000D01*
G37*
G36*
X188952011Y-353360000D02*
G01*
X188952011Y-352027899D01*
X188457053Y-352027899D01*
X188457053Y-351853510D01*
X189647737Y-351853510D01*
X189647737Y-352027899D01*
X189150763Y-352027899D01*
X189150763Y-353360000D01*
X188952011Y-353360000D01*
G37*
G36*
X190575908Y-351836486D02*
G01*
X190672114Y-351855327D01*
X190762439Y-351886267D01*
X190847763Y-351929439D01*
X190926438Y-351984072D01*
X190994647Y-352047995D01*
X191053173Y-352121785D01*
X191102386Y-352206410D01*
X191150324Y-352327615D01*
X191179842Y-352461172D01*
X191190039Y-352609319D01*
X191179337Y-352759294D01*
X191148315Y-352894719D01*
X191097806Y-353017907D01*
X191046122Y-353103662D01*
X190985645Y-353177019D01*
X190916054Y-353239147D01*
X190836589Y-353290757D01*
X190720931Y-353342243D01*
X190599894Y-353373051D01*
X190471781Y-353383447D01*
X190366592Y-353376797D01*
X190269057Y-353357341D01*
X190178044Y-353325460D01*
X190092594Y-353281048D01*
X190013877Y-353224941D01*
X189945929Y-353160060D01*
X189887947Y-353085881D01*
X189839528Y-353001512D01*
X189791702Y-352880992D01*
X189763127Y-352756521D01*
X189753721Y-352629378D01*
X189958413Y-352629378D01*
X189968579Y-352764995D01*
X189997225Y-352879375D01*
X190042601Y-352976191D01*
X190104410Y-353058299D01*
X190182516Y-353127123D01*
X190268376Y-353175478D01*
X190363656Y-353204814D01*
X190470774Y-353214919D01*
X190580005Y-353204643D01*
X190676396Y-353174912D01*
X190762525Y-353126073D01*
X190840161Y-353056741D01*
X190900836Y-352974121D01*
X190945964Y-352874231D01*
X190974810Y-352753579D01*
X190985149Y-352607762D01*
X190977764Y-352486445D01*
X190956705Y-352380184D01*
X190923142Y-352286827D01*
X190874690Y-352201151D01*
X190814479Y-352130843D01*
X190741792Y-352074153D01*
X190659450Y-352032360D01*
X190570689Y-352007177D01*
X190473796Y-351998590D01*
X190371019Y-352007849D01*
X190277410Y-352034953D01*
X190191050Y-352079885D01*
X190110546Y-352143945D01*
X190060126Y-352203425D01*
X190018718Y-352278339D01*
X189986855Y-352371695D01*
X189965994Y-352487251D01*
X189958413Y-352629378D01*
X189753721Y-352629378D01*
X189753524Y-352626721D01*
X189762603Y-352475098D01*
X189788391Y-352343387D01*
X189829300Y-352228742D01*
X189884567Y-352128753D01*
X189954292Y-352041546D01*
X190038923Y-351965702D01*
X190131695Y-351907210D01*
X190233766Y-351865034D01*
X190346782Y-351839051D01*
X190472789Y-351830062D01*
X190575908Y-351836486D01*
G37*
G36*
X191440357Y-353360000D02*
G01*
X191440357Y-351853510D01*
X191739493Y-351853510D01*
X192095050Y-352920637D01*
X192166766Y-353143753D01*
X192246725Y-352902136D01*
X192606403Y-351853510D01*
X192873849Y-351853510D01*
X192873849Y-353360000D01*
X192682240Y-353360000D01*
X192682240Y-352098424D01*
X192245717Y-353360000D01*
X192066382Y-353360000D01*
X191631965Y-352076900D01*
X191631965Y-353360000D01*
X191440357Y-353360000D01*
G37*
G36*
X176121201Y-357912369D02*
G01*
X176308779Y-357895882D01*
X176322380Y-357971180D01*
X176343292Y-358033349D01*
X176370695Y-358084468D01*
X176407491Y-358128831D01*
X176457076Y-358168558D01*
X176521820Y-358203628D01*
X176591485Y-358228452D01*
X176667988Y-358243768D01*
X176752446Y-358249057D01*
X176862017Y-358240157D01*
X176953214Y-358215169D01*
X177008521Y-358188481D01*
X177051027Y-358157453D01*
X177082815Y-358122204D01*
X177114870Y-358060015D01*
X177125405Y-357993152D01*
X177114997Y-357926321D01*
X177084372Y-357869412D01*
X177033715Y-357823122D01*
X176949184Y-357780478D01*
X176870301Y-357755369D01*
X176681738Y-357707021D01*
X176491199Y-357653783D01*
X176391761Y-357612957D01*
X176323901Y-357570628D01*
X176271141Y-357523922D01*
X176231385Y-357472732D01*
X176202193Y-357414994D01*
X176184617Y-357352891D01*
X176178628Y-357285245D01*
X176185752Y-357211038D01*
X176207033Y-357140373D01*
X176243108Y-357072021D01*
X176291766Y-357012189D01*
X176353933Y-356962109D01*
X176431694Y-356921445D01*
X176515789Y-356893327D01*
X176607300Y-356876020D01*
X176707384Y-356870062D01*
X176817687Y-356876446D01*
X176915299Y-356894717D01*
X177001940Y-356923918D01*
X177081895Y-356966353D01*
X177146651Y-357018962D01*
X177198128Y-357082187D01*
X177236650Y-357154376D01*
X177261257Y-357232757D01*
X177271951Y-357318767D01*
X177081350Y-357333147D01*
X177061751Y-357242184D01*
X177026840Y-357171702D01*
X176977302Y-357117450D01*
X176914077Y-357079127D01*
X176828985Y-357053860D01*
X176715535Y-357044452D01*
X176596483Y-357053334D01*
X176511704Y-357076559D01*
X176452669Y-357110580D01*
X176405800Y-357159170D01*
X176379137Y-357211644D01*
X176370237Y-357270040D01*
X176376889Y-357321412D01*
X176396180Y-357365209D01*
X176428672Y-357403306D01*
X176472659Y-357431505D01*
X176564012Y-357466965D01*
X176728358Y-357510467D01*
X176950911Y-357567206D01*
X177060833Y-357606271D01*
X177143973Y-357652428D01*
X177207484Y-357703553D01*
X177254457Y-357759595D01*
X177288939Y-357823919D01*
X177309836Y-357894638D01*
X177317014Y-357973368D01*
X177309467Y-358051385D01*
X177286839Y-358126339D01*
X177248320Y-358199507D01*
X177196857Y-358264025D01*
X177131763Y-358318913D01*
X177051125Y-358364554D01*
X176963620Y-358396757D01*
X176867595Y-358416599D01*
X176761605Y-358423447D01*
X176626435Y-358416069D01*
X176513682Y-358395531D01*
X176419879Y-358363729D01*
X176333789Y-358316594D01*
X176262283Y-358256930D01*
X176203724Y-358183936D01*
X176159937Y-358100947D01*
X176132431Y-358010987D01*
X176121201Y-357912369D01*
G37*
G36*
X177580155Y-358400000D02*
G01*
X177580155Y-356893510D01*
X177778999Y-356893510D01*
X177778999Y-357641534D01*
X178524917Y-356893510D01*
X178794378Y-356893510D01*
X178164231Y-357504147D01*
X178822038Y-358400000D01*
X178559721Y-358400000D01*
X178024921Y-357637412D01*
X177778999Y-357878297D01*
X177778999Y-358400000D01*
X177580155Y-358400000D01*
G37*
G36*
X178892563Y-357948639D02*
G01*
X178892563Y-357761060D01*
X179459237Y-357761060D01*
X179459237Y-357948639D01*
X178892563Y-357948639D01*
G37*
G36*
X180581411Y-358225610D02*
G01*
X180581411Y-358400000D01*
X179588564Y-358400000D01*
X179592907Y-358334696D01*
X179610088Y-358272138D01*
X179658050Y-358173891D01*
X179731446Y-358072745D01*
X179826500Y-357973552D01*
X179972788Y-357845690D01*
X180134869Y-357705475D01*
X180240464Y-357601458D01*
X180303707Y-357526038D01*
X180353833Y-357444216D01*
X180381226Y-357370613D01*
X180389802Y-357303013D01*
X180380954Y-357232931D01*
X180355104Y-357171775D01*
X180311400Y-357117267D01*
X180255114Y-357075845D01*
X180188018Y-357050460D01*
X180107061Y-357041521D01*
X180021557Y-357051078D01*
X179951641Y-357078091D01*
X179893837Y-357122029D01*
X179850575Y-357180253D01*
X179823239Y-357253145D01*
X179812962Y-357344870D01*
X179623368Y-357325270D01*
X179641144Y-357219615D01*
X179672046Y-357132028D01*
X179714967Y-357059468D01*
X179769914Y-356999664D01*
X179836135Y-356952218D01*
X179913564Y-356917379D01*
X180004320Y-356895420D01*
X180111091Y-356887648D01*
X180218499Y-356895969D01*
X180309553Y-356919491D01*
X180387113Y-356956920D01*
X180453367Y-357008182D01*
X180508792Y-357072420D01*
X180547711Y-357142630D01*
X180571290Y-357220120D01*
X180579396Y-357306769D01*
X180570275Y-357396078D01*
X180542485Y-357484913D01*
X180495862Y-357571077D01*
X180420027Y-357669286D01*
X180318225Y-357772733D01*
X180135729Y-357934900D01*
X179985313Y-358065210D01*
X179922505Y-358125135D01*
X179878789Y-358176166D01*
X179844744Y-358225610D01*
X180581411Y-358225610D01*
G37*
G36*
X181397224Y-356894337D02*
G01*
X181473733Y-356913458D01*
X181540802Y-356944213D01*
X181599904Y-356986658D01*
X181649847Y-357039599D01*
X181689061Y-357101802D01*
X181717833Y-357174695D01*
X181735642Y-357260240D01*
X181552276Y-357274528D01*
X181520168Y-357177098D01*
X181482575Y-357119190D01*
X181428636Y-357075930D01*
X181367912Y-357050304D01*
X181298111Y-357041521D01*
X181240985Y-357047113D01*
X181189849Y-357063412D01*
X181143414Y-357090430D01*
X181090968Y-357137394D01*
X181045161Y-357198163D01*
X181006027Y-357275078D01*
X180980089Y-357357789D01*
X180961726Y-357470477D01*
X180953820Y-357620651D01*
X181002605Y-357557720D01*
X181056746Y-357508056D01*
X181116669Y-357470259D01*
X181182326Y-357442805D01*
X181249384Y-357426518D01*
X181318627Y-357421074D01*
X181408004Y-357429695D01*
X181488996Y-357454936D01*
X181563465Y-357496924D01*
X181632693Y-357557178D01*
X181688545Y-357628808D01*
X181728729Y-357709984D01*
X181753606Y-357802531D01*
X181762295Y-357908888D01*
X181755401Y-358001950D01*
X181735057Y-358089416D01*
X181701295Y-358172396D01*
X181654736Y-358248341D01*
X181599071Y-358309934D01*
X181533775Y-358358784D01*
X181460406Y-358394395D01*
X181380329Y-358416026D01*
X181291974Y-358423447D01*
X181180167Y-358412454D01*
X181081940Y-358380656D01*
X180994472Y-358328302D01*
X180915902Y-358253637D01*
X180868578Y-358185999D01*
X180828991Y-358100211D01*
X180798137Y-357992607D01*
X180785371Y-357908705D01*
X180982488Y-357908705D01*
X180992589Y-358001922D01*
X181022971Y-358091246D01*
X181054287Y-358145764D01*
X181091926Y-358189562D01*
X181136178Y-358223961D01*
X181211449Y-358258377D01*
X181288860Y-358269574D01*
X181362646Y-358259242D01*
X181428800Y-358228524D01*
X181489720Y-358175327D01*
X181534950Y-358107860D01*
X181563458Y-358023908D01*
X181573709Y-357918963D01*
X181563594Y-357818240D01*
X181535460Y-357737898D01*
X181490727Y-357673499D01*
X181430552Y-357623589D01*
X181361819Y-357593947D01*
X181281716Y-357583740D01*
X181202139Y-357593831D01*
X181132276Y-357623392D01*
X181069591Y-357673499D01*
X181022002Y-357738002D01*
X180992791Y-357815208D01*
X180982488Y-357908705D01*
X180785371Y-357908705D01*
X180777784Y-357858846D01*
X180770363Y-357694016D01*
X180778492Y-357510062D01*
X180800868Y-357359492D01*
X180834921Y-357237203D01*
X180878763Y-357138666D01*
X180931289Y-357060022D01*
X180991477Y-356997852D01*
X181058242Y-356950245D01*
X181132478Y-356916039D01*
X181215584Y-356894962D01*
X181309377Y-356887648D01*
X181397224Y-356894337D01*
G37*
G36*
X182514326Y-356893373D02*
G01*
X182584515Y-356909824D01*
X182646973Y-356936374D01*
X182703885Y-356973361D01*
X182753940Y-357019920D01*
X182797640Y-357076967D01*
X182849356Y-357175636D01*
X182890880Y-357300632D01*
X182915092Y-357443932D01*
X182924677Y-357656097D01*
X182917668Y-357833055D01*
X182898678Y-357973444D01*
X182870363Y-358083369D01*
X182826377Y-358186966D01*
X182772161Y-358269685D01*
X182707972Y-358334695D01*
X182631600Y-358383063D01*
X182541745Y-358412934D01*
X182434939Y-358423447D01*
X182329241Y-358413106D01*
X182239044Y-358383554D01*
X182161204Y-358335469D01*
X182093671Y-358267467D01*
X182045578Y-358193342D01*
X182005156Y-358099435D01*
X181973570Y-357981775D01*
X181952714Y-357835729D01*
X181945110Y-357656097D01*
X181945132Y-357655547D01*
X182134704Y-357655547D01*
X182142304Y-357852814D01*
X182161855Y-357991878D01*
X182189181Y-358086207D01*
X182221257Y-358147300D01*
X182269378Y-358202960D01*
X182320323Y-358240343D01*
X182374968Y-358262205D01*
X182434939Y-358269574D01*
X182494831Y-358262183D01*
X182549433Y-358240242D01*
X182600375Y-358202699D01*
X182648530Y-358146750D01*
X182680681Y-358085397D01*
X182708034Y-357990976D01*
X182727582Y-357852125D01*
X182735175Y-357655547D01*
X182727553Y-357457659D01*
X182707961Y-357318413D01*
X182680606Y-357224182D01*
X182648530Y-357163337D01*
X182600455Y-357108054D01*
X182549206Y-357070790D01*
X182493885Y-357048916D01*
X182432833Y-357041521D01*
X182372067Y-357048341D01*
X182319067Y-357068131D01*
X182272037Y-357101086D01*
X182229959Y-357148957D01*
X182193875Y-357217478D01*
X182163848Y-357317899D01*
X182142779Y-357460094D01*
X182134704Y-357655547D01*
X181945132Y-357655547D01*
X181952197Y-357477638D01*
X181971363Y-357336624D01*
X181999882Y-357226718D01*
X182044212Y-357123130D01*
X182098614Y-357040608D01*
X182162822Y-356975942D01*
X182239202Y-356927793D01*
X182328779Y-356898089D01*
X182434939Y-356887648D01*
X182514326Y-356893373D01*
G37*
G36*
X183806332Y-358400000D02*
G01*
X183621868Y-358400000D01*
X183621868Y-357221589D01*
X183548466Y-357282660D01*
X183447204Y-357348992D01*
X183340637Y-357406654D01*
X183253031Y-357444521D01*
X183253031Y-357268667D01*
X183353355Y-357215296D01*
X183443238Y-357155932D01*
X183523499Y-357090614D01*
X183597133Y-357017232D01*
X183650687Y-356949865D01*
X183687447Y-356887648D01*
X183806332Y-356887648D01*
X183806332Y-358400000D01*
G37*
G36*
X184257602Y-357948639D02*
G01*
X184257602Y-357761060D01*
X184824276Y-357761060D01*
X184824276Y-357948639D01*
X184257602Y-357948639D01*
G37*
G36*
X184977141Y-358001395D02*
G01*
X185170765Y-357985000D01*
X185192983Y-358076151D01*
X185226647Y-358145781D01*
X185270690Y-358198224D01*
X185326408Y-358237792D01*
X185388735Y-358261450D01*
X185459734Y-358269574D01*
X185524176Y-358263199D01*
X185582363Y-358244545D01*
X185635702Y-358213488D01*
X185685140Y-358168824D01*
X185724468Y-358116060D01*
X185753118Y-358055045D01*
X185771054Y-357984219D01*
X185777372Y-357901561D01*
X185771245Y-357822962D01*
X185753937Y-357756470D01*
X185726411Y-357699955D01*
X185688712Y-357651792D01*
X185624602Y-357601551D01*
X185548450Y-357571007D01*
X185456712Y-357560293D01*
X185371124Y-357570790D01*
X185295786Y-357601509D01*
X185231307Y-357649204D01*
X185183129Y-357708304D01*
X185009931Y-357685772D01*
X185155469Y-356911095D01*
X185902394Y-356911095D01*
X185902394Y-357085484D01*
X185303022Y-357085484D01*
X185222056Y-357494164D01*
X185315796Y-357439580D01*
X185409795Y-357408029D01*
X185505896Y-357397627D01*
X185601702Y-357406423D01*
X185687729Y-357432036D01*
X185765968Y-357474316D01*
X185837822Y-357534464D01*
X185896405Y-357606846D01*
X185938303Y-357688330D01*
X185964115Y-357780692D01*
X185973102Y-357886357D01*
X185965365Y-357987228D01*
X185942843Y-358078826D01*
X185905942Y-358162753D01*
X185854217Y-358240265D01*
X185792077Y-358306334D01*
X185722789Y-358356899D01*
X185645399Y-358393239D01*
X185558379Y-358415655D01*
X185459734Y-358423447D01*
X185358275Y-358415633D01*
X185270103Y-358393311D01*
X185192973Y-358357416D01*
X185125152Y-358307859D01*
X185067823Y-358246047D01*
X185024295Y-358175396D01*
X184993941Y-358094507D01*
X184977141Y-358001395D01*
G37*
G36*
X186838363Y-358400000D02*
G01*
X186653899Y-358400000D01*
X186653899Y-357221589D01*
X186580497Y-357282660D01*
X186479235Y-357348992D01*
X186372667Y-357406654D01*
X186285061Y-357444521D01*
X186285061Y-357268667D01*
X186385385Y-357215296D01*
X186475269Y-357155932D01*
X186555530Y-357090614D01*
X186629164Y-357017232D01*
X186682717Y-356949865D01*
X186719478Y-356887648D01*
X186838363Y-356887648D01*
X186838363Y-358400000D01*
G37*
G36*
X179267162Y-359418970D02*
G01*
X179366482Y-359433287D01*
X179437714Y-359453810D01*
X179502283Y-359487247D01*
X179557606Y-359534169D01*
X179604684Y-359596142D01*
X179639372Y-359666312D01*
X179660181Y-359740981D01*
X179667241Y-359821456D01*
X179660515Y-359899327D01*
X179640994Y-359969033D01*
X179608957Y-360032122D01*
X179563743Y-360089726D01*
X179509227Y-360136363D01*
X179439827Y-360175499D01*
X179352644Y-360206613D01*
X179244090Y-360228395D01*
X179317078Y-360268796D01*
X179363891Y-360304050D01*
X179446647Y-360392531D01*
X179528939Y-360506283D01*
X179790156Y-360920000D01*
X179540204Y-360920000D01*
X179341360Y-360603461D01*
X179197928Y-360393900D01*
X179140897Y-360328478D01*
X179096995Y-360292143D01*
X179051386Y-360267221D01*
X179006320Y-360251659D01*
X178895678Y-360244424D01*
X178665143Y-360244424D01*
X178665143Y-360920000D01*
X178466299Y-360920000D01*
X178466299Y-360075896D01*
X178665143Y-360075896D01*
X179092416Y-360075896D01*
X179220993Y-360067934D01*
X179305548Y-360047961D01*
X179353618Y-360024966D01*
X179392098Y-359995173D01*
X179422327Y-359958293D01*
X179452317Y-359893862D01*
X179462260Y-359824387D01*
X179453466Y-359757284D01*
X179427941Y-359700068D01*
X179384866Y-359650273D01*
X179329049Y-359614851D01*
X179250156Y-359591058D01*
X179140592Y-359582037D01*
X178665143Y-359582037D01*
X178665143Y-360075896D01*
X178466299Y-360075896D01*
X178466299Y-359413510D01*
X179132349Y-359413510D01*
X179267162Y-359418970D01*
G37*
G36*
X179982589Y-360920000D02*
G01*
X179982589Y-359413510D01*
X181068768Y-359413510D01*
X181068768Y-359587899D01*
X180181433Y-359587899D01*
X180181433Y-360052449D01*
X181012439Y-360052449D01*
X181012439Y-360226838D01*
X180181433Y-360226838D01*
X180181433Y-360745610D01*
X181103664Y-360745610D01*
X181103664Y-360920000D01*
X179982589Y-360920000D01*
G37*
G36*
X181807358Y-360920000D02*
G01*
X181225388Y-359413510D01*
X181440536Y-359413510D01*
X181830988Y-360508298D01*
X181909848Y-360755044D01*
X181990815Y-360508298D01*
X182396563Y-359413510D01*
X182599438Y-359413510D01*
X182011331Y-360920000D01*
X181807358Y-360920000D01*
G37*
G36*
X182566465Y-360468639D02*
G01*
X182566465Y-360281060D01*
X183133139Y-360281060D01*
X183133139Y-360468639D01*
X182566465Y-360468639D01*
G37*
G36*
X183980722Y-360920000D02*
G01*
X183796258Y-360920000D01*
X183796258Y-359741589D01*
X183722856Y-359802660D01*
X183621594Y-359868992D01*
X183515027Y-359926654D01*
X183427421Y-359964521D01*
X183427421Y-359788667D01*
X183527745Y-359735296D01*
X183617628Y-359675932D01*
X183697889Y-359610614D01*
X183771523Y-359537232D01*
X183825077Y-359469865D01*
X183861837Y-359407648D01*
X183980722Y-359407648D01*
X183980722Y-360920000D01*
G37*
X253542857Y-286209580D02*
X253590476Y-286257200D01*
X253590476Y-286257200D02*
X253733333Y-286304819D01*
X253733333Y-286304819D02*
X253828571Y-286304819D01*
X253828571Y-286304819D02*
X253971428Y-286257200D01*
X253971428Y-286257200D02*
X254066666Y-286161961D01*
X254066666Y-286161961D02*
X254114285Y-286066723D01*
X254114285Y-286066723D02*
X254161904Y-285876247D01*
X254161904Y-285876247D02*
X254161904Y-285733390D01*
X254161904Y-285733390D02*
X254114285Y-285542914D01*
X254114285Y-285542914D02*
X254066666Y-285447676D01*
X254066666Y-285447676D02*
X253971428Y-285352438D01*
X253971428Y-285352438D02*
X253828571Y-285304819D01*
X253828571Y-285304819D02*
X253733333Y-285304819D01*
X253733333Y-285304819D02*
X253590476Y-285352438D01*
X253590476Y-285352438D02*
X253542857Y-285400057D01*
X253209523Y-285304819D02*
X252590476Y-285304819D01*
X252590476Y-285304819D02*
X252923809Y-285685771D01*
X252923809Y-285685771D02*
X252780952Y-285685771D01*
X252780952Y-285685771D02*
X252685714Y-285733390D01*
X252685714Y-285733390D02*
X252638095Y-285781009D01*
X252638095Y-285781009D02*
X252590476Y-285876247D01*
X252590476Y-285876247D02*
X252590476Y-286114342D01*
X252590476Y-286114342D02*
X252638095Y-286209580D01*
X252638095Y-286209580D02*
X252685714Y-286257200D01*
X252685714Y-286257200D02*
X252780952Y-286304819D01*
X252780952Y-286304819D02*
X253066666Y-286304819D01*
X253066666Y-286304819D02*
X253161904Y-286257200D01*
X253161904Y-286257200D02*
X253209523Y-286209580D01*
X251733333Y-285638152D02*
X251733333Y-286304819D01*
X251971428Y-285257200D02*
X252209523Y-285971485D01*
X252209523Y-285971485D02*
X251590476Y-285971485D01*
X261442857Y-286470832D02*
X261490476Y-286518452D01*
X261490476Y-286518452D02*
X261633333Y-286566071D01*
X261633333Y-286566071D02*
X261728571Y-286566071D01*
X261728571Y-286566071D02*
X261871428Y-286518452D01*
X261871428Y-286518452D02*
X261966666Y-286423213D01*
X261966666Y-286423213D02*
X262014285Y-286327975D01*
X262014285Y-286327975D02*
X262061904Y-286137499D01*
X262061904Y-286137499D02*
X262061904Y-285994642D01*
X262061904Y-285994642D02*
X262014285Y-285804166D01*
X262014285Y-285804166D02*
X261966666Y-285708928D01*
X261966666Y-285708928D02*
X261871428Y-285613690D01*
X261871428Y-285613690D02*
X261728571Y-285566071D01*
X261728571Y-285566071D02*
X261633333Y-285566071D01*
X261633333Y-285566071D02*
X261490476Y-285613690D01*
X261490476Y-285613690D02*
X261442857Y-285661309D01*
X261109523Y-285566071D02*
X260490476Y-285566071D01*
X260490476Y-285566071D02*
X260823809Y-285947023D01*
X260823809Y-285947023D02*
X260680952Y-285947023D01*
X260680952Y-285947023D02*
X260585714Y-285994642D01*
X260585714Y-285994642D02*
X260538095Y-286042261D01*
X260538095Y-286042261D02*
X260490476Y-286137499D01*
X260490476Y-286137499D02*
X260490476Y-286375594D01*
X260490476Y-286375594D02*
X260538095Y-286470832D01*
X260538095Y-286470832D02*
X260585714Y-286518452D01*
X260585714Y-286518452D02*
X260680952Y-286566071D01*
X260680952Y-286566071D02*
X260966666Y-286566071D01*
X260966666Y-286566071D02*
X261061904Y-286518452D01*
X261061904Y-286518452D02*
X261109523Y-286470832D01*
X259633333Y-285566071D02*
X259823809Y-285566071D01*
X259823809Y-285566071D02*
X259919047Y-285613690D01*
X259919047Y-285613690D02*
X259966666Y-285661309D01*
X259966666Y-285661309D02*
X260061904Y-285804166D01*
X260061904Y-285804166D02*
X260109523Y-285994642D01*
X260109523Y-285994642D02*
X260109523Y-286375594D01*
X260109523Y-286375594D02*
X260061904Y-286470832D01*
X260061904Y-286470832D02*
X260014285Y-286518452D01*
X260014285Y-286518452D02*
X259919047Y-286566071D01*
X259919047Y-286566071D02*
X259728571Y-286566071D01*
X259728571Y-286566071D02*
X259633333Y-286518452D01*
X259633333Y-286518452D02*
X259585714Y-286470832D01*
X259585714Y-286470832D02*
X259538095Y-286375594D01*
X259538095Y-286375594D02*
X259538095Y-286137499D01*
X259538095Y-286137499D02*
X259585714Y-286042261D01*
X259585714Y-286042261D02*
X259633333Y-285994642D01*
X259633333Y-285994642D02*
X259728571Y-285947023D01*
X259728571Y-285947023D02*
X259919047Y-285947023D01*
X259919047Y-285947023D02*
X260014285Y-285994642D01*
X260014285Y-285994642D02*
X260061904Y-286042261D01*
X260061904Y-286042261D02*
X260109523Y-286137499D01*
X253642857Y-276309580D02*
X253690476Y-276357200D01*
X253690476Y-276357200D02*
X253833333Y-276404819D01*
X253833333Y-276404819D02*
X253928571Y-276404819D01*
X253928571Y-276404819D02*
X254071428Y-276357200D01*
X254071428Y-276357200D02*
X254166666Y-276261961D01*
X254166666Y-276261961D02*
X254214285Y-276166723D01*
X254214285Y-276166723D02*
X254261904Y-275976247D01*
X254261904Y-275976247D02*
X254261904Y-275833390D01*
X254261904Y-275833390D02*
X254214285Y-275642914D01*
X254214285Y-275642914D02*
X254166666Y-275547676D01*
X254166666Y-275547676D02*
X254071428Y-275452438D01*
X254071428Y-275452438D02*
X253928571Y-275404819D01*
X253928571Y-275404819D02*
X253833333Y-275404819D01*
X253833333Y-275404819D02*
X253690476Y-275452438D01*
X253690476Y-275452438D02*
X253642857Y-275500057D01*
X253309523Y-275404819D02*
X252690476Y-275404819D01*
X252690476Y-275404819D02*
X253023809Y-275785771D01*
X253023809Y-275785771D02*
X252880952Y-275785771D01*
X252880952Y-275785771D02*
X252785714Y-275833390D01*
X252785714Y-275833390D02*
X252738095Y-275881009D01*
X252738095Y-275881009D02*
X252690476Y-275976247D01*
X252690476Y-275976247D02*
X252690476Y-276214342D01*
X252690476Y-276214342D02*
X252738095Y-276309580D01*
X252738095Y-276309580D02*
X252785714Y-276357200D01*
X252785714Y-276357200D02*
X252880952Y-276404819D01*
X252880952Y-276404819D02*
X253166666Y-276404819D01*
X253166666Y-276404819D02*
X253261904Y-276357200D01*
X253261904Y-276357200D02*
X253309523Y-276309580D01*
X251785714Y-275404819D02*
X252261904Y-275404819D01*
X252261904Y-275404819D02*
X252309523Y-275881009D01*
X252309523Y-275881009D02*
X252261904Y-275833390D01*
X252261904Y-275833390D02*
X252166666Y-275785771D01*
X252166666Y-275785771D02*
X251928571Y-275785771D01*
X251928571Y-275785771D02*
X251833333Y-275833390D01*
X251833333Y-275833390D02*
X251785714Y-275881009D01*
X251785714Y-275881009D02*
X251738095Y-275976247D01*
X251738095Y-275976247D02*
X251738095Y-276214342D01*
X251738095Y-276214342D02*
X251785714Y-276309580D01*
X251785714Y-276309580D02*
X251833333Y-276357200D01*
X251833333Y-276357200D02*
X251928571Y-276404819D01*
X251928571Y-276404819D02*
X252166666Y-276404819D01*
X252166666Y-276404819D02*
X252261904Y-276357200D01*
X252261904Y-276357200D02*
X252309523Y-276309580D01*
X152542857Y-297979580D02*
X152590476Y-298027200D01*
X152590476Y-298027200D02*
X152733333Y-298074819D01*
X152733333Y-298074819D02*
X152828571Y-298074819D01*
X152828571Y-298074819D02*
X152971428Y-298027200D01*
X152971428Y-298027200D02*
X153066666Y-297931961D01*
X153066666Y-297931961D02*
X153114285Y-297836723D01*
X153114285Y-297836723D02*
X153161904Y-297646247D01*
X153161904Y-297646247D02*
X153161904Y-297503390D01*
X153161904Y-297503390D02*
X153114285Y-297312914D01*
X153114285Y-297312914D02*
X153066666Y-297217676D01*
X153066666Y-297217676D02*
X152971428Y-297122438D01*
X152971428Y-297122438D02*
X152828571Y-297074819D01*
X152828571Y-297074819D02*
X152733333Y-297074819D01*
X152733333Y-297074819D02*
X152590476Y-297122438D01*
X152590476Y-297122438D02*
X152542857Y-297170057D01*
X151590476Y-298074819D02*
X152161904Y-298074819D01*
X151876190Y-298074819D02*
X151876190Y-297074819D01*
X151876190Y-297074819D02*
X151971428Y-297217676D01*
X151971428Y-297217676D02*
X152066666Y-297312914D01*
X152066666Y-297312914D02*
X152161904Y-297360533D01*
X150638095Y-298074819D02*
X151209523Y-298074819D01*
X150923809Y-298074819D02*
X150923809Y-297074819D01*
X150923809Y-297074819D02*
X151019047Y-297217676D01*
X151019047Y-297217676D02*
X151114285Y-297312914D01*
X151114285Y-297312914D02*
X151209523Y-297360533D01*
X261642857Y-276459580D02*
X261690476Y-276507200D01*
X261690476Y-276507200D02*
X261833333Y-276554819D01*
X261833333Y-276554819D02*
X261928571Y-276554819D01*
X261928571Y-276554819D02*
X262071428Y-276507200D01*
X262071428Y-276507200D02*
X262166666Y-276411961D01*
X262166666Y-276411961D02*
X262214285Y-276316723D01*
X262214285Y-276316723D02*
X262261904Y-276126247D01*
X262261904Y-276126247D02*
X262261904Y-275983390D01*
X262261904Y-275983390D02*
X262214285Y-275792914D01*
X262214285Y-275792914D02*
X262166666Y-275697676D01*
X262166666Y-275697676D02*
X262071428Y-275602438D01*
X262071428Y-275602438D02*
X261928571Y-275554819D01*
X261928571Y-275554819D02*
X261833333Y-275554819D01*
X261833333Y-275554819D02*
X261690476Y-275602438D01*
X261690476Y-275602438D02*
X261642857Y-275650057D01*
X261309523Y-275554819D02*
X260690476Y-275554819D01*
X260690476Y-275554819D02*
X261023809Y-275935771D01*
X261023809Y-275935771D02*
X260880952Y-275935771D01*
X260880952Y-275935771D02*
X260785714Y-275983390D01*
X260785714Y-275983390D02*
X260738095Y-276031009D01*
X260738095Y-276031009D02*
X260690476Y-276126247D01*
X260690476Y-276126247D02*
X260690476Y-276364342D01*
X260690476Y-276364342D02*
X260738095Y-276459580D01*
X260738095Y-276459580D02*
X260785714Y-276507200D01*
X260785714Y-276507200D02*
X260880952Y-276554819D01*
X260880952Y-276554819D02*
X261166666Y-276554819D01*
X261166666Y-276554819D02*
X261261904Y-276507200D01*
X261261904Y-276507200D02*
X261309523Y-276459580D01*
X260357142Y-275554819D02*
X259690476Y-275554819D01*
X259690476Y-275554819D02*
X260119047Y-276554819D01*
X128079580Y-314283333D02*
X128127200Y-314235714D01*
X128127200Y-314235714D02*
X128174819Y-314092857D01*
X128174819Y-314092857D02*
X128174819Y-313997619D01*
X128174819Y-313997619D02*
X128127200Y-313854762D01*
X128127200Y-313854762D02*
X128031961Y-313759524D01*
X128031961Y-313759524D02*
X127936723Y-313711905D01*
X127936723Y-313711905D02*
X127746247Y-313664286D01*
X127746247Y-313664286D02*
X127603390Y-313664286D01*
X127603390Y-313664286D02*
X127412914Y-313711905D01*
X127412914Y-313711905D02*
X127317676Y-313759524D01*
X127317676Y-313759524D02*
X127222438Y-313854762D01*
X127222438Y-313854762D02*
X127174819Y-313997619D01*
X127174819Y-313997619D02*
X127174819Y-314092857D01*
X127174819Y-314092857D02*
X127222438Y-314235714D01*
X127222438Y-314235714D02*
X127270057Y-314283333D01*
X128174819Y-315235714D02*
X128174819Y-314664286D01*
X128174819Y-314950000D02*
X127174819Y-314950000D01*
X127174819Y-314950000D02*
X127317676Y-314854762D01*
X127317676Y-314854762D02*
X127412914Y-314759524D01*
X127412914Y-314759524D02*
X127460533Y-314664286D01*
X272642857Y-311259580D02*
X272690476Y-311307200D01*
X272690476Y-311307200D02*
X272833333Y-311354819D01*
X272833333Y-311354819D02*
X272928571Y-311354819D01*
X272928571Y-311354819D02*
X273071428Y-311307200D01*
X273071428Y-311307200D02*
X273166666Y-311211961D01*
X273166666Y-311211961D02*
X273214285Y-311116723D01*
X273214285Y-311116723D02*
X273261904Y-310926247D01*
X273261904Y-310926247D02*
X273261904Y-310783390D01*
X273261904Y-310783390D02*
X273214285Y-310592914D01*
X273214285Y-310592914D02*
X273166666Y-310497676D01*
X273166666Y-310497676D02*
X273071428Y-310402438D01*
X273071428Y-310402438D02*
X272928571Y-310354819D01*
X272928571Y-310354819D02*
X272833333Y-310354819D01*
X272833333Y-310354819D02*
X272690476Y-310402438D01*
X272690476Y-310402438D02*
X272642857Y-310450057D01*
X271785714Y-310688152D02*
X271785714Y-311354819D01*
X272023809Y-310307200D02*
X272261904Y-311021485D01*
X272261904Y-311021485D02*
X271642857Y-311021485D01*
X270833333Y-310354819D02*
X271023809Y-310354819D01*
X271023809Y-310354819D02*
X271119047Y-310402438D01*
X271119047Y-310402438D02*
X271166666Y-310450057D01*
X271166666Y-310450057D02*
X271261904Y-310592914D01*
X271261904Y-310592914D02*
X271309523Y-310783390D01*
X271309523Y-310783390D02*
X271309523Y-311164342D01*
X271309523Y-311164342D02*
X271261904Y-311259580D01*
X271261904Y-311259580D02*
X271214285Y-311307200D01*
X271214285Y-311307200D02*
X271119047Y-311354819D01*
X271119047Y-311354819D02*
X270928571Y-311354819D01*
X270928571Y-311354819D02*
X270833333Y-311307200D01*
X270833333Y-311307200D02*
X270785714Y-311259580D01*
X270785714Y-311259580D02*
X270738095Y-311164342D01*
X270738095Y-311164342D02*
X270738095Y-310926247D01*
X270738095Y-310926247D02*
X270785714Y-310831009D01*
X270785714Y-310831009D02*
X270833333Y-310783390D01*
X270833333Y-310783390D02*
X270928571Y-310735771D01*
X270928571Y-310735771D02*
X271119047Y-310735771D01*
X271119047Y-310735771D02*
X271214285Y-310783390D01*
X271214285Y-310783390D02*
X271261904Y-310831009D01*
X271261904Y-310831009D02*
X271309523Y-310926247D01*
X253129580Y-307607142D02*
X253177200Y-307559523D01*
X253177200Y-307559523D02*
X253224819Y-307416666D01*
X253224819Y-307416666D02*
X253224819Y-307321428D01*
X253224819Y-307321428D02*
X253177200Y-307178571D01*
X253177200Y-307178571D02*
X253081961Y-307083333D01*
X253081961Y-307083333D02*
X252986723Y-307035714D01*
X252986723Y-307035714D02*
X252796247Y-306988095D01*
X252796247Y-306988095D02*
X252653390Y-306988095D01*
X252653390Y-306988095D02*
X252462914Y-307035714D01*
X252462914Y-307035714D02*
X252367676Y-307083333D01*
X252367676Y-307083333D02*
X252272438Y-307178571D01*
X252272438Y-307178571D02*
X252224819Y-307321428D01*
X252224819Y-307321428D02*
X252224819Y-307416666D01*
X252224819Y-307416666D02*
X252272438Y-307559523D01*
X252272438Y-307559523D02*
X252320057Y-307607142D01*
X252224819Y-307940476D02*
X252224819Y-308559523D01*
X252224819Y-308559523D02*
X252605771Y-308226190D01*
X252605771Y-308226190D02*
X252605771Y-308369047D01*
X252605771Y-308369047D02*
X252653390Y-308464285D01*
X252653390Y-308464285D02*
X252701009Y-308511904D01*
X252701009Y-308511904D02*
X252796247Y-308559523D01*
X252796247Y-308559523D02*
X253034342Y-308559523D01*
X253034342Y-308559523D02*
X253129580Y-308511904D01*
X253129580Y-308511904D02*
X253177200Y-308464285D01*
X253177200Y-308464285D02*
X253224819Y-308369047D01*
X253224819Y-308369047D02*
X253224819Y-308083333D01*
X253224819Y-308083333D02*
X253177200Y-307988095D01*
X253177200Y-307988095D02*
X253129580Y-307940476D01*
X253224819Y-309035714D02*
X253224819Y-309226190D01*
X253224819Y-309226190D02*
X253177200Y-309321428D01*
X253177200Y-309321428D02*
X253129580Y-309369047D01*
X253129580Y-309369047D02*
X252986723Y-309464285D01*
X252986723Y-309464285D02*
X252796247Y-309511904D01*
X252796247Y-309511904D02*
X252415295Y-309511904D01*
X252415295Y-309511904D02*
X252320057Y-309464285D01*
X252320057Y-309464285D02*
X252272438Y-309416666D01*
X252272438Y-309416666D02*
X252224819Y-309321428D01*
X252224819Y-309321428D02*
X252224819Y-309130952D01*
X252224819Y-309130952D02*
X252272438Y-309035714D01*
X252272438Y-309035714D02*
X252320057Y-308988095D01*
X252320057Y-308988095D02*
X252415295Y-308940476D01*
X252415295Y-308940476D02*
X252653390Y-308940476D01*
X252653390Y-308940476D02*
X252748628Y-308988095D01*
X252748628Y-308988095D02*
X252796247Y-309035714D01*
X252796247Y-309035714D02*
X252843866Y-309130952D01*
X252843866Y-309130952D02*
X252843866Y-309321428D01*
X252843866Y-309321428D02*
X252796247Y-309416666D01*
X252796247Y-309416666D02*
X252748628Y-309464285D01*
X252748628Y-309464285D02*
X252653390Y-309511904D01*
D11*
%TO.C,C34*%
X254715000Y-285588748D02*
X254715000Y-286111252D01*
X256185000Y-285588748D02*
X256185000Y-286111252D01*
%TO.C,C36*%
X257465000Y-285588748D02*
X257465000Y-286111252D01*
X258935000Y-285588748D02*
X258935000Y-286111252D01*
%TO.C,C35*%
X254715000Y-276211252D02*
X254715000Y-275688748D01*
X256185000Y-276211252D02*
X256185000Y-275688748D01*
%TO.C,C11*%
X152161252Y-298565000D02*
X151638748Y-298565000D01*
X152161252Y-300035000D02*
X151638748Y-300035000D01*
%TO.C,C37*%
X257465000Y-276211252D02*
X257465000Y-275688748D01*
X258935000Y-276211252D02*
X258935000Y-275688748D01*
%TO.C,C1*%
X128665000Y-314188748D02*
X128665000Y-314711252D01*
X130135000Y-314188748D02*
X130135000Y-314711252D01*
%TO.C,C46*%
X271211252Y-308065000D02*
X270688748Y-308065000D01*
X271211252Y-309535000D02*
X270688748Y-309535000D01*
%TO.C,C39*%
X253715000Y-307988748D02*
X253715000Y-308511252D01*
X255185000Y-307988748D02*
X255185000Y-308511252D01*
%TD*%
%LPC*%
D10*
G36*
X169448633Y-366872369D02*
G01*
X169636211Y-366855882D01*
X169649812Y-366931180D01*
X169670724Y-366993349D01*
X169698127Y-367044468D01*
X169734923Y-367088831D01*
X169784508Y-367128558D01*
X169849252Y-367163628D01*
X169918917Y-367188452D01*
X169995420Y-367203768D01*
X170079878Y-367209057D01*
X170189449Y-367200157D01*
X170280646Y-367175169D01*
X170335953Y-367148481D01*
X170378459Y-367117453D01*
X170410247Y-367082204D01*
X170442302Y-367020015D01*
X170452837Y-366953152D01*
X170442429Y-366886321D01*
X170411804Y-366829412D01*
X170361147Y-366783122D01*
X170276616Y-366740478D01*
X170197733Y-366715369D01*
X170009170Y-366667021D01*
X169818631Y-366613783D01*
X169719193Y-366572957D01*
X169651333Y-366530628D01*
X169598573Y-366483922D01*
X169558817Y-366432732D01*
X169529625Y-366374994D01*
X169512049Y-366312891D01*
X169506060Y-366245245D01*
X169513184Y-366171038D01*
X169534465Y-366100373D01*
X169570540Y-366032021D01*
X169619198Y-365972189D01*
X169681365Y-365922109D01*
X169759126Y-365881445D01*
X169843221Y-365853327D01*
X169934732Y-365836020D01*
X170034816Y-365830062D01*
X170145119Y-365836446D01*
X170242731Y-365854717D01*
X170329372Y-365883918D01*
X170409327Y-365926353D01*
X170474083Y-365978962D01*
X170525560Y-366042187D01*
X170564082Y-366114376D01*
X170588689Y-366192757D01*
X170599383Y-366278767D01*
X170408782Y-366293147D01*
X170389183Y-366202184D01*
X170354272Y-366131702D01*
X170304734Y-366077450D01*
X170241509Y-366039127D01*
X170156417Y-366013860D01*
X170042967Y-366004452D01*
X169923915Y-366013334D01*
X169839136Y-366036559D01*
X169780101Y-366070580D01*
X169733232Y-366119170D01*
X169706569Y-366171644D01*
X169697669Y-366230040D01*
X169704321Y-366281412D01*
X169723612Y-366325209D01*
X169756104Y-366363306D01*
X169800091Y-366391505D01*
X169891444Y-366426965D01*
X170055790Y-366470467D01*
X170278343Y-366527206D01*
X170388265Y-366566271D01*
X170471405Y-366612428D01*
X170534916Y-366663553D01*
X170581889Y-366719595D01*
X170616371Y-366783919D01*
X170637268Y-366854638D01*
X170644446Y-366933368D01*
X170636899Y-367011385D01*
X170614271Y-367086339D01*
X170575752Y-367159507D01*
X170524289Y-367224025D01*
X170459195Y-367278913D01*
X170378557Y-367324554D01*
X170291052Y-367356757D01*
X170195027Y-367376599D01*
X170089037Y-367383447D01*
X169953867Y-367376069D01*
X169841114Y-367355531D01*
X169747311Y-367323729D01*
X169661221Y-367276594D01*
X169589715Y-367216930D01*
X169531156Y-367143936D01*
X169487369Y-367060947D01*
X169459863Y-366970987D01*
X169448633Y-366872369D01*
G37*
G36*
X171677763Y-365836486D02*
G01*
X171773969Y-365855327D01*
X171864294Y-365886267D01*
X171949618Y-365929439D01*
X172028294Y-365984072D01*
X172096503Y-366047995D01*
X172155028Y-366121785D01*
X172204242Y-366206410D01*
X172252180Y-366327615D01*
X172281697Y-366461172D01*
X172291894Y-366609319D01*
X172281193Y-366759294D01*
X172250171Y-366894719D01*
X172199662Y-367017907D01*
X172147977Y-367103662D01*
X172087501Y-367177019D01*
X172017910Y-367239147D01*
X171938444Y-367290757D01*
X171822787Y-367342243D01*
X171701749Y-367373051D01*
X171573637Y-367383447D01*
X171468448Y-367376797D01*
X171370913Y-367357341D01*
X171279899Y-367325460D01*
X171194450Y-367281048D01*
X171115733Y-367224941D01*
X171047785Y-367160060D01*
X170989803Y-367085881D01*
X170941384Y-367001512D01*
X170893557Y-366880992D01*
X170864983Y-366756521D01*
X170855577Y-366629378D01*
X171060269Y-366629378D01*
X171070435Y-366764995D01*
X171099081Y-366879375D01*
X171144456Y-366976191D01*
X171206265Y-367058299D01*
X171284371Y-367127123D01*
X171370232Y-367175478D01*
X171465512Y-367204814D01*
X171572630Y-367214919D01*
X171681861Y-367204643D01*
X171778252Y-367174912D01*
X171864380Y-367126073D01*
X171942016Y-367056741D01*
X172002691Y-366974121D01*
X172047820Y-366874231D01*
X172076666Y-366753579D01*
X172087005Y-366607762D01*
X172079620Y-366486445D01*
X172058560Y-366380184D01*
X172024998Y-366286827D01*
X171976546Y-366201151D01*
X171916334Y-366130843D01*
X171843648Y-366074153D01*
X171761306Y-366032360D01*
X171672545Y-366007177D01*
X171575652Y-365998590D01*
X171472874Y-366007849D01*
X171379266Y-366034953D01*
X171292906Y-366079885D01*
X171212402Y-366143945D01*
X171161982Y-366203425D01*
X171120574Y-366278339D01*
X171088711Y-366371695D01*
X171067850Y-366487251D01*
X171060269Y-366629378D01*
X170855577Y-366629378D01*
X170855380Y-366626721D01*
X170864458Y-366475098D01*
X170890247Y-366343387D01*
X170931156Y-366228742D01*
X170986423Y-366128753D01*
X171056148Y-366041546D01*
X171140779Y-365965702D01*
X171233551Y-365907210D01*
X171335622Y-365865034D01*
X171448638Y-365839051D01*
X171574645Y-365830062D01*
X171677763Y-365836486D01*
G37*
G36*
X172540106Y-367360000D02*
G01*
X172540106Y-365853510D01*
X172738950Y-365853510D01*
X172738950Y-367185610D01*
X173478731Y-367185610D01*
X173478731Y-367360000D01*
X172540106Y-367360000D01*
G37*
G36*
X174397109Y-365859797D02*
G01*
X174499697Y-365875125D01*
X174582999Y-365900905D01*
X174656008Y-365936890D01*
X174720065Y-365983019D01*
X174791974Y-366055593D01*
X174851083Y-366140833D01*
X174897752Y-366240390D01*
X174929735Y-366346432D01*
X174949753Y-366465200D01*
X174956736Y-366598511D01*
X174951948Y-366712574D01*
X174938304Y-366813502D01*
X174916711Y-366902777D01*
X174869408Y-367027524D01*
X174814221Y-367122137D01*
X174747262Y-367201248D01*
X174677475Y-367258791D01*
X174597650Y-367301684D01*
X174498140Y-367334354D01*
X174389003Y-367353193D01*
X174256889Y-367360000D01*
X173714853Y-367360000D01*
X173714853Y-367185610D01*
X173913606Y-367185610D01*
X174234358Y-367185610D01*
X174374734Y-367177674D01*
X174467457Y-367157766D01*
X174545298Y-367123042D01*
X174602187Y-367079181D01*
X174644345Y-367028330D01*
X174681162Y-366965093D01*
X174712280Y-366887390D01*
X174733289Y-366806155D01*
X174746883Y-366709626D01*
X174751756Y-366595397D01*
X174745932Y-366473241D01*
X174729946Y-366374007D01*
X174705656Y-366294015D01*
X174674361Y-366230040D01*
X174616586Y-366151454D01*
X174554158Y-366095605D01*
X174486416Y-366058948D01*
X174431505Y-366043479D01*
X174348713Y-366032285D01*
X174229228Y-366027899D01*
X173913606Y-366027899D01*
X173913606Y-367185610D01*
X173714853Y-367185610D01*
X173714853Y-365853510D01*
X174232251Y-365853510D01*
X174397109Y-365859797D01*
G37*
G36*
X175234166Y-367360000D02*
G01*
X175234166Y-365853510D01*
X176320344Y-365853510D01*
X176320344Y-366027899D01*
X175433010Y-366027899D01*
X175433010Y-366492449D01*
X176264016Y-366492449D01*
X176264016Y-366666838D01*
X175433010Y-366666838D01*
X175433010Y-367185610D01*
X176355240Y-367185610D01*
X176355240Y-367360000D01*
X175234166Y-367360000D01*
G37*
G36*
X177433533Y-365858970D02*
G01*
X177532853Y-365873287D01*
X177604085Y-365893810D01*
X177668654Y-365927247D01*
X177723977Y-365974169D01*
X177771055Y-366036142D01*
X177805743Y-366106312D01*
X177826551Y-366180981D01*
X177833612Y-366261456D01*
X177826886Y-366339327D01*
X177807364Y-366409033D01*
X177775328Y-366472122D01*
X177730114Y-366529726D01*
X177675598Y-366576363D01*
X177606198Y-366615499D01*
X177519015Y-366646613D01*
X177410461Y-366668395D01*
X177483449Y-366708796D01*
X177530262Y-366744050D01*
X177613017Y-366832531D01*
X177695309Y-366946283D01*
X177956527Y-367360000D01*
X177706575Y-367360000D01*
X177507731Y-367043461D01*
X177364299Y-366833900D01*
X177307268Y-366768478D01*
X177263366Y-366732143D01*
X177217756Y-366707221D01*
X177172691Y-366691659D01*
X177062049Y-366684424D01*
X176831514Y-366684424D01*
X176831514Y-367360000D01*
X176632670Y-367360000D01*
X176632670Y-366515896D01*
X176831514Y-366515896D01*
X177258786Y-366515896D01*
X177387364Y-366507934D01*
X177471919Y-366487961D01*
X177519989Y-366464966D01*
X177558468Y-366435173D01*
X177588697Y-366398293D01*
X177618688Y-366333862D01*
X177628631Y-366264387D01*
X177619837Y-366197284D01*
X177594312Y-366140068D01*
X177551237Y-366090273D01*
X177495420Y-366054851D01*
X177416527Y-366031058D01*
X177306963Y-366022037D01*
X176831514Y-366022037D01*
X176831514Y-366515896D01*
X176632670Y-366515896D01*
X176632670Y-365853510D01*
X177298720Y-365853510D01*
X177433533Y-365858970D01*
G37*
G36*
X178722045Y-367360000D02*
G01*
X178722045Y-365853510D01*
X179021182Y-365853510D01*
X179376738Y-366920637D01*
X179448454Y-367143753D01*
X179528413Y-366902136D01*
X179888091Y-365853510D01*
X180155537Y-365853510D01*
X180155537Y-367360000D01*
X179963928Y-367360000D01*
X179963928Y-366098424D01*
X179527405Y-367360000D01*
X179348070Y-367360000D01*
X178913654Y-366076900D01*
X178913654Y-367360000D01*
X178722045Y-367360000D01*
G37*
G36*
X181717348Y-367360000D02*
G01*
X181490843Y-367360000D01*
X181315629Y-366902777D01*
X180687498Y-366902777D01*
X180522542Y-367360000D01*
X180311425Y-367360000D01*
X180549381Y-366738646D01*
X180744925Y-366738646D01*
X181254172Y-366738646D01*
X181097368Y-366322731D01*
X181031849Y-366141235D01*
X180990847Y-366011321D01*
X180956417Y-366154743D01*
X180909881Y-366298184D01*
X180744925Y-366738646D01*
X180549381Y-366738646D01*
X180888357Y-365853510D01*
X181102497Y-365853510D01*
X181717348Y-367360000D01*
G37*
G36*
X181808298Y-366872369D02*
G01*
X181995876Y-366855882D01*
X182009477Y-366931180D01*
X182030389Y-366993349D01*
X182057792Y-367044468D01*
X182094588Y-367088831D01*
X182144173Y-367128558D01*
X182208917Y-367163628D01*
X182278582Y-367188452D01*
X182355085Y-367203768D01*
X182439543Y-367209057D01*
X182549114Y-367200157D01*
X182640311Y-367175169D01*
X182695618Y-367148481D01*
X182738124Y-367117453D01*
X182769912Y-367082204D01*
X182801967Y-367020015D01*
X182812502Y-366953152D01*
X182802094Y-366886321D01*
X182771469Y-366829412D01*
X182720812Y-366783122D01*
X182636281Y-366740478D01*
X182557398Y-366715369D01*
X182368835Y-366667021D01*
X182178296Y-366613783D01*
X182078858Y-366572957D01*
X182010998Y-366530628D01*
X181958238Y-366483922D01*
X181918482Y-366432732D01*
X181889290Y-366374994D01*
X181871714Y-366312891D01*
X181865725Y-366245245D01*
X181872849Y-366171038D01*
X181894130Y-366100373D01*
X181930205Y-366032021D01*
X181978863Y-365972189D01*
X182041030Y-365922109D01*
X182118791Y-365881445D01*
X182202886Y-365853327D01*
X182294397Y-365836020D01*
X182394481Y-365830062D01*
X182504784Y-365836446D01*
X182602396Y-365854717D01*
X182689037Y-365883918D01*
X182768993Y-365926353D01*
X182833748Y-365978962D01*
X182885226Y-366042187D01*
X182923747Y-366114376D01*
X182948354Y-366192757D01*
X182959048Y-366278767D01*
X182768447Y-366293147D01*
X182748848Y-366202184D01*
X182713937Y-366131702D01*
X182664399Y-366077450D01*
X182601174Y-366039127D01*
X182516082Y-366013860D01*
X182402632Y-366004452D01*
X182283580Y-366013334D01*
X182198801Y-366036559D01*
X182139766Y-366070580D01*
X182092898Y-366119170D01*
X182066234Y-366171644D01*
X182057334Y-366230040D01*
X182063986Y-366281412D01*
X182083277Y-366325209D01*
X182115769Y-366363306D01*
X182159756Y-366391505D01*
X182251109Y-366426965D01*
X182415455Y-366470467D01*
X182638008Y-366527206D01*
X182747931Y-366566271D01*
X182831070Y-366612428D01*
X182894581Y-366663553D01*
X182941554Y-366719595D01*
X182976036Y-366783919D01*
X182996933Y-366854638D01*
X183004111Y-366933368D01*
X182996564Y-367011385D01*
X182973936Y-367086339D01*
X182935417Y-367159507D01*
X182883954Y-367224025D01*
X182818860Y-367278913D01*
X182738222Y-367324554D01*
X182650717Y-367356757D01*
X182554692Y-367376599D01*
X182448702Y-367383447D01*
X182313532Y-367376069D01*
X182200779Y-367355531D01*
X182106976Y-367323729D01*
X182020886Y-367276594D01*
X181949380Y-367216930D01*
X181890821Y-367143936D01*
X181847034Y-367060947D01*
X181819528Y-366970987D01*
X181808298Y-366872369D01*
G37*
G36*
X183267252Y-367360000D02*
G01*
X183267252Y-365853510D01*
X183466096Y-365853510D01*
X183466096Y-366601534D01*
X184212014Y-365853510D01*
X184481475Y-365853510D01*
X183851328Y-366464147D01*
X184509135Y-367360000D01*
X184246818Y-367360000D01*
X183712018Y-366597412D01*
X183466096Y-366838297D01*
X183466096Y-367360000D01*
X183267252Y-367360000D01*
G37*
G36*
X185928223Y-365859379D02*
G01*
X186018840Y-365875302D01*
X186089722Y-365899214D01*
X186154434Y-365935351D01*
X186208361Y-365981907D01*
X186252663Y-366039714D01*
X186285775Y-366104875D01*
X186305136Y-366170655D01*
X186311556Y-366238101D01*
X186305781Y-366300952D01*
X186288512Y-366361176D01*
X186259257Y-366419726D01*
X186219680Y-366471582D01*
X186167740Y-366517311D01*
X186101537Y-366557112D01*
X186187714Y-366591353D01*
X186256672Y-366636982D01*
X186311098Y-366694041D01*
X186351479Y-366761697D01*
X186375938Y-366837174D01*
X186384371Y-366922561D01*
X186373101Y-367025345D01*
X186339766Y-367119665D01*
X186288448Y-367202172D01*
X186229582Y-367260165D01*
X186157940Y-367302472D01*
X186065084Y-367334812D01*
X185960557Y-367353121D01*
X185822826Y-367360000D01*
X185250015Y-367360000D01*
X185250015Y-367185610D01*
X185448860Y-367185610D01*
X185822826Y-367185610D01*
X185958106Y-367178283D01*
X186022879Y-367160999D01*
X186072778Y-367136700D01*
X186114130Y-367101700D01*
X186148615Y-367051887D01*
X186170672Y-366993045D01*
X186178382Y-366923293D01*
X186173385Y-366867728D01*
X186158951Y-366818720D01*
X186135335Y-366775007D01*
X186103116Y-366737342D01*
X186063678Y-366708004D01*
X186015900Y-366686530D01*
X185931079Y-366668374D01*
X185796173Y-366660976D01*
X185448860Y-366660976D01*
X185448860Y-367185610D01*
X185250015Y-367185610D01*
X185250015Y-366486587D01*
X185448860Y-366486587D01*
X185773641Y-366486587D01*
X185896470Y-366481262D01*
X185963235Y-366469002D01*
X186031114Y-366437769D01*
X186077449Y-366393439D01*
X186105809Y-366335549D01*
X186115917Y-366260907D01*
X186106692Y-366188892D01*
X186080014Y-366127825D01*
X186052683Y-366093533D01*
X186018867Y-366067508D01*
X185977523Y-366049148D01*
X185899034Y-366034407D01*
X185749003Y-366027899D01*
X185448860Y-366027899D01*
X185448860Y-366486587D01*
X185250015Y-366486587D01*
X185250015Y-365853510D01*
X185813575Y-365853510D01*
X185928223Y-365859379D01*
G37*
G36*
X187419703Y-365836486D02*
G01*
X187515909Y-365855327D01*
X187606234Y-365886267D01*
X187691558Y-365929439D01*
X187770234Y-365984072D01*
X187838443Y-366047995D01*
X187896968Y-366121785D01*
X187946182Y-366206410D01*
X187994120Y-366327615D01*
X188023637Y-366461172D01*
X188033834Y-366609319D01*
X188023133Y-366759294D01*
X187992111Y-366894719D01*
X187941602Y-367017907D01*
X187889917Y-367103662D01*
X187829441Y-367177019D01*
X187759850Y-367239147D01*
X187680384Y-367290757D01*
X187564727Y-367342243D01*
X187443689Y-367373051D01*
X187315577Y-367383447D01*
X187210388Y-367376797D01*
X187112853Y-367357341D01*
X187021839Y-367325460D01*
X186936390Y-367281048D01*
X186857673Y-367224941D01*
X186789725Y-367160060D01*
X186731743Y-367085881D01*
X186683324Y-367001512D01*
X186635497Y-366880992D01*
X186606923Y-366756521D01*
X186597517Y-366629378D01*
X186802209Y-366629378D01*
X186812375Y-366764995D01*
X186841021Y-366879375D01*
X186886396Y-366976191D01*
X186948205Y-367058299D01*
X187026311Y-367127123D01*
X187112172Y-367175478D01*
X187207452Y-367204814D01*
X187314570Y-367214919D01*
X187423801Y-367204643D01*
X187520192Y-367174912D01*
X187606320Y-367126073D01*
X187683956Y-367056741D01*
X187744631Y-366974121D01*
X187789760Y-366874231D01*
X187818606Y-366753579D01*
X187828945Y-366607762D01*
X187821560Y-366486445D01*
X187800500Y-366380184D01*
X187766938Y-366286827D01*
X187718486Y-366201151D01*
X187658274Y-366130843D01*
X187585588Y-366074153D01*
X187503246Y-366032360D01*
X187414485Y-366007177D01*
X187317592Y-365998590D01*
X187214814Y-366007849D01*
X187121206Y-366034953D01*
X187034846Y-366079885D01*
X186954342Y-366143945D01*
X186903922Y-366203425D01*
X186862514Y-366278339D01*
X186830651Y-366371695D01*
X186809790Y-366487251D01*
X186802209Y-366629378D01*
X186597517Y-366629378D01*
X186597320Y-366626721D01*
X186606398Y-366475098D01*
X186632187Y-366343387D01*
X186673096Y-366228742D01*
X186728363Y-366128753D01*
X186798088Y-366041546D01*
X186882719Y-365965702D01*
X186975491Y-365907210D01*
X187077562Y-365865034D01*
X187190578Y-365839051D01*
X187316585Y-365830062D01*
X187419703Y-365836486D01*
G37*
G36*
X188672499Y-367360000D02*
G01*
X188672499Y-366027899D01*
X188177541Y-366027899D01*
X188177541Y-365853510D01*
X189368224Y-365853510D01*
X189368224Y-366027899D01*
X188871251Y-366027899D01*
X188871251Y-367360000D01*
X188672499Y-367360000D01*
G37*
G36*
X189954774Y-367360000D02*
G01*
X189954774Y-366027899D01*
X189459816Y-366027899D01*
X189459816Y-365853510D01*
X190650499Y-365853510D01*
X190650499Y-366027899D01*
X190153526Y-366027899D01*
X190153526Y-367360000D01*
X189954774Y-367360000D01*
G37*
G36*
X191578670Y-365836486D02*
G01*
X191674876Y-365855327D01*
X191765202Y-365886267D01*
X191850526Y-365929439D01*
X191929201Y-365984072D01*
X191997410Y-366047995D01*
X192055936Y-366121785D01*
X192105149Y-366206410D01*
X192153087Y-366327615D01*
X192182605Y-366461172D01*
X192192801Y-366609319D01*
X192182100Y-366759294D01*
X192151078Y-366894719D01*
X192100569Y-367017907D01*
X192048885Y-367103662D01*
X191988408Y-367177019D01*
X191918817Y-367239147D01*
X191839351Y-367290757D01*
X191723694Y-367342243D01*
X191602657Y-367373051D01*
X191474544Y-367383447D01*
X191369355Y-367376797D01*
X191271820Y-367357341D01*
X191180807Y-367325460D01*
X191095357Y-367281048D01*
X191016640Y-367224941D01*
X190948692Y-367160060D01*
X190890710Y-367085881D01*
X190842291Y-367001512D01*
X190794465Y-366880992D01*
X190765890Y-366756521D01*
X190756484Y-366629378D01*
X190961176Y-366629378D01*
X190971342Y-366764995D01*
X190999988Y-366879375D01*
X191045364Y-366976191D01*
X191107172Y-367058299D01*
X191185279Y-367127123D01*
X191271139Y-367175478D01*
X191366419Y-367204814D01*
X191473537Y-367214919D01*
X191582768Y-367204643D01*
X191679159Y-367174912D01*
X191765288Y-367126073D01*
X191842924Y-367056741D01*
X191903599Y-366974121D01*
X191948727Y-366874231D01*
X191977573Y-366753579D01*
X191987912Y-366607762D01*
X191980527Y-366486445D01*
X191959467Y-366380184D01*
X191925905Y-366286827D01*
X191877453Y-366201151D01*
X191817241Y-366130843D01*
X191744555Y-366074153D01*
X191662213Y-366032360D01*
X191573452Y-366007177D01*
X191476559Y-365998590D01*
X191373782Y-366007849D01*
X191280173Y-366034953D01*
X191193813Y-366079885D01*
X191113309Y-366143945D01*
X191062889Y-366203425D01*
X191021481Y-366278339D01*
X190989618Y-366371695D01*
X190968757Y-366487251D01*
X190961176Y-366629378D01*
X190756484Y-366629378D01*
X190756287Y-366626721D01*
X190765365Y-366475098D01*
X190791154Y-366343387D01*
X190832063Y-366228742D01*
X190887330Y-366128753D01*
X190957055Y-366041546D01*
X191041686Y-365965702D01*
X191134458Y-365907210D01*
X191236529Y-365865034D01*
X191349545Y-365839051D01*
X191475552Y-365830062D01*
X191578670Y-365836486D01*
G37*
G36*
X192443120Y-367360000D02*
G01*
X192443120Y-365853510D01*
X192742256Y-365853510D01*
X193097813Y-366920637D01*
X193169529Y-367143753D01*
X193249488Y-366902136D01*
X193609166Y-365853510D01*
X193876612Y-365853510D01*
X193876612Y-367360000D01*
X193685003Y-367360000D01*
X193685003Y-366098424D01*
X193248480Y-367360000D01*
X193069145Y-367360000D01*
X192634728Y-366076900D01*
X192634728Y-367360000D01*
X192443120Y-367360000D01*
G37*
G36*
X176191201Y-371912369D02*
G01*
X176378779Y-371895882D01*
X176392380Y-371971180D01*
X176413292Y-372033349D01*
X176440695Y-372084468D01*
X176477491Y-372128831D01*
X176527076Y-372168558D01*
X176591820Y-372203628D01*
X176661485Y-372228452D01*
X176737988Y-372243768D01*
X176822446Y-372249057D01*
X176932017Y-372240157D01*
X177023214Y-372215169D01*
X177078521Y-372188481D01*
X177121027Y-372157453D01*
X177152815Y-372122204D01*
X177184870Y-372060015D01*
X177195405Y-371993152D01*
X177184997Y-371926321D01*
X177154372Y-371869412D01*
X177103715Y-371823122D01*
X177019184Y-371780478D01*
X176940301Y-371755369D01*
X176751738Y-371707021D01*
X176561199Y-371653783D01*
X176461761Y-371612957D01*
X176393901Y-371570628D01*
X176341141Y-371523922D01*
X176301385Y-371472732D01*
X176272193Y-371414994D01*
X176254617Y-371352891D01*
X176248628Y-371285245D01*
X176255752Y-371211038D01*
X176277033Y-371140373D01*
X176313108Y-371072021D01*
X176361766Y-371012189D01*
X176423933Y-370962109D01*
X176501694Y-370921445D01*
X176585789Y-370893327D01*
X176677300Y-370876020D01*
X176777384Y-370870062D01*
X176887687Y-370876446D01*
X176985299Y-370894717D01*
X177071940Y-370923918D01*
X177151895Y-370966353D01*
X177216651Y-371018962D01*
X177268128Y-371082187D01*
X177306650Y-371154376D01*
X177331257Y-371232757D01*
X177341951Y-371318767D01*
X177151350Y-371333147D01*
X177131751Y-371242184D01*
X177096840Y-371171702D01*
X177047302Y-371117450D01*
X176984077Y-371079127D01*
X176898985Y-371053860D01*
X176785535Y-371044452D01*
X176666483Y-371053334D01*
X176581704Y-371076559D01*
X176522669Y-371110580D01*
X176475800Y-371159170D01*
X176449137Y-371211644D01*
X176440237Y-371270040D01*
X176446889Y-371321412D01*
X176466180Y-371365209D01*
X176498672Y-371403306D01*
X176542659Y-371431505D01*
X176634012Y-371466965D01*
X176798358Y-371510467D01*
X177020911Y-371567206D01*
X177130833Y-371606271D01*
X177213973Y-371652428D01*
X177277484Y-371703553D01*
X177324457Y-371759595D01*
X177358939Y-371823919D01*
X177379836Y-371894638D01*
X177387014Y-371973368D01*
X177379467Y-372051385D01*
X177356839Y-372126339D01*
X177318320Y-372199507D01*
X177266857Y-372264025D01*
X177201763Y-372318913D01*
X177121125Y-372364554D01*
X177033620Y-372396757D01*
X176937595Y-372416599D01*
X176831605Y-372423447D01*
X176696435Y-372416069D01*
X176583682Y-372395531D01*
X176489879Y-372363729D01*
X176403789Y-372316594D01*
X176332283Y-372256930D01*
X176273724Y-372183936D01*
X176229937Y-372100947D01*
X176202431Y-372010987D01*
X176191201Y-371912369D01*
G37*
G36*
X177650155Y-372400000D02*
G01*
X177650155Y-370893510D01*
X177848999Y-370893510D01*
X177848999Y-371641534D01*
X178594917Y-370893510D01*
X178864378Y-370893510D01*
X178234231Y-371504147D01*
X178892038Y-372400000D01*
X178629721Y-372400000D01*
X178094921Y-371637412D01*
X177848999Y-371878297D01*
X177848999Y-372400000D01*
X177650155Y-372400000D01*
G37*
G36*
X178962563Y-371948639D02*
G01*
X178962563Y-371761060D01*
X179529237Y-371761060D01*
X179529237Y-371948639D01*
X178962563Y-371948639D01*
G37*
G36*
X180651411Y-372225610D02*
G01*
X180651411Y-372400000D01*
X179658564Y-372400000D01*
X179662907Y-372334696D01*
X179680088Y-372272138D01*
X179728050Y-372173891D01*
X179801446Y-372072745D01*
X179896500Y-371973552D01*
X180042788Y-371845690D01*
X180204869Y-371705475D01*
X180310464Y-371601458D01*
X180373707Y-371526038D01*
X180423833Y-371444216D01*
X180451226Y-371370613D01*
X180459802Y-371303013D01*
X180450954Y-371232931D01*
X180425104Y-371171775D01*
X180381400Y-371117267D01*
X180325114Y-371075845D01*
X180258018Y-371050460D01*
X180177061Y-371041521D01*
X180091557Y-371051078D01*
X180021641Y-371078091D01*
X179963837Y-371122029D01*
X179920575Y-371180253D01*
X179893239Y-371253145D01*
X179882962Y-371344870D01*
X179693368Y-371325270D01*
X179711144Y-371219615D01*
X179742046Y-371132028D01*
X179784967Y-371059468D01*
X179839914Y-370999664D01*
X179906135Y-370952218D01*
X179983564Y-370917379D01*
X180074320Y-370895420D01*
X180181091Y-370887648D01*
X180288499Y-370895969D01*
X180379553Y-370919491D01*
X180457113Y-370956920D01*
X180523367Y-371008182D01*
X180578792Y-371072420D01*
X180617711Y-371142630D01*
X180641290Y-371220120D01*
X180649396Y-371306769D01*
X180640275Y-371396078D01*
X180612485Y-371484913D01*
X180565862Y-371571077D01*
X180490027Y-371669286D01*
X180388225Y-371772733D01*
X180205729Y-371934900D01*
X180055313Y-372065210D01*
X179992505Y-372125135D01*
X179948789Y-372176166D01*
X179914744Y-372225610D01*
X180651411Y-372225610D01*
G37*
G36*
X181467224Y-370894337D02*
G01*
X181543733Y-370913458D01*
X181610802Y-370944213D01*
X181669904Y-370986658D01*
X181719847Y-371039599D01*
X181759061Y-371101802D01*
X181787833Y-371174695D01*
X181805642Y-371260240D01*
X181622276Y-371274528D01*
X181590168Y-371177098D01*
X181552575Y-371119190D01*
X181498636Y-371075930D01*
X181437912Y-371050304D01*
X181368111Y-371041521D01*
X181310985Y-371047113D01*
X181259849Y-371063412D01*
X181213414Y-371090430D01*
X181160968Y-371137394D01*
X181115161Y-371198163D01*
X181076027Y-371275078D01*
X181050089Y-371357789D01*
X181031726Y-371470477D01*
X181023820Y-371620651D01*
X181072605Y-371557720D01*
X181126746Y-371508056D01*
X181186669Y-371470259D01*
X181252326Y-371442805D01*
X181319384Y-371426518D01*
X181388627Y-371421074D01*
X181478004Y-371429695D01*
X181558996Y-371454936D01*
X181633465Y-371496924D01*
X181702693Y-371557178D01*
X181758545Y-371628808D01*
X181798729Y-371709984D01*
X181823606Y-371802531D01*
X181832295Y-371908888D01*
X181825401Y-372001950D01*
X181805057Y-372089416D01*
X181771295Y-372172396D01*
X181724736Y-372248341D01*
X181669071Y-372309934D01*
X181603775Y-372358784D01*
X181530406Y-372394395D01*
X181450329Y-372416026D01*
X181361974Y-372423447D01*
X181250167Y-372412454D01*
X181151940Y-372380656D01*
X181064472Y-372328302D01*
X180985902Y-372253637D01*
X180938578Y-372185999D01*
X180898991Y-372100211D01*
X180868137Y-371992607D01*
X180855371Y-371908705D01*
X181052488Y-371908705D01*
X181062589Y-372001922D01*
X181092971Y-372091246D01*
X181124287Y-372145764D01*
X181161926Y-372189562D01*
X181206178Y-372223961D01*
X181281449Y-372258377D01*
X181358860Y-372269574D01*
X181432646Y-372259242D01*
X181498800Y-372228524D01*
X181559720Y-372175327D01*
X181604950Y-372107860D01*
X181633458Y-372023908D01*
X181643709Y-371918963D01*
X181633594Y-371818240D01*
X181605460Y-371737898D01*
X181560727Y-371673499D01*
X181500552Y-371623589D01*
X181431819Y-371593947D01*
X181351716Y-371583740D01*
X181272139Y-371593831D01*
X181202276Y-371623392D01*
X181139591Y-371673499D01*
X181092002Y-371738002D01*
X181062791Y-371815208D01*
X181052488Y-371908705D01*
X180855371Y-371908705D01*
X180847784Y-371858846D01*
X180840363Y-371694016D01*
X180848492Y-371510062D01*
X180870868Y-371359492D01*
X180904921Y-371237203D01*
X180948763Y-371138666D01*
X181001289Y-371060022D01*
X181061477Y-370997852D01*
X181128242Y-370950245D01*
X181202478Y-370916039D01*
X181285584Y-370894962D01*
X181379377Y-370887648D01*
X181467224Y-370894337D01*
G37*
G36*
X182584326Y-370893373D02*
G01*
X182654515Y-370909824D01*
X182716973Y-370936374D01*
X182773885Y-370973361D01*
X182823940Y-371019920D01*
X182867640Y-371076967D01*
X182919356Y-371175636D01*
X182960880Y-371300632D01*
X182985092Y-371443932D01*
X182994677Y-371656097D01*
X182987668Y-371833055D01*
X182968678Y-371973444D01*
X182940363Y-372083369D01*
X182896377Y-372186966D01*
X182842161Y-372269685D01*
X182777972Y-372334695D01*
X182701600Y-372383063D01*
X182611745Y-372412934D01*
X182504939Y-372423447D01*
X182399241Y-372413106D01*
X182309044Y-372383554D01*
X182231204Y-372335469D01*
X182163671Y-372267467D01*
X182115578Y-372193342D01*
X182075156Y-372099435D01*
X182043570Y-371981775D01*
X182022714Y-371835729D01*
X182015110Y-371656097D01*
X182015132Y-371655547D01*
X182204704Y-371655547D01*
X182212304Y-371852814D01*
X182231855Y-371991878D01*
X182259181Y-372086207D01*
X182291257Y-372147300D01*
X182339378Y-372202960D01*
X182390323Y-372240343D01*
X182444968Y-372262205D01*
X182504939Y-372269574D01*
X182564831Y-372262183D01*
X182619433Y-372240242D01*
X182670375Y-372202699D01*
X182718530Y-372146750D01*
X182750681Y-372085397D01*
X182778034Y-371990976D01*
X182797582Y-371852125D01*
X182805175Y-371655547D01*
X182797553Y-371457659D01*
X182777961Y-371318413D01*
X182750606Y-371224182D01*
X182718530Y-371163337D01*
X182670455Y-371108054D01*
X182619206Y-371070790D01*
X182563885Y-371048916D01*
X182502833Y-371041521D01*
X182442067Y-371048341D01*
X182389067Y-371068131D01*
X182342037Y-371101086D01*
X182299959Y-371148957D01*
X182263875Y-371217478D01*
X182233848Y-371317899D01*
X182212779Y-371460094D01*
X182204704Y-371655547D01*
X182015132Y-371655547D01*
X182022197Y-371477638D01*
X182041363Y-371336624D01*
X182069882Y-371226718D01*
X182114212Y-371123130D01*
X182168614Y-371040608D01*
X182232822Y-370975942D01*
X182309202Y-370927793D01*
X182398779Y-370898089D01*
X182504939Y-370887648D01*
X182584326Y-370893373D01*
G37*
G36*
X183876332Y-372400000D02*
G01*
X183691868Y-372400000D01*
X183691868Y-371221589D01*
X183618466Y-371282660D01*
X183517204Y-371348992D01*
X183410637Y-371406654D01*
X183323031Y-371444521D01*
X183323031Y-371268667D01*
X183423355Y-371215296D01*
X183513238Y-371155932D01*
X183593499Y-371090614D01*
X183667133Y-371017232D01*
X183720687Y-370949865D01*
X183757447Y-370887648D01*
X183876332Y-370887648D01*
X183876332Y-372400000D01*
G37*
G36*
X184327602Y-371948639D02*
G01*
X184327602Y-371761060D01*
X184894276Y-371761060D01*
X184894276Y-371948639D01*
X184327602Y-371948639D01*
G37*
G36*
X185047141Y-372001395D02*
G01*
X185240765Y-371985000D01*
X185262983Y-372076151D01*
X185296647Y-372145781D01*
X185340690Y-372198224D01*
X185396408Y-372237792D01*
X185458735Y-372261450D01*
X185529734Y-372269574D01*
X185594176Y-372263199D01*
X185652363Y-372244545D01*
X185705702Y-372213488D01*
X185755140Y-372168824D01*
X185794468Y-372116060D01*
X185823118Y-372055045D01*
X185841054Y-371984219D01*
X185847372Y-371901561D01*
X185841245Y-371822962D01*
X185823937Y-371756470D01*
X185796411Y-371699955D01*
X185758712Y-371651792D01*
X185694602Y-371601551D01*
X185618450Y-371571007D01*
X185526712Y-371560293D01*
X185441124Y-371570790D01*
X185365786Y-371601509D01*
X185301307Y-371649204D01*
X185253129Y-371708304D01*
X185079931Y-371685772D01*
X185225469Y-370911095D01*
X185972394Y-370911095D01*
X185972394Y-371085484D01*
X185373022Y-371085484D01*
X185292056Y-371494164D01*
X185385796Y-371439580D01*
X185479795Y-371408029D01*
X185575896Y-371397627D01*
X185671702Y-371406423D01*
X185757729Y-371432036D01*
X185835968Y-371474316D01*
X185907822Y-371534464D01*
X185966405Y-371606846D01*
X186008303Y-371688330D01*
X186034115Y-371780692D01*
X186043102Y-371886357D01*
X186035365Y-371987228D01*
X186012843Y-372078826D01*
X185975942Y-372162753D01*
X185924217Y-372240265D01*
X185862077Y-372306334D01*
X185792789Y-372356899D01*
X185715399Y-372393239D01*
X185628379Y-372415655D01*
X185529734Y-372423447D01*
X185428275Y-372415633D01*
X185340103Y-372393311D01*
X185262973Y-372357416D01*
X185195152Y-372307859D01*
X185137823Y-372246047D01*
X185094295Y-372175396D01*
X185063941Y-372094507D01*
X185047141Y-372001395D01*
G37*
G36*
X186908363Y-372400000D02*
G01*
X186723899Y-372400000D01*
X186723899Y-371221589D01*
X186650497Y-371282660D01*
X186549235Y-371348992D01*
X186442667Y-371406654D01*
X186355061Y-371444521D01*
X186355061Y-371268667D01*
X186455385Y-371215296D01*
X186545269Y-371155932D01*
X186625530Y-371090614D01*
X186699164Y-371017232D01*
X186752717Y-370949865D01*
X186789478Y-370887648D01*
X186908363Y-370887648D01*
X186908363Y-372400000D01*
G37*
G36*
X179337162Y-373418970D02*
G01*
X179436482Y-373433287D01*
X179507714Y-373453810D01*
X179572283Y-373487247D01*
X179627606Y-373534169D01*
X179674684Y-373596142D01*
X179709372Y-373666312D01*
X179730181Y-373740981D01*
X179737241Y-373821456D01*
X179730515Y-373899327D01*
X179710994Y-373969033D01*
X179678957Y-374032122D01*
X179633743Y-374089726D01*
X179579227Y-374136363D01*
X179509827Y-374175499D01*
X179422644Y-374206613D01*
X179314090Y-374228395D01*
X179387078Y-374268796D01*
X179433891Y-374304050D01*
X179516647Y-374392531D01*
X179598939Y-374506283D01*
X179860156Y-374920000D01*
X179610204Y-374920000D01*
X179411360Y-374603461D01*
X179267928Y-374393900D01*
X179210897Y-374328478D01*
X179166995Y-374292143D01*
X179121386Y-374267221D01*
X179076320Y-374251659D01*
X178965678Y-374244424D01*
X178735143Y-374244424D01*
X178735143Y-374920000D01*
X178536299Y-374920000D01*
X178536299Y-374075896D01*
X178735143Y-374075896D01*
X179162416Y-374075896D01*
X179290993Y-374067934D01*
X179375548Y-374047961D01*
X179423618Y-374024966D01*
X179462098Y-373995173D01*
X179492327Y-373958293D01*
X179522317Y-373893862D01*
X179532260Y-373824387D01*
X179523466Y-373757284D01*
X179497941Y-373700068D01*
X179454866Y-373650273D01*
X179399049Y-373614851D01*
X179320156Y-373591058D01*
X179210592Y-373582037D01*
X178735143Y-373582037D01*
X178735143Y-374075896D01*
X178536299Y-374075896D01*
X178536299Y-373413510D01*
X179202349Y-373413510D01*
X179337162Y-373418970D01*
G37*
G36*
X180052589Y-374920000D02*
G01*
X180052589Y-373413510D01*
X181138768Y-373413510D01*
X181138768Y-373587899D01*
X180251433Y-373587899D01*
X180251433Y-374052449D01*
X181082439Y-374052449D01*
X181082439Y-374226838D01*
X180251433Y-374226838D01*
X180251433Y-374745610D01*
X181173664Y-374745610D01*
X181173664Y-374920000D01*
X180052589Y-374920000D01*
G37*
G36*
X181877358Y-374920000D02*
G01*
X181295388Y-373413510D01*
X181510536Y-373413510D01*
X181900988Y-374508298D01*
X181979848Y-374755044D01*
X182060815Y-374508298D01*
X182466563Y-373413510D01*
X182669438Y-373413510D01*
X182081331Y-374920000D01*
X181877358Y-374920000D01*
G37*
G36*
X182636465Y-374468639D02*
G01*
X182636465Y-374281060D01*
X183203139Y-374281060D01*
X183203139Y-374468639D01*
X182636465Y-374468639D01*
G37*
G36*
X184050722Y-374920000D02*
G01*
X183866258Y-374920000D01*
X183866258Y-373741589D01*
X183792856Y-373802660D01*
X183691594Y-373868992D01*
X183585027Y-373926654D01*
X183497421Y-373964521D01*
X183497421Y-373788667D01*
X183597745Y-373735296D01*
X183687628Y-373675932D01*
X183767889Y-373610614D01*
X183841523Y-373537232D01*
X183895077Y-373469865D01*
X183931837Y-373407648D01*
X184050722Y-373407648D01*
X184050722Y-374920000D01*
G37*
D12*
%TO.C,J6*%
X288883100Y-319750000D02*
G75*
G02*
X287656900Y-319750000I-613100J0D01*
G01*
X287656900Y-319750000D02*
G75*
G02*
X288883100Y-319750000I613100J0D01*
G01*
D13*
X301858100Y-319750000D02*
G75*
G02*
X300281900Y-319750000I-788100J0D01*
G01*
X300281900Y-319750000D02*
G75*
G02*
X301858100Y-319750000I788100J0D01*
G01*
D14*
X294996200Y-320976200D02*
X292543800Y-320976200D01*
X292543800Y-318523800D01*
X294996200Y-318523800D01*
X294996200Y-320976200D01*
G36*
X294996200Y-320976200D02*
G01*
X292543800Y-320976200D01*
X292543800Y-318523800D01*
X294996200Y-318523800D01*
X294996200Y-320976200D01*
G37*
%TD*%
D15*
%TO.C,J4*%
X110160000Y-288710000D03*
D16*
X112700000Y-291250000D03*
X112700000Y-286170000D03*
X107620000Y-291250000D03*
X107620000Y-286170000D03*
%TD*%
D17*
%TO.C,MT2*%
X111960000Y-329920000D03*
%TD*%
D18*
%TO.C,U4*%
X269650000Y-320100002D03*
X270299998Y-320650001D03*
X268999998Y-320650001D03*
X269650000Y-321200000D03*
%TD*%
D17*
%TO.C,MT4*%
X246580000Y-263880000D03*
%TD*%
D19*
%TO.C,J5*%
X195270000Y-266480000D03*
X235910000Y-266480000D03*
D20*
X204160000Y-267500000D03*
D21*
X204160000Y-264960000D03*
X206700000Y-267500000D03*
X206700000Y-264960000D03*
X209240000Y-267500000D03*
X209240000Y-264960000D03*
X211780000Y-267500000D03*
X211780000Y-264960000D03*
X214320000Y-267500000D03*
X214320000Y-264960000D03*
X216860000Y-267500000D03*
X216860000Y-264960000D03*
X219400000Y-267500000D03*
X219400000Y-264960000D03*
X221940000Y-267500000D03*
X221940000Y-264960000D03*
X224480000Y-267500000D03*
X224480000Y-264960000D03*
X227020000Y-267500000D03*
X227020000Y-264960000D03*
%TD*%
D17*
%TO.C,MT5*%
X299920000Y-329920000D03*
%TD*%
%TO.C,MT8*%
X68780000Y-263880000D03*
%TD*%
%TO.C,MT6*%
X164738974Y-263880000D03*
%TD*%
D22*
%TO.C,J2*%
X217624000Y-321284000D03*
D23*
X215124000Y-321284000D03*
X212624000Y-321284000D03*
X210124000Y-321284000D03*
X207624000Y-321284000D03*
X205124000Y-321284000D03*
X202624000Y-321284000D03*
X200124000Y-321284000D03*
X197624000Y-321284000D03*
X195124000Y-321284000D03*
X217624000Y-319784000D03*
X215124000Y-319784000D03*
X212624000Y-319784000D03*
X210124000Y-319784000D03*
X207624000Y-319784000D03*
X205124000Y-319784000D03*
X202624000Y-319784000D03*
X200124000Y-319784000D03*
X197624000Y-319784000D03*
X195124000Y-319784000D03*
X217624000Y-318284000D03*
X215124000Y-318284000D03*
X212624000Y-318284000D03*
X210124000Y-318284000D03*
X207624000Y-318284000D03*
X205124000Y-318284000D03*
X202624000Y-318284000D03*
X200124000Y-318284000D03*
X197624000Y-318284000D03*
X195124000Y-318284000D03*
X217624000Y-316784000D03*
X215124000Y-316784000D03*
X212624000Y-316784000D03*
X210124000Y-316784000D03*
X207624000Y-316784000D03*
X205124000Y-316784000D03*
X202624000Y-316784000D03*
X200124000Y-316784000D03*
X197624000Y-316784000D03*
X195124000Y-316784000D03*
X217624000Y-315284000D03*
X215124000Y-315284000D03*
X212624000Y-315284000D03*
X210124000Y-315284000D03*
X207624000Y-315284000D03*
X205124000Y-315284000D03*
X202624000Y-315284000D03*
X200124000Y-315284000D03*
X197624000Y-315284000D03*
X195124000Y-315284000D03*
X217624000Y-313784000D03*
X215124000Y-313784000D03*
X212624000Y-313784000D03*
X210124000Y-313784000D03*
X207624000Y-313784000D03*
X205124000Y-313784000D03*
X202624000Y-313784000D03*
X200124000Y-313784000D03*
X197624000Y-313784000D03*
X195124000Y-313784000D03*
%TD*%
D24*
%TO.C,J6*%
X301070000Y-319750000D03*
%TD*%
D22*
%TO.C,J1*%
X166824000Y-321284000D03*
D23*
X164324000Y-321284000D03*
X161824000Y-321284000D03*
X159324000Y-321284000D03*
X156824000Y-321284000D03*
X154324000Y-321284000D03*
X151824000Y-321284000D03*
X149324000Y-321284000D03*
X146824000Y-321284000D03*
X144324000Y-321284000D03*
X166824000Y-319784000D03*
X164324000Y-319784000D03*
X161824000Y-319784000D03*
X159324000Y-319784000D03*
X156824000Y-319784000D03*
X154324000Y-319784000D03*
X151824000Y-319784000D03*
X149324000Y-319784000D03*
X146824000Y-319784000D03*
X144324000Y-319784000D03*
X166824000Y-318284000D03*
X164324000Y-318284000D03*
X161824000Y-318284000D03*
X159324000Y-318284000D03*
X156824000Y-318284000D03*
X154324000Y-318284000D03*
X151824000Y-318284000D03*
X149324000Y-318284000D03*
X146824000Y-318284000D03*
X144324000Y-318284000D03*
X166824000Y-316784000D03*
X164324000Y-316784000D03*
X161824000Y-316784000D03*
X159324000Y-316784000D03*
X156824000Y-316784000D03*
X154324000Y-316784000D03*
X151824000Y-316784000D03*
X149324000Y-316784000D03*
X146824000Y-316784000D03*
X144324000Y-316784000D03*
X166824000Y-315284000D03*
X164324000Y-315284000D03*
X161824000Y-315284000D03*
X159324000Y-315284000D03*
X156824000Y-315284000D03*
X154324000Y-315284000D03*
X151824000Y-315284000D03*
X149324000Y-315284000D03*
X146824000Y-315284000D03*
X144324000Y-315284000D03*
X166824000Y-313784000D03*
X164324000Y-313784000D03*
X161824000Y-313784000D03*
X159324000Y-313784000D03*
X156824000Y-313784000D03*
X154324000Y-313784000D03*
X151824000Y-313784000D03*
X149324000Y-313784000D03*
X146824000Y-313784000D03*
X144324000Y-313784000D03*
%TD*%
D19*
%TO.C,J7*%
X102350000Y-266480000D03*
X142990000Y-266480000D03*
D20*
X111240000Y-267500000D03*
D21*
X111240000Y-264960000D03*
X113780000Y-267500000D03*
X113780000Y-264960000D03*
X116320000Y-267500000D03*
X116320000Y-264960000D03*
X118860000Y-267500000D03*
X118860000Y-264960000D03*
X121400000Y-267500000D03*
X121400000Y-264960000D03*
X123940000Y-267500000D03*
X123940000Y-264960000D03*
X126480000Y-267500000D03*
X126480000Y-264960000D03*
X129020000Y-267500000D03*
X129020000Y-264960000D03*
X131560000Y-267500000D03*
X131560000Y-264960000D03*
X134100000Y-267500000D03*
X134100000Y-264960000D03*
%TD*%
D17*
%TO.C,MT3*%
X250644000Y-329920000D03*
%TD*%
D22*
%TO.C,J3*%
X243024000Y-321284000D03*
D23*
X240524000Y-321284000D03*
X238024000Y-321284000D03*
X235524000Y-321284000D03*
X233024000Y-321284000D03*
X230524000Y-321284000D03*
X228024000Y-321284000D03*
X225524000Y-321284000D03*
X223024000Y-321284000D03*
X220524000Y-321284000D03*
X243024000Y-319784000D03*
X240524000Y-319784000D03*
X238024000Y-319784000D03*
X235524000Y-319784000D03*
X233024000Y-319784000D03*
X230524000Y-319784000D03*
X228024000Y-319784000D03*
X225524000Y-319784000D03*
X223024000Y-319784000D03*
X220524000Y-319784000D03*
X243024000Y-318284000D03*
X240524000Y-318284000D03*
X238024000Y-318284000D03*
X235524000Y-318284000D03*
X233024000Y-318284000D03*
X230524000Y-318284000D03*
X228024000Y-318284000D03*
X225524000Y-318284000D03*
X223024000Y-318284000D03*
X220524000Y-318284000D03*
X243024000Y-316784000D03*
X240524000Y-316784000D03*
X238024000Y-316784000D03*
X235524000Y-316784000D03*
X233024000Y-316784000D03*
X230524000Y-316784000D03*
X228024000Y-316784000D03*
X225524000Y-316784000D03*
X223024000Y-316784000D03*
X220524000Y-316784000D03*
X243024000Y-315284000D03*
X240524000Y-315284000D03*
X238024000Y-315284000D03*
X235524000Y-315284000D03*
X233024000Y-315284000D03*
X230524000Y-315284000D03*
X228024000Y-315284000D03*
X225524000Y-315284000D03*
X223024000Y-315284000D03*
X220524000Y-315284000D03*
X243024000Y-313784000D03*
X240524000Y-313784000D03*
X238024000Y-313784000D03*
X235524000Y-313784000D03*
X233024000Y-313784000D03*
X230524000Y-313784000D03*
X228024000Y-313784000D03*
X225524000Y-313784000D03*
X223024000Y-313784000D03*
X220524000Y-313784000D03*
%TD*%
D17*
%TO.C,MT7*%
X299920000Y-263880000D03*
%TD*%
%TO.C,MT1*%
X68780000Y-329920000D03*
%TD*%
D25*
%TO.C,C34*%
X255450000Y-284900000D03*
X255450000Y-286800000D03*
%TD*%
%TO.C,C36*%
X258200000Y-284900000D03*
X258200000Y-286800000D03*
%TD*%
D26*
%TO.C,C35*%
X255450000Y-276900000D03*
X255450000Y-275000000D03*
%TD*%
D27*
%TO.C,C11*%
X152850000Y-299300000D03*
X150950000Y-299300000D03*
%TD*%
D26*
%TO.C,C37*%
X258200000Y-276900000D03*
X258200000Y-275000000D03*
%TD*%
D25*
%TO.C,C1*%
X129400000Y-313500000D03*
X129400000Y-315400000D03*
%TD*%
D27*
%TO.C,C46*%
X271900000Y-308800000D03*
X270000000Y-308800000D03*
%TD*%
D25*
%TO.C,C39*%
X254450000Y-307300000D03*
X254450000Y-309200000D03*
%TD*%
%LPD*%
D28*
X63700000Y-258800000D02*
X305000000Y-258800000D01*
X246199000Y-335000000D02*
X246199000Y-322300000D01*
X305000000Y-258800000D02*
X305000000Y-335000000D01*
X116405000Y-322300000D02*
X116405000Y-333730000D01*
X246199000Y-322300000D02*
X116405000Y-322300000D01*
X63700000Y-335000000D02*
X63700000Y-258800000D01*
X305000000Y-335000000D02*
X246199000Y-335000000D01*
X116405000Y-333730000D02*
X116405000Y-335000000D01*
X116405000Y-335000000D02*
X63700000Y-335000000D01*
M02*
