%TF.GenerationSoftware,KiCad,Pcbnew,9.0.6*%
%TF.CreationDate,2026-06-12T00:18:42-04:00*%
%TF.ProjectId,acmi2-afe,61636d69-322d-4616-9665-2e6b69636164,rev?*%
%TF.SameCoordinates,Original*%
%TF.FileFunction,Soldermask,Bot*%
%TF.FilePolarity,Negative*%
%FSLAX46Y46*%
G04 Gerber Fmt 4.6, Leading zero omitted, Abs format (unit mm)*
G04 Created by KiCad (PCBNEW 9.0.6) date 2026-06-12 00:18:42*
%MOMM*%
%LPD*%
G01*
G04 APERTURE LIST*
G04 Aperture macros list*
%AMRoundRect*
0 Rectangle with rounded corners*
0 $1 Rounding radius*
0 $2 $3 $4 $5 $6 $7 $8 $9 X,Y pos of 4 corners*
0 Add a 4 corners polygon primitive as box body*
4,1,4,$2,$3,$4,$5,$6,$7,$8,$9,$2,$3,0*
0 Add four circle primitives for the rounded corners*
1,1,$1+$1,$2,$3*
1,1,$1+$1,$4,$5*
1,1,$1+$1,$6,$7*
1,1,$1+$1,$8,$9*
0 Add four rect primitives between the rounded corners*
20,1,$1+$1,$2,$3,$4,$5,0*
20,1,$1+$1,$4,$5,$6,$7,0*
20,1,$1+$1,$6,$7,$8,$9,0*
20,1,$1+$1,$8,$9,$2,$3,0*%
G04 Aperture macros list end*
%ADD10C,0.150000*%
%ADD11C,1.226200*%
%ADD12C,1.576200*%
%ADD13C,0.010000*%
%ADD14C,2.050000*%
%ADD15C,2.250000*%
%ADD16C,7.500000*%
%ADD17C,0.500000*%
%ADD18C,2.690000*%
%ADD19RoundRect,0.102000X-0.660000X-0.660000X0.660000X-0.660000X0.660000X0.660000X-0.660000X0.660000X0*%
%ADD20C,1.524000*%
%ADD21RoundRect,0.102000X-0.500000X-0.500000X0.500000X-0.500000X0.500000X0.500000X-0.500000X0.500000X0*%
%ADD22C,1.204000*%
%ADD23C,3.000000*%
%ADD24RoundRect,0.250000X-0.475000X0.250000X-0.475000X-0.250000X0.475000X-0.250000X0.475000X0.250000X0*%
%ADD25RoundRect,0.250000X0.475000X-0.250000X0.475000X0.250000X-0.475000X0.250000X-0.475000X-0.250000X0*%
%ADD26RoundRect,0.250000X0.250000X0.475000X-0.250000X0.475000X-0.250000X-0.475000X0.250000X-0.475000X0*%
%TA.AperFunction,Profile*%
%ADD27C,0.050000*%
%TD*%
G04 APERTURE END LIST*
D10*
G36*
X169448633Y-366872369D02*
G01*
X169636211Y-366855882D01*
X169649812Y-366931180D01*
X169670724Y-366993349D01*
X169698127Y-367044468D01*
X169734923Y-367088831D01*
X169784508Y-367128558D01*
X169849252Y-367163628D01*
X169918917Y-367188452D01*
X169995420Y-367203768D01*
X170079878Y-367209057D01*
X170189449Y-367200157D01*
X170280646Y-367175169D01*
X170335953Y-367148481D01*
X170378459Y-367117453D01*
X170410247Y-367082204D01*
X170442302Y-367020015D01*
X170452837Y-366953152D01*
X170442429Y-366886321D01*
X170411804Y-366829412D01*
X170361147Y-366783122D01*
X170276616Y-366740478D01*
X170197733Y-366715369D01*
X170009170Y-366667021D01*
X169818631Y-366613783D01*
X169719193Y-366572957D01*
X169651333Y-366530628D01*
X169598573Y-366483922D01*
X169558817Y-366432732D01*
X169529625Y-366374994D01*
X169512049Y-366312891D01*
X169506060Y-366245245D01*
X169513184Y-366171038D01*
X169534465Y-366100373D01*
X169570540Y-366032021D01*
X169619198Y-365972189D01*
X169681365Y-365922109D01*
X169759126Y-365881445D01*
X169843221Y-365853327D01*
X169934732Y-365836020D01*
X170034816Y-365830062D01*
X170145119Y-365836446D01*
X170242731Y-365854717D01*
X170329372Y-365883918D01*
X170409327Y-365926353D01*
X170474083Y-365978962D01*
X170525560Y-366042187D01*
X170564082Y-366114376D01*
X170588689Y-366192757D01*
X170599383Y-366278767D01*
X170408782Y-366293147D01*
X170389183Y-366202184D01*
X170354272Y-366131702D01*
X170304734Y-366077450D01*
X170241509Y-366039127D01*
X170156417Y-366013860D01*
X170042967Y-366004452D01*
X169923915Y-366013334D01*
X169839136Y-366036559D01*
X169780101Y-366070580D01*
X169733232Y-366119170D01*
X169706569Y-366171644D01*
X169697669Y-366230040D01*
X169704321Y-366281412D01*
X169723612Y-366325209D01*
X169756104Y-366363306D01*
X169800091Y-366391505D01*
X169891444Y-366426965D01*
X170055790Y-366470467D01*
X170278343Y-366527206D01*
X170388265Y-366566271D01*
X170471405Y-366612428D01*
X170534916Y-366663553D01*
X170581889Y-366719595D01*
X170616371Y-366783919D01*
X170637268Y-366854638D01*
X170644446Y-366933368D01*
X170636899Y-367011385D01*
X170614271Y-367086339D01*
X170575752Y-367159507D01*
X170524289Y-367224025D01*
X170459195Y-367278913D01*
X170378557Y-367324554D01*
X170291052Y-367356757D01*
X170195027Y-367376599D01*
X170089037Y-367383447D01*
X169953867Y-367376069D01*
X169841114Y-367355531D01*
X169747311Y-367323729D01*
X169661221Y-367276594D01*
X169589715Y-367216930D01*
X169531156Y-367143936D01*
X169487369Y-367060947D01*
X169459863Y-366970987D01*
X169448633Y-366872369D01*
G37*
G36*
X171677763Y-365836486D02*
G01*
X171773969Y-365855327D01*
X171864294Y-365886267D01*
X171949618Y-365929439D01*
X172028294Y-365984072D01*
X172096503Y-366047995D01*
X172155028Y-366121785D01*
X172204242Y-366206410D01*
X172252180Y-366327615D01*
X172281697Y-366461172D01*
X172291894Y-366609319D01*
X172281193Y-366759294D01*
X172250171Y-366894719D01*
X172199662Y-367017907D01*
X172147977Y-367103662D01*
X172087501Y-367177019D01*
X172017910Y-367239147D01*
X171938444Y-367290757D01*
X171822787Y-367342243D01*
X171701749Y-367373051D01*
X171573637Y-367383447D01*
X171468448Y-367376797D01*
X171370913Y-367357341D01*
X171279899Y-367325460D01*
X171194450Y-367281048D01*
X171115733Y-367224941D01*
X171047785Y-367160060D01*
X170989803Y-367085881D01*
X170941384Y-367001512D01*
X170893557Y-366880992D01*
X170864983Y-366756521D01*
X170855577Y-366629378D01*
X171060269Y-366629378D01*
X171070435Y-366764995D01*
X171099081Y-366879375D01*
X171144456Y-366976191D01*
X171206265Y-367058299D01*
X171284371Y-367127123D01*
X171370232Y-367175478D01*
X171465512Y-367204814D01*
X171572630Y-367214919D01*
X171681861Y-367204643D01*
X171778252Y-367174912D01*
X171864380Y-367126073D01*
X171942016Y-367056741D01*
X172002691Y-366974121D01*
X172047820Y-366874231D01*
X172076666Y-366753579D01*
X172087005Y-366607762D01*
X172079620Y-366486445D01*
X172058560Y-366380184D01*
X172024998Y-366286827D01*
X171976546Y-366201151D01*
X171916334Y-366130843D01*
X171843648Y-366074153D01*
X171761306Y-366032360D01*
X171672545Y-366007177D01*
X171575652Y-365998590D01*
X171472874Y-366007849D01*
X171379266Y-366034953D01*
X171292906Y-366079885D01*
X171212402Y-366143945D01*
X171161982Y-366203425D01*
X171120574Y-366278339D01*
X171088711Y-366371695D01*
X171067850Y-366487251D01*
X171060269Y-366629378D01*
X170855577Y-366629378D01*
X170855380Y-366626721D01*
X170864458Y-366475098D01*
X170890247Y-366343387D01*
X170931156Y-366228742D01*
X170986423Y-366128753D01*
X171056148Y-366041546D01*
X171140779Y-365965702D01*
X171233551Y-365907210D01*
X171335622Y-365865034D01*
X171448638Y-365839051D01*
X171574645Y-365830062D01*
X171677763Y-365836486D01*
G37*
G36*
X172540106Y-367360000D02*
G01*
X172540106Y-365853510D01*
X172738950Y-365853510D01*
X172738950Y-367185610D01*
X173478731Y-367185610D01*
X173478731Y-367360000D01*
X172540106Y-367360000D01*
G37*
G36*
X174397109Y-365859797D02*
G01*
X174499697Y-365875125D01*
X174582999Y-365900905D01*
X174656008Y-365936890D01*
X174720065Y-365983019D01*
X174791974Y-366055593D01*
X174851083Y-366140833D01*
X174897752Y-366240390D01*
X174929735Y-366346432D01*
X174949753Y-366465200D01*
X174956736Y-366598511D01*
X174951948Y-366712574D01*
X174938304Y-366813502D01*
X174916711Y-366902777D01*
X174869408Y-367027524D01*
X174814221Y-367122137D01*
X174747262Y-367201248D01*
X174677475Y-367258791D01*
X174597650Y-367301684D01*
X174498140Y-367334354D01*
X174389003Y-367353193D01*
X174256889Y-367360000D01*
X173714853Y-367360000D01*
X173714853Y-367185610D01*
X173913606Y-367185610D01*
X174234358Y-367185610D01*
X174374734Y-367177674D01*
X174467457Y-367157766D01*
X174545298Y-367123042D01*
X174602187Y-367079181D01*
X174644345Y-367028330D01*
X174681162Y-366965093D01*
X174712280Y-366887390D01*
X174733289Y-366806155D01*
X174746883Y-366709626D01*
X174751756Y-366595397D01*
X174745932Y-366473241D01*
X174729946Y-366374007D01*
X174705656Y-366294015D01*
X174674361Y-366230040D01*
X174616586Y-366151454D01*
X174554158Y-366095605D01*
X174486416Y-366058948D01*
X174431505Y-366043479D01*
X174348713Y-366032285D01*
X174229228Y-366027899D01*
X173913606Y-366027899D01*
X173913606Y-367185610D01*
X173714853Y-367185610D01*
X173714853Y-365853510D01*
X174232251Y-365853510D01*
X174397109Y-365859797D01*
G37*
G36*
X175234166Y-367360000D02*
G01*
X175234166Y-365853510D01*
X176320344Y-365853510D01*
X176320344Y-366027899D01*
X175433010Y-366027899D01*
X175433010Y-366492449D01*
X176264016Y-366492449D01*
X176264016Y-366666838D01*
X175433010Y-366666838D01*
X175433010Y-367185610D01*
X176355240Y-367185610D01*
X176355240Y-367360000D01*
X175234166Y-367360000D01*
G37*
G36*
X177433533Y-365858970D02*
G01*
X177532853Y-365873287D01*
X177604085Y-365893810D01*
X177668654Y-365927247D01*
X177723977Y-365974169D01*
X177771055Y-366036142D01*
X177805743Y-366106312D01*
X177826551Y-366180981D01*
X177833612Y-366261456D01*
X177826886Y-366339327D01*
X177807364Y-366409033D01*
X177775328Y-366472122D01*
X177730114Y-366529726D01*
X177675598Y-366576363D01*
X177606198Y-366615499D01*
X177519015Y-366646613D01*
X177410461Y-366668395D01*
X177483449Y-366708796D01*
X177530262Y-366744050D01*
X177613017Y-366832531D01*
X177695309Y-366946283D01*
X177956527Y-367360000D01*
X177706575Y-367360000D01*
X177507731Y-367043461D01*
X177364299Y-366833900D01*
X177307268Y-366768478D01*
X177263366Y-366732143D01*
X177217756Y-366707221D01*
X177172691Y-366691659D01*
X177062049Y-366684424D01*
X176831514Y-366684424D01*
X176831514Y-367360000D01*
X176632670Y-367360000D01*
X176632670Y-366515896D01*
X176831514Y-366515896D01*
X177258786Y-366515896D01*
X177387364Y-366507934D01*
X177471919Y-366487961D01*
X177519989Y-366464966D01*
X177558468Y-366435173D01*
X177588697Y-366398293D01*
X177618688Y-366333862D01*
X177628631Y-366264387D01*
X177619837Y-366197284D01*
X177594312Y-366140068D01*
X177551237Y-366090273D01*
X177495420Y-366054851D01*
X177416527Y-366031058D01*
X177306963Y-366022037D01*
X176831514Y-366022037D01*
X176831514Y-366515896D01*
X176632670Y-366515896D01*
X176632670Y-365853510D01*
X177298720Y-365853510D01*
X177433533Y-365858970D01*
G37*
G36*
X178722045Y-367360000D02*
G01*
X178722045Y-365853510D01*
X179021182Y-365853510D01*
X179376738Y-366920637D01*
X179448454Y-367143753D01*
X179528413Y-366902136D01*
X179888091Y-365853510D01*
X180155537Y-365853510D01*
X180155537Y-367360000D01*
X179963928Y-367360000D01*
X179963928Y-366098424D01*
X179527405Y-367360000D01*
X179348070Y-367360000D01*
X178913654Y-366076900D01*
X178913654Y-367360000D01*
X178722045Y-367360000D01*
G37*
G36*
X181717348Y-367360000D02*
G01*
X181490843Y-367360000D01*
X181315629Y-366902777D01*
X180687498Y-366902777D01*
X180522542Y-367360000D01*
X180311425Y-367360000D01*
X180549381Y-366738646D01*
X180744925Y-366738646D01*
X181254172Y-366738646D01*
X181097368Y-366322731D01*
X181031849Y-366141235D01*
X180990847Y-366011321D01*
X180956417Y-366154743D01*
X180909881Y-366298184D01*
X180744925Y-366738646D01*
X180549381Y-366738646D01*
X180888357Y-365853510D01*
X181102497Y-365853510D01*
X181717348Y-367360000D01*
G37*
G36*
X181808298Y-366872369D02*
G01*
X181995876Y-366855882D01*
X182009477Y-366931180D01*
X182030389Y-366993349D01*
X182057792Y-367044468D01*
X182094588Y-367088831D01*
X182144173Y-367128558D01*
X182208917Y-367163628D01*
X182278582Y-367188452D01*
X182355085Y-367203768D01*
X182439543Y-367209057D01*
X182549114Y-367200157D01*
X182640311Y-367175169D01*
X182695618Y-367148481D01*
X182738124Y-367117453D01*
X182769912Y-367082204D01*
X182801967Y-367020015D01*
X182812502Y-366953152D01*
X182802094Y-366886321D01*
X182771469Y-366829412D01*
X182720812Y-366783122D01*
X182636281Y-366740478D01*
X182557398Y-366715369D01*
X182368835Y-366667021D01*
X182178296Y-366613783D01*
X182078858Y-366572957D01*
X182010998Y-366530628D01*
X181958238Y-366483922D01*
X181918482Y-366432732D01*
X181889290Y-366374994D01*
X181871714Y-366312891D01*
X181865725Y-366245245D01*
X181872849Y-366171038D01*
X181894130Y-366100373D01*
X181930205Y-366032021D01*
X181978863Y-365972189D01*
X182041030Y-365922109D01*
X182118791Y-365881445D01*
X182202886Y-365853327D01*
X182294397Y-365836020D01*
X182394481Y-365830062D01*
X182504784Y-365836446D01*
X182602396Y-365854717D01*
X182689037Y-365883918D01*
X182768993Y-365926353D01*
X182833748Y-365978962D01*
X182885226Y-366042187D01*
X182923747Y-366114376D01*
X182948354Y-366192757D01*
X182959048Y-366278767D01*
X182768447Y-366293147D01*
X182748848Y-366202184D01*
X182713937Y-366131702D01*
X182664399Y-366077450D01*
X182601174Y-366039127D01*
X182516082Y-366013860D01*
X182402632Y-366004452D01*
X182283580Y-366013334D01*
X182198801Y-366036559D01*
X182139766Y-366070580D01*
X182092898Y-366119170D01*
X182066234Y-366171644D01*
X182057334Y-366230040D01*
X182063986Y-366281412D01*
X182083277Y-366325209D01*
X182115769Y-366363306D01*
X182159756Y-366391505D01*
X182251109Y-366426965D01*
X182415455Y-366470467D01*
X182638008Y-366527206D01*
X182747931Y-366566271D01*
X182831070Y-366612428D01*
X182894581Y-366663553D01*
X182941554Y-366719595D01*
X182976036Y-366783919D01*
X182996933Y-366854638D01*
X183004111Y-366933368D01*
X182996564Y-367011385D01*
X182973936Y-367086339D01*
X182935417Y-367159507D01*
X182883954Y-367224025D01*
X182818860Y-367278913D01*
X182738222Y-367324554D01*
X182650717Y-367356757D01*
X182554692Y-367376599D01*
X182448702Y-367383447D01*
X182313532Y-367376069D01*
X182200779Y-367355531D01*
X182106976Y-367323729D01*
X182020886Y-367276594D01*
X181949380Y-367216930D01*
X181890821Y-367143936D01*
X181847034Y-367060947D01*
X181819528Y-366970987D01*
X181808298Y-366872369D01*
G37*
G36*
X183267252Y-367360000D02*
G01*
X183267252Y-365853510D01*
X183466096Y-365853510D01*
X183466096Y-366601534D01*
X184212014Y-365853510D01*
X184481475Y-365853510D01*
X183851328Y-366464147D01*
X184509135Y-367360000D01*
X184246818Y-367360000D01*
X183712018Y-366597412D01*
X183466096Y-366838297D01*
X183466096Y-367360000D01*
X183267252Y-367360000D01*
G37*
G36*
X185928223Y-365859379D02*
G01*
X186018840Y-365875302D01*
X186089722Y-365899214D01*
X186154434Y-365935351D01*
X186208361Y-365981907D01*
X186252663Y-366039714D01*
X186285775Y-366104875D01*
X186305136Y-366170655D01*
X186311556Y-366238101D01*
X186305781Y-366300952D01*
X186288512Y-366361176D01*
X186259257Y-366419726D01*
X186219680Y-366471582D01*
X186167740Y-366517311D01*
X186101537Y-366557112D01*
X186187714Y-366591353D01*
X186256672Y-366636982D01*
X186311098Y-366694041D01*
X186351479Y-366761697D01*
X186375938Y-366837174D01*
X186384371Y-366922561D01*
X186373101Y-367025345D01*
X186339766Y-367119665D01*
X186288448Y-367202172D01*
X186229582Y-367260165D01*
X186157940Y-367302472D01*
X186065084Y-367334812D01*
X185960557Y-367353121D01*
X185822826Y-367360000D01*
X185250015Y-367360000D01*
X185250015Y-367185610D01*
X185448860Y-367185610D01*
X185822826Y-367185610D01*
X185958106Y-367178283D01*
X186022879Y-367160999D01*
X186072778Y-367136700D01*
X186114130Y-367101700D01*
X186148615Y-367051887D01*
X186170672Y-366993045D01*
X186178382Y-366923293D01*
X186173385Y-366867728D01*
X186158951Y-366818720D01*
X186135335Y-366775007D01*
X186103116Y-366737342D01*
X186063678Y-366708004D01*
X186015900Y-366686530D01*
X185931079Y-366668374D01*
X185796173Y-366660976D01*
X185448860Y-366660976D01*
X185448860Y-367185610D01*
X185250015Y-367185610D01*
X185250015Y-366486587D01*
X185448860Y-366486587D01*
X185773641Y-366486587D01*
X185896470Y-366481262D01*
X185963235Y-366469002D01*
X186031114Y-366437769D01*
X186077449Y-366393439D01*
X186105809Y-366335549D01*
X186115917Y-366260907D01*
X186106692Y-366188892D01*
X186080014Y-366127825D01*
X186052683Y-366093533D01*
X186018867Y-366067508D01*
X185977523Y-366049148D01*
X185899034Y-366034407D01*
X185749003Y-366027899D01*
X185448860Y-366027899D01*
X185448860Y-366486587D01*
X185250015Y-366486587D01*
X185250015Y-365853510D01*
X185813575Y-365853510D01*
X185928223Y-365859379D01*
G37*
G36*
X187419703Y-365836486D02*
G01*
X187515909Y-365855327D01*
X187606234Y-365886267D01*
X187691558Y-365929439D01*
X187770234Y-365984072D01*
X187838443Y-366047995D01*
X187896968Y-366121785D01*
X187946182Y-366206410D01*
X187994120Y-366327615D01*
X188023637Y-366461172D01*
X188033834Y-366609319D01*
X188023133Y-366759294D01*
X187992111Y-366894719D01*
X187941602Y-367017907D01*
X187889917Y-367103662D01*
X187829441Y-367177019D01*
X187759850Y-367239147D01*
X187680384Y-367290757D01*
X187564727Y-367342243D01*
X187443689Y-367373051D01*
X187315577Y-367383447D01*
X187210388Y-367376797D01*
X187112853Y-367357341D01*
X187021839Y-367325460D01*
X186936390Y-367281048D01*
X186857673Y-367224941D01*
X186789725Y-367160060D01*
X186731743Y-367085881D01*
X186683324Y-367001512D01*
X186635497Y-366880992D01*
X186606923Y-366756521D01*
X186597517Y-366629378D01*
X186802209Y-366629378D01*
X186812375Y-366764995D01*
X186841021Y-366879375D01*
X186886396Y-366976191D01*
X186948205Y-367058299D01*
X187026311Y-367127123D01*
X187112172Y-367175478D01*
X187207452Y-367204814D01*
X187314570Y-367214919D01*
X187423801Y-367204643D01*
X187520192Y-367174912D01*
X187606320Y-367126073D01*
X187683956Y-367056741D01*
X187744631Y-366974121D01*
X187789760Y-366874231D01*
X187818606Y-366753579D01*
X187828945Y-366607762D01*
X187821560Y-366486445D01*
X187800500Y-366380184D01*
X187766938Y-366286827D01*
X187718486Y-366201151D01*
X187658274Y-366130843D01*
X187585588Y-366074153D01*
X187503246Y-366032360D01*
X187414485Y-366007177D01*
X187317592Y-365998590D01*
X187214814Y-366007849D01*
X187121206Y-366034953D01*
X187034846Y-366079885D01*
X186954342Y-366143945D01*
X186903922Y-366203425D01*
X186862514Y-366278339D01*
X186830651Y-366371695D01*
X186809790Y-366487251D01*
X186802209Y-366629378D01*
X186597517Y-366629378D01*
X186597320Y-366626721D01*
X186606398Y-366475098D01*
X186632187Y-366343387D01*
X186673096Y-366228742D01*
X186728363Y-366128753D01*
X186798088Y-366041546D01*
X186882719Y-365965702D01*
X186975491Y-365907210D01*
X187077562Y-365865034D01*
X187190578Y-365839051D01*
X187316585Y-365830062D01*
X187419703Y-365836486D01*
G37*
G36*
X188672499Y-367360000D02*
G01*
X188672499Y-366027899D01*
X188177541Y-366027899D01*
X188177541Y-365853510D01*
X189368224Y-365853510D01*
X189368224Y-366027899D01*
X188871251Y-366027899D01*
X188871251Y-367360000D01*
X188672499Y-367360000D01*
G37*
G36*
X189954774Y-367360000D02*
G01*
X189954774Y-366027899D01*
X189459816Y-366027899D01*
X189459816Y-365853510D01*
X190650499Y-365853510D01*
X190650499Y-366027899D01*
X190153526Y-366027899D01*
X190153526Y-367360000D01*
X189954774Y-367360000D01*
G37*
G36*
X191578670Y-365836486D02*
G01*
X191674876Y-365855327D01*
X191765202Y-365886267D01*
X191850526Y-365929439D01*
X191929201Y-365984072D01*
X191997410Y-366047995D01*
X192055936Y-366121785D01*
X192105149Y-366206410D01*
X192153087Y-366327615D01*
X192182605Y-366461172D01*
X192192801Y-366609319D01*
X192182100Y-366759294D01*
X192151078Y-366894719D01*
X192100569Y-367017907D01*
X192048885Y-367103662D01*
X191988408Y-367177019D01*
X191918817Y-367239147D01*
X191839351Y-367290757D01*
X191723694Y-367342243D01*
X191602657Y-367373051D01*
X191474544Y-367383447D01*
X191369355Y-367376797D01*
X191271820Y-367357341D01*
X191180807Y-367325460D01*
X191095357Y-367281048D01*
X191016640Y-367224941D01*
X190948692Y-367160060D01*
X190890710Y-367085881D01*
X190842291Y-367001512D01*
X190794465Y-366880992D01*
X190765890Y-366756521D01*
X190756484Y-366629378D01*
X190961176Y-366629378D01*
X190971342Y-366764995D01*
X190999988Y-366879375D01*
X191045364Y-366976191D01*
X191107172Y-367058299D01*
X191185279Y-367127123D01*
X191271139Y-367175478D01*
X191366419Y-367204814D01*
X191473537Y-367214919D01*
X191582768Y-367204643D01*
X191679159Y-367174912D01*
X191765288Y-367126073D01*
X191842924Y-367056741D01*
X191903599Y-366974121D01*
X191948727Y-366874231D01*
X191977573Y-366753579D01*
X191987912Y-366607762D01*
X191980527Y-366486445D01*
X191959467Y-366380184D01*
X191925905Y-366286827D01*
X191877453Y-366201151D01*
X191817241Y-366130843D01*
X191744555Y-366074153D01*
X191662213Y-366032360D01*
X191573452Y-366007177D01*
X191476559Y-365998590D01*
X191373782Y-366007849D01*
X191280173Y-366034953D01*
X191193813Y-366079885D01*
X191113309Y-366143945D01*
X191062889Y-366203425D01*
X191021481Y-366278339D01*
X190989618Y-366371695D01*
X190968757Y-366487251D01*
X190961176Y-366629378D01*
X190756484Y-366629378D01*
X190756287Y-366626721D01*
X190765365Y-366475098D01*
X190791154Y-366343387D01*
X190832063Y-366228742D01*
X190887330Y-366128753D01*
X190957055Y-366041546D01*
X191041686Y-365965702D01*
X191134458Y-365907210D01*
X191236529Y-365865034D01*
X191349545Y-365839051D01*
X191475552Y-365830062D01*
X191578670Y-365836486D01*
G37*
G36*
X192443120Y-367360000D02*
G01*
X192443120Y-365853510D01*
X192742256Y-365853510D01*
X193097813Y-366920637D01*
X193169529Y-367143753D01*
X193249488Y-366902136D01*
X193609166Y-365853510D01*
X193876612Y-365853510D01*
X193876612Y-367360000D01*
X193685003Y-367360000D01*
X193685003Y-366098424D01*
X193248480Y-367360000D01*
X193069145Y-367360000D01*
X192634728Y-366076900D01*
X192634728Y-367360000D01*
X192443120Y-367360000D01*
G37*
G36*
X176191201Y-371912369D02*
G01*
X176378779Y-371895882D01*
X176392380Y-371971180D01*
X176413292Y-372033349D01*
X176440695Y-372084468D01*
X176477491Y-372128831D01*
X176527076Y-372168558D01*
X176591820Y-372203628D01*
X176661485Y-372228452D01*
X176737988Y-372243768D01*
X176822446Y-372249057D01*
X176932017Y-372240157D01*
X177023214Y-372215169D01*
X177078521Y-372188481D01*
X177121027Y-372157453D01*
X177152815Y-372122204D01*
X177184870Y-372060015D01*
X177195405Y-371993152D01*
X177184997Y-371926321D01*
X177154372Y-371869412D01*
X177103715Y-371823122D01*
X177019184Y-371780478D01*
X176940301Y-371755369D01*
X176751738Y-371707021D01*
X176561199Y-371653783D01*
X176461761Y-371612957D01*
X176393901Y-371570628D01*
X176341141Y-371523922D01*
X176301385Y-371472732D01*
X176272193Y-371414994D01*
X176254617Y-371352891D01*
X176248628Y-371285245D01*
X176255752Y-371211038D01*
X176277033Y-371140373D01*
X176313108Y-371072021D01*
X176361766Y-371012189D01*
X176423933Y-370962109D01*
X176501694Y-370921445D01*
X176585789Y-370893327D01*
X176677300Y-370876020D01*
X176777384Y-370870062D01*
X176887687Y-370876446D01*
X176985299Y-370894717D01*
X177071940Y-370923918D01*
X177151895Y-370966353D01*
X177216651Y-371018962D01*
X177268128Y-371082187D01*
X177306650Y-371154376D01*
X177331257Y-371232757D01*
X177341951Y-371318767D01*
X177151350Y-371333147D01*
X177131751Y-371242184D01*
X177096840Y-371171702D01*
X177047302Y-371117450D01*
X176984077Y-371079127D01*
X176898985Y-371053860D01*
X176785535Y-371044452D01*
X176666483Y-371053334D01*
X176581704Y-371076559D01*
X176522669Y-371110580D01*
X176475800Y-371159170D01*
X176449137Y-371211644D01*
X176440237Y-371270040D01*
X176446889Y-371321412D01*
X176466180Y-371365209D01*
X176498672Y-371403306D01*
X176542659Y-371431505D01*
X176634012Y-371466965D01*
X176798358Y-371510467D01*
X177020911Y-371567206D01*
X177130833Y-371606271D01*
X177213973Y-371652428D01*
X177277484Y-371703553D01*
X177324457Y-371759595D01*
X177358939Y-371823919D01*
X177379836Y-371894638D01*
X177387014Y-371973368D01*
X177379467Y-372051385D01*
X177356839Y-372126339D01*
X177318320Y-372199507D01*
X177266857Y-372264025D01*
X177201763Y-372318913D01*
X177121125Y-372364554D01*
X177033620Y-372396757D01*
X176937595Y-372416599D01*
X176831605Y-372423447D01*
X176696435Y-372416069D01*
X176583682Y-372395531D01*
X176489879Y-372363729D01*
X176403789Y-372316594D01*
X176332283Y-372256930D01*
X176273724Y-372183936D01*
X176229937Y-372100947D01*
X176202431Y-372010987D01*
X176191201Y-371912369D01*
G37*
G36*
X177650155Y-372400000D02*
G01*
X177650155Y-370893510D01*
X177848999Y-370893510D01*
X177848999Y-371641534D01*
X178594917Y-370893510D01*
X178864378Y-370893510D01*
X178234231Y-371504147D01*
X178892038Y-372400000D01*
X178629721Y-372400000D01*
X178094921Y-371637412D01*
X177848999Y-371878297D01*
X177848999Y-372400000D01*
X177650155Y-372400000D01*
G37*
G36*
X178962563Y-371948639D02*
G01*
X178962563Y-371761060D01*
X179529237Y-371761060D01*
X179529237Y-371948639D01*
X178962563Y-371948639D01*
G37*
G36*
X180651411Y-372225610D02*
G01*
X180651411Y-372400000D01*
X179658564Y-372400000D01*
X179662907Y-372334696D01*
X179680088Y-372272138D01*
X179728050Y-372173891D01*
X179801446Y-372072745D01*
X179896500Y-371973552D01*
X180042788Y-371845690D01*
X180204869Y-371705475D01*
X180310464Y-371601458D01*
X180373707Y-371526038D01*
X180423833Y-371444216D01*
X180451226Y-371370613D01*
X180459802Y-371303013D01*
X180450954Y-371232931D01*
X180425104Y-371171775D01*
X180381400Y-371117267D01*
X180325114Y-371075845D01*
X180258018Y-371050460D01*
X180177061Y-371041521D01*
X180091557Y-371051078D01*
X180021641Y-371078091D01*
X179963837Y-371122029D01*
X179920575Y-371180253D01*
X179893239Y-371253145D01*
X179882962Y-371344870D01*
X179693368Y-371325270D01*
X179711144Y-371219615D01*
X179742046Y-371132028D01*
X179784967Y-371059468D01*
X179839914Y-370999664D01*
X179906135Y-370952218D01*
X179983564Y-370917379D01*
X180074320Y-370895420D01*
X180181091Y-370887648D01*
X180288499Y-370895969D01*
X180379553Y-370919491D01*
X180457113Y-370956920D01*
X180523367Y-371008182D01*
X180578792Y-371072420D01*
X180617711Y-371142630D01*
X180641290Y-371220120D01*
X180649396Y-371306769D01*
X180640275Y-371396078D01*
X180612485Y-371484913D01*
X180565862Y-371571077D01*
X180490027Y-371669286D01*
X180388225Y-371772733D01*
X180205729Y-371934900D01*
X180055313Y-372065210D01*
X179992505Y-372125135D01*
X179948789Y-372176166D01*
X179914744Y-372225610D01*
X180651411Y-372225610D01*
G37*
G36*
X181467224Y-370894337D02*
G01*
X181543733Y-370913458D01*
X181610802Y-370944213D01*
X181669904Y-370986658D01*
X181719847Y-371039599D01*
X181759061Y-371101802D01*
X181787833Y-371174695D01*
X181805642Y-371260240D01*
X181622276Y-371274528D01*
X181590168Y-371177098D01*
X181552575Y-371119190D01*
X181498636Y-371075930D01*
X181437912Y-371050304D01*
X181368111Y-371041521D01*
X181310985Y-371047113D01*
X181259849Y-371063412D01*
X181213414Y-371090430D01*
X181160968Y-371137394D01*
X181115161Y-371198163D01*
X181076027Y-371275078D01*
X181050089Y-371357789D01*
X181031726Y-371470477D01*
X181023820Y-371620651D01*
X181072605Y-371557720D01*
X181126746Y-371508056D01*
X181186669Y-371470259D01*
X181252326Y-371442805D01*
X181319384Y-371426518D01*
X181388627Y-371421074D01*
X181478004Y-371429695D01*
X181558996Y-371454936D01*
X181633465Y-371496924D01*
X181702693Y-371557178D01*
X181758545Y-371628808D01*
X181798729Y-371709984D01*
X181823606Y-371802531D01*
X181832295Y-371908888D01*
X181825401Y-372001950D01*
X181805057Y-372089416D01*
X181771295Y-372172396D01*
X181724736Y-372248341D01*
X181669071Y-372309934D01*
X181603775Y-372358784D01*
X181530406Y-372394395D01*
X181450329Y-372416026D01*
X181361974Y-372423447D01*
X181250167Y-372412454D01*
X181151940Y-372380656D01*
X181064472Y-372328302D01*
X180985902Y-372253637D01*
X180938578Y-372185999D01*
X180898991Y-372100211D01*
X180868137Y-371992607D01*
X180855371Y-371908705D01*
X181052488Y-371908705D01*
X181062589Y-372001922D01*
X181092971Y-372091246D01*
X181124287Y-372145764D01*
X181161926Y-372189562D01*
X181206178Y-372223961D01*
X181281449Y-372258377D01*
X181358860Y-372269574D01*
X181432646Y-372259242D01*
X181498800Y-372228524D01*
X181559720Y-372175327D01*
X181604950Y-372107860D01*
X181633458Y-372023908D01*
X181643709Y-371918963D01*
X181633594Y-371818240D01*
X181605460Y-371737898D01*
X181560727Y-371673499D01*
X181500552Y-371623589D01*
X181431819Y-371593947D01*
X181351716Y-371583740D01*
X181272139Y-371593831D01*
X181202276Y-371623392D01*
X181139591Y-371673499D01*
X181092002Y-371738002D01*
X181062791Y-371815208D01*
X181052488Y-371908705D01*
X180855371Y-371908705D01*
X180847784Y-371858846D01*
X180840363Y-371694016D01*
X180848492Y-371510062D01*
X180870868Y-371359492D01*
X180904921Y-371237203D01*
X180948763Y-371138666D01*
X181001289Y-371060022D01*
X181061477Y-370997852D01*
X181128242Y-370950245D01*
X181202478Y-370916039D01*
X181285584Y-370894962D01*
X181379377Y-370887648D01*
X181467224Y-370894337D01*
G37*
G36*
X182584326Y-370893373D02*
G01*
X182654515Y-370909824D01*
X182716973Y-370936374D01*
X182773885Y-370973361D01*
X182823940Y-371019920D01*
X182867640Y-371076967D01*
X182919356Y-371175636D01*
X182960880Y-371300632D01*
X182985092Y-371443932D01*
X182994677Y-371656097D01*
X182987668Y-371833055D01*
X182968678Y-371973444D01*
X182940363Y-372083369D01*
X182896377Y-372186966D01*
X182842161Y-372269685D01*
X182777972Y-372334695D01*
X182701600Y-372383063D01*
X182611745Y-372412934D01*
X182504939Y-372423447D01*
X182399241Y-372413106D01*
X182309044Y-372383554D01*
X182231204Y-372335469D01*
X182163671Y-372267467D01*
X182115578Y-372193342D01*
X182075156Y-372099435D01*
X182043570Y-371981775D01*
X182022714Y-371835729D01*
X182015110Y-371656097D01*
X182015132Y-371655547D01*
X182204704Y-371655547D01*
X182212304Y-371852814D01*
X182231855Y-371991878D01*
X182259181Y-372086207D01*
X182291257Y-372147300D01*
X182339378Y-372202960D01*
X182390323Y-372240343D01*
X182444968Y-372262205D01*
X182504939Y-372269574D01*
X182564831Y-372262183D01*
X182619433Y-372240242D01*
X182670375Y-372202699D01*
X182718530Y-372146750D01*
X182750681Y-372085397D01*
X182778034Y-371990976D01*
X182797582Y-371852125D01*
X182805175Y-371655547D01*
X182797553Y-371457659D01*
X182777961Y-371318413D01*
X182750606Y-371224182D01*
X182718530Y-371163337D01*
X182670455Y-371108054D01*
X182619206Y-371070790D01*
X182563885Y-371048916D01*
X182502833Y-371041521D01*
X182442067Y-371048341D01*
X182389067Y-371068131D01*
X182342037Y-371101086D01*
X182299959Y-371148957D01*
X182263875Y-371217478D01*
X182233848Y-371317899D01*
X182212779Y-371460094D01*
X182204704Y-371655547D01*
X182015132Y-371655547D01*
X182022197Y-371477638D01*
X182041363Y-371336624D01*
X182069882Y-371226718D01*
X182114212Y-371123130D01*
X182168614Y-371040608D01*
X182232822Y-370975942D01*
X182309202Y-370927793D01*
X182398779Y-370898089D01*
X182504939Y-370887648D01*
X182584326Y-370893373D01*
G37*
G36*
X183876332Y-372400000D02*
G01*
X183691868Y-372400000D01*
X183691868Y-371221589D01*
X183618466Y-371282660D01*
X183517204Y-371348992D01*
X183410637Y-371406654D01*
X183323031Y-371444521D01*
X183323031Y-371268667D01*
X183423355Y-371215296D01*
X183513238Y-371155932D01*
X183593499Y-371090614D01*
X183667133Y-371017232D01*
X183720687Y-370949865D01*
X183757447Y-370887648D01*
X183876332Y-370887648D01*
X183876332Y-372400000D01*
G37*
G36*
X184327602Y-371948639D02*
G01*
X184327602Y-371761060D01*
X184894276Y-371761060D01*
X184894276Y-371948639D01*
X184327602Y-371948639D01*
G37*
G36*
X185047141Y-372001395D02*
G01*
X185240765Y-371985000D01*
X185262983Y-372076151D01*
X185296647Y-372145781D01*
X185340690Y-372198224D01*
X185396408Y-372237792D01*
X185458735Y-372261450D01*
X185529734Y-372269574D01*
X185594176Y-372263199D01*
X185652363Y-372244545D01*
X185705702Y-372213488D01*
X185755140Y-372168824D01*
X185794468Y-372116060D01*
X185823118Y-372055045D01*
X185841054Y-371984219D01*
X185847372Y-371901561D01*
X185841245Y-371822962D01*
X185823937Y-371756470D01*
X185796411Y-371699955D01*
X185758712Y-371651792D01*
X185694602Y-371601551D01*
X185618450Y-371571007D01*
X185526712Y-371560293D01*
X185441124Y-371570790D01*
X185365786Y-371601509D01*
X185301307Y-371649204D01*
X185253129Y-371708304D01*
X185079931Y-371685772D01*
X185225469Y-370911095D01*
X185972394Y-370911095D01*
X185972394Y-371085484D01*
X185373022Y-371085484D01*
X185292056Y-371494164D01*
X185385796Y-371439580D01*
X185479795Y-371408029D01*
X185575896Y-371397627D01*
X185671702Y-371406423D01*
X185757729Y-371432036D01*
X185835968Y-371474316D01*
X185907822Y-371534464D01*
X185966405Y-371606846D01*
X186008303Y-371688330D01*
X186034115Y-371780692D01*
X186043102Y-371886357D01*
X186035365Y-371987228D01*
X186012843Y-372078826D01*
X185975942Y-372162753D01*
X185924217Y-372240265D01*
X185862077Y-372306334D01*
X185792789Y-372356899D01*
X185715399Y-372393239D01*
X185628379Y-372415655D01*
X185529734Y-372423447D01*
X185428275Y-372415633D01*
X185340103Y-372393311D01*
X185262973Y-372357416D01*
X185195152Y-372307859D01*
X185137823Y-372246047D01*
X185094295Y-372175396D01*
X185063941Y-372094507D01*
X185047141Y-372001395D01*
G37*
G36*
X186908363Y-372400000D02*
G01*
X186723899Y-372400000D01*
X186723899Y-371221589D01*
X186650497Y-371282660D01*
X186549235Y-371348992D01*
X186442667Y-371406654D01*
X186355061Y-371444521D01*
X186355061Y-371268667D01*
X186455385Y-371215296D01*
X186545269Y-371155932D01*
X186625530Y-371090614D01*
X186699164Y-371017232D01*
X186752717Y-370949865D01*
X186789478Y-370887648D01*
X186908363Y-370887648D01*
X186908363Y-372400000D01*
G37*
G36*
X179337162Y-373418970D02*
G01*
X179436482Y-373433287D01*
X179507714Y-373453810D01*
X179572283Y-373487247D01*
X179627606Y-373534169D01*
X179674684Y-373596142D01*
X179709372Y-373666312D01*
X179730181Y-373740981D01*
X179737241Y-373821456D01*
X179730515Y-373899327D01*
X179710994Y-373969033D01*
X179678957Y-374032122D01*
X179633743Y-374089726D01*
X179579227Y-374136363D01*
X179509827Y-374175499D01*
X179422644Y-374206613D01*
X179314090Y-374228395D01*
X179387078Y-374268796D01*
X179433891Y-374304050D01*
X179516647Y-374392531D01*
X179598939Y-374506283D01*
X179860156Y-374920000D01*
X179610204Y-374920000D01*
X179411360Y-374603461D01*
X179267928Y-374393900D01*
X179210897Y-374328478D01*
X179166995Y-374292143D01*
X179121386Y-374267221D01*
X179076320Y-374251659D01*
X178965678Y-374244424D01*
X178735143Y-374244424D01*
X178735143Y-374920000D01*
X178536299Y-374920000D01*
X178536299Y-374075896D01*
X178735143Y-374075896D01*
X179162416Y-374075896D01*
X179290993Y-374067934D01*
X179375548Y-374047961D01*
X179423618Y-374024966D01*
X179462098Y-373995173D01*
X179492327Y-373958293D01*
X179522317Y-373893862D01*
X179532260Y-373824387D01*
X179523466Y-373757284D01*
X179497941Y-373700068D01*
X179454866Y-373650273D01*
X179399049Y-373614851D01*
X179320156Y-373591058D01*
X179210592Y-373582037D01*
X178735143Y-373582037D01*
X178735143Y-374075896D01*
X178536299Y-374075896D01*
X178536299Y-373413510D01*
X179202349Y-373413510D01*
X179337162Y-373418970D01*
G37*
G36*
X180052589Y-374920000D02*
G01*
X180052589Y-373413510D01*
X181138768Y-373413510D01*
X181138768Y-373587899D01*
X180251433Y-373587899D01*
X180251433Y-374052449D01*
X181082439Y-374052449D01*
X181082439Y-374226838D01*
X180251433Y-374226838D01*
X180251433Y-374745610D01*
X181173664Y-374745610D01*
X181173664Y-374920000D01*
X180052589Y-374920000D01*
G37*
G36*
X181877358Y-374920000D02*
G01*
X181295388Y-373413510D01*
X181510536Y-373413510D01*
X181900988Y-374508298D01*
X181979848Y-374755044D01*
X182060815Y-374508298D01*
X182466563Y-373413510D01*
X182669438Y-373413510D01*
X182081331Y-374920000D01*
X181877358Y-374920000D01*
G37*
G36*
X182636465Y-374468639D02*
G01*
X182636465Y-374281060D01*
X183203139Y-374281060D01*
X183203139Y-374468639D01*
X182636465Y-374468639D01*
G37*
G36*
X184050722Y-374920000D02*
G01*
X183866258Y-374920000D01*
X183866258Y-373741589D01*
X183792856Y-373802660D01*
X183691594Y-373868992D01*
X183585027Y-373926654D01*
X183497421Y-373964521D01*
X183497421Y-373788667D01*
X183597745Y-373735296D01*
X183687628Y-373675932D01*
X183767889Y-373610614D01*
X183841523Y-373537232D01*
X183895077Y-373469865D01*
X183931837Y-373407648D01*
X184050722Y-373407648D01*
X184050722Y-374920000D01*
G37*
D11*
%TO.C,J6*%
X288883100Y-319750000D02*
G75*
G02*
X287656900Y-319750000I-613100J0D01*
G01*
X287656900Y-319750000D02*
G75*
G02*
X288883100Y-319750000I613100J0D01*
G01*
D12*
X301858100Y-319750000D02*
G75*
G02*
X300281900Y-319750000I-788100J0D01*
G01*
X300281900Y-319750000D02*
G75*
G02*
X301858100Y-319750000I788100J0D01*
G01*
D13*
X294996200Y-320976200D02*
X292543800Y-320976200D01*
X292543800Y-318523800D01*
X294996200Y-318523800D01*
X294996200Y-320976200D01*
G36*
X294996200Y-320976200D02*
G01*
X292543800Y-320976200D01*
X292543800Y-318523800D01*
X294996200Y-318523800D01*
X294996200Y-320976200D01*
G37*
%TD*%
D14*
%TO.C,J4*%
X110160000Y-288710000D03*
D15*
X112700000Y-291250000D03*
X112700000Y-286170000D03*
X107620000Y-291250000D03*
X107620000Y-286170000D03*
%TD*%
D16*
%TO.C,MT2*%
X111960000Y-329920000D03*
%TD*%
D17*
%TO.C,U4*%
X269650000Y-320100002D03*
X270299998Y-320650001D03*
X268999998Y-320650001D03*
X269650000Y-321200000D03*
%TD*%
D16*
%TO.C,MT4*%
X246580000Y-263880000D03*
%TD*%
D18*
%TO.C,J5*%
X195270000Y-266480000D03*
X235910000Y-266480000D03*
D19*
X204160000Y-267500000D03*
D20*
X204160000Y-264960000D03*
X206700000Y-267500000D03*
X206700000Y-264960000D03*
X209240000Y-267500000D03*
X209240000Y-264960000D03*
X211780000Y-267500000D03*
X211780000Y-264960000D03*
X214320000Y-267500000D03*
X214320000Y-264960000D03*
X216860000Y-267500000D03*
X216860000Y-264960000D03*
X219400000Y-267500000D03*
X219400000Y-264960000D03*
X221940000Y-267500000D03*
X221940000Y-264960000D03*
X224480000Y-267500000D03*
X224480000Y-264960000D03*
X227020000Y-267500000D03*
X227020000Y-264960000D03*
%TD*%
D16*
%TO.C,MT5*%
X299920000Y-329920000D03*
%TD*%
%TO.C,MT8*%
X68780000Y-263880000D03*
%TD*%
%TO.C,MT6*%
X164738974Y-263880000D03*
%TD*%
D21*
%TO.C,J2*%
X217624000Y-321284000D03*
D22*
X215124000Y-321284000D03*
X212624000Y-321284000D03*
X210124000Y-321284000D03*
X207624000Y-321284000D03*
X205124000Y-321284000D03*
X202624000Y-321284000D03*
X200124000Y-321284000D03*
X197624000Y-321284000D03*
X195124000Y-321284000D03*
X217624000Y-319784000D03*
X215124000Y-319784000D03*
X212624000Y-319784000D03*
X210124000Y-319784000D03*
X207624000Y-319784000D03*
X205124000Y-319784000D03*
X202624000Y-319784000D03*
X200124000Y-319784000D03*
X197624000Y-319784000D03*
X195124000Y-319784000D03*
X217624000Y-318284000D03*
X215124000Y-318284000D03*
X212624000Y-318284000D03*
X210124000Y-318284000D03*
X207624000Y-318284000D03*
X205124000Y-318284000D03*
X202624000Y-318284000D03*
X200124000Y-318284000D03*
X197624000Y-318284000D03*
X195124000Y-318284000D03*
X217624000Y-316784000D03*
X215124000Y-316784000D03*
X212624000Y-316784000D03*
X210124000Y-316784000D03*
X207624000Y-316784000D03*
X205124000Y-316784000D03*
X202624000Y-316784000D03*
X200124000Y-316784000D03*
X197624000Y-316784000D03*
X195124000Y-316784000D03*
X217624000Y-315284000D03*
X215124000Y-315284000D03*
X212624000Y-315284000D03*
X210124000Y-315284000D03*
X207624000Y-315284000D03*
X205124000Y-315284000D03*
X202624000Y-315284000D03*
X200124000Y-315284000D03*
X197624000Y-315284000D03*
X195124000Y-315284000D03*
X217624000Y-313784000D03*
X215124000Y-313784000D03*
X212624000Y-313784000D03*
X210124000Y-313784000D03*
X207624000Y-313784000D03*
X205124000Y-313784000D03*
X202624000Y-313784000D03*
X200124000Y-313784000D03*
X197624000Y-313784000D03*
X195124000Y-313784000D03*
%TD*%
D23*
%TO.C,J6*%
X301070000Y-319750000D03*
%TD*%
D21*
%TO.C,J1*%
X166824000Y-321284000D03*
D22*
X164324000Y-321284000D03*
X161824000Y-321284000D03*
X159324000Y-321284000D03*
X156824000Y-321284000D03*
X154324000Y-321284000D03*
X151824000Y-321284000D03*
X149324000Y-321284000D03*
X146824000Y-321284000D03*
X144324000Y-321284000D03*
X166824000Y-319784000D03*
X164324000Y-319784000D03*
X161824000Y-319784000D03*
X159324000Y-319784000D03*
X156824000Y-319784000D03*
X154324000Y-319784000D03*
X151824000Y-319784000D03*
X149324000Y-319784000D03*
X146824000Y-319784000D03*
X144324000Y-319784000D03*
X166824000Y-318284000D03*
X164324000Y-318284000D03*
X161824000Y-318284000D03*
X159324000Y-318284000D03*
X156824000Y-318284000D03*
X154324000Y-318284000D03*
X151824000Y-318284000D03*
X149324000Y-318284000D03*
X146824000Y-318284000D03*
X144324000Y-318284000D03*
X166824000Y-316784000D03*
X164324000Y-316784000D03*
X161824000Y-316784000D03*
X159324000Y-316784000D03*
X156824000Y-316784000D03*
X154324000Y-316784000D03*
X151824000Y-316784000D03*
X149324000Y-316784000D03*
X146824000Y-316784000D03*
X144324000Y-316784000D03*
X166824000Y-315284000D03*
X164324000Y-315284000D03*
X161824000Y-315284000D03*
X159324000Y-315284000D03*
X156824000Y-315284000D03*
X154324000Y-315284000D03*
X151824000Y-315284000D03*
X149324000Y-315284000D03*
X146824000Y-315284000D03*
X144324000Y-315284000D03*
X166824000Y-313784000D03*
X164324000Y-313784000D03*
X161824000Y-313784000D03*
X159324000Y-313784000D03*
X156824000Y-313784000D03*
X154324000Y-313784000D03*
X151824000Y-313784000D03*
X149324000Y-313784000D03*
X146824000Y-313784000D03*
X144324000Y-313784000D03*
%TD*%
D18*
%TO.C,J7*%
X102350000Y-266480000D03*
X142990000Y-266480000D03*
D19*
X111240000Y-267500000D03*
D20*
X111240000Y-264960000D03*
X113780000Y-267500000D03*
X113780000Y-264960000D03*
X116320000Y-267500000D03*
X116320000Y-264960000D03*
X118860000Y-267500000D03*
X118860000Y-264960000D03*
X121400000Y-267500000D03*
X121400000Y-264960000D03*
X123940000Y-267500000D03*
X123940000Y-264960000D03*
X126480000Y-267500000D03*
X126480000Y-264960000D03*
X129020000Y-267500000D03*
X129020000Y-264960000D03*
X131560000Y-267500000D03*
X131560000Y-264960000D03*
X134100000Y-267500000D03*
X134100000Y-264960000D03*
%TD*%
D16*
%TO.C,MT3*%
X250644000Y-329920000D03*
%TD*%
D21*
%TO.C,J3*%
X243024000Y-321284000D03*
D22*
X240524000Y-321284000D03*
X238024000Y-321284000D03*
X235524000Y-321284000D03*
X233024000Y-321284000D03*
X230524000Y-321284000D03*
X228024000Y-321284000D03*
X225524000Y-321284000D03*
X223024000Y-321284000D03*
X220524000Y-321284000D03*
X243024000Y-319784000D03*
X240524000Y-319784000D03*
X238024000Y-319784000D03*
X235524000Y-319784000D03*
X233024000Y-319784000D03*
X230524000Y-319784000D03*
X228024000Y-319784000D03*
X225524000Y-319784000D03*
X223024000Y-319784000D03*
X220524000Y-319784000D03*
X243024000Y-318284000D03*
X240524000Y-318284000D03*
X238024000Y-318284000D03*
X235524000Y-318284000D03*
X233024000Y-318284000D03*
X230524000Y-318284000D03*
X228024000Y-318284000D03*
X225524000Y-318284000D03*
X223024000Y-318284000D03*
X220524000Y-318284000D03*
X243024000Y-316784000D03*
X240524000Y-316784000D03*
X238024000Y-316784000D03*
X235524000Y-316784000D03*
X233024000Y-316784000D03*
X230524000Y-316784000D03*
X228024000Y-316784000D03*
X225524000Y-316784000D03*
X223024000Y-316784000D03*
X220524000Y-316784000D03*
X243024000Y-315284000D03*
X240524000Y-315284000D03*
X238024000Y-315284000D03*
X235524000Y-315284000D03*
X233024000Y-315284000D03*
X230524000Y-315284000D03*
X228024000Y-315284000D03*
X225524000Y-315284000D03*
X223024000Y-315284000D03*
X220524000Y-315284000D03*
X243024000Y-313784000D03*
X240524000Y-313784000D03*
X238024000Y-313784000D03*
X235524000Y-313784000D03*
X233024000Y-313784000D03*
X230524000Y-313784000D03*
X228024000Y-313784000D03*
X225524000Y-313784000D03*
X223024000Y-313784000D03*
X220524000Y-313784000D03*
%TD*%
D16*
%TO.C,MT7*%
X299920000Y-263880000D03*
%TD*%
%TO.C,MT1*%
X68780000Y-329920000D03*
%TD*%
D24*
%TO.C,C34*%
X255450000Y-284900000D03*
X255450000Y-286800000D03*
%TD*%
%TO.C,C36*%
X258200000Y-284900000D03*
X258200000Y-286800000D03*
%TD*%
D25*
%TO.C,C35*%
X255450000Y-276900000D03*
X255450000Y-275000000D03*
%TD*%
D26*
%TO.C,C11*%
X152850000Y-299300000D03*
X150950000Y-299300000D03*
%TD*%
D25*
%TO.C,C37*%
X258200000Y-276900000D03*
X258200000Y-275000000D03*
%TD*%
D24*
%TO.C,C1*%
X129400000Y-313500000D03*
X129400000Y-315400000D03*
%TD*%
D26*
%TO.C,C46*%
X271900000Y-308800000D03*
X270000000Y-308800000D03*
%TD*%
D24*
%TO.C,C39*%
X254450000Y-307300000D03*
X254450000Y-309200000D03*
%TD*%
D27*
X63700000Y-258800000D02*
X305000000Y-258800000D01*
X246199000Y-335000000D02*
X246199000Y-322300000D01*
X305000000Y-258800000D02*
X305000000Y-335000000D01*
X116405000Y-322300000D02*
X116405000Y-333730000D01*
X246199000Y-322300000D02*
X116405000Y-322300000D01*
X63700000Y-335000000D02*
X63700000Y-258800000D01*
X305000000Y-335000000D02*
X246199000Y-335000000D01*
X116405000Y-333730000D02*
X116405000Y-335000000D01*
X116405000Y-335000000D02*
X63700000Y-335000000D01*
M02*
