%TF.GenerationSoftware,KiCad,Pcbnew,9.0.6*%
%TF.CreationDate,2026-06-12T03:36:13-04:00*%
%TF.ProjectId,acmi2-afe,61636d69-322d-4616-9665-2e6b69636164,rev?*%
%TF.SameCoordinates,Original*%
%TF.FileFunction,Legend,Bot*%
%TF.FilePolarity,Positive*%
%FSLAX46Y46*%
G04 Gerber Fmt 4.6, Leading zero omitted, Abs format (unit mm)*
G04 Created by KiCad (PCBNEW 9.0.6) date 2026-06-12 03:36:13*
%MOMM*%
%LPD*%
G01*
G04 APERTURE LIST*
G04 Aperture macros list*
%AMRoundRect*
0 Rectangle with rounded corners*
0 $1 Rounding radius*
0 $2 $3 $4 $5 $6 $7 $8 $9 X,Y pos of 4 corners*
0 Add a 4 corners polygon primitive as box body*
4,1,4,$2,$3,$4,$5,$6,$7,$8,$9,$2,$3,0*
0 Add four circle primitives for the rounded corners*
1,1,$1+$1,$2,$3*
1,1,$1+$1,$4,$5*
1,1,$1+$1,$6,$7*
1,1,$1+$1,$8,$9*
0 Add four rect primitives between the rounded corners*
20,1,$1+$1,$2,$3,$4,$5,0*
20,1,$1+$1,$4,$5,$6,$7,0*
20,1,$1+$1,$6,$7,$8,$9,0*
20,1,$1+$1,$8,$9,$2,$3,0*%
G04 Aperture macros list end*
%ADD10C,0.150000*%
%ADD11C,0.120000*%
%ADD12C,1.226200*%
%ADD13C,1.576200*%
%ADD14C,0.010000*%
%ADD15C,2.050000*%
%ADD16C,2.250000*%
%ADD17C,7.500000*%
%ADD18C,2.690000*%
%ADD19RoundRect,0.102000X-0.660000X-0.660000X0.660000X-0.660000X0.660000X0.660000X-0.660000X0.660000X0*%
%ADD20C,1.524000*%
%ADD21RoundRect,0.102000X-0.500000X-0.500000X0.500000X-0.500000X0.500000X0.500000X-0.500000X0.500000X0*%
%ADD22C,1.204000*%
%ADD23C,3.000000*%
%ADD24RoundRect,0.250000X-0.475000X0.250000X-0.475000X-0.250000X0.475000X-0.250000X0.475000X0.250000X0*%
%ADD25RoundRect,0.250000X0.475000X-0.250000X0.475000X0.250000X-0.475000X0.250000X-0.475000X-0.250000X0*%
%ADD26RoundRect,0.250000X0.250000X0.475000X-0.250000X0.475000X-0.250000X-0.475000X0.250000X-0.475000X0*%
%TA.AperFunction,Profile*%
%ADD27C,0.050000*%
%TD*%
G04 APERTURE END LIST*
D10*
G36*
X192938602Y-352872369D02*
G01*
X192751024Y-352855882D01*
X192737423Y-352931180D01*
X192716511Y-352993349D01*
X192689108Y-353044468D01*
X192652312Y-353088831D01*
X192602727Y-353128558D01*
X192537983Y-353163628D01*
X192468318Y-353188452D01*
X192391815Y-353203768D01*
X192307357Y-353209057D01*
X192197786Y-353200157D01*
X192106589Y-353175169D01*
X192051282Y-353148481D01*
X192008776Y-353117453D01*
X191976988Y-353082204D01*
X191944933Y-353020015D01*
X191934398Y-352953152D01*
X191944806Y-352886321D01*
X191975431Y-352829412D01*
X192026088Y-352783122D01*
X192110619Y-352740478D01*
X192189502Y-352715369D01*
X192378065Y-352667021D01*
X192568604Y-352613783D01*
X192668042Y-352572957D01*
X192735902Y-352530628D01*
X192788662Y-352483922D01*
X192828418Y-352432732D01*
X192857610Y-352374994D01*
X192875186Y-352312891D01*
X192881175Y-352245245D01*
X192874051Y-352171038D01*
X192852770Y-352100373D01*
X192816695Y-352032021D01*
X192768037Y-351972189D01*
X192705870Y-351922109D01*
X192628109Y-351881445D01*
X192544014Y-351853327D01*
X192452503Y-351836020D01*
X192352419Y-351830062D01*
X192242116Y-351836446D01*
X192144504Y-351854717D01*
X192057863Y-351883918D01*
X191977908Y-351926353D01*
X191913152Y-351978962D01*
X191861675Y-352042187D01*
X191823153Y-352114376D01*
X191798546Y-352192757D01*
X191787852Y-352278767D01*
X191978453Y-352293147D01*
X191998052Y-352202184D01*
X192032963Y-352131702D01*
X192082501Y-352077450D01*
X192145726Y-352039127D01*
X192230818Y-352013860D01*
X192344268Y-352004452D01*
X192463320Y-352013334D01*
X192548099Y-352036559D01*
X192607134Y-352070580D01*
X192654003Y-352119170D01*
X192680666Y-352171644D01*
X192689566Y-352230040D01*
X192682914Y-352281412D01*
X192663623Y-352325209D01*
X192631131Y-352363306D01*
X192587144Y-352391505D01*
X192495791Y-352426965D01*
X192331445Y-352470467D01*
X192108892Y-352527206D01*
X191998970Y-352566271D01*
X191915830Y-352612428D01*
X191852319Y-352663553D01*
X191805346Y-352719595D01*
X191770864Y-352783919D01*
X191749967Y-352854638D01*
X191742789Y-352933368D01*
X191750336Y-353011385D01*
X191772964Y-353086339D01*
X191811483Y-353159507D01*
X191862946Y-353224025D01*
X191928040Y-353278913D01*
X192008678Y-353324554D01*
X192096183Y-353356757D01*
X192192208Y-353376599D01*
X192298198Y-353383447D01*
X192433368Y-353376069D01*
X192546121Y-353355531D01*
X192639924Y-353323729D01*
X192726014Y-353276594D01*
X192797520Y-353216930D01*
X192856079Y-353143936D01*
X192899866Y-353060947D01*
X192927372Y-352970987D01*
X192938602Y-352872369D01*
G37*
G36*
X191437608Y-353360000D02*
G01*
X191437608Y-351853510D01*
X191238855Y-351853510D01*
X191238855Y-353360000D01*
X191437608Y-353360000D01*
G37*
G36*
X190896396Y-353360000D02*
G01*
X190896396Y-351853510D01*
X190697552Y-351853510D01*
X190697552Y-353185610D01*
X189957771Y-353185610D01*
X189957771Y-353360000D01*
X190896396Y-353360000D01*
G37*
G36*
X189729892Y-353360000D02*
G01*
X189729892Y-351853510D01*
X189531048Y-351853510D01*
X189531048Y-352601534D01*
X188785131Y-351853510D01*
X188515670Y-351853510D01*
X189145816Y-352464147D01*
X188488009Y-353360000D01*
X188750326Y-353360000D01*
X189285126Y-352597412D01*
X189531048Y-352838297D01*
X189531048Y-353360000D01*
X189729892Y-353360000D01*
G37*
G36*
X188389824Y-352872369D02*
G01*
X188202245Y-352855882D01*
X188188644Y-352931180D01*
X188167733Y-352993349D01*
X188140329Y-353044468D01*
X188103533Y-353088831D01*
X188053948Y-353128558D01*
X187989204Y-353163628D01*
X187919539Y-353188452D01*
X187843037Y-353203768D01*
X187758578Y-353209057D01*
X187649007Y-353200157D01*
X187557810Y-353175169D01*
X187502504Y-353148481D01*
X187459997Y-353117453D01*
X187428209Y-353082204D01*
X187396154Y-353020015D01*
X187385619Y-352953152D01*
X187396027Y-352886321D01*
X187426652Y-352829412D01*
X187477309Y-352783122D01*
X187561840Y-352740478D01*
X187640723Y-352715369D01*
X187829286Y-352667021D01*
X188019826Y-352613783D01*
X188119263Y-352572957D01*
X188187123Y-352530628D01*
X188239883Y-352483922D01*
X188279639Y-352432732D01*
X188308832Y-352374994D01*
X188326408Y-352312891D01*
X188332396Y-352245245D01*
X188325272Y-352171038D01*
X188303992Y-352100373D01*
X188267916Y-352032021D01*
X188219258Y-351972189D01*
X188157091Y-351922109D01*
X188079330Y-351881445D01*
X187995236Y-351853327D01*
X187903724Y-351836020D01*
X187803641Y-351830062D01*
X187693338Y-351836446D01*
X187595725Y-351854717D01*
X187509084Y-351883918D01*
X187429129Y-351926353D01*
X187364373Y-351978962D01*
X187312896Y-352042187D01*
X187274374Y-352114376D01*
X187249767Y-352192757D01*
X187239073Y-352278767D01*
X187429674Y-352293147D01*
X187449273Y-352202184D01*
X187484184Y-352131702D01*
X187533722Y-352077450D01*
X187596948Y-352039127D01*
X187682039Y-352013860D01*
X187795489Y-352004452D01*
X187914541Y-352013334D01*
X187999320Y-352036559D01*
X188058355Y-352070580D01*
X188105224Y-352119170D01*
X188131888Y-352171644D01*
X188140787Y-352230040D01*
X188134135Y-352281412D01*
X188114845Y-352325209D01*
X188082352Y-352363306D01*
X188038365Y-352391505D01*
X187947012Y-352426965D01*
X187782666Y-352470467D01*
X187560113Y-352527206D01*
X187450191Y-352566271D01*
X187367051Y-352612428D01*
X187303541Y-352663553D01*
X187256567Y-352719595D01*
X187222086Y-352783919D01*
X187201188Y-352854638D01*
X187194011Y-352933368D01*
X187201557Y-353011385D01*
X187224186Y-353086339D01*
X187262704Y-353159507D01*
X187314167Y-353224025D01*
X187379262Y-353278913D01*
X187459899Y-353324554D01*
X187547404Y-353356757D01*
X187643429Y-353376599D01*
X187749419Y-353383447D01*
X187884589Y-353376069D01*
X187997342Y-353355531D01*
X188091145Y-353323729D01*
X188177235Y-353276594D01*
X188248741Y-353216930D01*
X188307300Y-353143936D01*
X188351087Y-353060947D01*
X188378593Y-352970987D01*
X188389824Y-352872369D01*
G37*
G36*
X185850828Y-352832435D02*
G01*
X185652075Y-352882627D01*
X185691508Y-353002269D01*
X185742389Y-353102580D01*
X185804156Y-353186229D01*
X185877023Y-353255219D01*
X185961216Y-353310506D01*
X186054316Y-353350358D01*
X186157927Y-353374931D01*
X186274070Y-353383447D01*
X186396558Y-353376487D01*
X186501611Y-353356851D01*
X186591741Y-353325964D01*
X186669102Y-353284620D01*
X186739544Y-353230598D01*
X186801380Y-353165621D01*
X186855072Y-353088653D01*
X186900644Y-352998215D01*
X186944498Y-352871073D01*
X186971048Y-352737272D01*
X186980054Y-352595489D01*
X186969445Y-352441160D01*
X186939092Y-352305692D01*
X186890386Y-352186168D01*
X186840112Y-352103056D01*
X186781123Y-352031772D01*
X186713079Y-351971218D01*
X186635213Y-351920737D01*
X186521914Y-351870613D01*
X186401108Y-351840355D01*
X186270956Y-351830062D01*
X186158861Y-351837732D01*
X186059551Y-351859766D01*
X185971079Y-351895261D01*
X185891860Y-351944093D01*
X185821865Y-352005779D01*
X185763077Y-352078805D01*
X185714981Y-352164459D01*
X185677720Y-352264570D01*
X185873359Y-352310732D01*
X185916166Y-352206527D01*
X185966927Y-352128979D01*
X186025034Y-352073053D01*
X186094744Y-352032648D01*
X186177074Y-352007482D01*
X186275077Y-351998590D01*
X186387914Y-352008518D01*
X186483315Y-352036663D01*
X186564597Y-352081846D01*
X186634273Y-352143480D01*
X186688439Y-352217340D01*
X186727995Y-352305237D01*
X186754146Y-352399672D01*
X186769821Y-352495875D01*
X186775073Y-352594390D01*
X186768381Y-352721653D01*
X186749371Y-352832774D01*
X186719294Y-352929888D01*
X186674000Y-353019156D01*
X186616319Y-353089666D01*
X186545637Y-353144028D01*
X186464650Y-353183505D01*
X186380041Y-353207006D01*
X186290465Y-353214919D01*
X186208047Y-353208565D01*
X186134365Y-353190192D01*
X186067943Y-353160281D01*
X186007631Y-353118565D01*
X185956445Y-353066997D01*
X185913122Y-353003452D01*
X185877694Y-352926069D01*
X185850828Y-352832435D01*
G37*
G36*
X185404321Y-353360000D02*
G01*
X185205477Y-353360000D01*
X185205477Y-352684424D01*
X184974942Y-352684424D01*
X184864300Y-352691659D01*
X184819235Y-352707221D01*
X184773625Y-352732143D01*
X184729723Y-352768478D01*
X184672692Y-352833900D01*
X184529260Y-353043461D01*
X184330416Y-353360000D01*
X184080464Y-353360000D01*
X184341681Y-352946283D01*
X184423974Y-352832531D01*
X184506729Y-352744050D01*
X184553542Y-352708796D01*
X184626530Y-352668395D01*
X184517976Y-352646613D01*
X184430793Y-352615499D01*
X184361393Y-352576363D01*
X184306877Y-352529726D01*
X184261663Y-352472122D01*
X184229626Y-352409033D01*
X184210105Y-352339327D01*
X184203632Y-352264387D01*
X184408360Y-352264387D01*
X184418303Y-352333862D01*
X184448293Y-352398293D01*
X184478522Y-352435173D01*
X184517002Y-352464966D01*
X184565072Y-352487961D01*
X184649627Y-352507934D01*
X184778205Y-352515896D01*
X185205477Y-352515896D01*
X185205477Y-352022037D01*
X184730028Y-352022037D01*
X184620464Y-352031058D01*
X184541571Y-352054851D01*
X184485754Y-352090273D01*
X184442679Y-352140068D01*
X184417154Y-352197284D01*
X184408360Y-352264387D01*
X184203632Y-352264387D01*
X184203379Y-352261456D01*
X184210439Y-352180981D01*
X184231248Y-352106312D01*
X184265936Y-352036142D01*
X184313014Y-351974169D01*
X184368337Y-351927247D01*
X184432906Y-351893810D01*
X184504138Y-351873287D01*
X184603458Y-351858970D01*
X184738271Y-351853510D01*
X185404321Y-351853510D01*
X185404321Y-353360000D01*
G37*
G36*
X183888031Y-353360000D02*
G01*
X183888031Y-351853510D01*
X182801852Y-351853510D01*
X182801852Y-352027899D01*
X183689187Y-352027899D01*
X183689187Y-352492449D01*
X182858181Y-352492449D01*
X182858181Y-352666838D01*
X183689187Y-352666838D01*
X183689187Y-353185610D01*
X182766956Y-353185610D01*
X182766956Y-353360000D01*
X183888031Y-353360000D01*
G37*
G36*
X182488519Y-353360000D02*
G01*
X182488519Y-351853510D01*
X181402341Y-351853510D01*
X181402341Y-352027899D01*
X182289675Y-352027899D01*
X182289675Y-352492449D01*
X181458669Y-352492449D01*
X181458669Y-352666838D01*
X182289675Y-352666838D01*
X182289675Y-353185610D01*
X181367445Y-353185610D01*
X181367445Y-353360000D01*
X182488519Y-353360000D01*
G37*
G36*
X181095145Y-353360000D02*
G01*
X181095145Y-351853510D01*
X180891171Y-351853510D01*
X180102206Y-353036317D01*
X180102206Y-351853510D01*
X179911605Y-351853510D01*
X179911605Y-353360000D01*
X180115486Y-353360000D01*
X180904543Y-352176185D01*
X180904543Y-353360000D01*
X181095145Y-353360000D01*
G37*
G36*
X179002747Y-353360000D02*
G01*
X178429936Y-353360000D01*
X178292205Y-353353121D01*
X178187678Y-353334812D01*
X178094822Y-353302472D01*
X178023180Y-353260165D01*
X177964314Y-353202172D01*
X177912996Y-353119665D01*
X177879661Y-353025345D01*
X177868471Y-352923293D01*
X178074380Y-352923293D01*
X178082090Y-352993045D01*
X178104147Y-353051887D01*
X178138632Y-353101700D01*
X178179984Y-353136700D01*
X178229883Y-353160999D01*
X178294656Y-353178283D01*
X178429936Y-353185610D01*
X178803902Y-353185610D01*
X178803902Y-352660976D01*
X178456589Y-352660976D01*
X178321682Y-352668374D01*
X178236862Y-352686530D01*
X178189084Y-352708004D01*
X178149646Y-352737342D01*
X178117427Y-352775007D01*
X178093811Y-352818720D01*
X178079377Y-352867728D01*
X178074380Y-352923293D01*
X177868471Y-352923293D01*
X177868391Y-352922561D01*
X177876824Y-352837174D01*
X177901283Y-352761697D01*
X177941664Y-352694041D01*
X177996090Y-352636982D01*
X178065048Y-352591353D01*
X178151224Y-352557112D01*
X178085022Y-352517311D01*
X178033082Y-352471582D01*
X177993505Y-352419726D01*
X177964250Y-352361176D01*
X177946981Y-352300952D01*
X177943302Y-352260907D01*
X178136845Y-352260907D01*
X178146953Y-352335549D01*
X178175313Y-352393439D01*
X178221648Y-352437769D01*
X178289527Y-352469002D01*
X178356292Y-352481262D01*
X178479120Y-352486587D01*
X178803902Y-352486587D01*
X178803902Y-352027899D01*
X178503758Y-352027899D01*
X178353728Y-352034407D01*
X178275239Y-352049148D01*
X178233895Y-352067508D01*
X178200079Y-352093533D01*
X178172748Y-352127825D01*
X178146070Y-352188892D01*
X178136845Y-352260907D01*
X177943302Y-352260907D01*
X177941206Y-352238101D01*
X177947626Y-352170655D01*
X177966986Y-352104875D01*
X178000099Y-352039714D01*
X178044401Y-351981907D01*
X178098328Y-351935351D01*
X178163040Y-351899214D01*
X178233921Y-351875302D01*
X178324539Y-351859379D01*
X178439187Y-351853510D01*
X179002747Y-351853510D01*
X179002747Y-353360000D01*
G37*
G36*
X177062184Y-351839051D02*
G01*
X177175200Y-351865034D01*
X177277271Y-351907210D01*
X177370043Y-351965702D01*
X177454674Y-352041546D01*
X177524399Y-352128753D01*
X177579666Y-352228742D01*
X177620575Y-352343387D01*
X177646364Y-352475098D01*
X177655442Y-352626721D01*
X177645839Y-352756521D01*
X177617265Y-352880992D01*
X177569438Y-353001512D01*
X177521019Y-353085881D01*
X177463037Y-353160060D01*
X177395089Y-353224941D01*
X177316372Y-353281048D01*
X177230923Y-353325460D01*
X177139909Y-353357341D01*
X177042374Y-353376797D01*
X176937185Y-353383447D01*
X176809073Y-353373051D01*
X176688035Y-353342243D01*
X176572378Y-353290757D01*
X176492912Y-353239147D01*
X176423321Y-353177019D01*
X176362844Y-353103662D01*
X176311160Y-353017907D01*
X176260651Y-352894719D01*
X176229629Y-352759294D01*
X176218928Y-352609319D01*
X176219035Y-352607762D01*
X176423817Y-352607762D01*
X176434156Y-352753579D01*
X176463002Y-352874231D01*
X176508130Y-352974121D01*
X176568806Y-353056741D01*
X176646441Y-353126073D01*
X176732570Y-353174912D01*
X176828961Y-353204643D01*
X176938192Y-353214919D01*
X177045310Y-353204814D01*
X177140590Y-353175478D01*
X177226450Y-353127123D01*
X177304557Y-353058299D01*
X177366365Y-352976191D01*
X177411741Y-352879375D01*
X177440387Y-352764995D01*
X177450553Y-352629378D01*
X177442972Y-352487251D01*
X177422111Y-352371695D01*
X177390248Y-352278339D01*
X177348840Y-352203425D01*
X177298420Y-352143945D01*
X177217916Y-352079885D01*
X177131556Y-352034953D01*
X177037947Y-352007849D01*
X176935170Y-351998590D01*
X176838277Y-352007177D01*
X176749516Y-352032360D01*
X176667174Y-352074153D01*
X176594488Y-352130843D01*
X176534276Y-352201151D01*
X176485824Y-352286827D01*
X176452262Y-352380184D01*
X176431202Y-352486445D01*
X176423817Y-352607762D01*
X176219035Y-352607762D01*
X176229124Y-352461172D01*
X176258642Y-352327615D01*
X176306580Y-352206410D01*
X176355794Y-352121785D01*
X176414319Y-352047995D01*
X176482528Y-351984072D01*
X176561203Y-351929439D01*
X176646527Y-351886267D01*
X176736853Y-351855327D01*
X176833059Y-351836486D01*
X176936177Y-351830062D01*
X177062184Y-351839051D01*
G37*
G36*
X175580263Y-353360000D02*
G01*
X175580263Y-352027899D01*
X176075221Y-352027899D01*
X176075221Y-351853510D01*
X174884537Y-351853510D01*
X174884537Y-352027899D01*
X175381511Y-352027899D01*
X175381511Y-353360000D01*
X175580263Y-353360000D01*
G37*
G36*
X174297988Y-353360000D02*
G01*
X174297988Y-352027899D01*
X174792946Y-352027899D01*
X174792946Y-351853510D01*
X173602262Y-351853510D01*
X173602262Y-352027899D01*
X174099236Y-352027899D01*
X174099236Y-353360000D01*
X174297988Y-353360000D01*
G37*
G36*
X172903217Y-351839051D02*
G01*
X173016233Y-351865034D01*
X173118304Y-351907210D01*
X173211076Y-351965702D01*
X173295707Y-352041546D01*
X173365432Y-352128753D01*
X173420699Y-352228742D01*
X173461608Y-352343387D01*
X173487396Y-352475098D01*
X173496475Y-352626721D01*
X173486872Y-352756521D01*
X173458297Y-352880992D01*
X173410471Y-353001512D01*
X173362052Y-353085881D01*
X173304070Y-353160060D01*
X173236122Y-353224941D01*
X173157405Y-353281048D01*
X173071955Y-353325460D01*
X172980942Y-353357341D01*
X172883407Y-353376797D01*
X172778218Y-353383447D01*
X172650105Y-353373051D01*
X172529068Y-353342243D01*
X172413410Y-353290757D01*
X172333945Y-353239147D01*
X172264354Y-353177019D01*
X172203877Y-353103662D01*
X172152193Y-353017907D01*
X172101684Y-352894719D01*
X172070662Y-352759294D01*
X172059960Y-352609319D01*
X172060067Y-352607762D01*
X172264850Y-352607762D01*
X172275189Y-352753579D01*
X172304035Y-352874231D01*
X172349163Y-352974121D01*
X172409838Y-353056741D01*
X172487474Y-353126073D01*
X172573603Y-353174912D01*
X172669994Y-353204643D01*
X172779225Y-353214919D01*
X172886343Y-353204814D01*
X172981623Y-353175478D01*
X173067483Y-353127123D01*
X173145589Y-353058299D01*
X173207398Y-352976191D01*
X173252774Y-352879375D01*
X173281420Y-352764995D01*
X173291586Y-352629378D01*
X173284005Y-352487251D01*
X173263144Y-352371695D01*
X173231281Y-352278339D01*
X173189873Y-352203425D01*
X173139453Y-352143945D01*
X173058949Y-352079885D01*
X172972589Y-352034953D01*
X172878980Y-352007849D01*
X172776203Y-351998590D01*
X172679310Y-352007177D01*
X172590549Y-352032360D01*
X172508207Y-352074153D01*
X172435520Y-352130843D01*
X172375309Y-352201151D01*
X172326857Y-352286827D01*
X172293294Y-352380184D01*
X172272235Y-352486445D01*
X172264850Y-352607762D01*
X172060067Y-352607762D01*
X172070157Y-352461172D01*
X172099675Y-352327615D01*
X172147613Y-352206410D01*
X172196826Y-352121785D01*
X172255352Y-352047995D01*
X172323561Y-351984072D01*
X172402236Y-351929439D01*
X172487560Y-351886267D01*
X172577885Y-351855327D01*
X172674091Y-351836486D01*
X172777210Y-351830062D01*
X172903217Y-351839051D01*
G37*
G36*
X171809642Y-353360000D02*
G01*
X171809642Y-351853510D01*
X171510506Y-351853510D01*
X171154949Y-352920637D01*
X171083233Y-353143753D01*
X171003274Y-352902136D01*
X170643596Y-351853510D01*
X170376150Y-351853510D01*
X170376150Y-353360000D01*
X170567759Y-353360000D01*
X170567759Y-352098424D01*
X171004282Y-353360000D01*
X171183617Y-353360000D01*
X171618034Y-352076900D01*
X171618034Y-353360000D01*
X171809642Y-353360000D01*
G37*
G36*
X187128798Y-357912369D02*
G01*
X186941220Y-357895882D01*
X186927619Y-357971180D01*
X186906707Y-358033349D01*
X186879304Y-358084468D01*
X186842508Y-358128831D01*
X186792923Y-358168558D01*
X186728179Y-358203628D01*
X186658514Y-358228452D01*
X186582011Y-358243768D01*
X186497553Y-358249057D01*
X186387982Y-358240157D01*
X186296785Y-358215169D01*
X186241478Y-358188481D01*
X186198972Y-358157453D01*
X186167184Y-358122204D01*
X186135129Y-358060015D01*
X186124594Y-357993152D01*
X186135002Y-357926321D01*
X186165627Y-357869412D01*
X186216284Y-357823122D01*
X186300815Y-357780478D01*
X186379698Y-357755369D01*
X186568261Y-357707021D01*
X186758800Y-357653783D01*
X186858238Y-357612957D01*
X186926098Y-357570628D01*
X186978858Y-357523922D01*
X187018614Y-357472732D01*
X187047806Y-357414994D01*
X187065382Y-357352891D01*
X187071371Y-357285245D01*
X187064247Y-357211038D01*
X187042966Y-357140373D01*
X187006891Y-357072021D01*
X186958233Y-357012189D01*
X186896066Y-356962109D01*
X186818305Y-356921445D01*
X186734210Y-356893327D01*
X186642699Y-356876020D01*
X186542615Y-356870062D01*
X186432312Y-356876446D01*
X186334700Y-356894717D01*
X186248059Y-356923918D01*
X186168104Y-356966353D01*
X186103348Y-357018962D01*
X186051871Y-357082187D01*
X186013349Y-357154376D01*
X185988742Y-357232757D01*
X185978048Y-357318767D01*
X186168649Y-357333147D01*
X186188248Y-357242184D01*
X186223159Y-357171702D01*
X186272697Y-357117450D01*
X186335922Y-357079127D01*
X186421014Y-357053860D01*
X186534464Y-357044452D01*
X186653516Y-357053334D01*
X186738295Y-357076559D01*
X186797330Y-357110580D01*
X186844199Y-357159170D01*
X186870862Y-357211644D01*
X186879762Y-357270040D01*
X186873110Y-357321412D01*
X186853819Y-357365209D01*
X186821327Y-357403306D01*
X186777340Y-357431505D01*
X186685987Y-357466965D01*
X186521641Y-357510467D01*
X186299088Y-357567206D01*
X186189166Y-357606271D01*
X186106026Y-357652428D01*
X186042515Y-357703553D01*
X185995542Y-357759595D01*
X185961060Y-357823919D01*
X185940163Y-357894638D01*
X185932985Y-357973368D01*
X185940532Y-358051385D01*
X185963160Y-358126339D01*
X186001679Y-358199507D01*
X186053142Y-358264025D01*
X186118236Y-358318913D01*
X186198874Y-358364554D01*
X186286379Y-358396757D01*
X186382404Y-358416599D01*
X186488394Y-358423447D01*
X186623564Y-358416069D01*
X186736317Y-358395531D01*
X186830120Y-358363729D01*
X186916210Y-358316594D01*
X186987716Y-358256930D01*
X187046275Y-358183936D01*
X187090062Y-358100947D01*
X187117568Y-358010987D01*
X187128798Y-357912369D01*
G37*
G36*
X185669844Y-358400000D02*
G01*
X185669844Y-356893510D01*
X185471000Y-356893510D01*
X185471000Y-357641534D01*
X184725082Y-356893510D01*
X184455621Y-356893510D01*
X185085768Y-357504147D01*
X184427961Y-358400000D01*
X184690278Y-358400000D01*
X185225078Y-357637412D01*
X185471000Y-357878297D01*
X185471000Y-358400000D01*
X185669844Y-358400000D01*
G37*
G36*
X184357436Y-357948639D02*
G01*
X184357436Y-357761060D01*
X183790762Y-357761060D01*
X183790762Y-357948639D01*
X184357436Y-357948639D01*
G37*
G36*
X182668588Y-358225610D02*
G01*
X182668588Y-358400000D01*
X183661435Y-358400000D01*
X183657092Y-358334696D01*
X183639911Y-358272138D01*
X183591949Y-358173891D01*
X183518553Y-358072745D01*
X183423499Y-357973552D01*
X183277211Y-357845690D01*
X183115130Y-357705475D01*
X183009535Y-357601458D01*
X182946292Y-357526038D01*
X182896166Y-357444216D01*
X182868773Y-357370613D01*
X182860197Y-357303013D01*
X182869045Y-357232931D01*
X182894895Y-357171775D01*
X182938599Y-357117267D01*
X182994885Y-357075845D01*
X183061981Y-357050460D01*
X183142938Y-357041521D01*
X183228442Y-357051078D01*
X183298358Y-357078091D01*
X183356162Y-357122029D01*
X183399424Y-357180253D01*
X183426760Y-357253145D01*
X183437037Y-357344870D01*
X183626631Y-357325270D01*
X183608855Y-357219615D01*
X183577953Y-357132028D01*
X183535032Y-357059468D01*
X183480085Y-356999664D01*
X183413864Y-356952218D01*
X183336435Y-356917379D01*
X183245679Y-356895420D01*
X183138908Y-356887648D01*
X183031500Y-356895969D01*
X182940446Y-356919491D01*
X182862886Y-356956920D01*
X182796632Y-357008182D01*
X182741207Y-357072420D01*
X182702288Y-357142630D01*
X182678709Y-357220120D01*
X182670603Y-357306769D01*
X182679724Y-357396078D01*
X182707514Y-357484913D01*
X182754137Y-357571077D01*
X182829972Y-357669286D01*
X182931774Y-357772733D01*
X183114270Y-357934900D01*
X183264686Y-358065210D01*
X183327494Y-358125135D01*
X183371210Y-358176166D01*
X183405255Y-358225610D01*
X182668588Y-358225610D01*
G37*
G36*
X182034415Y-356894962D02*
G01*
X182117521Y-356916039D01*
X182191757Y-356950245D01*
X182258522Y-356997852D01*
X182318710Y-357060022D01*
X182371236Y-357138666D01*
X182415078Y-357237203D01*
X182449131Y-357359492D01*
X182471507Y-357510062D01*
X182479636Y-357694016D01*
X182472215Y-357858846D01*
X182451862Y-357992607D01*
X182421008Y-358100211D01*
X182381421Y-358185999D01*
X182334097Y-358253637D01*
X182255527Y-358328302D01*
X182168059Y-358380656D01*
X182069832Y-358412454D01*
X181958025Y-358423447D01*
X181869670Y-358416026D01*
X181789593Y-358394395D01*
X181716224Y-358358784D01*
X181650928Y-358309934D01*
X181595263Y-358248341D01*
X181548704Y-358172396D01*
X181514942Y-358089416D01*
X181494598Y-358001950D01*
X181488450Y-357918963D01*
X181676290Y-357918963D01*
X181686541Y-358023908D01*
X181715049Y-358107860D01*
X181760279Y-358175327D01*
X181821199Y-358228524D01*
X181887353Y-358259242D01*
X181961139Y-358269574D01*
X182038550Y-358258377D01*
X182113821Y-358223961D01*
X182158073Y-358189562D01*
X182195712Y-358145764D01*
X182227028Y-358091246D01*
X182257410Y-358001922D01*
X182267511Y-357908705D01*
X182257208Y-357815208D01*
X182227997Y-357738002D01*
X182180408Y-357673499D01*
X182117723Y-357623392D01*
X182047860Y-357593831D01*
X181968283Y-357583740D01*
X181888180Y-357593947D01*
X181819447Y-357623589D01*
X181759272Y-357673499D01*
X181714539Y-357737898D01*
X181686405Y-357818240D01*
X181676290Y-357918963D01*
X181488450Y-357918963D01*
X181487704Y-357908888D01*
X181496393Y-357802531D01*
X181521270Y-357709984D01*
X181561454Y-357628808D01*
X181617306Y-357557178D01*
X181686534Y-357496924D01*
X181761003Y-357454936D01*
X181841995Y-357429695D01*
X181931372Y-357421074D01*
X182000615Y-357426518D01*
X182067673Y-357442805D01*
X182133330Y-357470259D01*
X182193253Y-357508056D01*
X182247394Y-357557720D01*
X182296179Y-357620651D01*
X182288273Y-357470477D01*
X182269910Y-357357789D01*
X182243972Y-357275078D01*
X182204838Y-357198163D01*
X182159031Y-357137394D01*
X182106585Y-357090430D01*
X182060150Y-357063412D01*
X182009014Y-357047113D01*
X181951888Y-357041521D01*
X181882087Y-357050304D01*
X181821363Y-357075930D01*
X181767424Y-357119190D01*
X181729831Y-357177098D01*
X181697723Y-357274528D01*
X181514357Y-357260240D01*
X181532166Y-357174695D01*
X181560938Y-357101802D01*
X181600152Y-357039599D01*
X181650095Y-356986658D01*
X181709197Y-356944213D01*
X181776266Y-356913458D01*
X181852775Y-356894337D01*
X181940622Y-356887648D01*
X182034415Y-356894962D01*
G37*
G36*
X180921220Y-356898089D02*
G01*
X181010797Y-356927793D01*
X181087177Y-356975942D01*
X181151385Y-357040608D01*
X181205787Y-357123130D01*
X181250117Y-357226718D01*
X181278636Y-357336624D01*
X181297802Y-357477638D01*
X181304889Y-357656097D01*
X181297285Y-357835729D01*
X181276429Y-357981775D01*
X181244843Y-358099435D01*
X181204421Y-358193342D01*
X181156328Y-358267467D01*
X181088795Y-358335469D01*
X181010955Y-358383554D01*
X180920758Y-358413106D01*
X180815060Y-358423447D01*
X180708254Y-358412934D01*
X180618399Y-358383063D01*
X180542027Y-358334695D01*
X180477838Y-358269685D01*
X180423622Y-358186966D01*
X180379636Y-358083369D01*
X180351321Y-357973444D01*
X180332331Y-357833055D01*
X180325322Y-357656097D01*
X180325347Y-357655547D01*
X180514824Y-357655547D01*
X180522417Y-357852125D01*
X180541965Y-357990976D01*
X180569318Y-358085397D01*
X180601469Y-358146750D01*
X180649624Y-358202699D01*
X180700566Y-358240242D01*
X180755168Y-358262183D01*
X180815060Y-358269574D01*
X180875031Y-358262205D01*
X180929676Y-358240343D01*
X180980621Y-358202960D01*
X181028742Y-358147300D01*
X181060818Y-358086207D01*
X181088144Y-357991878D01*
X181107695Y-357852814D01*
X181115295Y-357655547D01*
X181107220Y-357460094D01*
X181086151Y-357317899D01*
X181056124Y-357217478D01*
X181020040Y-357148957D01*
X180977962Y-357101086D01*
X180930932Y-357068131D01*
X180877932Y-357048341D01*
X180817166Y-357041521D01*
X180756114Y-357048916D01*
X180700793Y-357070790D01*
X180649544Y-357108054D01*
X180601469Y-357163337D01*
X180569393Y-357224182D01*
X180542038Y-357318413D01*
X180522446Y-357457659D01*
X180514824Y-357655547D01*
X180325347Y-357655547D01*
X180334907Y-357443932D01*
X180359119Y-357300632D01*
X180400643Y-357175636D01*
X180452359Y-357076967D01*
X180496059Y-357019920D01*
X180546114Y-356973361D01*
X180603026Y-356936374D01*
X180665484Y-356909824D01*
X180735673Y-356893373D01*
X180815060Y-356887648D01*
X180921220Y-356898089D01*
G37*
G36*
X179443667Y-358400000D02*
G01*
X179628131Y-358400000D01*
X179628131Y-357221589D01*
X179701533Y-357282660D01*
X179802795Y-357348992D01*
X179909362Y-357406654D01*
X179996968Y-357444521D01*
X179996968Y-357268667D01*
X179896644Y-357215296D01*
X179806761Y-357155932D01*
X179726500Y-357090614D01*
X179652866Y-357017232D01*
X179599312Y-356949865D01*
X179562552Y-356887648D01*
X179443667Y-356887648D01*
X179443667Y-358400000D01*
G37*
G36*
X178992397Y-357948639D02*
G01*
X178992397Y-357761060D01*
X178425723Y-357761060D01*
X178425723Y-357948639D01*
X178992397Y-357948639D01*
G37*
G36*
X178272858Y-358001395D02*
G01*
X178079234Y-357985000D01*
X178057016Y-358076151D01*
X178023352Y-358145781D01*
X177979309Y-358198224D01*
X177923591Y-358237792D01*
X177861264Y-358261450D01*
X177790265Y-358269574D01*
X177725823Y-358263199D01*
X177667636Y-358244545D01*
X177614297Y-358213488D01*
X177564859Y-358168824D01*
X177525531Y-358116060D01*
X177496881Y-358055045D01*
X177478945Y-357984219D01*
X177472627Y-357901561D01*
X177478754Y-357822962D01*
X177496062Y-357756470D01*
X177523588Y-357699955D01*
X177561287Y-357651792D01*
X177625397Y-357601551D01*
X177701549Y-357571007D01*
X177793287Y-357560293D01*
X177878875Y-357570790D01*
X177954213Y-357601509D01*
X178018692Y-357649204D01*
X178066870Y-357708304D01*
X178240068Y-357685772D01*
X178094530Y-356911095D01*
X177347605Y-356911095D01*
X177347605Y-357085484D01*
X177946977Y-357085484D01*
X178027943Y-357494164D01*
X177934203Y-357439580D01*
X177840204Y-357408029D01*
X177744103Y-357397627D01*
X177648297Y-357406423D01*
X177562270Y-357432036D01*
X177484031Y-357474316D01*
X177412177Y-357534464D01*
X177353594Y-357606846D01*
X177311696Y-357688330D01*
X177285884Y-357780692D01*
X177276897Y-357886357D01*
X177284634Y-357987228D01*
X177307156Y-358078826D01*
X177344057Y-358162753D01*
X177395782Y-358240265D01*
X177457922Y-358306334D01*
X177527210Y-358356899D01*
X177604600Y-358393239D01*
X177691620Y-358415655D01*
X177790265Y-358423447D01*
X177891724Y-358415633D01*
X177979896Y-358393311D01*
X178057026Y-358357416D01*
X178124847Y-358307859D01*
X178182176Y-358246047D01*
X178225704Y-358175396D01*
X178256058Y-358094507D01*
X178272858Y-358001395D01*
G37*
G36*
X176411636Y-358400000D02*
G01*
X176596100Y-358400000D01*
X176596100Y-357221589D01*
X176669502Y-357282660D01*
X176770764Y-357348992D01*
X176877332Y-357406654D01*
X176964938Y-357444521D01*
X176964938Y-357268667D01*
X176864614Y-357215296D01*
X176774730Y-357155932D01*
X176694469Y-357090614D01*
X176620835Y-357017232D01*
X176567282Y-356949865D01*
X176530521Y-356887648D01*
X176411636Y-356887648D01*
X176411636Y-358400000D01*
G37*
G36*
X184783700Y-360920000D02*
G01*
X184584856Y-360920000D01*
X184584856Y-360244424D01*
X184354321Y-360244424D01*
X184243679Y-360251659D01*
X184198613Y-360267221D01*
X184153004Y-360292143D01*
X184109102Y-360328478D01*
X184052071Y-360393900D01*
X183908639Y-360603461D01*
X183709795Y-360920000D01*
X183459843Y-360920000D01*
X183721060Y-360506283D01*
X183803352Y-360392531D01*
X183886108Y-360304050D01*
X183932921Y-360268796D01*
X184005909Y-360228395D01*
X183897355Y-360206613D01*
X183810172Y-360175499D01*
X183740772Y-360136363D01*
X183686256Y-360089726D01*
X183641042Y-360032122D01*
X183609005Y-359969033D01*
X183589484Y-359899327D01*
X183583011Y-359824387D01*
X183787739Y-359824387D01*
X183797682Y-359893862D01*
X183827672Y-359958293D01*
X183857901Y-359995173D01*
X183896381Y-360024966D01*
X183944451Y-360047961D01*
X184029006Y-360067934D01*
X184157583Y-360075896D01*
X184584856Y-360075896D01*
X184584856Y-359582037D01*
X184109407Y-359582037D01*
X183999843Y-359591058D01*
X183920950Y-359614851D01*
X183865133Y-359650273D01*
X183822058Y-359700068D01*
X183796533Y-359757284D01*
X183787739Y-359824387D01*
X183583011Y-359824387D01*
X183582758Y-359821456D01*
X183589818Y-359740981D01*
X183610627Y-359666312D01*
X183645315Y-359596142D01*
X183692393Y-359534169D01*
X183747716Y-359487247D01*
X183812285Y-359453810D01*
X183883517Y-359433287D01*
X183982837Y-359418970D01*
X184117650Y-359413510D01*
X184783700Y-359413510D01*
X184783700Y-360920000D01*
G37*
G36*
X183267410Y-360920000D02*
G01*
X183267410Y-359413510D01*
X182181231Y-359413510D01*
X182181231Y-359587899D01*
X183068566Y-359587899D01*
X183068566Y-360052449D01*
X182237560Y-360052449D01*
X182237560Y-360226838D01*
X183068566Y-360226838D01*
X183068566Y-360745610D01*
X182146335Y-360745610D01*
X182146335Y-360920000D01*
X183267410Y-360920000D01*
G37*
G36*
X181442641Y-360920000D02*
G01*
X182024611Y-359413510D01*
X181809463Y-359413510D01*
X181419011Y-360508298D01*
X181340151Y-360755044D01*
X181259184Y-360508298D01*
X180853436Y-359413510D01*
X180650561Y-359413510D01*
X181238668Y-360920000D01*
X181442641Y-360920000D01*
G37*
G36*
X180683534Y-360468639D02*
G01*
X180683534Y-360281060D01*
X180116860Y-360281060D01*
X180116860Y-360468639D01*
X180683534Y-360468639D01*
G37*
G36*
X179269277Y-360920000D02*
G01*
X179453741Y-360920000D01*
X179453741Y-359741589D01*
X179527143Y-359802660D01*
X179628405Y-359868992D01*
X179734972Y-359926654D01*
X179822578Y-359964521D01*
X179822578Y-359788667D01*
X179722254Y-359735296D01*
X179632371Y-359675932D01*
X179552110Y-359610614D01*
X179478476Y-359537232D01*
X179424922Y-359469865D01*
X179388162Y-359407648D01*
X179269277Y-359407648D01*
X179269277Y-360920000D01*
G37*
X255859580Y-289057142D02*
X255907200Y-289009523D01*
X255907200Y-289009523D02*
X255954819Y-288866666D01*
X255954819Y-288866666D02*
X255954819Y-288771428D01*
X255954819Y-288771428D02*
X255907200Y-288628571D01*
X255907200Y-288628571D02*
X255811961Y-288533333D01*
X255811961Y-288533333D02*
X255716723Y-288485714D01*
X255716723Y-288485714D02*
X255526247Y-288438095D01*
X255526247Y-288438095D02*
X255383390Y-288438095D01*
X255383390Y-288438095D02*
X255192914Y-288485714D01*
X255192914Y-288485714D02*
X255097676Y-288533333D01*
X255097676Y-288533333D02*
X255002438Y-288628571D01*
X255002438Y-288628571D02*
X254954819Y-288771428D01*
X254954819Y-288771428D02*
X254954819Y-288866666D01*
X254954819Y-288866666D02*
X255002438Y-289009523D01*
X255002438Y-289009523D02*
X255050057Y-289057142D01*
X254954819Y-289390476D02*
X254954819Y-290009523D01*
X254954819Y-290009523D02*
X255335771Y-289676190D01*
X255335771Y-289676190D02*
X255335771Y-289819047D01*
X255335771Y-289819047D02*
X255383390Y-289914285D01*
X255383390Y-289914285D02*
X255431009Y-289961904D01*
X255431009Y-289961904D02*
X255526247Y-290009523D01*
X255526247Y-290009523D02*
X255764342Y-290009523D01*
X255764342Y-290009523D02*
X255859580Y-289961904D01*
X255859580Y-289961904D02*
X255907200Y-289914285D01*
X255907200Y-289914285D02*
X255954819Y-289819047D01*
X255954819Y-289819047D02*
X255954819Y-289533333D01*
X255954819Y-289533333D02*
X255907200Y-289438095D01*
X255907200Y-289438095D02*
X255859580Y-289390476D01*
X255288152Y-290866666D02*
X255954819Y-290866666D01*
X254907200Y-290628571D02*
X255621485Y-290390476D01*
X255621485Y-290390476D02*
X255621485Y-291009523D01*
X258659580Y-289057142D02*
X258707200Y-289009523D01*
X258707200Y-289009523D02*
X258754819Y-288866666D01*
X258754819Y-288866666D02*
X258754819Y-288771428D01*
X258754819Y-288771428D02*
X258707200Y-288628571D01*
X258707200Y-288628571D02*
X258611961Y-288533333D01*
X258611961Y-288533333D02*
X258516723Y-288485714D01*
X258516723Y-288485714D02*
X258326247Y-288438095D01*
X258326247Y-288438095D02*
X258183390Y-288438095D01*
X258183390Y-288438095D02*
X257992914Y-288485714D01*
X257992914Y-288485714D02*
X257897676Y-288533333D01*
X257897676Y-288533333D02*
X257802438Y-288628571D01*
X257802438Y-288628571D02*
X257754819Y-288771428D01*
X257754819Y-288771428D02*
X257754819Y-288866666D01*
X257754819Y-288866666D02*
X257802438Y-289009523D01*
X257802438Y-289009523D02*
X257850057Y-289057142D01*
X257754819Y-289390476D02*
X257754819Y-290009523D01*
X257754819Y-290009523D02*
X258135771Y-289676190D01*
X258135771Y-289676190D02*
X258135771Y-289819047D01*
X258135771Y-289819047D02*
X258183390Y-289914285D01*
X258183390Y-289914285D02*
X258231009Y-289961904D01*
X258231009Y-289961904D02*
X258326247Y-290009523D01*
X258326247Y-290009523D02*
X258564342Y-290009523D01*
X258564342Y-290009523D02*
X258659580Y-289961904D01*
X258659580Y-289961904D02*
X258707200Y-289914285D01*
X258707200Y-289914285D02*
X258754819Y-289819047D01*
X258754819Y-289819047D02*
X258754819Y-289533333D01*
X258754819Y-289533333D02*
X258707200Y-289438095D01*
X258707200Y-289438095D02*
X258659580Y-289390476D01*
X257754819Y-290866666D02*
X257754819Y-290676190D01*
X257754819Y-290676190D02*
X257802438Y-290580952D01*
X257802438Y-290580952D02*
X257850057Y-290533333D01*
X257850057Y-290533333D02*
X257992914Y-290438095D01*
X257992914Y-290438095D02*
X258183390Y-290390476D01*
X258183390Y-290390476D02*
X258564342Y-290390476D01*
X258564342Y-290390476D02*
X258659580Y-290438095D01*
X258659580Y-290438095D02*
X258707200Y-290485714D01*
X258707200Y-290485714D02*
X258754819Y-290580952D01*
X258754819Y-290580952D02*
X258754819Y-290771428D01*
X258754819Y-290771428D02*
X258707200Y-290866666D01*
X258707200Y-290866666D02*
X258659580Y-290914285D01*
X258659580Y-290914285D02*
X258564342Y-290961904D01*
X258564342Y-290961904D02*
X258326247Y-290961904D01*
X258326247Y-290961904D02*
X258231009Y-290914285D01*
X258231009Y-290914285D02*
X258183390Y-290866666D01*
X258183390Y-290866666D02*
X258135771Y-290771428D01*
X258135771Y-290771428D02*
X258135771Y-290580952D01*
X258135771Y-290580952D02*
X258183390Y-290485714D01*
X258183390Y-290485714D02*
X258231009Y-290438095D01*
X258231009Y-290438095D02*
X258326247Y-290390476D01*
X255759580Y-272257142D02*
X255807200Y-272209523D01*
X255807200Y-272209523D02*
X255854819Y-272066666D01*
X255854819Y-272066666D02*
X255854819Y-271971428D01*
X255854819Y-271971428D02*
X255807200Y-271828571D01*
X255807200Y-271828571D02*
X255711961Y-271733333D01*
X255711961Y-271733333D02*
X255616723Y-271685714D01*
X255616723Y-271685714D02*
X255426247Y-271638095D01*
X255426247Y-271638095D02*
X255283390Y-271638095D01*
X255283390Y-271638095D02*
X255092914Y-271685714D01*
X255092914Y-271685714D02*
X254997676Y-271733333D01*
X254997676Y-271733333D02*
X254902438Y-271828571D01*
X254902438Y-271828571D02*
X254854819Y-271971428D01*
X254854819Y-271971428D02*
X254854819Y-272066666D01*
X254854819Y-272066666D02*
X254902438Y-272209523D01*
X254902438Y-272209523D02*
X254950057Y-272257142D01*
X254854819Y-272590476D02*
X254854819Y-273209523D01*
X254854819Y-273209523D02*
X255235771Y-272876190D01*
X255235771Y-272876190D02*
X255235771Y-273019047D01*
X255235771Y-273019047D02*
X255283390Y-273114285D01*
X255283390Y-273114285D02*
X255331009Y-273161904D01*
X255331009Y-273161904D02*
X255426247Y-273209523D01*
X255426247Y-273209523D02*
X255664342Y-273209523D01*
X255664342Y-273209523D02*
X255759580Y-273161904D01*
X255759580Y-273161904D02*
X255807200Y-273114285D01*
X255807200Y-273114285D02*
X255854819Y-273019047D01*
X255854819Y-273019047D02*
X255854819Y-272733333D01*
X255854819Y-272733333D02*
X255807200Y-272638095D01*
X255807200Y-272638095D02*
X255759580Y-272590476D01*
X254854819Y-274114285D02*
X254854819Y-273638095D01*
X254854819Y-273638095D02*
X255331009Y-273590476D01*
X255331009Y-273590476D02*
X255283390Y-273638095D01*
X255283390Y-273638095D02*
X255235771Y-273733333D01*
X255235771Y-273733333D02*
X255235771Y-273971428D01*
X255235771Y-273971428D02*
X255283390Y-274066666D01*
X255283390Y-274066666D02*
X255331009Y-274114285D01*
X255331009Y-274114285D02*
X255426247Y-274161904D01*
X255426247Y-274161904D02*
X255664342Y-274161904D01*
X255664342Y-274161904D02*
X255759580Y-274114285D01*
X255759580Y-274114285D02*
X255807200Y-274066666D01*
X255807200Y-274066666D02*
X255854819Y-273971428D01*
X255854819Y-273971428D02*
X255854819Y-273733333D01*
X255854819Y-273733333D02*
X255807200Y-273638095D01*
X255807200Y-273638095D02*
X255759580Y-273590476D01*
X149442857Y-299759580D02*
X149490476Y-299807200D01*
X149490476Y-299807200D02*
X149633333Y-299854819D01*
X149633333Y-299854819D02*
X149728571Y-299854819D01*
X149728571Y-299854819D02*
X149871428Y-299807200D01*
X149871428Y-299807200D02*
X149966666Y-299711961D01*
X149966666Y-299711961D02*
X150014285Y-299616723D01*
X150014285Y-299616723D02*
X150061904Y-299426247D01*
X150061904Y-299426247D02*
X150061904Y-299283390D01*
X150061904Y-299283390D02*
X150014285Y-299092914D01*
X150014285Y-299092914D02*
X149966666Y-298997676D01*
X149966666Y-298997676D02*
X149871428Y-298902438D01*
X149871428Y-298902438D02*
X149728571Y-298854819D01*
X149728571Y-298854819D02*
X149633333Y-298854819D01*
X149633333Y-298854819D02*
X149490476Y-298902438D01*
X149490476Y-298902438D02*
X149442857Y-298950057D01*
X148490476Y-299854819D02*
X149061904Y-299854819D01*
X148776190Y-299854819D02*
X148776190Y-298854819D01*
X148776190Y-298854819D02*
X148871428Y-298997676D01*
X148871428Y-298997676D02*
X148966666Y-299092914D01*
X148966666Y-299092914D02*
X149061904Y-299140533D01*
X147538095Y-299854819D02*
X148109523Y-299854819D01*
X147823809Y-299854819D02*
X147823809Y-298854819D01*
X147823809Y-298854819D02*
X147919047Y-298997676D01*
X147919047Y-298997676D02*
X148014285Y-299092914D01*
X148014285Y-299092914D02*
X148109523Y-299140533D01*
X260239580Y-275307142D02*
X260287200Y-275259523D01*
X260287200Y-275259523D02*
X260334819Y-275116666D01*
X260334819Y-275116666D02*
X260334819Y-275021428D01*
X260334819Y-275021428D02*
X260287200Y-274878571D01*
X260287200Y-274878571D02*
X260191961Y-274783333D01*
X260191961Y-274783333D02*
X260096723Y-274735714D01*
X260096723Y-274735714D02*
X259906247Y-274688095D01*
X259906247Y-274688095D02*
X259763390Y-274688095D01*
X259763390Y-274688095D02*
X259572914Y-274735714D01*
X259572914Y-274735714D02*
X259477676Y-274783333D01*
X259477676Y-274783333D02*
X259382438Y-274878571D01*
X259382438Y-274878571D02*
X259334819Y-275021428D01*
X259334819Y-275021428D02*
X259334819Y-275116666D01*
X259334819Y-275116666D02*
X259382438Y-275259523D01*
X259382438Y-275259523D02*
X259430057Y-275307142D01*
X259334819Y-275640476D02*
X259334819Y-276259523D01*
X259334819Y-276259523D02*
X259715771Y-275926190D01*
X259715771Y-275926190D02*
X259715771Y-276069047D01*
X259715771Y-276069047D02*
X259763390Y-276164285D01*
X259763390Y-276164285D02*
X259811009Y-276211904D01*
X259811009Y-276211904D02*
X259906247Y-276259523D01*
X259906247Y-276259523D02*
X260144342Y-276259523D01*
X260144342Y-276259523D02*
X260239580Y-276211904D01*
X260239580Y-276211904D02*
X260287200Y-276164285D01*
X260287200Y-276164285D02*
X260334819Y-276069047D01*
X260334819Y-276069047D02*
X260334819Y-275783333D01*
X260334819Y-275783333D02*
X260287200Y-275688095D01*
X260287200Y-275688095D02*
X260239580Y-275640476D01*
X259334819Y-276592857D02*
X259334819Y-277259523D01*
X259334819Y-277259523D02*
X260334819Y-276830952D01*
X128079580Y-314283333D02*
X128127200Y-314235714D01*
X128127200Y-314235714D02*
X128174819Y-314092857D01*
X128174819Y-314092857D02*
X128174819Y-313997619D01*
X128174819Y-313997619D02*
X128127200Y-313854762D01*
X128127200Y-313854762D02*
X128031961Y-313759524D01*
X128031961Y-313759524D02*
X127936723Y-313711905D01*
X127936723Y-313711905D02*
X127746247Y-313664286D01*
X127746247Y-313664286D02*
X127603390Y-313664286D01*
X127603390Y-313664286D02*
X127412914Y-313711905D01*
X127412914Y-313711905D02*
X127317676Y-313759524D01*
X127317676Y-313759524D02*
X127222438Y-313854762D01*
X127222438Y-313854762D02*
X127174819Y-313997619D01*
X127174819Y-313997619D02*
X127174819Y-314092857D01*
X127174819Y-314092857D02*
X127222438Y-314235714D01*
X127222438Y-314235714D02*
X127270057Y-314283333D01*
X128174819Y-315235714D02*
X128174819Y-314664286D01*
X128174819Y-314950000D02*
X127174819Y-314950000D01*
X127174819Y-314950000D02*
X127317676Y-314854762D01*
X127317676Y-314854762D02*
X127412914Y-314759524D01*
X127412914Y-314759524D02*
X127460533Y-314664286D01*
X271592857Y-307479580D02*
X271640476Y-307527200D01*
X271640476Y-307527200D02*
X271783333Y-307574819D01*
X271783333Y-307574819D02*
X271878571Y-307574819D01*
X271878571Y-307574819D02*
X272021428Y-307527200D01*
X272021428Y-307527200D02*
X272116666Y-307431961D01*
X272116666Y-307431961D02*
X272164285Y-307336723D01*
X272164285Y-307336723D02*
X272211904Y-307146247D01*
X272211904Y-307146247D02*
X272211904Y-307003390D01*
X272211904Y-307003390D02*
X272164285Y-306812914D01*
X272164285Y-306812914D02*
X272116666Y-306717676D01*
X272116666Y-306717676D02*
X272021428Y-306622438D01*
X272021428Y-306622438D02*
X271878571Y-306574819D01*
X271878571Y-306574819D02*
X271783333Y-306574819D01*
X271783333Y-306574819D02*
X271640476Y-306622438D01*
X271640476Y-306622438D02*
X271592857Y-306670057D01*
X270735714Y-306908152D02*
X270735714Y-307574819D01*
X270973809Y-306527200D02*
X271211904Y-307241485D01*
X271211904Y-307241485D02*
X270592857Y-307241485D01*
X269783333Y-306574819D02*
X269973809Y-306574819D01*
X269973809Y-306574819D02*
X270069047Y-306622438D01*
X270069047Y-306622438D02*
X270116666Y-306670057D01*
X270116666Y-306670057D02*
X270211904Y-306812914D01*
X270211904Y-306812914D02*
X270259523Y-307003390D01*
X270259523Y-307003390D02*
X270259523Y-307384342D01*
X270259523Y-307384342D02*
X270211904Y-307479580D01*
X270211904Y-307479580D02*
X270164285Y-307527200D01*
X270164285Y-307527200D02*
X270069047Y-307574819D01*
X270069047Y-307574819D02*
X269878571Y-307574819D01*
X269878571Y-307574819D02*
X269783333Y-307527200D01*
X269783333Y-307527200D02*
X269735714Y-307479580D01*
X269735714Y-307479580D02*
X269688095Y-307384342D01*
X269688095Y-307384342D02*
X269688095Y-307146247D01*
X269688095Y-307146247D02*
X269735714Y-307051009D01*
X269735714Y-307051009D02*
X269783333Y-307003390D01*
X269783333Y-307003390D02*
X269878571Y-306955771D01*
X269878571Y-306955771D02*
X270069047Y-306955771D01*
X270069047Y-306955771D02*
X270164285Y-307003390D01*
X270164285Y-307003390D02*
X270211904Y-307051009D01*
X270211904Y-307051009D02*
X270259523Y-307146247D01*
X253129580Y-307607142D02*
X253177200Y-307559523D01*
X253177200Y-307559523D02*
X253224819Y-307416666D01*
X253224819Y-307416666D02*
X253224819Y-307321428D01*
X253224819Y-307321428D02*
X253177200Y-307178571D01*
X253177200Y-307178571D02*
X253081961Y-307083333D01*
X253081961Y-307083333D02*
X252986723Y-307035714D01*
X252986723Y-307035714D02*
X252796247Y-306988095D01*
X252796247Y-306988095D02*
X252653390Y-306988095D01*
X252653390Y-306988095D02*
X252462914Y-307035714D01*
X252462914Y-307035714D02*
X252367676Y-307083333D01*
X252367676Y-307083333D02*
X252272438Y-307178571D01*
X252272438Y-307178571D02*
X252224819Y-307321428D01*
X252224819Y-307321428D02*
X252224819Y-307416666D01*
X252224819Y-307416666D02*
X252272438Y-307559523D01*
X252272438Y-307559523D02*
X252320057Y-307607142D01*
X252224819Y-307940476D02*
X252224819Y-308559523D01*
X252224819Y-308559523D02*
X252605771Y-308226190D01*
X252605771Y-308226190D02*
X252605771Y-308369047D01*
X252605771Y-308369047D02*
X252653390Y-308464285D01*
X252653390Y-308464285D02*
X252701009Y-308511904D01*
X252701009Y-308511904D02*
X252796247Y-308559523D01*
X252796247Y-308559523D02*
X253034342Y-308559523D01*
X253034342Y-308559523D02*
X253129580Y-308511904D01*
X253129580Y-308511904D02*
X253177200Y-308464285D01*
X253177200Y-308464285D02*
X253224819Y-308369047D01*
X253224819Y-308369047D02*
X253224819Y-308083333D01*
X253224819Y-308083333D02*
X253177200Y-307988095D01*
X253177200Y-307988095D02*
X253129580Y-307940476D01*
X253224819Y-309035714D02*
X253224819Y-309226190D01*
X253224819Y-309226190D02*
X253177200Y-309321428D01*
X253177200Y-309321428D02*
X253129580Y-309369047D01*
X253129580Y-309369047D02*
X252986723Y-309464285D01*
X252986723Y-309464285D02*
X252796247Y-309511904D01*
X252796247Y-309511904D02*
X252415295Y-309511904D01*
X252415295Y-309511904D02*
X252320057Y-309464285D01*
X252320057Y-309464285D02*
X252272438Y-309416666D01*
X252272438Y-309416666D02*
X252224819Y-309321428D01*
X252224819Y-309321428D02*
X252224819Y-309130952D01*
X252224819Y-309130952D02*
X252272438Y-309035714D01*
X252272438Y-309035714D02*
X252320057Y-308988095D01*
X252320057Y-308988095D02*
X252415295Y-308940476D01*
X252415295Y-308940476D02*
X252653390Y-308940476D01*
X252653390Y-308940476D02*
X252748628Y-308988095D01*
X252748628Y-308988095D02*
X252796247Y-309035714D01*
X252796247Y-309035714D02*
X252843866Y-309130952D01*
X252843866Y-309130952D02*
X252843866Y-309321428D01*
X252843866Y-309321428D02*
X252796247Y-309416666D01*
X252796247Y-309416666D02*
X252748628Y-309464285D01*
X252748628Y-309464285D02*
X252653390Y-309511904D01*
D11*
%TO.C,C34*%
X254715000Y-285588748D02*
X254715000Y-286111252D01*
X256185000Y-285588748D02*
X256185000Y-286111252D01*
%TO.C,C36*%
X257465000Y-285588748D02*
X257465000Y-286111252D01*
X258935000Y-285588748D02*
X258935000Y-286111252D01*
%TO.C,C35*%
X254715000Y-276211252D02*
X254715000Y-275688748D01*
X256185000Y-276211252D02*
X256185000Y-275688748D01*
%TO.C,C11*%
X152161252Y-298565000D02*
X151638748Y-298565000D01*
X152161252Y-300035000D02*
X151638748Y-300035000D01*
%TO.C,C37*%
X257465000Y-276211252D02*
X257465000Y-275688748D01*
X258935000Y-276211252D02*
X258935000Y-275688748D01*
%TO.C,C1*%
X128665000Y-314188748D02*
X128665000Y-314711252D01*
X130135000Y-314188748D02*
X130135000Y-314711252D01*
%TO.C,C46*%
X271211252Y-308065000D02*
X270688748Y-308065000D01*
X271211252Y-309535000D02*
X270688748Y-309535000D01*
%TO.C,C39*%
X253715000Y-307988748D02*
X253715000Y-308511252D01*
X255185000Y-307988748D02*
X255185000Y-308511252D01*
%TD*%
%LPC*%
D10*
G36*
X169448633Y-366872369D02*
G01*
X169636211Y-366855882D01*
X169649812Y-366931180D01*
X169670724Y-366993349D01*
X169698127Y-367044468D01*
X169734923Y-367088831D01*
X169784508Y-367128558D01*
X169849252Y-367163628D01*
X169918917Y-367188452D01*
X169995420Y-367203768D01*
X170079878Y-367209057D01*
X170189449Y-367200157D01*
X170280646Y-367175169D01*
X170335953Y-367148481D01*
X170378459Y-367117453D01*
X170410247Y-367082204D01*
X170442302Y-367020015D01*
X170452837Y-366953152D01*
X170442429Y-366886321D01*
X170411804Y-366829412D01*
X170361147Y-366783122D01*
X170276616Y-366740478D01*
X170197733Y-366715369D01*
X170009170Y-366667021D01*
X169818631Y-366613783D01*
X169719193Y-366572957D01*
X169651333Y-366530628D01*
X169598573Y-366483922D01*
X169558817Y-366432732D01*
X169529625Y-366374994D01*
X169512049Y-366312891D01*
X169506060Y-366245245D01*
X169513184Y-366171038D01*
X169534465Y-366100373D01*
X169570540Y-366032021D01*
X169619198Y-365972189D01*
X169681365Y-365922109D01*
X169759126Y-365881445D01*
X169843221Y-365853327D01*
X169934732Y-365836020D01*
X170034816Y-365830062D01*
X170145119Y-365836446D01*
X170242731Y-365854717D01*
X170329372Y-365883918D01*
X170409327Y-365926353D01*
X170474083Y-365978962D01*
X170525560Y-366042187D01*
X170564082Y-366114376D01*
X170588689Y-366192757D01*
X170599383Y-366278767D01*
X170408782Y-366293147D01*
X170389183Y-366202184D01*
X170354272Y-366131702D01*
X170304734Y-366077450D01*
X170241509Y-366039127D01*
X170156417Y-366013860D01*
X170042967Y-366004452D01*
X169923915Y-366013334D01*
X169839136Y-366036559D01*
X169780101Y-366070580D01*
X169733232Y-366119170D01*
X169706569Y-366171644D01*
X169697669Y-366230040D01*
X169704321Y-366281412D01*
X169723612Y-366325209D01*
X169756104Y-366363306D01*
X169800091Y-366391505D01*
X169891444Y-366426965D01*
X170055790Y-366470467D01*
X170278343Y-366527206D01*
X170388265Y-366566271D01*
X170471405Y-366612428D01*
X170534916Y-366663553D01*
X170581889Y-366719595D01*
X170616371Y-366783919D01*
X170637268Y-366854638D01*
X170644446Y-366933368D01*
X170636899Y-367011385D01*
X170614271Y-367086339D01*
X170575752Y-367159507D01*
X170524289Y-367224025D01*
X170459195Y-367278913D01*
X170378557Y-367324554D01*
X170291052Y-367356757D01*
X170195027Y-367376599D01*
X170089037Y-367383447D01*
X169953867Y-367376069D01*
X169841114Y-367355531D01*
X169747311Y-367323729D01*
X169661221Y-367276594D01*
X169589715Y-367216930D01*
X169531156Y-367143936D01*
X169487369Y-367060947D01*
X169459863Y-366970987D01*
X169448633Y-366872369D01*
G37*
G36*
X171677763Y-365836486D02*
G01*
X171773969Y-365855327D01*
X171864294Y-365886267D01*
X171949618Y-365929439D01*
X172028294Y-365984072D01*
X172096503Y-366047995D01*
X172155028Y-366121785D01*
X172204242Y-366206410D01*
X172252180Y-366327615D01*
X172281697Y-366461172D01*
X172291894Y-366609319D01*
X172281193Y-366759294D01*
X172250171Y-366894719D01*
X172199662Y-367017907D01*
X172147977Y-367103662D01*
X172087501Y-367177019D01*
X172017910Y-367239147D01*
X171938444Y-367290757D01*
X171822787Y-367342243D01*
X171701749Y-367373051D01*
X171573637Y-367383447D01*
X171468448Y-367376797D01*
X171370913Y-367357341D01*
X171279899Y-367325460D01*
X171194450Y-367281048D01*
X171115733Y-367224941D01*
X171047785Y-367160060D01*
X170989803Y-367085881D01*
X170941384Y-367001512D01*
X170893557Y-366880992D01*
X170864983Y-366756521D01*
X170855577Y-366629378D01*
X171060269Y-366629378D01*
X171070435Y-366764995D01*
X171099081Y-366879375D01*
X171144456Y-366976191D01*
X171206265Y-367058299D01*
X171284371Y-367127123D01*
X171370232Y-367175478D01*
X171465512Y-367204814D01*
X171572630Y-367214919D01*
X171681861Y-367204643D01*
X171778252Y-367174912D01*
X171864380Y-367126073D01*
X171942016Y-367056741D01*
X172002691Y-366974121D01*
X172047820Y-366874231D01*
X172076666Y-366753579D01*
X172087005Y-366607762D01*
X172079620Y-366486445D01*
X172058560Y-366380184D01*
X172024998Y-366286827D01*
X171976546Y-366201151D01*
X171916334Y-366130843D01*
X171843648Y-366074153D01*
X171761306Y-366032360D01*
X171672545Y-366007177D01*
X171575652Y-365998590D01*
X171472874Y-366007849D01*
X171379266Y-366034953D01*
X171292906Y-366079885D01*
X171212402Y-366143945D01*
X171161982Y-366203425D01*
X171120574Y-366278339D01*
X171088711Y-366371695D01*
X171067850Y-366487251D01*
X171060269Y-366629378D01*
X170855577Y-366629378D01*
X170855380Y-366626721D01*
X170864458Y-366475098D01*
X170890247Y-366343387D01*
X170931156Y-366228742D01*
X170986423Y-366128753D01*
X171056148Y-366041546D01*
X171140779Y-365965702D01*
X171233551Y-365907210D01*
X171335622Y-365865034D01*
X171448638Y-365839051D01*
X171574645Y-365830062D01*
X171677763Y-365836486D01*
G37*
G36*
X172540106Y-367360000D02*
G01*
X172540106Y-365853510D01*
X172738950Y-365853510D01*
X172738950Y-367185610D01*
X173478731Y-367185610D01*
X173478731Y-367360000D01*
X172540106Y-367360000D01*
G37*
G36*
X174397109Y-365859797D02*
G01*
X174499697Y-365875125D01*
X174582999Y-365900905D01*
X174656008Y-365936890D01*
X174720065Y-365983019D01*
X174791974Y-366055593D01*
X174851083Y-366140833D01*
X174897752Y-366240390D01*
X174929735Y-366346432D01*
X174949753Y-366465200D01*
X174956736Y-366598511D01*
X174951948Y-366712574D01*
X174938304Y-366813502D01*
X174916711Y-366902777D01*
X174869408Y-367027524D01*
X174814221Y-367122137D01*
X174747262Y-367201248D01*
X174677475Y-367258791D01*
X174597650Y-367301684D01*
X174498140Y-367334354D01*
X174389003Y-367353193D01*
X174256889Y-367360000D01*
X173714853Y-367360000D01*
X173714853Y-367185610D01*
X173913606Y-367185610D01*
X174234358Y-367185610D01*
X174374734Y-367177674D01*
X174467457Y-367157766D01*
X174545298Y-367123042D01*
X174602187Y-367079181D01*
X174644345Y-367028330D01*
X174681162Y-366965093D01*
X174712280Y-366887390D01*
X174733289Y-366806155D01*
X174746883Y-366709626D01*
X174751756Y-366595397D01*
X174745932Y-366473241D01*
X174729946Y-366374007D01*
X174705656Y-366294015D01*
X174674361Y-366230040D01*
X174616586Y-366151454D01*
X174554158Y-366095605D01*
X174486416Y-366058948D01*
X174431505Y-366043479D01*
X174348713Y-366032285D01*
X174229228Y-366027899D01*
X173913606Y-366027899D01*
X173913606Y-367185610D01*
X173714853Y-367185610D01*
X173714853Y-365853510D01*
X174232251Y-365853510D01*
X174397109Y-365859797D01*
G37*
G36*
X175234166Y-367360000D02*
G01*
X175234166Y-365853510D01*
X176320344Y-365853510D01*
X176320344Y-366027899D01*
X175433010Y-366027899D01*
X175433010Y-366492449D01*
X176264016Y-366492449D01*
X176264016Y-366666838D01*
X175433010Y-366666838D01*
X175433010Y-367185610D01*
X176355240Y-367185610D01*
X176355240Y-367360000D01*
X175234166Y-367360000D01*
G37*
G36*
X177433533Y-365858970D02*
G01*
X177532853Y-365873287D01*
X177604085Y-365893810D01*
X177668654Y-365927247D01*
X177723977Y-365974169D01*
X177771055Y-366036142D01*
X177805743Y-366106312D01*
X177826551Y-366180981D01*
X177833612Y-366261456D01*
X177826886Y-366339327D01*
X177807364Y-366409033D01*
X177775328Y-366472122D01*
X177730114Y-366529726D01*
X177675598Y-366576363D01*
X177606198Y-366615499D01*
X177519015Y-366646613D01*
X177410461Y-366668395D01*
X177483449Y-366708796D01*
X177530262Y-366744050D01*
X177613017Y-366832531D01*
X177695309Y-366946283D01*
X177956527Y-367360000D01*
X177706575Y-367360000D01*
X177507731Y-367043461D01*
X177364299Y-366833900D01*
X177307268Y-366768478D01*
X177263366Y-366732143D01*
X177217756Y-366707221D01*
X177172691Y-366691659D01*
X177062049Y-366684424D01*
X176831514Y-366684424D01*
X176831514Y-367360000D01*
X176632670Y-367360000D01*
X176632670Y-366515896D01*
X176831514Y-366515896D01*
X177258786Y-366515896D01*
X177387364Y-366507934D01*
X177471919Y-366487961D01*
X177519989Y-366464966D01*
X177558468Y-366435173D01*
X177588697Y-366398293D01*
X177618688Y-366333862D01*
X177628631Y-366264387D01*
X177619837Y-366197284D01*
X177594312Y-366140068D01*
X177551237Y-366090273D01*
X177495420Y-366054851D01*
X177416527Y-366031058D01*
X177306963Y-366022037D01*
X176831514Y-366022037D01*
X176831514Y-366515896D01*
X176632670Y-366515896D01*
X176632670Y-365853510D01*
X177298720Y-365853510D01*
X177433533Y-365858970D01*
G37*
G36*
X178722045Y-367360000D02*
G01*
X178722045Y-365853510D01*
X179021182Y-365853510D01*
X179376738Y-366920637D01*
X179448454Y-367143753D01*
X179528413Y-366902136D01*
X179888091Y-365853510D01*
X180155537Y-365853510D01*
X180155537Y-367360000D01*
X179963928Y-367360000D01*
X179963928Y-366098424D01*
X179527405Y-367360000D01*
X179348070Y-367360000D01*
X178913654Y-366076900D01*
X178913654Y-367360000D01*
X178722045Y-367360000D01*
G37*
G36*
X181717348Y-367360000D02*
G01*
X181490843Y-367360000D01*
X181315629Y-366902777D01*
X180687498Y-366902777D01*
X180522542Y-367360000D01*
X180311425Y-367360000D01*
X180549381Y-366738646D01*
X180744925Y-366738646D01*
X181254172Y-366738646D01*
X181097368Y-366322731D01*
X181031849Y-366141235D01*
X180990847Y-366011321D01*
X180956417Y-366154743D01*
X180909881Y-366298184D01*
X180744925Y-366738646D01*
X180549381Y-366738646D01*
X180888357Y-365853510D01*
X181102497Y-365853510D01*
X181717348Y-367360000D01*
G37*
G36*
X181808298Y-366872369D02*
G01*
X181995876Y-366855882D01*
X182009477Y-366931180D01*
X182030389Y-366993349D01*
X182057792Y-367044468D01*
X182094588Y-367088831D01*
X182144173Y-367128558D01*
X182208917Y-367163628D01*
X182278582Y-367188452D01*
X182355085Y-367203768D01*
X182439543Y-367209057D01*
X182549114Y-367200157D01*
X182640311Y-367175169D01*
X182695618Y-367148481D01*
X182738124Y-367117453D01*
X182769912Y-367082204D01*
X182801967Y-367020015D01*
X182812502Y-366953152D01*
X182802094Y-366886321D01*
X182771469Y-366829412D01*
X182720812Y-366783122D01*
X182636281Y-366740478D01*
X182557398Y-366715369D01*
X182368835Y-366667021D01*
X182178296Y-366613783D01*
X182078858Y-366572957D01*
X182010998Y-366530628D01*
X181958238Y-366483922D01*
X181918482Y-366432732D01*
X181889290Y-366374994D01*
X181871714Y-366312891D01*
X181865725Y-366245245D01*
X181872849Y-366171038D01*
X181894130Y-366100373D01*
X181930205Y-366032021D01*
X181978863Y-365972189D01*
X182041030Y-365922109D01*
X182118791Y-365881445D01*
X182202886Y-365853327D01*
X182294397Y-365836020D01*
X182394481Y-365830062D01*
X182504784Y-365836446D01*
X182602396Y-365854717D01*
X182689037Y-365883918D01*
X182768993Y-365926353D01*
X182833748Y-365978962D01*
X182885226Y-366042187D01*
X182923747Y-366114376D01*
X182948354Y-366192757D01*
X182959048Y-366278767D01*
X182768447Y-366293147D01*
X182748848Y-366202184D01*
X182713937Y-366131702D01*
X182664399Y-366077450D01*
X182601174Y-366039127D01*
X182516082Y-366013860D01*
X182402632Y-366004452D01*
X182283580Y-366013334D01*
X182198801Y-366036559D01*
X182139766Y-366070580D01*
X182092898Y-366119170D01*
X182066234Y-366171644D01*
X182057334Y-366230040D01*
X182063986Y-366281412D01*
X182083277Y-366325209D01*
X182115769Y-366363306D01*
X182159756Y-366391505D01*
X182251109Y-366426965D01*
X182415455Y-366470467D01*
X182638008Y-366527206D01*
X182747931Y-366566271D01*
X182831070Y-366612428D01*
X182894581Y-366663553D01*
X182941554Y-366719595D01*
X182976036Y-366783919D01*
X182996933Y-366854638D01*
X183004111Y-366933368D01*
X182996564Y-367011385D01*
X182973936Y-367086339D01*
X182935417Y-367159507D01*
X182883954Y-367224025D01*
X182818860Y-367278913D01*
X182738222Y-367324554D01*
X182650717Y-367356757D01*
X182554692Y-367376599D01*
X182448702Y-367383447D01*
X182313532Y-367376069D01*
X182200779Y-367355531D01*
X182106976Y-367323729D01*
X182020886Y-367276594D01*
X181949380Y-367216930D01*
X181890821Y-367143936D01*
X181847034Y-367060947D01*
X181819528Y-366970987D01*
X181808298Y-366872369D01*
G37*
G36*
X183267252Y-367360000D02*
G01*
X183267252Y-365853510D01*
X183466096Y-365853510D01*
X183466096Y-366601534D01*
X184212014Y-365853510D01*
X184481475Y-365853510D01*
X183851328Y-366464147D01*
X184509135Y-367360000D01*
X184246818Y-367360000D01*
X183712018Y-366597412D01*
X183466096Y-366838297D01*
X183466096Y-367360000D01*
X183267252Y-367360000D01*
G37*
G36*
X185928223Y-365859379D02*
G01*
X186018840Y-365875302D01*
X186089722Y-365899214D01*
X186154434Y-365935351D01*
X186208361Y-365981907D01*
X186252663Y-366039714D01*
X186285775Y-366104875D01*
X186305136Y-366170655D01*
X186311556Y-366238101D01*
X186305781Y-366300952D01*
X186288512Y-366361176D01*
X186259257Y-366419726D01*
X186219680Y-366471582D01*
X186167740Y-366517311D01*
X186101537Y-366557112D01*
X186187714Y-366591353D01*
X186256672Y-366636982D01*
X186311098Y-366694041D01*
X186351479Y-366761697D01*
X186375938Y-366837174D01*
X186384371Y-366922561D01*
X186373101Y-367025345D01*
X186339766Y-367119665D01*
X186288448Y-367202172D01*
X186229582Y-367260165D01*
X186157940Y-367302472D01*
X186065084Y-367334812D01*
X185960557Y-367353121D01*
X185822826Y-367360000D01*
X185250015Y-367360000D01*
X185250015Y-367185610D01*
X185448860Y-367185610D01*
X185822826Y-367185610D01*
X185958106Y-367178283D01*
X186022879Y-367160999D01*
X186072778Y-367136700D01*
X186114130Y-367101700D01*
X186148615Y-367051887D01*
X186170672Y-366993045D01*
X186178382Y-366923293D01*
X186173385Y-366867728D01*
X186158951Y-366818720D01*
X186135335Y-366775007D01*
X186103116Y-366737342D01*
X186063678Y-366708004D01*
X186015900Y-366686530D01*
X185931079Y-366668374D01*
X185796173Y-366660976D01*
X185448860Y-366660976D01*
X185448860Y-367185610D01*
X185250015Y-367185610D01*
X185250015Y-366486587D01*
X185448860Y-366486587D01*
X185773641Y-366486587D01*
X185896470Y-366481262D01*
X185963235Y-366469002D01*
X186031114Y-366437769D01*
X186077449Y-366393439D01*
X186105809Y-366335549D01*
X186115917Y-366260907D01*
X186106692Y-366188892D01*
X186080014Y-366127825D01*
X186052683Y-366093533D01*
X186018867Y-366067508D01*
X185977523Y-366049148D01*
X185899034Y-366034407D01*
X185749003Y-366027899D01*
X185448860Y-366027899D01*
X185448860Y-366486587D01*
X185250015Y-366486587D01*
X185250015Y-365853510D01*
X185813575Y-365853510D01*
X185928223Y-365859379D01*
G37*
G36*
X187419703Y-365836486D02*
G01*
X187515909Y-365855327D01*
X187606234Y-365886267D01*
X187691558Y-365929439D01*
X187770234Y-365984072D01*
X187838443Y-366047995D01*
X187896968Y-366121785D01*
X187946182Y-366206410D01*
X187994120Y-366327615D01*
X188023637Y-366461172D01*
X188033834Y-366609319D01*
X188023133Y-366759294D01*
X187992111Y-366894719D01*
X187941602Y-367017907D01*
X187889917Y-367103662D01*
X187829441Y-367177019D01*
X187759850Y-367239147D01*
X187680384Y-367290757D01*
X187564727Y-367342243D01*
X187443689Y-367373051D01*
X187315577Y-367383447D01*
X187210388Y-367376797D01*
X187112853Y-367357341D01*
X187021839Y-367325460D01*
X186936390Y-367281048D01*
X186857673Y-367224941D01*
X186789725Y-367160060D01*
X186731743Y-367085881D01*
X186683324Y-367001512D01*
X186635497Y-366880992D01*
X186606923Y-366756521D01*
X186597517Y-366629378D01*
X186802209Y-366629378D01*
X186812375Y-366764995D01*
X186841021Y-366879375D01*
X186886396Y-366976191D01*
X186948205Y-367058299D01*
X187026311Y-367127123D01*
X187112172Y-367175478D01*
X187207452Y-367204814D01*
X187314570Y-367214919D01*
X187423801Y-367204643D01*
X187520192Y-367174912D01*
X187606320Y-367126073D01*
X187683956Y-367056741D01*
X187744631Y-366974121D01*
X187789760Y-366874231D01*
X187818606Y-366753579D01*
X187828945Y-366607762D01*
X187821560Y-366486445D01*
X187800500Y-366380184D01*
X187766938Y-366286827D01*
X187718486Y-366201151D01*
X187658274Y-366130843D01*
X187585588Y-366074153D01*
X187503246Y-366032360D01*
X187414485Y-366007177D01*
X187317592Y-365998590D01*
X187214814Y-366007849D01*
X187121206Y-366034953D01*
X187034846Y-366079885D01*
X186954342Y-366143945D01*
X186903922Y-366203425D01*
X186862514Y-366278339D01*
X186830651Y-366371695D01*
X186809790Y-366487251D01*
X186802209Y-366629378D01*
X186597517Y-366629378D01*
X186597320Y-366626721D01*
X186606398Y-366475098D01*
X186632187Y-366343387D01*
X186673096Y-366228742D01*
X186728363Y-366128753D01*
X186798088Y-366041546D01*
X186882719Y-365965702D01*
X186975491Y-365907210D01*
X187077562Y-365865034D01*
X187190578Y-365839051D01*
X187316585Y-365830062D01*
X187419703Y-365836486D01*
G37*
G36*
X188672499Y-367360000D02*
G01*
X188672499Y-366027899D01*
X188177541Y-366027899D01*
X188177541Y-365853510D01*
X189368224Y-365853510D01*
X189368224Y-366027899D01*
X188871251Y-366027899D01*
X188871251Y-367360000D01*
X188672499Y-367360000D01*
G37*
G36*
X189954774Y-367360000D02*
G01*
X189954774Y-366027899D01*
X189459816Y-366027899D01*
X189459816Y-365853510D01*
X190650499Y-365853510D01*
X190650499Y-366027899D01*
X190153526Y-366027899D01*
X190153526Y-367360000D01*
X189954774Y-367360000D01*
G37*
G36*
X191578670Y-365836486D02*
G01*
X191674876Y-365855327D01*
X191765202Y-365886267D01*
X191850526Y-365929439D01*
X191929201Y-365984072D01*
X191997410Y-366047995D01*
X192055936Y-366121785D01*
X192105149Y-366206410D01*
X192153087Y-366327615D01*
X192182605Y-366461172D01*
X192192801Y-366609319D01*
X192182100Y-366759294D01*
X192151078Y-366894719D01*
X192100569Y-367017907D01*
X192048885Y-367103662D01*
X191988408Y-367177019D01*
X191918817Y-367239147D01*
X191839351Y-367290757D01*
X191723694Y-367342243D01*
X191602657Y-367373051D01*
X191474544Y-367383447D01*
X191369355Y-367376797D01*
X191271820Y-367357341D01*
X191180807Y-367325460D01*
X191095357Y-367281048D01*
X191016640Y-367224941D01*
X190948692Y-367160060D01*
X190890710Y-367085881D01*
X190842291Y-367001512D01*
X190794465Y-366880992D01*
X190765890Y-366756521D01*
X190756484Y-366629378D01*
X190961176Y-366629378D01*
X190971342Y-366764995D01*
X190999988Y-366879375D01*
X191045364Y-366976191D01*
X191107172Y-367058299D01*
X191185279Y-367127123D01*
X191271139Y-367175478D01*
X191366419Y-367204814D01*
X191473537Y-367214919D01*
X191582768Y-367204643D01*
X191679159Y-367174912D01*
X191765288Y-367126073D01*
X191842924Y-367056741D01*
X191903599Y-366974121D01*
X191948727Y-366874231D01*
X191977573Y-366753579D01*
X191987912Y-366607762D01*
X191980527Y-366486445D01*
X191959467Y-366380184D01*
X191925905Y-366286827D01*
X191877453Y-366201151D01*
X191817241Y-366130843D01*
X191744555Y-366074153D01*
X191662213Y-366032360D01*
X191573452Y-366007177D01*
X191476559Y-365998590D01*
X191373782Y-366007849D01*
X191280173Y-366034953D01*
X191193813Y-366079885D01*
X191113309Y-366143945D01*
X191062889Y-366203425D01*
X191021481Y-366278339D01*
X190989618Y-366371695D01*
X190968757Y-366487251D01*
X190961176Y-366629378D01*
X190756484Y-366629378D01*
X190756287Y-366626721D01*
X190765365Y-366475098D01*
X190791154Y-366343387D01*
X190832063Y-366228742D01*
X190887330Y-366128753D01*
X190957055Y-366041546D01*
X191041686Y-365965702D01*
X191134458Y-365907210D01*
X191236529Y-365865034D01*
X191349545Y-365839051D01*
X191475552Y-365830062D01*
X191578670Y-365836486D01*
G37*
G36*
X192443120Y-367360000D02*
G01*
X192443120Y-365853510D01*
X192742256Y-365853510D01*
X193097813Y-366920637D01*
X193169529Y-367143753D01*
X193249488Y-366902136D01*
X193609166Y-365853510D01*
X193876612Y-365853510D01*
X193876612Y-367360000D01*
X193685003Y-367360000D01*
X193685003Y-366098424D01*
X193248480Y-367360000D01*
X193069145Y-367360000D01*
X192634728Y-366076900D01*
X192634728Y-367360000D01*
X192443120Y-367360000D01*
G37*
G36*
X176191201Y-371912369D02*
G01*
X176378779Y-371895882D01*
X176392380Y-371971180D01*
X176413292Y-372033349D01*
X176440695Y-372084468D01*
X176477491Y-372128831D01*
X176527076Y-372168558D01*
X176591820Y-372203628D01*
X176661485Y-372228452D01*
X176737988Y-372243768D01*
X176822446Y-372249057D01*
X176932017Y-372240157D01*
X177023214Y-372215169D01*
X177078521Y-372188481D01*
X177121027Y-372157453D01*
X177152815Y-372122204D01*
X177184870Y-372060015D01*
X177195405Y-371993152D01*
X177184997Y-371926321D01*
X177154372Y-371869412D01*
X177103715Y-371823122D01*
X177019184Y-371780478D01*
X176940301Y-371755369D01*
X176751738Y-371707021D01*
X176561199Y-371653783D01*
X176461761Y-371612957D01*
X176393901Y-371570628D01*
X176341141Y-371523922D01*
X176301385Y-371472732D01*
X176272193Y-371414994D01*
X176254617Y-371352891D01*
X176248628Y-371285245D01*
X176255752Y-371211038D01*
X176277033Y-371140373D01*
X176313108Y-371072021D01*
X176361766Y-371012189D01*
X176423933Y-370962109D01*
X176501694Y-370921445D01*
X176585789Y-370893327D01*
X176677300Y-370876020D01*
X176777384Y-370870062D01*
X176887687Y-370876446D01*
X176985299Y-370894717D01*
X177071940Y-370923918D01*
X177151895Y-370966353D01*
X177216651Y-371018962D01*
X177268128Y-371082187D01*
X177306650Y-371154376D01*
X177331257Y-371232757D01*
X177341951Y-371318767D01*
X177151350Y-371333147D01*
X177131751Y-371242184D01*
X177096840Y-371171702D01*
X177047302Y-371117450D01*
X176984077Y-371079127D01*
X176898985Y-371053860D01*
X176785535Y-371044452D01*
X176666483Y-371053334D01*
X176581704Y-371076559D01*
X176522669Y-371110580D01*
X176475800Y-371159170D01*
X176449137Y-371211644D01*
X176440237Y-371270040D01*
X176446889Y-371321412D01*
X176466180Y-371365209D01*
X176498672Y-371403306D01*
X176542659Y-371431505D01*
X176634012Y-371466965D01*
X176798358Y-371510467D01*
X177020911Y-371567206D01*
X177130833Y-371606271D01*
X177213973Y-371652428D01*
X177277484Y-371703553D01*
X177324457Y-371759595D01*
X177358939Y-371823919D01*
X177379836Y-371894638D01*
X177387014Y-371973368D01*
X177379467Y-372051385D01*
X177356839Y-372126339D01*
X177318320Y-372199507D01*
X177266857Y-372264025D01*
X177201763Y-372318913D01*
X177121125Y-372364554D01*
X177033620Y-372396757D01*
X176937595Y-372416599D01*
X176831605Y-372423447D01*
X176696435Y-372416069D01*
X176583682Y-372395531D01*
X176489879Y-372363729D01*
X176403789Y-372316594D01*
X176332283Y-372256930D01*
X176273724Y-372183936D01*
X176229937Y-372100947D01*
X176202431Y-372010987D01*
X176191201Y-371912369D01*
G37*
G36*
X177650155Y-372400000D02*
G01*
X177650155Y-370893510D01*
X177848999Y-370893510D01*
X177848999Y-371641534D01*
X178594917Y-370893510D01*
X178864378Y-370893510D01*
X178234231Y-371504147D01*
X178892038Y-372400000D01*
X178629721Y-372400000D01*
X178094921Y-371637412D01*
X177848999Y-371878297D01*
X177848999Y-372400000D01*
X177650155Y-372400000D01*
G37*
G36*
X178962563Y-371948639D02*
G01*
X178962563Y-371761060D01*
X179529237Y-371761060D01*
X179529237Y-371948639D01*
X178962563Y-371948639D01*
G37*
G36*
X180651411Y-372225610D02*
G01*
X180651411Y-372400000D01*
X179658564Y-372400000D01*
X179662907Y-372334696D01*
X179680088Y-372272138D01*
X179728050Y-372173891D01*
X179801446Y-372072745D01*
X179896500Y-371973552D01*
X180042788Y-371845690D01*
X180204869Y-371705475D01*
X180310464Y-371601458D01*
X180373707Y-371526038D01*
X180423833Y-371444216D01*
X180451226Y-371370613D01*
X180459802Y-371303013D01*
X180450954Y-371232931D01*
X180425104Y-371171775D01*
X180381400Y-371117267D01*
X180325114Y-371075845D01*
X180258018Y-371050460D01*
X180177061Y-371041521D01*
X180091557Y-371051078D01*
X180021641Y-371078091D01*
X179963837Y-371122029D01*
X179920575Y-371180253D01*
X179893239Y-371253145D01*
X179882962Y-371344870D01*
X179693368Y-371325270D01*
X179711144Y-371219615D01*
X179742046Y-371132028D01*
X179784967Y-371059468D01*
X179839914Y-370999664D01*
X179906135Y-370952218D01*
X179983564Y-370917379D01*
X180074320Y-370895420D01*
X180181091Y-370887648D01*
X180288499Y-370895969D01*
X180379553Y-370919491D01*
X180457113Y-370956920D01*
X180523367Y-371008182D01*
X180578792Y-371072420D01*
X180617711Y-371142630D01*
X180641290Y-371220120D01*
X180649396Y-371306769D01*
X180640275Y-371396078D01*
X180612485Y-371484913D01*
X180565862Y-371571077D01*
X180490027Y-371669286D01*
X180388225Y-371772733D01*
X180205729Y-371934900D01*
X180055313Y-372065210D01*
X179992505Y-372125135D01*
X179948789Y-372176166D01*
X179914744Y-372225610D01*
X180651411Y-372225610D01*
G37*
G36*
X181467224Y-370894337D02*
G01*
X181543733Y-370913458D01*
X181610802Y-370944213D01*
X181669904Y-370986658D01*
X181719847Y-371039599D01*
X181759061Y-371101802D01*
X181787833Y-371174695D01*
X181805642Y-371260240D01*
X181622276Y-371274528D01*
X181590168Y-371177098D01*
X181552575Y-371119190D01*
X181498636Y-371075930D01*
X181437912Y-371050304D01*
X181368111Y-371041521D01*
X181310985Y-371047113D01*
X181259849Y-371063412D01*
X181213414Y-371090430D01*
X181160968Y-371137394D01*
X181115161Y-371198163D01*
X181076027Y-371275078D01*
X181050089Y-371357789D01*
X181031726Y-371470477D01*
X181023820Y-371620651D01*
X181072605Y-371557720D01*
X181126746Y-371508056D01*
X181186669Y-371470259D01*
X181252326Y-371442805D01*
X181319384Y-371426518D01*
X181388627Y-371421074D01*
X181478004Y-371429695D01*
X181558996Y-371454936D01*
X181633465Y-371496924D01*
X181702693Y-371557178D01*
X181758545Y-371628808D01*
X181798729Y-371709984D01*
X181823606Y-371802531D01*
X181832295Y-371908888D01*
X181825401Y-372001950D01*
X181805057Y-372089416D01*
X181771295Y-372172396D01*
X181724736Y-372248341D01*
X181669071Y-372309934D01*
X181603775Y-372358784D01*
X181530406Y-372394395D01*
X181450329Y-372416026D01*
X181361974Y-372423447D01*
X181250167Y-372412454D01*
X181151940Y-372380656D01*
X181064472Y-372328302D01*
X180985902Y-372253637D01*
X180938578Y-372185999D01*
X180898991Y-372100211D01*
X180868137Y-371992607D01*
X180855371Y-371908705D01*
X181052488Y-371908705D01*
X181062589Y-372001922D01*
X181092971Y-372091246D01*
X181124287Y-372145764D01*
X181161926Y-372189562D01*
X181206178Y-372223961D01*
X181281449Y-372258377D01*
X181358860Y-372269574D01*
X181432646Y-372259242D01*
X181498800Y-372228524D01*
X181559720Y-372175327D01*
X181604950Y-372107860D01*
X181633458Y-372023908D01*
X181643709Y-371918963D01*
X181633594Y-371818240D01*
X181605460Y-371737898D01*
X181560727Y-371673499D01*
X181500552Y-371623589D01*
X181431819Y-371593947D01*
X181351716Y-371583740D01*
X181272139Y-371593831D01*
X181202276Y-371623392D01*
X181139591Y-371673499D01*
X181092002Y-371738002D01*
X181062791Y-371815208D01*
X181052488Y-371908705D01*
X180855371Y-371908705D01*
X180847784Y-371858846D01*
X180840363Y-371694016D01*
X180848492Y-371510062D01*
X180870868Y-371359492D01*
X180904921Y-371237203D01*
X180948763Y-371138666D01*
X181001289Y-371060022D01*
X181061477Y-370997852D01*
X181128242Y-370950245D01*
X181202478Y-370916039D01*
X181285584Y-370894962D01*
X181379377Y-370887648D01*
X181467224Y-370894337D01*
G37*
G36*
X182584326Y-370893373D02*
G01*
X182654515Y-370909824D01*
X182716973Y-370936374D01*
X182773885Y-370973361D01*
X182823940Y-371019920D01*
X182867640Y-371076967D01*
X182919356Y-371175636D01*
X182960880Y-371300632D01*
X182985092Y-371443932D01*
X182994677Y-371656097D01*
X182987668Y-371833055D01*
X182968678Y-371973444D01*
X182940363Y-372083369D01*
X182896377Y-372186966D01*
X182842161Y-372269685D01*
X182777972Y-372334695D01*
X182701600Y-372383063D01*
X182611745Y-372412934D01*
X182504939Y-372423447D01*
X182399241Y-372413106D01*
X182309044Y-372383554D01*
X182231204Y-372335469D01*
X182163671Y-372267467D01*
X182115578Y-372193342D01*
X182075156Y-372099435D01*
X182043570Y-371981775D01*
X182022714Y-371835729D01*
X182015110Y-371656097D01*
X182015132Y-371655547D01*
X182204704Y-371655547D01*
X182212304Y-371852814D01*
X182231855Y-371991878D01*
X182259181Y-372086207D01*
X182291257Y-372147300D01*
X182339378Y-372202960D01*
X182390323Y-372240343D01*
X182444968Y-372262205D01*
X182504939Y-372269574D01*
X182564831Y-372262183D01*
X182619433Y-372240242D01*
X182670375Y-372202699D01*
X182718530Y-372146750D01*
X182750681Y-372085397D01*
X182778034Y-371990976D01*
X182797582Y-371852125D01*
X182805175Y-371655547D01*
X182797553Y-371457659D01*
X182777961Y-371318413D01*
X182750606Y-371224182D01*
X182718530Y-371163337D01*
X182670455Y-371108054D01*
X182619206Y-371070790D01*
X182563885Y-371048916D01*
X182502833Y-371041521D01*
X182442067Y-371048341D01*
X182389067Y-371068131D01*
X182342037Y-371101086D01*
X182299959Y-371148957D01*
X182263875Y-371217478D01*
X182233848Y-371317899D01*
X182212779Y-371460094D01*
X182204704Y-371655547D01*
X182015132Y-371655547D01*
X182022197Y-371477638D01*
X182041363Y-371336624D01*
X182069882Y-371226718D01*
X182114212Y-371123130D01*
X182168614Y-371040608D01*
X182232822Y-370975942D01*
X182309202Y-370927793D01*
X182398779Y-370898089D01*
X182504939Y-370887648D01*
X182584326Y-370893373D01*
G37*
G36*
X183876332Y-372400000D02*
G01*
X183691868Y-372400000D01*
X183691868Y-371221589D01*
X183618466Y-371282660D01*
X183517204Y-371348992D01*
X183410637Y-371406654D01*
X183323031Y-371444521D01*
X183323031Y-371268667D01*
X183423355Y-371215296D01*
X183513238Y-371155932D01*
X183593499Y-371090614D01*
X183667133Y-371017232D01*
X183720687Y-370949865D01*
X183757447Y-370887648D01*
X183876332Y-370887648D01*
X183876332Y-372400000D01*
G37*
G36*
X184327602Y-371948639D02*
G01*
X184327602Y-371761060D01*
X184894276Y-371761060D01*
X184894276Y-371948639D01*
X184327602Y-371948639D01*
G37*
G36*
X185047141Y-372001395D02*
G01*
X185240765Y-371985000D01*
X185262983Y-372076151D01*
X185296647Y-372145781D01*
X185340690Y-372198224D01*
X185396408Y-372237792D01*
X185458735Y-372261450D01*
X185529734Y-372269574D01*
X185594176Y-372263199D01*
X185652363Y-372244545D01*
X185705702Y-372213488D01*
X185755140Y-372168824D01*
X185794468Y-372116060D01*
X185823118Y-372055045D01*
X185841054Y-371984219D01*
X185847372Y-371901561D01*
X185841245Y-371822962D01*
X185823937Y-371756470D01*
X185796411Y-371699955D01*
X185758712Y-371651792D01*
X185694602Y-371601551D01*
X185618450Y-371571007D01*
X185526712Y-371560293D01*
X185441124Y-371570790D01*
X185365786Y-371601509D01*
X185301307Y-371649204D01*
X185253129Y-371708304D01*
X185079931Y-371685772D01*
X185225469Y-370911095D01*
X185972394Y-370911095D01*
X185972394Y-371085484D01*
X185373022Y-371085484D01*
X185292056Y-371494164D01*
X185385796Y-371439580D01*
X185479795Y-371408029D01*
X185575896Y-371397627D01*
X185671702Y-371406423D01*
X185757729Y-371432036D01*
X185835968Y-371474316D01*
X185907822Y-371534464D01*
X185966405Y-371606846D01*
X186008303Y-371688330D01*
X186034115Y-371780692D01*
X186043102Y-371886357D01*
X186035365Y-371987228D01*
X186012843Y-372078826D01*
X185975942Y-372162753D01*
X185924217Y-372240265D01*
X185862077Y-372306334D01*
X185792789Y-372356899D01*
X185715399Y-372393239D01*
X185628379Y-372415655D01*
X185529734Y-372423447D01*
X185428275Y-372415633D01*
X185340103Y-372393311D01*
X185262973Y-372357416D01*
X185195152Y-372307859D01*
X185137823Y-372246047D01*
X185094295Y-372175396D01*
X185063941Y-372094507D01*
X185047141Y-372001395D01*
G37*
G36*
X186908363Y-372400000D02*
G01*
X186723899Y-372400000D01*
X186723899Y-371221589D01*
X186650497Y-371282660D01*
X186549235Y-371348992D01*
X186442667Y-371406654D01*
X186355061Y-371444521D01*
X186355061Y-371268667D01*
X186455385Y-371215296D01*
X186545269Y-371155932D01*
X186625530Y-371090614D01*
X186699164Y-371017232D01*
X186752717Y-370949865D01*
X186789478Y-370887648D01*
X186908363Y-370887648D01*
X186908363Y-372400000D01*
G37*
G36*
X179337162Y-373418970D02*
G01*
X179436482Y-373433287D01*
X179507714Y-373453810D01*
X179572283Y-373487247D01*
X179627606Y-373534169D01*
X179674684Y-373596142D01*
X179709372Y-373666312D01*
X179730181Y-373740981D01*
X179737241Y-373821456D01*
X179730515Y-373899327D01*
X179710994Y-373969033D01*
X179678957Y-374032122D01*
X179633743Y-374089726D01*
X179579227Y-374136363D01*
X179509827Y-374175499D01*
X179422644Y-374206613D01*
X179314090Y-374228395D01*
X179387078Y-374268796D01*
X179433891Y-374304050D01*
X179516647Y-374392531D01*
X179598939Y-374506283D01*
X179860156Y-374920000D01*
X179610204Y-374920000D01*
X179411360Y-374603461D01*
X179267928Y-374393900D01*
X179210897Y-374328478D01*
X179166995Y-374292143D01*
X179121386Y-374267221D01*
X179076320Y-374251659D01*
X178965678Y-374244424D01*
X178735143Y-374244424D01*
X178735143Y-374920000D01*
X178536299Y-374920000D01*
X178536299Y-374075896D01*
X178735143Y-374075896D01*
X179162416Y-374075896D01*
X179290993Y-374067934D01*
X179375548Y-374047961D01*
X179423618Y-374024966D01*
X179462098Y-373995173D01*
X179492327Y-373958293D01*
X179522317Y-373893862D01*
X179532260Y-373824387D01*
X179523466Y-373757284D01*
X179497941Y-373700068D01*
X179454866Y-373650273D01*
X179399049Y-373614851D01*
X179320156Y-373591058D01*
X179210592Y-373582037D01*
X178735143Y-373582037D01*
X178735143Y-374075896D01*
X178536299Y-374075896D01*
X178536299Y-373413510D01*
X179202349Y-373413510D01*
X179337162Y-373418970D01*
G37*
G36*
X180052589Y-374920000D02*
G01*
X180052589Y-373413510D01*
X181138768Y-373413510D01*
X181138768Y-373587899D01*
X180251433Y-373587899D01*
X180251433Y-374052449D01*
X181082439Y-374052449D01*
X181082439Y-374226838D01*
X180251433Y-374226838D01*
X180251433Y-374745610D01*
X181173664Y-374745610D01*
X181173664Y-374920000D01*
X180052589Y-374920000D01*
G37*
G36*
X181877358Y-374920000D02*
G01*
X181295388Y-373413510D01*
X181510536Y-373413510D01*
X181900988Y-374508298D01*
X181979848Y-374755044D01*
X182060815Y-374508298D01*
X182466563Y-373413510D01*
X182669438Y-373413510D01*
X182081331Y-374920000D01*
X181877358Y-374920000D01*
G37*
G36*
X182636465Y-374468639D02*
G01*
X182636465Y-374281060D01*
X183203139Y-374281060D01*
X183203139Y-374468639D01*
X182636465Y-374468639D01*
G37*
G36*
X184050722Y-374920000D02*
G01*
X183866258Y-374920000D01*
X183866258Y-373741589D01*
X183792856Y-373802660D01*
X183691594Y-373868992D01*
X183585027Y-373926654D01*
X183497421Y-373964521D01*
X183497421Y-373788667D01*
X183597745Y-373735296D01*
X183687628Y-373675932D01*
X183767889Y-373610614D01*
X183841523Y-373537232D01*
X183895077Y-373469865D01*
X183931837Y-373407648D01*
X184050722Y-373407648D01*
X184050722Y-374920000D01*
G37*
D12*
%TO.C,J6*%
X288883100Y-319750000D02*
G75*
G02*
X287656900Y-319750000I-613100J0D01*
G01*
X287656900Y-319750000D02*
G75*
G02*
X288883100Y-319750000I613100J0D01*
G01*
D13*
X301858100Y-319750000D02*
G75*
G02*
X300281900Y-319750000I-788100J0D01*
G01*
X300281900Y-319750000D02*
G75*
G02*
X301858100Y-319750000I788100J0D01*
G01*
D14*
X294996200Y-320976200D02*
X292543800Y-320976200D01*
X292543800Y-318523800D01*
X294996200Y-318523800D01*
X294996200Y-320976200D01*
G36*
X294996200Y-320976200D02*
G01*
X292543800Y-320976200D01*
X292543800Y-318523800D01*
X294996200Y-318523800D01*
X294996200Y-320976200D01*
G37*
%TD*%
D15*
%TO.C,J4*%
X110160000Y-288710000D03*
D16*
X112700000Y-291250000D03*
X112700000Y-286170000D03*
X107620000Y-291250000D03*
X107620000Y-286170000D03*
%TD*%
D17*
%TO.C,MT2*%
X111960000Y-329920000D03*
%TD*%
%TO.C,MT4*%
X246580000Y-263880000D03*
%TD*%
D18*
%TO.C,J5*%
X195270000Y-266480000D03*
X235910000Y-266480000D03*
D19*
X204160000Y-267500000D03*
D20*
X204160000Y-264960000D03*
X206700000Y-267500000D03*
X206700000Y-264960000D03*
X209240000Y-267500000D03*
X209240000Y-264960000D03*
X211780000Y-267500000D03*
X211780000Y-264960000D03*
X214320000Y-267500000D03*
X214320000Y-264960000D03*
X216860000Y-267500000D03*
X216860000Y-264960000D03*
X219400000Y-267500000D03*
X219400000Y-264960000D03*
X221940000Y-267500000D03*
X221940000Y-264960000D03*
X224480000Y-267500000D03*
X224480000Y-264960000D03*
X227020000Y-267500000D03*
X227020000Y-264960000D03*
%TD*%
D17*
%TO.C,MT5*%
X299920000Y-329920000D03*
%TD*%
%TO.C,MT8*%
X68780000Y-263880000D03*
%TD*%
%TO.C,MT6*%
X164738974Y-263880000D03*
%TD*%
D21*
%TO.C,J2*%
X217624000Y-321284000D03*
D22*
X215124000Y-321284000D03*
X212624000Y-321284000D03*
X210124000Y-321284000D03*
X207624000Y-321284000D03*
X205124000Y-321284000D03*
X202624000Y-321284000D03*
X200124000Y-321284000D03*
X197624000Y-321284000D03*
X195124000Y-321284000D03*
X217624000Y-319784000D03*
X215124000Y-319784000D03*
X212624000Y-319784000D03*
X210124000Y-319784000D03*
X207624000Y-319784000D03*
X205124000Y-319784000D03*
X202624000Y-319784000D03*
X200124000Y-319784000D03*
X197624000Y-319784000D03*
X195124000Y-319784000D03*
X217624000Y-318284000D03*
X215124000Y-318284000D03*
X212624000Y-318284000D03*
X210124000Y-318284000D03*
X207624000Y-318284000D03*
X205124000Y-318284000D03*
X202624000Y-318284000D03*
X200124000Y-318284000D03*
X197624000Y-318284000D03*
X195124000Y-318284000D03*
X217624000Y-316784000D03*
X215124000Y-316784000D03*
X212624000Y-316784000D03*
X210124000Y-316784000D03*
X207624000Y-316784000D03*
X205124000Y-316784000D03*
X202624000Y-316784000D03*
X200124000Y-316784000D03*
X197624000Y-316784000D03*
X195124000Y-316784000D03*
X217624000Y-315284000D03*
X215124000Y-315284000D03*
X212624000Y-315284000D03*
X210124000Y-315284000D03*
X207624000Y-315284000D03*
X205124000Y-315284000D03*
X202624000Y-315284000D03*
X200124000Y-315284000D03*
X197624000Y-315284000D03*
X195124000Y-315284000D03*
X217624000Y-313784000D03*
X215124000Y-313784000D03*
X212624000Y-313784000D03*
X210124000Y-313784000D03*
X207624000Y-313784000D03*
X205124000Y-313784000D03*
X202624000Y-313784000D03*
X200124000Y-313784000D03*
X197624000Y-313784000D03*
X195124000Y-313784000D03*
%TD*%
D23*
%TO.C,J6*%
X301070000Y-319750000D03*
%TD*%
D21*
%TO.C,J1*%
X166824000Y-321284000D03*
D22*
X164324000Y-321284000D03*
X161824000Y-321284000D03*
X159324000Y-321284000D03*
X156824000Y-321284000D03*
X154324000Y-321284000D03*
X151824000Y-321284000D03*
X149324000Y-321284000D03*
X146824000Y-321284000D03*
X144324000Y-321284000D03*
X166824000Y-319784000D03*
X164324000Y-319784000D03*
X161824000Y-319784000D03*
X159324000Y-319784000D03*
X156824000Y-319784000D03*
X154324000Y-319784000D03*
X151824000Y-319784000D03*
X149324000Y-319784000D03*
X146824000Y-319784000D03*
X144324000Y-319784000D03*
X166824000Y-318284000D03*
X164324000Y-318284000D03*
X161824000Y-318284000D03*
X159324000Y-318284000D03*
X156824000Y-318284000D03*
X154324000Y-318284000D03*
X151824000Y-318284000D03*
X149324000Y-318284000D03*
X146824000Y-318284000D03*
X144324000Y-318284000D03*
X166824000Y-316784000D03*
X164324000Y-316784000D03*
X161824000Y-316784000D03*
X159324000Y-316784000D03*
X156824000Y-316784000D03*
X154324000Y-316784000D03*
X151824000Y-316784000D03*
X149324000Y-316784000D03*
X146824000Y-316784000D03*
X144324000Y-316784000D03*
X166824000Y-315284000D03*
X164324000Y-315284000D03*
X161824000Y-315284000D03*
X159324000Y-315284000D03*
X156824000Y-315284000D03*
X154324000Y-315284000D03*
X151824000Y-315284000D03*
X149324000Y-315284000D03*
X146824000Y-315284000D03*
X144324000Y-315284000D03*
X166824000Y-313784000D03*
X164324000Y-313784000D03*
X161824000Y-313784000D03*
X159324000Y-313784000D03*
X156824000Y-313784000D03*
X154324000Y-313784000D03*
X151824000Y-313784000D03*
X149324000Y-313784000D03*
X146824000Y-313784000D03*
X144324000Y-313784000D03*
%TD*%
D18*
%TO.C,J7*%
X102350000Y-266480000D03*
X142990000Y-266480000D03*
D19*
X111240000Y-267500000D03*
D20*
X111240000Y-264960000D03*
X113780000Y-267500000D03*
X113780000Y-264960000D03*
X116320000Y-267500000D03*
X116320000Y-264960000D03*
X118860000Y-267500000D03*
X118860000Y-264960000D03*
X121400000Y-267500000D03*
X121400000Y-264960000D03*
X123940000Y-267500000D03*
X123940000Y-264960000D03*
X126480000Y-267500000D03*
X126480000Y-264960000D03*
X129020000Y-267500000D03*
X129020000Y-264960000D03*
X131560000Y-267500000D03*
X131560000Y-264960000D03*
X134100000Y-267500000D03*
X134100000Y-264960000D03*
%TD*%
D17*
%TO.C,MT3*%
X250644000Y-329920000D03*
%TD*%
D21*
%TO.C,J3*%
X243024000Y-321284000D03*
D22*
X240524000Y-321284000D03*
X238024000Y-321284000D03*
X235524000Y-321284000D03*
X233024000Y-321284000D03*
X230524000Y-321284000D03*
X228024000Y-321284000D03*
X225524000Y-321284000D03*
X223024000Y-321284000D03*
X220524000Y-321284000D03*
X243024000Y-319784000D03*
X240524000Y-319784000D03*
X238024000Y-319784000D03*
X235524000Y-319784000D03*
X233024000Y-319784000D03*
X230524000Y-319784000D03*
X228024000Y-319784000D03*
X225524000Y-319784000D03*
X223024000Y-319784000D03*
X220524000Y-319784000D03*
X243024000Y-318284000D03*
X240524000Y-318284000D03*
X238024000Y-318284000D03*
X235524000Y-318284000D03*
X233024000Y-318284000D03*
X230524000Y-318284000D03*
X228024000Y-318284000D03*
X225524000Y-318284000D03*
X223024000Y-318284000D03*
X220524000Y-318284000D03*
X243024000Y-316784000D03*
X240524000Y-316784000D03*
X238024000Y-316784000D03*
X235524000Y-316784000D03*
X233024000Y-316784000D03*
X230524000Y-316784000D03*
X228024000Y-316784000D03*
X225524000Y-316784000D03*
X223024000Y-316784000D03*
X220524000Y-316784000D03*
X243024000Y-315284000D03*
X240524000Y-315284000D03*
X238024000Y-315284000D03*
X235524000Y-315284000D03*
X233024000Y-315284000D03*
X230524000Y-315284000D03*
X228024000Y-315284000D03*
X225524000Y-315284000D03*
X223024000Y-315284000D03*
X220524000Y-315284000D03*
X243024000Y-313784000D03*
X240524000Y-313784000D03*
X238024000Y-313784000D03*
X235524000Y-313784000D03*
X233024000Y-313784000D03*
X230524000Y-313784000D03*
X228024000Y-313784000D03*
X225524000Y-313784000D03*
X223024000Y-313784000D03*
X220524000Y-313784000D03*
%TD*%
D17*
%TO.C,MT7*%
X299920000Y-263880000D03*
%TD*%
%TO.C,MT1*%
X68780000Y-329920000D03*
%TD*%
D24*
%TO.C,C34*%
X255450000Y-284900000D03*
X255450000Y-286800000D03*
%TD*%
%TO.C,C36*%
X258200000Y-284900000D03*
X258200000Y-286800000D03*
%TD*%
D25*
%TO.C,C35*%
X255450000Y-276900000D03*
X255450000Y-275000000D03*
%TD*%
D26*
%TO.C,C11*%
X152850000Y-299300000D03*
X150950000Y-299300000D03*
%TD*%
D25*
%TO.C,C37*%
X258200000Y-276900000D03*
X258200000Y-275000000D03*
%TD*%
D24*
%TO.C,C1*%
X129400000Y-313500000D03*
X129400000Y-315400000D03*
%TD*%
D26*
%TO.C,C46*%
X271900000Y-308800000D03*
X270000000Y-308800000D03*
%TD*%
D24*
%TO.C,C39*%
X254450000Y-307300000D03*
X254450000Y-309200000D03*
%TD*%
%LPD*%
D27*
X63700000Y-258800000D02*
X305000000Y-258800000D01*
X246199000Y-335000000D02*
X246199000Y-322300000D01*
X305000000Y-258800000D02*
X305000000Y-335000000D01*
X116405000Y-322300000D02*
X116405000Y-333730000D01*
X246199000Y-322300000D02*
X116405000Y-322300000D01*
X63700000Y-335000000D02*
X63700000Y-258800000D01*
X305000000Y-335000000D02*
X246199000Y-335000000D01*
X116405000Y-333730000D02*
X116405000Y-335000000D01*
X116405000Y-335000000D02*
X63700000Y-335000000D01*
M02*
