%TF.GenerationSoftware,KiCad,Pcbnew,9.0.6*%
%TF.CreationDate,2026-06-12T00:18:42-04:00*%
%TF.ProjectId,acmi2-afe,61636d69-322d-4616-9665-2e6b69636164,rev?*%
%TF.SameCoordinates,Original*%
%TF.FileFunction,Copper,L6,Bot*%
%TF.FilePolarity,Positive*%
%FSLAX46Y46*%
G04 Gerber Fmt 4.6, Leading zero omitted, Abs format (unit mm)*
G04 Created by KiCad (PCBNEW 9.0.6) date 2026-06-12 00:18:42*
%MOMM*%
%LPD*%
G01*
G04 APERTURE LIST*
G04 Aperture macros list*
%AMRoundRect*
0 Rectangle with rounded corners*
0 $1 Rounding radius*
0 $2 $3 $4 $5 $6 $7 $8 $9 X,Y pos of 4 corners*
0 Add a 4 corners polygon primitive as box body*
4,1,4,$2,$3,$4,$5,$6,$7,$8,$9,$2,$3,0*
0 Add four circle primitives for the rounded corners*
1,1,$1+$1,$2,$3*
1,1,$1+$1,$4,$5*
1,1,$1+$1,$6,$7*
1,1,$1+$1,$8,$9*
0 Add four rect primitives between the rounded corners*
20,1,$1+$1,$2,$3,$4,$5,0*
20,1,$1+$1,$4,$5,$6,$7,0*
20,1,$1+$1,$6,$7,$8,$9,0*
20,1,$1+$1,$8,$9,$2,$3,0*%
G04 Aperture macros list end*
%ADD10C,0.150000*%
%TA.AperFunction,ComponentPad*%
%ADD11C,2.050000*%
%TD*%
%TA.AperFunction,ComponentPad*%
%ADD12C,2.250000*%
%TD*%
%TA.AperFunction,ComponentPad*%
%ADD13C,7.500000*%
%TD*%
%TA.AperFunction,ComponentPad*%
%ADD14C,0.500000*%
%TD*%
%TA.AperFunction,ComponentPad*%
%ADD15R,1.320000X1.320000*%
%TD*%
%TA.AperFunction,ComponentPad*%
%ADD16C,1.320000*%
%TD*%
%TA.AperFunction,ComponentPad*%
%ADD17R,1.000000X1.000000*%
%TD*%
%TA.AperFunction,ComponentPad*%
%ADD18C,1.000000*%
%TD*%
%TA.AperFunction,ComponentPad*%
%ADD19R,2.300000X2.300000*%
%TD*%
%TA.AperFunction,ComponentPad*%
%ADD20C,2.300000*%
%TD*%
%TA.AperFunction,SMDPad,CuDef*%
%ADD21RoundRect,0.250000X-0.475000X0.250000X-0.475000X-0.250000X0.475000X-0.250000X0.475000X0.250000X0*%
%TD*%
%TA.AperFunction,SMDPad,CuDef*%
%ADD22RoundRect,0.250000X0.475000X-0.250000X0.475000X0.250000X-0.475000X0.250000X-0.475000X-0.250000X0*%
%TD*%
%TA.AperFunction,SMDPad,CuDef*%
%ADD23RoundRect,0.250000X0.250000X0.475000X-0.250000X0.475000X-0.250000X-0.475000X0.250000X-0.475000X0*%
%TD*%
%TA.AperFunction,ViaPad*%
%ADD24C,0.600000*%
%TD*%
%TA.AperFunction,ViaPad*%
%ADD25C,1.000000*%
%TD*%
%TA.AperFunction,Conductor*%
%ADD26C,0.300000*%
%TD*%
%TA.AperFunction,Conductor*%
%ADD27C,1.016000*%
%TD*%
%TA.AperFunction,Conductor*%
%ADD28C,0.200000*%
%TD*%
%TA.AperFunction,Conductor*%
%ADD29C,0.170000*%
%TD*%
%TA.AperFunction,Conductor*%
%ADD30C,1.000000*%
%TD*%
%TA.AperFunction,Profile*%
%ADD31C,0.050000*%
%TD*%
G04 APERTURE END LIST*
D10*
G36*
X170039646Y-353360000D02*
G01*
X170039646Y-351853510D01*
X170238491Y-351853510D01*
X170238491Y-353185610D01*
X170978272Y-353185610D01*
X170978272Y-353360000D01*
X170039646Y-353360000D01*
G37*
G36*
X172455269Y-353360000D02*
G01*
X172228764Y-353360000D01*
X172053551Y-352902777D01*
X171425419Y-352902777D01*
X171260464Y-353360000D01*
X171049346Y-353360000D01*
X171287302Y-352738646D01*
X171482847Y-352738646D01*
X171992093Y-352738646D01*
X171835289Y-352322731D01*
X171769771Y-352141235D01*
X171728769Y-352011321D01*
X171694338Y-352154743D01*
X171647802Y-352298184D01*
X171482847Y-352738646D01*
X171287302Y-352738646D01*
X171626278Y-351853510D01*
X171840418Y-351853510D01*
X172455269Y-353360000D01*
G37*
G36*
X172881717Y-353360000D02*
G01*
X172881717Y-352721060D01*
X172302770Y-351853510D01*
X172544570Y-351853510D01*
X172840776Y-352307893D01*
X172993458Y-352562791D01*
X173157406Y-352296536D01*
X173448391Y-351853510D01*
X173679933Y-351853510D01*
X173080470Y-352721060D01*
X173080470Y-353360000D01*
X172881717Y-353360000D01*
G37*
G36*
X173862108Y-353360000D02*
G01*
X173862108Y-351853510D01*
X174948286Y-351853510D01*
X174948286Y-352027899D01*
X174060952Y-352027899D01*
X174060952Y-352492449D01*
X174891958Y-352492449D01*
X174891958Y-352666838D01*
X174060952Y-352666838D01*
X174060952Y-353185610D01*
X174983183Y-353185610D01*
X174983183Y-353360000D01*
X173862108Y-353360000D01*
G37*
G36*
X176061475Y-351858970D02*
G01*
X176160795Y-351873287D01*
X176232027Y-351893810D01*
X176296596Y-351927247D01*
X176351919Y-351974169D01*
X176398997Y-352036142D01*
X176433685Y-352106312D01*
X176454494Y-352180981D01*
X176461554Y-352261456D01*
X176454828Y-352339327D01*
X176435307Y-352409033D01*
X176403270Y-352472122D01*
X176358056Y-352529726D01*
X176303540Y-352576363D01*
X176234140Y-352615499D01*
X176146957Y-352646613D01*
X176038403Y-352668395D01*
X176111391Y-352708796D01*
X176158204Y-352744050D01*
X176240959Y-352832531D01*
X176323252Y-352946283D01*
X176584469Y-353360000D01*
X176334517Y-353360000D01*
X176135673Y-353043461D01*
X175992241Y-352833900D01*
X175935210Y-352768478D01*
X175891308Y-352732143D01*
X175845698Y-352707221D01*
X175800633Y-352691659D01*
X175689991Y-352684424D01*
X175459456Y-352684424D01*
X175459456Y-353360000D01*
X175260612Y-353360000D01*
X175260612Y-352515896D01*
X175459456Y-352515896D01*
X175886728Y-352515896D01*
X176015306Y-352507934D01*
X176099861Y-352487961D01*
X176147931Y-352464966D01*
X176186411Y-352435173D01*
X176216640Y-352398293D01*
X176246630Y-352333862D01*
X176256573Y-352264387D01*
X176247779Y-352197284D01*
X176222254Y-352140068D01*
X176179179Y-352090273D01*
X176123362Y-352054851D01*
X176044469Y-352031058D01*
X175934905Y-352022037D01*
X175459456Y-352022037D01*
X175459456Y-352515896D01*
X175260612Y-352515896D01*
X175260612Y-351853510D01*
X175926662Y-351853510D01*
X176061475Y-351858970D01*
G37*
G36*
X177899912Y-351854337D02*
G01*
X177976421Y-351873458D01*
X178043490Y-351904213D01*
X178102591Y-351946658D01*
X178152535Y-351999599D01*
X178191748Y-352061802D01*
X178220520Y-352134695D01*
X178238329Y-352220240D01*
X178054964Y-352234528D01*
X178022855Y-352137098D01*
X177985263Y-352079190D01*
X177931324Y-352035930D01*
X177870600Y-352010304D01*
X177800799Y-352001521D01*
X177743672Y-352007113D01*
X177692536Y-352023412D01*
X177646101Y-352050430D01*
X177593656Y-352097394D01*
X177547848Y-352158163D01*
X177508715Y-352235078D01*
X177482777Y-352317789D01*
X177464414Y-352430477D01*
X177456508Y-352580651D01*
X177505292Y-352517720D01*
X177559433Y-352468056D01*
X177619357Y-352430259D01*
X177685013Y-352402805D01*
X177752072Y-352386518D01*
X177821315Y-352381074D01*
X177910691Y-352389695D01*
X177991684Y-352414936D01*
X178066153Y-352456924D01*
X178135381Y-352517178D01*
X178191232Y-352588808D01*
X178231416Y-352669984D01*
X178256293Y-352762531D01*
X178264982Y-352868888D01*
X178258088Y-352961950D01*
X178237745Y-353049416D01*
X178203982Y-353132396D01*
X178157423Y-353208341D01*
X178101759Y-353269934D01*
X178036462Y-353318784D01*
X177963093Y-353354395D01*
X177883016Y-353376026D01*
X177794662Y-353383447D01*
X177682855Y-353372454D01*
X177584628Y-353340656D01*
X177497160Y-353288302D01*
X177418589Y-353213637D01*
X177371266Y-353145999D01*
X177331678Y-353060211D01*
X177300825Y-352952607D01*
X177288059Y-352868705D01*
X177485176Y-352868705D01*
X177495276Y-352961922D01*
X177525659Y-353051246D01*
X177556974Y-353105764D01*
X177594613Y-353149562D01*
X177638866Y-353183961D01*
X177714136Y-353218377D01*
X177791548Y-353229574D01*
X177865334Y-353219242D01*
X177931488Y-353188524D01*
X177992407Y-353135327D01*
X178037638Y-353067860D01*
X178066146Y-352983908D01*
X178076396Y-352878963D01*
X178066282Y-352778240D01*
X178038148Y-352697898D01*
X177993415Y-352633499D01*
X177933240Y-352583589D01*
X177864507Y-352553947D01*
X177784404Y-352543740D01*
X177704827Y-352553831D01*
X177634963Y-352583392D01*
X177572279Y-352633499D01*
X177524689Y-352698002D01*
X177495478Y-352775208D01*
X177485176Y-352868705D01*
X177288059Y-352868705D01*
X177280472Y-352818846D01*
X177273051Y-352654016D01*
X177281180Y-352470062D01*
X177303555Y-352319492D01*
X177337609Y-352197203D01*
X177381451Y-352098666D01*
X177433976Y-352020022D01*
X177494165Y-351957852D01*
X177560930Y-351910245D01*
X177635165Y-351876039D01*
X177718272Y-351854962D01*
X177812064Y-351847648D01*
X177899912Y-351854337D01*
G37*
G36*
X179775844Y-351859379D02*
G01*
X179866462Y-351875302D01*
X179937343Y-351899214D01*
X180002055Y-351935351D01*
X180055982Y-351981907D01*
X180100284Y-352039714D01*
X180133397Y-352104875D01*
X180152757Y-352170655D01*
X180159177Y-352238101D01*
X180153403Y-352300952D01*
X180136133Y-352361176D01*
X180106879Y-352419726D01*
X180067301Y-352471582D01*
X180015361Y-352517311D01*
X179949159Y-352557112D01*
X180035335Y-352591353D01*
X180104293Y-352636982D01*
X180158719Y-352694041D01*
X180199100Y-352761697D01*
X180223559Y-352837174D01*
X180231992Y-352922561D01*
X180220722Y-353025345D01*
X180187387Y-353119665D01*
X180136069Y-353202172D01*
X180077203Y-353260165D01*
X180005562Y-353302472D01*
X179912705Y-353334812D01*
X179808178Y-353353121D01*
X179670447Y-353360000D01*
X179097637Y-353360000D01*
X179097637Y-353185610D01*
X179296481Y-353185610D01*
X179670447Y-353185610D01*
X179805727Y-353178283D01*
X179870500Y-353160999D01*
X179920399Y-353136700D01*
X179961752Y-353101700D01*
X179996237Y-353051887D01*
X180018293Y-352993045D01*
X180026004Y-352923293D01*
X180021006Y-352867728D01*
X180006572Y-352818720D01*
X179982956Y-352775007D01*
X179950737Y-352737342D01*
X179911300Y-352708004D01*
X179863521Y-352686530D01*
X179778701Y-352668374D01*
X179643794Y-352660976D01*
X179296481Y-352660976D01*
X179296481Y-353185610D01*
X179097637Y-353185610D01*
X179097637Y-352486587D01*
X179296481Y-352486587D01*
X179621263Y-352486587D01*
X179744091Y-352481262D01*
X179810856Y-352469002D01*
X179878735Y-352437769D01*
X179925070Y-352393439D01*
X179953430Y-352335549D01*
X179963538Y-352260907D01*
X179954313Y-352188892D01*
X179927635Y-352127825D01*
X179900305Y-352093533D01*
X179866488Y-352067508D01*
X179825144Y-352049148D01*
X179746655Y-352034407D01*
X179596625Y-352027899D01*
X179296481Y-352027899D01*
X179296481Y-352486587D01*
X179097637Y-352486587D01*
X179097637Y-351853510D01*
X179661196Y-351853510D01*
X179775844Y-351859379D01*
G37*
G36*
X181267325Y-351836486D02*
G01*
X181363531Y-351855327D01*
X181453856Y-351886267D01*
X181539180Y-351929439D01*
X181617855Y-351984072D01*
X181686064Y-352047995D01*
X181744590Y-352121785D01*
X181793803Y-352206410D01*
X181841741Y-352327615D01*
X181871259Y-352461172D01*
X181881455Y-352609319D01*
X181870754Y-352759294D01*
X181839732Y-352894719D01*
X181789223Y-353017907D01*
X181737539Y-353103662D01*
X181677062Y-353177019D01*
X181607471Y-353239147D01*
X181528006Y-353290757D01*
X181412348Y-353342243D01*
X181291311Y-353373051D01*
X181163198Y-353383447D01*
X181058009Y-353376797D01*
X180960474Y-353357341D01*
X180869461Y-353325460D01*
X180784011Y-353281048D01*
X180705294Y-353224941D01*
X180637346Y-353160060D01*
X180579364Y-353085881D01*
X180530945Y-353001512D01*
X180483119Y-352880992D01*
X180454544Y-352756521D01*
X180445138Y-352629378D01*
X180649830Y-352629378D01*
X180659996Y-352764995D01*
X180688642Y-352879375D01*
X180734018Y-352976191D01*
X180795827Y-353058299D01*
X180873933Y-353127123D01*
X180959793Y-353175478D01*
X181055073Y-353204814D01*
X181162191Y-353214919D01*
X181271422Y-353204643D01*
X181367813Y-353174912D01*
X181453942Y-353126073D01*
X181531578Y-353056741D01*
X181592253Y-352974121D01*
X181637381Y-352874231D01*
X181666227Y-352753579D01*
X181676566Y-352607762D01*
X181669181Y-352486445D01*
X181648122Y-352380184D01*
X181614559Y-352286827D01*
X181566107Y-352201151D01*
X181505896Y-352130843D01*
X181433209Y-352074153D01*
X181350867Y-352032360D01*
X181262106Y-352007177D01*
X181165213Y-351998590D01*
X181062436Y-352007849D01*
X180968827Y-352034953D01*
X180882467Y-352079885D01*
X180801963Y-352143945D01*
X180751543Y-352203425D01*
X180710135Y-352278339D01*
X180678272Y-352371695D01*
X180657411Y-352487251D01*
X180649830Y-352629378D01*
X180445138Y-352629378D01*
X180444941Y-352626721D01*
X180454019Y-352475098D01*
X180479808Y-352343387D01*
X180520717Y-352228742D01*
X180575984Y-352128753D01*
X180645709Y-352041546D01*
X180730340Y-351965702D01*
X180823112Y-351907210D01*
X180925183Y-351865034D01*
X181038199Y-351839051D01*
X181164206Y-351830062D01*
X181267325Y-351836486D01*
G37*
G36*
X182520120Y-353360000D02*
G01*
X182520120Y-352027899D01*
X182025162Y-352027899D01*
X182025162Y-351853510D01*
X183215846Y-351853510D01*
X183215846Y-352027899D01*
X182718873Y-352027899D01*
X182718873Y-353360000D01*
X182520120Y-353360000D01*
G37*
G36*
X183802395Y-353360000D02*
G01*
X183802395Y-352027899D01*
X183307437Y-352027899D01*
X183307437Y-351853510D01*
X184498121Y-351853510D01*
X184498121Y-352027899D01*
X184001148Y-352027899D01*
X184001148Y-353360000D01*
X183802395Y-353360000D01*
G37*
G36*
X185426292Y-351836486D02*
G01*
X185522498Y-351855327D01*
X185612823Y-351886267D01*
X185698147Y-351929439D01*
X185776822Y-351984072D01*
X185845031Y-352047995D01*
X185903557Y-352121785D01*
X185952770Y-352206410D01*
X186000709Y-352327615D01*
X186030226Y-352461172D01*
X186040423Y-352609319D01*
X186029721Y-352759294D01*
X185998699Y-352894719D01*
X185948190Y-353017907D01*
X185896506Y-353103662D01*
X185836029Y-353177019D01*
X185766438Y-353239147D01*
X185686973Y-353290757D01*
X185571316Y-353342243D01*
X185450278Y-353373051D01*
X185322166Y-353383447D01*
X185216976Y-353376797D01*
X185119441Y-353357341D01*
X185028428Y-353325460D01*
X184942978Y-353281048D01*
X184864261Y-353224941D01*
X184796313Y-353160060D01*
X184738331Y-353085881D01*
X184689912Y-353001512D01*
X184642086Y-352880992D01*
X184613511Y-352756521D01*
X184604105Y-352629378D01*
X184808798Y-352629378D01*
X184818964Y-352764995D01*
X184847610Y-352879375D01*
X184892985Y-352976191D01*
X184954794Y-353058299D01*
X185032900Y-353127123D01*
X185118760Y-353175478D01*
X185214040Y-353204814D01*
X185321158Y-353214919D01*
X185430389Y-353204643D01*
X185526780Y-353174912D01*
X185612909Y-353126073D01*
X185690545Y-353056741D01*
X185751220Y-352974121D01*
X185796348Y-352874231D01*
X185825194Y-352753579D01*
X185835533Y-352607762D01*
X185828148Y-352486445D01*
X185807089Y-352380184D01*
X185773526Y-352286827D01*
X185725074Y-352201151D01*
X185664863Y-352130843D01*
X185592176Y-352074153D01*
X185509834Y-352032360D01*
X185421073Y-352007177D01*
X185324181Y-351998590D01*
X185221403Y-352007849D01*
X185127794Y-352034953D01*
X185041434Y-352079885D01*
X184960930Y-352143945D01*
X184910510Y-352203425D01*
X184869102Y-352278339D01*
X184837239Y-352371695D01*
X184816378Y-352487251D01*
X184808798Y-352629378D01*
X184604105Y-352629378D01*
X184603908Y-352626721D01*
X184612987Y-352475098D01*
X184638775Y-352343387D01*
X184679684Y-352228742D01*
X184734951Y-352128753D01*
X184804676Y-352041546D01*
X184889307Y-351965702D01*
X184982079Y-351907210D01*
X185084150Y-351865034D01*
X185197166Y-351839051D01*
X185323173Y-351830062D01*
X185426292Y-351836486D01*
G37*
G36*
X186290741Y-353360000D02*
G01*
X186290741Y-351853510D01*
X186589877Y-351853510D01*
X186945434Y-352920637D01*
X187017150Y-353143753D01*
X187097109Y-352902136D01*
X187456787Y-351853510D01*
X187724233Y-351853510D01*
X187724233Y-353360000D01*
X187532624Y-353360000D01*
X187532624Y-352098424D01*
X187096101Y-353360000D01*
X186916766Y-353360000D01*
X186482350Y-352076900D01*
X186482350Y-353360000D01*
X186290741Y-353360000D01*
G37*
G36*
X188560734Y-352872369D02*
G01*
X188748313Y-352855882D01*
X188761913Y-352931180D01*
X188782825Y-352993349D01*
X188810228Y-353044468D01*
X188847024Y-353088831D01*
X188896610Y-353128558D01*
X188961353Y-353163628D01*
X189031019Y-353188452D01*
X189107521Y-353203768D01*
X189191980Y-353209057D01*
X189301550Y-353200157D01*
X189392747Y-353175169D01*
X189448054Y-353148481D01*
X189490560Y-353117453D01*
X189522349Y-353082204D01*
X189554403Y-353020015D01*
X189564939Y-352953152D01*
X189554530Y-352886321D01*
X189523906Y-352829412D01*
X189473248Y-352783122D01*
X189388717Y-352740478D01*
X189309835Y-352715369D01*
X189121271Y-352667021D01*
X188930732Y-352613783D01*
X188831294Y-352572957D01*
X188763434Y-352530628D01*
X188710674Y-352483922D01*
X188670918Y-352432732D01*
X188641726Y-352374994D01*
X188624150Y-352312891D01*
X188618162Y-352245245D01*
X188625286Y-352171038D01*
X188646566Y-352100373D01*
X188682642Y-352032021D01*
X188731300Y-351972189D01*
X188793467Y-351922109D01*
X188871228Y-351881445D01*
X188955322Y-351853327D01*
X189046833Y-351836020D01*
X189146917Y-351830062D01*
X189257220Y-351836446D01*
X189354833Y-351854717D01*
X189441474Y-351883918D01*
X189521429Y-351926353D01*
X189586184Y-351978962D01*
X189637662Y-352042187D01*
X189676184Y-352114376D01*
X189700791Y-352192757D01*
X189711484Y-352278767D01*
X189520883Y-352293147D01*
X189501285Y-352202184D01*
X189466373Y-352131702D01*
X189416836Y-352077450D01*
X189353610Y-352039127D01*
X189268519Y-352013860D01*
X189155069Y-352004452D01*
X189036016Y-352013334D01*
X188951237Y-352036559D01*
X188892202Y-352070580D01*
X188845334Y-352119170D01*
X188818670Y-352171644D01*
X188809770Y-352230040D01*
X188816422Y-352281412D01*
X188835713Y-352325209D01*
X188868205Y-352363306D01*
X188912193Y-352391505D01*
X189003545Y-352426965D01*
X189167891Y-352470467D01*
X189390444Y-352527206D01*
X189500367Y-352566271D01*
X189583507Y-352612428D01*
X189647017Y-352663553D01*
X189693990Y-352719595D01*
X189728472Y-352783919D01*
X189749369Y-352854638D01*
X189756547Y-352933368D01*
X189749001Y-353011385D01*
X189726372Y-353086339D01*
X189687854Y-353159507D01*
X189636391Y-353224025D01*
X189571296Y-353278913D01*
X189490658Y-353324554D01*
X189403154Y-353356757D01*
X189307128Y-353376599D01*
X189201139Y-353383447D01*
X189065968Y-353376069D01*
X188953216Y-353355531D01*
X188859413Y-353323729D01*
X188773323Y-353276594D01*
X188701816Y-353216930D01*
X188643258Y-353143936D01*
X188599470Y-353060947D01*
X188571965Y-352970987D01*
X188560734Y-352872369D01*
G37*
G36*
X190061728Y-353360000D02*
G01*
X190061728Y-351853510D01*
X190260481Y-351853510D01*
X190260481Y-353360000D01*
X190061728Y-353360000D01*
G37*
G36*
X191293439Y-351859797D02*
G01*
X191396027Y-351875125D01*
X191479329Y-351900905D01*
X191552338Y-351936890D01*
X191616395Y-351983019D01*
X191688305Y-352055593D01*
X191747414Y-352140833D01*
X191794082Y-352240390D01*
X191826065Y-352346432D01*
X191846083Y-352465200D01*
X191853067Y-352598511D01*
X191848279Y-352712574D01*
X191834634Y-352813502D01*
X191813041Y-352902777D01*
X191765738Y-353027524D01*
X191710551Y-353122137D01*
X191643592Y-353201248D01*
X191573805Y-353258791D01*
X191493980Y-353301684D01*
X191394470Y-353334354D01*
X191285334Y-353353193D01*
X191153219Y-353360000D01*
X190611183Y-353360000D01*
X190611183Y-353185610D01*
X190809936Y-353185610D01*
X191130688Y-353185610D01*
X191271064Y-353177674D01*
X191363787Y-353157766D01*
X191441628Y-353123042D01*
X191498518Y-353079181D01*
X191540675Y-353028330D01*
X191577492Y-352965093D01*
X191608610Y-352887390D01*
X191629619Y-352806155D01*
X191643214Y-352709626D01*
X191648086Y-352595397D01*
X191642262Y-352473241D01*
X191626276Y-352374007D01*
X191601986Y-352294015D01*
X191570691Y-352230040D01*
X191512916Y-352151454D01*
X191450488Y-352095605D01*
X191382746Y-352058948D01*
X191327835Y-352043479D01*
X191245043Y-352032285D01*
X191125559Y-352027899D01*
X190809936Y-352027899D01*
X190809936Y-353185610D01*
X190611183Y-353185610D01*
X190611183Y-351853510D01*
X191128581Y-351853510D01*
X191293439Y-351859797D01*
G37*
G36*
X192130496Y-353360000D02*
G01*
X192130496Y-351853510D01*
X193216674Y-351853510D01*
X193216674Y-352027899D01*
X192329340Y-352027899D01*
X192329340Y-352492449D01*
X193160346Y-352492449D01*
X193160346Y-352666838D01*
X192329340Y-352666838D01*
X192329340Y-353185610D01*
X193251571Y-353185610D01*
X193251571Y-353360000D01*
X192130496Y-353360000D01*
G37*
G36*
X176121201Y-357912369D02*
G01*
X176308779Y-357895882D01*
X176322380Y-357971180D01*
X176343292Y-358033349D01*
X176370695Y-358084468D01*
X176407491Y-358128831D01*
X176457076Y-358168558D01*
X176521820Y-358203628D01*
X176591485Y-358228452D01*
X176667988Y-358243768D01*
X176752446Y-358249057D01*
X176862017Y-358240157D01*
X176953214Y-358215169D01*
X177008521Y-358188481D01*
X177051027Y-358157453D01*
X177082815Y-358122204D01*
X177114870Y-358060015D01*
X177125405Y-357993152D01*
X177114997Y-357926321D01*
X177084372Y-357869412D01*
X177033715Y-357823122D01*
X176949184Y-357780478D01*
X176870301Y-357755369D01*
X176681738Y-357707021D01*
X176491199Y-357653783D01*
X176391761Y-357612957D01*
X176323901Y-357570628D01*
X176271141Y-357523922D01*
X176231385Y-357472732D01*
X176202193Y-357414994D01*
X176184617Y-357352891D01*
X176178628Y-357285245D01*
X176185752Y-357211038D01*
X176207033Y-357140373D01*
X176243108Y-357072021D01*
X176291766Y-357012189D01*
X176353933Y-356962109D01*
X176431694Y-356921445D01*
X176515789Y-356893327D01*
X176607300Y-356876020D01*
X176707384Y-356870062D01*
X176817687Y-356876446D01*
X176915299Y-356894717D01*
X177001940Y-356923918D01*
X177081895Y-356966353D01*
X177146651Y-357018962D01*
X177198128Y-357082187D01*
X177236650Y-357154376D01*
X177261257Y-357232757D01*
X177271951Y-357318767D01*
X177081350Y-357333147D01*
X177061751Y-357242184D01*
X177026840Y-357171702D01*
X176977302Y-357117450D01*
X176914077Y-357079127D01*
X176828985Y-357053860D01*
X176715535Y-357044452D01*
X176596483Y-357053334D01*
X176511704Y-357076559D01*
X176452669Y-357110580D01*
X176405800Y-357159170D01*
X176379137Y-357211644D01*
X176370237Y-357270040D01*
X176376889Y-357321412D01*
X176396180Y-357365209D01*
X176428672Y-357403306D01*
X176472659Y-357431505D01*
X176564012Y-357466965D01*
X176728358Y-357510467D01*
X176950911Y-357567206D01*
X177060833Y-357606271D01*
X177143973Y-357652428D01*
X177207484Y-357703553D01*
X177254457Y-357759595D01*
X177288939Y-357823919D01*
X177309836Y-357894638D01*
X177317014Y-357973368D01*
X177309467Y-358051385D01*
X177286839Y-358126339D01*
X177248320Y-358199507D01*
X177196857Y-358264025D01*
X177131763Y-358318913D01*
X177051125Y-358364554D01*
X176963620Y-358396757D01*
X176867595Y-358416599D01*
X176761605Y-358423447D01*
X176626435Y-358416069D01*
X176513682Y-358395531D01*
X176419879Y-358363729D01*
X176333789Y-358316594D01*
X176262283Y-358256930D01*
X176203724Y-358183936D01*
X176159937Y-358100947D01*
X176132431Y-358010987D01*
X176121201Y-357912369D01*
G37*
G36*
X177580155Y-358400000D02*
G01*
X177580155Y-356893510D01*
X177778999Y-356893510D01*
X177778999Y-357641534D01*
X178524917Y-356893510D01*
X178794378Y-356893510D01*
X178164231Y-357504147D01*
X178822038Y-358400000D01*
X178559721Y-358400000D01*
X178024921Y-357637412D01*
X177778999Y-357878297D01*
X177778999Y-358400000D01*
X177580155Y-358400000D01*
G37*
G36*
X178892563Y-357948639D02*
G01*
X178892563Y-357761060D01*
X179459237Y-357761060D01*
X179459237Y-357948639D01*
X178892563Y-357948639D01*
G37*
G36*
X180581411Y-358225610D02*
G01*
X180581411Y-358400000D01*
X179588564Y-358400000D01*
X179592907Y-358334696D01*
X179610088Y-358272138D01*
X179658050Y-358173891D01*
X179731446Y-358072745D01*
X179826500Y-357973552D01*
X179972788Y-357845690D01*
X180134869Y-357705475D01*
X180240464Y-357601458D01*
X180303707Y-357526038D01*
X180353833Y-357444216D01*
X180381226Y-357370613D01*
X180389802Y-357303013D01*
X180380954Y-357232931D01*
X180355104Y-357171775D01*
X180311400Y-357117267D01*
X180255114Y-357075845D01*
X180188018Y-357050460D01*
X180107061Y-357041521D01*
X180021557Y-357051078D01*
X179951641Y-357078091D01*
X179893837Y-357122029D01*
X179850575Y-357180253D01*
X179823239Y-357253145D01*
X179812962Y-357344870D01*
X179623368Y-357325270D01*
X179641144Y-357219615D01*
X179672046Y-357132028D01*
X179714967Y-357059468D01*
X179769914Y-356999664D01*
X179836135Y-356952218D01*
X179913564Y-356917379D01*
X180004320Y-356895420D01*
X180111091Y-356887648D01*
X180218499Y-356895969D01*
X180309553Y-356919491D01*
X180387113Y-356956920D01*
X180453367Y-357008182D01*
X180508792Y-357072420D01*
X180547711Y-357142630D01*
X180571290Y-357220120D01*
X180579396Y-357306769D01*
X180570275Y-357396078D01*
X180542485Y-357484913D01*
X180495862Y-357571077D01*
X180420027Y-357669286D01*
X180318225Y-357772733D01*
X180135729Y-357934900D01*
X179985313Y-358065210D01*
X179922505Y-358125135D01*
X179878789Y-358176166D01*
X179844744Y-358225610D01*
X180581411Y-358225610D01*
G37*
G36*
X181397224Y-356894337D02*
G01*
X181473733Y-356913458D01*
X181540802Y-356944213D01*
X181599904Y-356986658D01*
X181649847Y-357039599D01*
X181689061Y-357101802D01*
X181717833Y-357174695D01*
X181735642Y-357260240D01*
X181552276Y-357274528D01*
X181520168Y-357177098D01*
X181482575Y-357119190D01*
X181428636Y-357075930D01*
X181367912Y-357050304D01*
X181298111Y-357041521D01*
X181240985Y-357047113D01*
X181189849Y-357063412D01*
X181143414Y-357090430D01*
X181090968Y-357137394D01*
X181045161Y-357198163D01*
X181006027Y-357275078D01*
X180980089Y-357357789D01*
X180961726Y-357470477D01*
X180953820Y-357620651D01*
X181002605Y-357557720D01*
X181056746Y-357508056D01*
X181116669Y-357470259D01*
X181182326Y-357442805D01*
X181249384Y-357426518D01*
X181318627Y-357421074D01*
X181408004Y-357429695D01*
X181488996Y-357454936D01*
X181563465Y-357496924D01*
X181632693Y-357557178D01*
X181688545Y-357628808D01*
X181728729Y-357709984D01*
X181753606Y-357802531D01*
X181762295Y-357908888D01*
X181755401Y-358001950D01*
X181735057Y-358089416D01*
X181701295Y-358172396D01*
X181654736Y-358248341D01*
X181599071Y-358309934D01*
X181533775Y-358358784D01*
X181460406Y-358394395D01*
X181380329Y-358416026D01*
X181291974Y-358423447D01*
X181180167Y-358412454D01*
X181081940Y-358380656D01*
X180994472Y-358328302D01*
X180915902Y-358253637D01*
X180868578Y-358185999D01*
X180828991Y-358100211D01*
X180798137Y-357992607D01*
X180785371Y-357908705D01*
X180982488Y-357908705D01*
X180992589Y-358001922D01*
X181022971Y-358091246D01*
X181054287Y-358145764D01*
X181091926Y-358189562D01*
X181136178Y-358223961D01*
X181211449Y-358258377D01*
X181288860Y-358269574D01*
X181362646Y-358259242D01*
X181428800Y-358228524D01*
X181489720Y-358175327D01*
X181534950Y-358107860D01*
X181563458Y-358023908D01*
X181573709Y-357918963D01*
X181563594Y-357818240D01*
X181535460Y-357737898D01*
X181490727Y-357673499D01*
X181430552Y-357623589D01*
X181361819Y-357593947D01*
X181281716Y-357583740D01*
X181202139Y-357593831D01*
X181132276Y-357623392D01*
X181069591Y-357673499D01*
X181022002Y-357738002D01*
X180992791Y-357815208D01*
X180982488Y-357908705D01*
X180785371Y-357908705D01*
X180777784Y-357858846D01*
X180770363Y-357694016D01*
X180778492Y-357510062D01*
X180800868Y-357359492D01*
X180834921Y-357237203D01*
X180878763Y-357138666D01*
X180931289Y-357060022D01*
X180991477Y-356997852D01*
X181058242Y-356950245D01*
X181132478Y-356916039D01*
X181215584Y-356894962D01*
X181309377Y-356887648D01*
X181397224Y-356894337D01*
G37*
G36*
X182514326Y-356893373D02*
G01*
X182584515Y-356909824D01*
X182646973Y-356936374D01*
X182703885Y-356973361D01*
X182753940Y-357019920D01*
X182797640Y-357076967D01*
X182849356Y-357175636D01*
X182890880Y-357300632D01*
X182915092Y-357443932D01*
X182924677Y-357656097D01*
X182917668Y-357833055D01*
X182898678Y-357973444D01*
X182870363Y-358083369D01*
X182826377Y-358186966D01*
X182772161Y-358269685D01*
X182707972Y-358334695D01*
X182631600Y-358383063D01*
X182541745Y-358412934D01*
X182434939Y-358423447D01*
X182329241Y-358413106D01*
X182239044Y-358383554D01*
X182161204Y-358335469D01*
X182093671Y-358267467D01*
X182045578Y-358193342D01*
X182005156Y-358099435D01*
X181973570Y-357981775D01*
X181952714Y-357835729D01*
X181945110Y-357656097D01*
X181945132Y-357655547D01*
X182134704Y-357655547D01*
X182142304Y-357852814D01*
X182161855Y-357991878D01*
X182189181Y-358086207D01*
X182221257Y-358147300D01*
X182269378Y-358202960D01*
X182320323Y-358240343D01*
X182374968Y-358262205D01*
X182434939Y-358269574D01*
X182494831Y-358262183D01*
X182549433Y-358240242D01*
X182600375Y-358202699D01*
X182648530Y-358146750D01*
X182680681Y-358085397D01*
X182708034Y-357990976D01*
X182727582Y-357852125D01*
X182735175Y-357655547D01*
X182727553Y-357457659D01*
X182707961Y-357318413D01*
X182680606Y-357224182D01*
X182648530Y-357163337D01*
X182600455Y-357108054D01*
X182549206Y-357070790D01*
X182493885Y-357048916D01*
X182432833Y-357041521D01*
X182372067Y-357048341D01*
X182319067Y-357068131D01*
X182272037Y-357101086D01*
X182229959Y-357148957D01*
X182193875Y-357217478D01*
X182163848Y-357317899D01*
X182142779Y-357460094D01*
X182134704Y-357655547D01*
X181945132Y-357655547D01*
X181952197Y-357477638D01*
X181971363Y-357336624D01*
X181999882Y-357226718D01*
X182044212Y-357123130D01*
X182098614Y-357040608D01*
X182162822Y-356975942D01*
X182239202Y-356927793D01*
X182328779Y-356898089D01*
X182434939Y-356887648D01*
X182514326Y-356893373D01*
G37*
G36*
X183806332Y-358400000D02*
G01*
X183621868Y-358400000D01*
X183621868Y-357221589D01*
X183548466Y-357282660D01*
X183447204Y-357348992D01*
X183340637Y-357406654D01*
X183253031Y-357444521D01*
X183253031Y-357268667D01*
X183353355Y-357215296D01*
X183443238Y-357155932D01*
X183523499Y-357090614D01*
X183597133Y-357017232D01*
X183650687Y-356949865D01*
X183687447Y-356887648D01*
X183806332Y-356887648D01*
X183806332Y-358400000D01*
G37*
G36*
X184257602Y-357948639D02*
G01*
X184257602Y-357761060D01*
X184824276Y-357761060D01*
X184824276Y-357948639D01*
X184257602Y-357948639D01*
G37*
G36*
X184977141Y-358001395D02*
G01*
X185170765Y-357985000D01*
X185192983Y-358076151D01*
X185226647Y-358145781D01*
X185270690Y-358198224D01*
X185326408Y-358237792D01*
X185388735Y-358261450D01*
X185459734Y-358269574D01*
X185524176Y-358263199D01*
X185582363Y-358244545D01*
X185635702Y-358213488D01*
X185685140Y-358168824D01*
X185724468Y-358116060D01*
X185753118Y-358055045D01*
X185771054Y-357984219D01*
X185777372Y-357901561D01*
X185771245Y-357822962D01*
X185753937Y-357756470D01*
X185726411Y-357699955D01*
X185688712Y-357651792D01*
X185624602Y-357601551D01*
X185548450Y-357571007D01*
X185456712Y-357560293D01*
X185371124Y-357570790D01*
X185295786Y-357601509D01*
X185231307Y-357649204D01*
X185183129Y-357708304D01*
X185009931Y-357685772D01*
X185155469Y-356911095D01*
X185902394Y-356911095D01*
X185902394Y-357085484D01*
X185303022Y-357085484D01*
X185222056Y-357494164D01*
X185315796Y-357439580D01*
X185409795Y-357408029D01*
X185505896Y-357397627D01*
X185601702Y-357406423D01*
X185687729Y-357432036D01*
X185765968Y-357474316D01*
X185837822Y-357534464D01*
X185896405Y-357606846D01*
X185938303Y-357688330D01*
X185964115Y-357780692D01*
X185973102Y-357886357D01*
X185965365Y-357987228D01*
X185942843Y-358078826D01*
X185905942Y-358162753D01*
X185854217Y-358240265D01*
X185792077Y-358306334D01*
X185722789Y-358356899D01*
X185645399Y-358393239D01*
X185558379Y-358415655D01*
X185459734Y-358423447D01*
X185358275Y-358415633D01*
X185270103Y-358393311D01*
X185192973Y-358357416D01*
X185125152Y-358307859D01*
X185067823Y-358246047D01*
X185024295Y-358175396D01*
X184993941Y-358094507D01*
X184977141Y-358001395D01*
G37*
G36*
X186838363Y-358400000D02*
G01*
X186653899Y-358400000D01*
X186653899Y-357221589D01*
X186580497Y-357282660D01*
X186479235Y-357348992D01*
X186372667Y-357406654D01*
X186285061Y-357444521D01*
X186285061Y-357268667D01*
X186385385Y-357215296D01*
X186475269Y-357155932D01*
X186555530Y-357090614D01*
X186629164Y-357017232D01*
X186682717Y-356949865D01*
X186719478Y-356887648D01*
X186838363Y-356887648D01*
X186838363Y-358400000D01*
G37*
G36*
X179267162Y-359418970D02*
G01*
X179366482Y-359433287D01*
X179437714Y-359453810D01*
X179502283Y-359487247D01*
X179557606Y-359534169D01*
X179604684Y-359596142D01*
X179639372Y-359666312D01*
X179660181Y-359740981D01*
X179667241Y-359821456D01*
X179660515Y-359899327D01*
X179640994Y-359969033D01*
X179608957Y-360032122D01*
X179563743Y-360089726D01*
X179509227Y-360136363D01*
X179439827Y-360175499D01*
X179352644Y-360206613D01*
X179244090Y-360228395D01*
X179317078Y-360268796D01*
X179363891Y-360304050D01*
X179446647Y-360392531D01*
X179528939Y-360506283D01*
X179790156Y-360920000D01*
X179540204Y-360920000D01*
X179341360Y-360603461D01*
X179197928Y-360393900D01*
X179140897Y-360328478D01*
X179096995Y-360292143D01*
X179051386Y-360267221D01*
X179006320Y-360251659D01*
X178895678Y-360244424D01*
X178665143Y-360244424D01*
X178665143Y-360920000D01*
X178466299Y-360920000D01*
X178466299Y-360075896D01*
X178665143Y-360075896D01*
X179092416Y-360075896D01*
X179220993Y-360067934D01*
X179305548Y-360047961D01*
X179353618Y-360024966D01*
X179392098Y-359995173D01*
X179422327Y-359958293D01*
X179452317Y-359893862D01*
X179462260Y-359824387D01*
X179453466Y-359757284D01*
X179427941Y-359700068D01*
X179384866Y-359650273D01*
X179329049Y-359614851D01*
X179250156Y-359591058D01*
X179140592Y-359582037D01*
X178665143Y-359582037D01*
X178665143Y-360075896D01*
X178466299Y-360075896D01*
X178466299Y-359413510D01*
X179132349Y-359413510D01*
X179267162Y-359418970D01*
G37*
G36*
X179982589Y-360920000D02*
G01*
X179982589Y-359413510D01*
X181068768Y-359413510D01*
X181068768Y-359587899D01*
X180181433Y-359587899D01*
X180181433Y-360052449D01*
X181012439Y-360052449D01*
X181012439Y-360226838D01*
X180181433Y-360226838D01*
X180181433Y-360745610D01*
X181103664Y-360745610D01*
X181103664Y-360920000D01*
X179982589Y-360920000D01*
G37*
G36*
X181807358Y-360920000D02*
G01*
X181225388Y-359413510D01*
X181440536Y-359413510D01*
X181830988Y-360508298D01*
X181909848Y-360755044D01*
X181990815Y-360508298D01*
X182396563Y-359413510D01*
X182599438Y-359413510D01*
X182011331Y-360920000D01*
X181807358Y-360920000D01*
G37*
G36*
X182566465Y-360468639D02*
G01*
X182566465Y-360281060D01*
X183133139Y-360281060D01*
X183133139Y-360468639D01*
X182566465Y-360468639D01*
G37*
G36*
X183980722Y-360920000D02*
G01*
X183796258Y-360920000D01*
X183796258Y-359741589D01*
X183722856Y-359802660D01*
X183621594Y-359868992D01*
X183515027Y-359926654D01*
X183427421Y-359964521D01*
X183427421Y-359788667D01*
X183527745Y-359735296D01*
X183617628Y-359675932D01*
X183697889Y-359610614D01*
X183771523Y-359537232D01*
X183825077Y-359469865D01*
X183861837Y-359407648D01*
X183980722Y-359407648D01*
X183980722Y-360920000D01*
G37*
D11*
%TO.P,J4,1,In*%
%TO.N,Net-(J4-In)*%
X110160000Y-288710000D03*
D12*
%TO.P,J4,2,Ext*%
%TO.N,GND*%
X112700000Y-291250000D03*
X112700000Y-286170000D03*
X107620000Y-291250000D03*
X107620000Y-286170000D03*
%TD*%
D13*
%TO.P,MT2,1,1*%
%TO.N,GND*%
X111960000Y-329920000D03*
%TD*%
D14*
%TO.P,U3,21,GND_TH*%
%TO.N,GND*%
X177000000Y-293914322D03*
X177500000Y-293414322D03*
X177500000Y-294414322D03*
X178000000Y-293914322D03*
%TD*%
%TO.P,U6,9,GND*%
%TO.N,GND*%
X283700000Y-320800000D03*
X283700000Y-319700000D03*
%TD*%
%TO.P,U4,23,PGND*%
%TO.N,GND*%
X269650000Y-320100002D03*
X270299998Y-320650001D03*
X268999998Y-320650001D03*
X269650000Y-321200000D03*
%TD*%
D13*
%TO.P,MT4,1,1*%
%TO.N,GND*%
X246580000Y-263880000D03*
%TD*%
D15*
%TO.P,J5,1,1*%
%TO.N,/Pulser Interface/tp_pos0*%
X204160000Y-267500000D03*
D16*
%TO.P,J5,2,2*%
%TO.N,GND*%
X204160000Y-264960000D03*
%TO.P,J5,3,3*%
%TO.N,/Pulser Interface/tp_pos1*%
X206700000Y-267500000D03*
%TO.P,J5,4,4*%
%TO.N,GND*%
X206700000Y-264960000D03*
%TO.P,J5,5,5*%
%TO.N,/Pulser Interface/tp_pos2*%
X209240000Y-267500000D03*
%TO.P,J5,6,6*%
%TO.N,GND*%
X209240000Y-264960000D03*
%TO.P,J5,7,7*%
%TO.N,/Pulser Interface/tp_pos3*%
X211780000Y-267500000D03*
%TO.P,J5,8,8*%
%TO.N,GND*%
X211780000Y-264960000D03*
%TO.P,J5,9,9*%
%TO.N,/Pulser Interface/tp_pos4*%
X214320000Y-267500000D03*
%TO.P,J5,10,10*%
%TO.N,GND*%
X214320000Y-264960000D03*
%TO.P,J5,11,11*%
%TO.N,/Pulser Interface/tp_neg0*%
X216860000Y-267500000D03*
%TO.P,J5,12,12*%
%TO.N,GND*%
X216860000Y-264960000D03*
%TO.P,J5,13,13*%
%TO.N,/Pulser Interface/tp_neg1*%
X219400000Y-267500000D03*
%TO.P,J5,14,14*%
%TO.N,GND*%
X219400000Y-264960000D03*
%TO.P,J5,15,15*%
%TO.N,/Pulser Interface/tp_neg2*%
X221940000Y-267500000D03*
%TO.P,J5,16,16*%
%TO.N,GND*%
X221940000Y-264960000D03*
%TO.P,J5,17,17*%
%TO.N,/Pulser Interface/tp_neg3*%
X224480000Y-267500000D03*
%TO.P,J5,18,18*%
%TO.N,GND*%
X224480000Y-264960000D03*
%TO.P,J5,19,19*%
%TO.N,/Pulser Interface/tp_neg4*%
X227020000Y-267500000D03*
%TO.P,J5,20,20*%
%TO.N,GND*%
X227020000Y-264960000D03*
%TD*%
D13*
%TO.P,MT5,1,1*%
%TO.N,GND*%
X299920000Y-329920000D03*
%TD*%
%TO.P,MT8,1,1*%
%TO.N,GND*%
X68780000Y-263880000D03*
%TD*%
%TO.P,MT6,1,1*%
%TO.N,GND*%
X164738974Y-263880000D03*
%TD*%
D14*
%TO.P,U10,11,GNDTH*%
%TO.N,GND*%
X271975000Y-305700000D03*
X271400000Y-306650000D03*
X271400000Y-304750000D03*
X270825000Y-305700000D03*
%TD*%
%TO.P,U2,49,GND*%
%TO.N,GND*%
X160950000Y-296500000D03*
X159700000Y-296500000D03*
X158450000Y-296500000D03*
X157200000Y-296500000D03*
X160950000Y-298000000D03*
X159700000Y-298000000D03*
X158450000Y-298000000D03*
X157200000Y-298000000D03*
X160950000Y-299250000D03*
X159700000Y-299250000D03*
X158450000Y-299250000D03*
X157200000Y-299250000D03*
X160950000Y-300500000D03*
X159700000Y-300500000D03*
X158450000Y-300500000D03*
X157200000Y-300500000D03*
%TD*%
D17*
%TO.P,J2,A1,A1*%
%TO.N,unconnected-(J2-PadA1)*%
X217624000Y-321284000D03*
D18*
%TO.P,J2,A2,A2*%
%TO.N,unconnected-(J2-PadA2)*%
X215124000Y-321284000D03*
%TO.P,J2,A3,A3*%
%TO.N,unconnected-(J2-PadA3)*%
X212624000Y-321284000D03*
%TO.P,J2,A4,A4*%
%TO.N,unconnected-(J2-PadA4)*%
X210124000Y-321284000D03*
%TO.P,J2,A5,A5*%
%TO.N,unconnected-(J2-PadA5)*%
X207624000Y-321284000D03*
%TO.P,J2,A6,A6*%
%TO.N,unconnected-(J2-PadA6)*%
X205124000Y-321284000D03*
%TO.P,J2,A7,A7*%
%TO.N,unconnected-(J2-PadA7)*%
X202624000Y-321284000D03*
%TO.P,J2,A8,A8*%
%TO.N,unconnected-(J2-PadA8)*%
X200124000Y-321284000D03*
%TO.P,J2,A9,A9*%
%TO.N,unconnected-(J2-PadA9)*%
X197624000Y-321284000D03*
%TO.P,J2,A10,A10*%
%TO.N,unconnected-(J2-PadA10)*%
X195124000Y-321284000D03*
%TO.P,J2,B1,B1*%
%TO.N,unconnected-(J2-PadB1)*%
X217624000Y-319784000D03*
%TO.P,J2,B2,B2*%
%TO.N,unconnected-(J2-PadB2)*%
X215124000Y-319784000D03*
%TO.P,J2,B3,B3*%
%TO.N,unconnected-(J2-PadB3)*%
X212624000Y-319784000D03*
%TO.P,J2,B4,B4*%
%TO.N,unconnected-(J2-PadB4)*%
X210124000Y-319784000D03*
%TO.P,J2,B5,B5*%
%TO.N,unconnected-(J2-PadB5)*%
X207624000Y-319784000D03*
%TO.P,J2,B6,B6*%
%TO.N,unconnected-(J2-PadB6)*%
X205124000Y-319784000D03*
%TO.P,J2,B7,B7*%
%TO.N,unconnected-(J2-PadB7)*%
X202624000Y-319784000D03*
%TO.P,J2,B8,B8*%
%TO.N,unconnected-(J2-PadB8)*%
X200124000Y-319784000D03*
%TO.P,J2,B9,B9*%
%TO.N,unconnected-(J2-PadB9)*%
X197624000Y-319784000D03*
%TO.P,J2,B10,B10*%
%TO.N,unconnected-(J2-PadB10)*%
X195124000Y-319784000D03*
%TO.P,J2,BG1,BG1*%
%TO.N,GND*%
X217624000Y-318284000D03*
%TO.P,J2,BG2,BG2*%
X215124000Y-318284000D03*
%TO.P,J2,BG3,BG3*%
X212624000Y-318284000D03*
%TO.P,J2,BG4,BG4*%
X210124000Y-318284000D03*
%TO.P,J2,BG5,BG5*%
X207624000Y-318284000D03*
%TO.P,J2,BG6,BG6*%
X205124000Y-318284000D03*
%TO.P,J2,BG7,BG7*%
X202624000Y-318284000D03*
%TO.P,J2,BG8,BG8*%
X200124000Y-318284000D03*
%TO.P,J2,BG9,BG9*%
X197624000Y-318284000D03*
%TO.P,J2,BG10,BG10*%
X195124000Y-318284000D03*
%TO.P,J2,C1,C1*%
%TO.N,unconnected-(J2-PadC1)*%
X217624000Y-316784000D03*
%TO.P,J2,C2,C2*%
%TO.N,unconnected-(J2-PadC2)*%
X215124000Y-316784000D03*
%TO.P,J2,C3,C3*%
%TO.N,/Fault LED's/fault_led15*%
X212624000Y-316784000D03*
%TO.P,J2,C4,C4*%
%TO.N,/Fault LED's/fault_led13*%
X210124000Y-316784000D03*
%TO.P,J2,C5,C5*%
%TO.N,/Fault LED's/fault_led11*%
X207624000Y-316784000D03*
%TO.P,J2,C6,C6*%
%TO.N,/Fault LED's/fault_led9*%
X205124000Y-316784000D03*
%TO.P,J2,C7,C7*%
%TO.N,/Fault LED's/fault_led7*%
X202624000Y-316784000D03*
%TO.P,J2,C8,C8*%
%TO.N,/Fault LED's/fault_led5*%
X200124000Y-316784000D03*
%TO.P,J2,C9,C9*%
%TO.N,/Fault LED's/fault_led3*%
X197624000Y-316784000D03*
%TO.P,J2,C10,C10*%
%TO.N,/Fault LED's/fault_led1*%
X195124000Y-316784000D03*
%TO.P,J2,D1,D1*%
%TO.N,unconnected-(J2-PadD1)*%
X217624000Y-315284000D03*
%TO.P,J2,D2,D2*%
%TO.N,unconnected-(J2-PadD2)*%
X215124000Y-315284000D03*
%TO.P,J2,D3,D3*%
%TO.N,/Fault LED's/fault_led14*%
X212624000Y-315284000D03*
%TO.P,J2,D4,D4*%
%TO.N,/Fault LED's/fault_led12*%
X210124000Y-315284000D03*
%TO.P,J2,D5,D5*%
%TO.N,/Fault LED's/fault_led10*%
X207624000Y-315284000D03*
%TO.P,J2,D6,D6*%
%TO.N,/Fault LED's/fault_led8*%
X205124000Y-315284000D03*
%TO.P,J2,D7,D7*%
%TO.N,/Fault LED's/fault_led6*%
X202624000Y-315284000D03*
%TO.P,J2,D8,D8*%
%TO.N,/Fault LED's/fault_led4*%
X200124000Y-315284000D03*
%TO.P,J2,D9,D9*%
%TO.N,/Fault LED's/fault_led2*%
X197624000Y-315284000D03*
%TO.P,J2,D10,D10*%
%TO.N,/Fault LED's/fault_led0*%
X195124000Y-315284000D03*
%TO.P,J2,DG1,DG1*%
%TO.N,GND*%
X217624000Y-313784000D03*
%TO.P,J2,DG2,DG2*%
X215124000Y-313784000D03*
%TO.P,J2,DG3,DG3*%
X212624000Y-313784000D03*
%TO.P,J2,DG4,DG4*%
X210124000Y-313784000D03*
%TO.P,J2,DG5,DG5*%
X207624000Y-313784000D03*
%TO.P,J2,DG6,DG6*%
X205124000Y-313784000D03*
%TO.P,J2,DG7,DG7*%
X202624000Y-313784000D03*
%TO.P,J2,DG8,DG8*%
X200124000Y-313784000D03*
%TO.P,J2,DG9,DG9*%
X197624000Y-313784000D03*
%TO.P,J2,DG10,DG10*%
X195124000Y-313784000D03*
%TD*%
D19*
%TO.P,J6,1,1*%
%TO.N,GND*%
X293770000Y-319750000D03*
D20*
%TO.P,J6,2,2*%
%TO.N,/Regulators/+5VIN*%
X288270000Y-319750000D03*
%TD*%
D17*
%TO.P,J1,A1,A1*%
%TO.N,/adc/CSN*%
X166824000Y-321284000D03*
D18*
%TO.P,J1,A2,A2*%
%TO.N,/adc/SDI*%
X164324000Y-321284000D03*
%TO.P,J1,A3,A3*%
%TO.N,/adc/D14_P*%
X161824000Y-321284000D03*
%TO.P,J1,A4,A4*%
%TO.N,/adc/D10_P*%
X159324000Y-321284000D03*
%TO.P,J1,A5,A5*%
%TO.N,/adc/CLKOUT_P*%
X156824000Y-321284000D03*
%TO.P,J1,A6,A6*%
%TO.N,/adc/D6_P*%
X154324000Y-321284000D03*
%TO.P,J1,A7,A7*%
%TO.N,/adc/D2_P*%
X151824000Y-321284000D03*
%TO.P,J1,A8,A8*%
%TO.N,/adc/SDO*%
X149324000Y-321284000D03*
%TO.P,J1,A9,A9*%
%TO.N,unconnected-(J1-PadA9)*%
X146824000Y-321284000D03*
%TO.P,J1,A10,A10*%
%TO.N,unconnected-(J1-PadA10)*%
X144324000Y-321284000D03*
%TO.P,J1,B1,B1*%
%TO.N,unconnected-(J1-PadB1)*%
X166824000Y-319784000D03*
%TO.P,J1,B2,B2*%
%TO.N,unconnected-(J1-PadB2)*%
X164324000Y-319784000D03*
%TO.P,J1,B3,B3*%
%TO.N,/adc/D14_N*%
X161824000Y-319784000D03*
%TO.P,J1,B4,B4*%
%TO.N,/adc/D10_N*%
X159324000Y-319784000D03*
%TO.P,J1,B5,B5*%
%TO.N,/adc/CLKOUT_N*%
X156824000Y-319784000D03*
%TO.P,J1,B6,B6*%
%TO.N,/adc/D6_N*%
X154324000Y-319784000D03*
%TO.P,J1,B7,B7*%
%TO.N,/adc/D2_N*%
X151824000Y-319784000D03*
%TO.P,J1,B8,B8*%
%TO.N,unconnected-(J1-PadB8)*%
X149324000Y-319784000D03*
%TO.P,J1,B9,B9*%
%TO.N,unconnected-(J1-PadB9)*%
X146824000Y-319784000D03*
%TO.P,J1,B10,B10*%
%TO.N,unconnected-(J1-PadB10)*%
X144324000Y-319784000D03*
%TO.P,J1,BG1,BG1*%
%TO.N,GND*%
X166824000Y-318284000D03*
%TO.P,J1,BG2,BG2*%
X164324000Y-318284000D03*
%TO.P,J1,BG3,BG3*%
X161824000Y-318284000D03*
%TO.P,J1,BG4,BG4*%
X159324000Y-318284000D03*
%TO.P,J1,BG5,BG5*%
X156824000Y-318284000D03*
%TO.P,J1,BG6,BG6*%
X154324000Y-318284000D03*
%TO.P,J1,BG7,BG7*%
X151824000Y-318284000D03*
%TO.P,J1,BG8,BG8*%
X149324000Y-318284000D03*
%TO.P,J1,BG9,BG9*%
X146824000Y-318284000D03*
%TO.P,J1,BG10,BG10*%
X144324000Y-318284000D03*
%TO.P,J1,C1,C1*%
%TO.N,/adc/SCK*%
X166824000Y-316784000D03*
%TO.P,J1,C2,C2*%
%TO.N,/adc/OF_P*%
X164324000Y-316784000D03*
%TO.P,J1,C3,C3*%
%TO.N,/adc/D12_P*%
X161824000Y-316784000D03*
%TO.P,J1,C4,C4*%
%TO.N,unconnected-(J1-PadC4)*%
X159324000Y-316784000D03*
%TO.P,J1,C5,C5*%
%TO.N,/adc/D8_P*%
X156824000Y-316784000D03*
%TO.P,J1,C6,C6*%
%TO.N,/adc/D4_P*%
X154324000Y-316784000D03*
%TO.P,J1,C7,C7*%
%TO.N,/adc/D0_P*%
X151824000Y-316784000D03*
%TO.P,J1,C8,C8*%
%TO.N,unconnected-(J1-PadC8)*%
X149324000Y-316784000D03*
%TO.P,J1,C9,C9*%
%TO.N,unconnected-(J1-PadC9)*%
X146824000Y-316784000D03*
%TO.P,J1,C10,C10*%
%TO.N,unconnected-(J1-PadC10)*%
X144324000Y-316784000D03*
%TO.P,J1,D1,D1*%
%TO.N,unconnected-(J1-PadD1)*%
X166824000Y-315284000D03*
%TO.P,J1,D2,D2*%
%TO.N,/adc/OF_N*%
X164324000Y-315284000D03*
%TO.P,J1,D3,D3*%
%TO.N,/adc/D12_N*%
X161824000Y-315284000D03*
%TO.P,J1,D4,D4*%
%TO.N,unconnected-(J1-PadD4)*%
X159324000Y-315284000D03*
%TO.P,J1,D5,D5*%
%TO.N,/adc/D8_N*%
X156824000Y-315284000D03*
%TO.P,J1,D6,D6*%
%TO.N,/adc/D4_N*%
X154324000Y-315284000D03*
%TO.P,J1,D7,D7*%
%TO.N,/adc/D0_N*%
X151824000Y-315284000D03*
%TO.P,J1,D8,D8*%
%TO.N,unconnected-(J1-PadD8)*%
X149324000Y-315284000D03*
%TO.P,J1,D9,D9*%
%TO.N,unconnected-(J1-PadD9)*%
X146824000Y-315284000D03*
%TO.P,J1,D10,D10*%
%TO.N,unconnected-(J1-PadD10)*%
X144324000Y-315284000D03*
%TO.P,J1,DG1,DG1*%
%TO.N,GND*%
X166824000Y-313784000D03*
%TO.P,J1,DG2,DG2*%
X164324000Y-313784000D03*
%TO.P,J1,DG3,DG3*%
X161824000Y-313784000D03*
%TO.P,J1,DG4,DG4*%
X159324000Y-313784000D03*
%TO.P,J1,DG5,DG5*%
X156824000Y-313784000D03*
%TO.P,J1,DG6,DG6*%
X154324000Y-313784000D03*
%TO.P,J1,DG7,DG7*%
X151824000Y-313784000D03*
%TO.P,J1,DG8,DG8*%
X149324000Y-313784000D03*
%TO.P,J1,DG9,DG9*%
X146824000Y-313784000D03*
%TO.P,J1,DG10,DG10*%
X144324000Y-313784000D03*
%TD*%
D15*
%TO.P,J7,1,1*%
%TO.N,/Relay Board Interface/faultn*%
X111240000Y-267500000D03*
D16*
%TO.P,J7,2,2*%
%TO.N,GND*%
X111240000Y-264960000D03*
%TO.P,J7,3,3*%
%TO.N,/Relay Board Interface/fault_rdbk*%
X113780000Y-267500000D03*
%TO.P,J7,4,4*%
%TO.N,GND*%
X113780000Y-264960000D03*
%TO.P,J7,5,5*%
%TO.N,/Relay Board Interface/fault_reset*%
X116320000Y-267500000D03*
%TO.P,J7,6,6*%
%TO.N,GND*%
X116320000Y-264960000D03*
%TO.P,J7,7,7*%
%TO.N,/Relay Board Interface/force_trip*%
X118860000Y-267500000D03*
%TO.P,J7,8,8*%
%TO.N,GND*%
X118860000Y-264960000D03*
%TO.P,J7,9,9*%
%TO.N,/Relay Board Interface/keylock*%
X121400000Y-267500000D03*
%TO.P,J7,10,10*%
%TO.N,GND*%
X121400000Y-264960000D03*
%TO.P,J7,11,11*%
%TO.N,/Relay Board Interface/spare0*%
X123940000Y-267500000D03*
%TO.P,J7,12,12*%
%TO.N,GND*%
X123940000Y-264960000D03*
%TO.P,J7,13,13*%
%TO.N,/Relay Board Interface/spare1*%
X126480000Y-267500000D03*
%TO.P,J7,14,14*%
%TO.N,GND*%
X126480000Y-264960000D03*
%TO.P,J7,15,15*%
%TO.N,/Relay Board Interface/spare2*%
X129020000Y-267500000D03*
%TO.P,J7,16,16*%
%TO.N,GND*%
X129020000Y-264960000D03*
%TO.P,J7,17,17*%
%TO.N,/Relay Board Interface/spare3*%
X131560000Y-267500000D03*
%TO.P,J7,18,18*%
%TO.N,GND*%
X131560000Y-264960000D03*
%TO.P,J7,19,19*%
%TO.N,/Relay Board Interface/spare4*%
X134100000Y-267500000D03*
%TO.P,J7,20,20*%
%TO.N,GND*%
X134100000Y-264960000D03*
%TD*%
D14*
%TO.P,U5,21,GND_TH*%
%TO.N,GND*%
X177000000Y-306800000D03*
X177500000Y-306300000D03*
X177500000Y-307300000D03*
X178000000Y-306800000D03*
%TD*%
D13*
%TO.P,MT3,1,1*%
%TO.N,GND*%
X250644000Y-329920000D03*
%TD*%
D17*
%TO.P,J3,A1,A1*%
%TO.N,/Pulser Interface/tp_neg4*%
X243024000Y-321284000D03*
D18*
%TO.P,J3,A2,A2*%
%TO.N,/Pulser Interface/tp_neg0*%
X240524000Y-321284000D03*
%TO.P,J3,A3,A3*%
%TO.N,/Pulser Interface/tp_pos1*%
X238024000Y-321284000D03*
%TO.P,J3,A4,A4*%
%TO.N,unconnected-(J3-PadA4)*%
X235524000Y-321284000D03*
%TO.P,J3,A5,A5*%
%TO.N,/EEPROM/csn*%
X233024000Y-321284000D03*
%TO.P,J3,A6,A6*%
%TO.N,/EEPROM/sdo*%
X230524000Y-321284000D03*
%TO.P,J3,A7,A7*%
%TO.N,/Relay Board Interface/wdi*%
X228024000Y-321284000D03*
%TO.P,J3,A8,A8*%
%TO.N,/Relay Board Interface/spare3*%
X225524000Y-321284000D03*
%TO.P,J3,A9,A9*%
%TO.N,/Relay Board Interface/keylock*%
X223024000Y-321284000D03*
%TO.P,J3,A10,A10*%
%TO.N,/Relay Board Interface/faultn*%
X220524000Y-321284000D03*
%TO.P,J3,B1,B1*%
%TO.N,/Pulser Interface/tp_neg3*%
X243024000Y-319784000D03*
%TO.P,J3,B2,B2*%
%TO.N,/Pulser Interface/tp_pos4*%
X240524000Y-319784000D03*
%TO.P,J3,B3,B3*%
%TO.N,/Pulser Interface/tp_pos0*%
X238024000Y-319784000D03*
%TO.P,J3,B4,B4*%
%TO.N,unconnected-(J3-PadB4)*%
X235524000Y-319784000D03*
%TO.P,J3,B5,B5*%
%TO.N,/EEPROM/sck*%
X233024000Y-319784000D03*
%TO.P,J3,B6,B6*%
%TO.N,/EEPROM/wpn*%
X230524000Y-319784000D03*
%TO.P,J3,B7,B7*%
%TO.N,unconnected-(J3-PadB7)*%
X228024000Y-319784000D03*
%TO.P,J3,B8,B8*%
%TO.N,/Relay Board Interface/spare2*%
X225524000Y-319784000D03*
%TO.P,J3,B9,B9*%
%TO.N,/Relay Board Interface/force_trip*%
X223024000Y-319784000D03*
%TO.P,J3,B10,B10*%
%TO.N,/Regulators/afe_pwrenb*%
X220524000Y-319784000D03*
%TO.P,J3,BG1,BG1*%
%TO.N,GND*%
X243024000Y-318284000D03*
%TO.P,J3,BG2,BG2*%
X240524000Y-318284000D03*
%TO.P,J3,BG3,BG3*%
X238024000Y-318284000D03*
%TO.P,J3,BG4,BG4*%
X235524000Y-318284000D03*
%TO.P,J3,BG5,BG5*%
X233024000Y-318284000D03*
%TO.P,J3,BG6,BG6*%
X230524000Y-318284000D03*
%TO.P,J3,BG7,BG7*%
X228024000Y-318284000D03*
%TO.P,J3,BG8,BG8*%
X225524000Y-318284000D03*
%TO.P,J3,BG9,BG9*%
X223024000Y-318284000D03*
%TO.P,J3,BG10,BG10*%
X220524000Y-318284000D03*
%TO.P,J3,C1,C1*%
%TO.N,/Pulser Interface/tp_neg2*%
X243024000Y-316784000D03*
%TO.P,J3,C2,C2*%
%TO.N,/Pulser Interface/tp_pos3*%
X240524000Y-316784000D03*
%TO.P,J3,C3,C3*%
%TO.N,unconnected-(J3-PadC3)*%
X238024000Y-316784000D03*
%TO.P,J3,C4,C4*%
%TO.N,unconnected-(J3-PadC4)*%
X235524000Y-316784000D03*
%TO.P,J3,C5,C5*%
%TO.N,/EEPROM/sdi*%
X233024000Y-316784000D03*
%TO.P,J3,C6,C6*%
%TO.N,unconnected-(J3-PadC6)*%
X230524000Y-316784000D03*
%TO.P,J3,C7,C7*%
%TO.N,unconnected-(J3-PadC7)*%
X228024000Y-316784000D03*
%TO.P,J3,C8,C8*%
%TO.N,/Relay Board Interface/spare1*%
X225524000Y-316784000D03*
%TO.P,J3,C9,C9*%
%TO.N,/Relay Board Interface/fault_reset*%
X223024000Y-316784000D03*
%TO.P,J3,C10,C10*%
%TO.N,/zuDFE Connectors/i2c_sda*%
X220524000Y-316784000D03*
%TO.P,J3,D1,D1*%
%TO.N,/Pulser Interface/tp_neg1*%
X243024000Y-315284000D03*
%TO.P,J3,D2,D2*%
%TO.N,/Pulser Interface/tp_pos2*%
X240524000Y-315284000D03*
%TO.P,J3,D3,D3*%
%TO.N,unconnected-(J3-PadD3)*%
X238024000Y-315284000D03*
%TO.P,J3,D4,D4*%
%TO.N,unconnected-(J3-PadD4)*%
X235524000Y-315284000D03*
%TO.P,J3,D5,D5*%
%TO.N,/EEPROM/holdn*%
X233024000Y-315284000D03*
%TO.P,J3,D6,D6*%
%TO.N,unconnected-(J3-PadD6)*%
X230524000Y-315284000D03*
%TO.P,J3,D7,D7*%
%TO.N,/Relay Board Interface/spare4*%
X228024000Y-315284000D03*
%TO.P,J3,D8,D8*%
%TO.N,/Relay Board Interface/spare0*%
X225524000Y-315284000D03*
%TO.P,J3,D9,D9*%
%TO.N,/Relay Board Interface/fault_rdbk*%
X223024000Y-315284000D03*
%TO.P,J3,D10,D10*%
%TO.N,/zuDFE Connectors/i2c_scl*%
X220524000Y-315284000D03*
%TO.P,J3,DG1,DG1*%
%TO.N,GND*%
X243024000Y-313784000D03*
%TO.P,J3,DG2,DG2*%
X240524000Y-313784000D03*
%TO.P,J3,DG3,DG3*%
X238024000Y-313784000D03*
%TO.P,J3,DG4,DG4*%
X235524000Y-313784000D03*
%TO.P,J3,DG5,DG5*%
X233024000Y-313784000D03*
%TO.P,J3,DG6,DG6*%
X230524000Y-313784000D03*
%TO.P,J3,DG7,DG7*%
X228024000Y-313784000D03*
%TO.P,J3,DG8,DG8*%
X225524000Y-313784000D03*
%TO.P,J3,DG9,DG9*%
X223024000Y-313784000D03*
%TO.P,J3,DG10,DG10*%
X220524000Y-313784000D03*
%TD*%
D13*
%TO.P,MT7,1,1*%
%TO.N,GND*%
X299920000Y-263880000D03*
%TD*%
%TO.P,MT1,1,1*%
%TO.N,GND*%
X68780000Y-329920000D03*
%TD*%
D21*
%TO.P,C34,1*%
%TO.N,+1.8V*%
X255450000Y-284900000D03*
%TO.P,C34,2*%
%TO.N,GND*%
X255450000Y-286800000D03*
%TD*%
%TO.P,C36,1*%
%TO.N,+3.3V*%
X258200000Y-284900000D03*
%TO.P,C36,2*%
%TO.N,GND*%
X258200000Y-286800000D03*
%TD*%
D22*
%TO.P,C35,1*%
%TO.N,+1.8V*%
X255450000Y-276900000D03*
%TO.P,C35,2*%
%TO.N,GND*%
X255450000Y-275000000D03*
%TD*%
D23*
%TO.P,C11,1*%
%TO.N,+1.8V*%
X152850000Y-299300000D03*
%TO.P,C11,2*%
%TO.N,GND*%
X150950000Y-299300000D03*
%TD*%
D22*
%TO.P,C37,1*%
%TO.N,+3.3V*%
X258200000Y-276900000D03*
%TO.P,C37,2*%
%TO.N,GND*%
X258200000Y-275000000D03*
%TD*%
D21*
%TO.P,C1,1*%
%TO.N,+3.3V*%
X129400000Y-313500000D03*
%TO.P,C1,2*%
%TO.N,GND*%
X129400000Y-315400000D03*
%TD*%
D23*
%TO.P,C46,1*%
%TO.N,+5.0V*%
X271900000Y-308800000D03*
%TO.P,C46,2*%
%TO.N,GND*%
X270000000Y-308800000D03*
%TD*%
D21*
%TO.P,C39,1*%
%TO.N,+3.3V*%
X254450000Y-307300000D03*
%TO.P,C39,2*%
%TO.N,GND*%
X254450000Y-309200000D03*
%TD*%
D24*
%TO.N,*%
X144225000Y-92650000D03*
%TO.N,GND*%
X144395800Y-307898200D03*
X154352600Y-291896200D03*
X282715000Y-321685000D03*
X274200000Y-323200000D03*
X279100000Y-309400000D03*
X168850000Y-304500000D03*
X277610000Y-281750000D03*
X140814400Y-311454200D03*
X185250000Y-305100000D03*
X258200000Y-274000000D03*
X155902000Y-290042000D03*
X138757000Y-313791000D03*
X255000000Y-282300000D03*
X159050000Y-289800000D03*
X150500000Y-296550000D03*
X284000000Y-325800000D03*
X277737500Y-279650000D03*
X82600000Y-265600000D03*
X149552000Y-288264000D03*
X185300000Y-307400000D03*
X260700000Y-287700000D03*
X180600000Y-286014322D03*
X155394000Y-291921600D03*
X278100000Y-305100000D03*
X77400000Y-326400000D03*
D25*
X168700000Y-291100000D03*
D24*
X151838000Y-293344000D03*
X181300000Y-286014322D03*
X271600000Y-323000000D03*
X148700000Y-299300000D03*
X277600000Y-264970000D03*
X251300000Y-285300000D03*
X186100000Y-298700000D03*
X142414600Y-307695000D03*
X164050000Y-289800000D03*
X163650000Y-295750000D03*
X176500000Y-296814322D03*
X284000000Y-331000000D03*
X153362000Y-289788000D03*
X160550000Y-288650000D03*
X255400000Y-287900000D03*
X151838000Y-301370400D03*
X139646000Y-287248000D03*
X150568000Y-293344000D03*
X142440000Y-309854000D03*
X277610000Y-277550000D03*
X139087200Y-311505000D03*
X148917000Y-301141800D03*
X144472000Y-293344000D03*
X180600000Y-295614322D03*
X140662000Y-314095800D03*
X156410000Y-292836000D03*
X277610000Y-290150000D03*
X143700000Y-296500000D03*
X146656400Y-303275400D03*
X153362000Y-292328000D03*
X254500000Y-310400000D03*
X260600000Y-274300000D03*
X277610000Y-283850000D03*
X129400000Y-317000000D03*
X259100000Y-282300000D03*
X270000000Y-310300000D03*
X186100000Y-292514322D03*
X251600000Y-276800000D03*
X254800000Y-279800000D03*
X176500000Y-299200000D03*
X174350000Y-285800000D03*
X266000000Y-319200000D03*
X253200000Y-274600000D03*
X277610000Y-271250000D03*
X159028199Y-293750000D03*
X185900000Y-302900000D03*
X172600000Y-287200000D03*
X140535000Y-309574600D03*
X174350000Y-299250000D03*
X277610000Y-294350000D03*
X185900000Y-307400000D03*
X185300000Y-302900000D03*
X168850000Y-297200000D03*
X262600000Y-332000000D03*
X185400000Y-292514322D03*
X147774000Y-288264000D03*
X267200000Y-316000000D03*
X142440000Y-295630000D03*
X158188000Y-291820000D03*
X140662000Y-295630000D03*
X186600000Y-290200000D03*
X143456000Y-288010000D03*
X144167200Y-305739200D03*
X151330000Y-288264000D03*
X161950000Y-294300000D03*
X297300000Y-273700000D03*
X276400000Y-323200000D03*
X148536000Y-293344000D03*
X272700000Y-322100000D03*
X176500000Y-285750000D03*
X265700000Y-309700000D03*
X263700000Y-319200000D03*
X253200000Y-287700000D03*
X167800000Y-297200000D03*
X149700000Y-299300000D03*
X259100000Y-279800000D03*
X185900000Y-305100000D03*
X277200000Y-309300000D03*
X277610000Y-296450000D03*
X277610000Y-292250000D03*
X277605000Y-275450000D03*
X185350000Y-298700000D03*
X177000000Y-309800000D03*
X118400000Y-295900000D03*
X185650000Y-290199322D03*
X162600000Y-288550000D03*
X277650000Y-267050000D03*
X279950000Y-325750000D03*
X148942400Y-303377000D03*
X178500000Y-309800000D03*
X273800000Y-304100000D03*
X278600000Y-323200000D03*
X261500000Y-319200000D03*
X275800000Y-317300000D03*
X157172000Y-290804000D03*
X255450000Y-274050000D03*
X185350000Y-294814322D03*
X146504000Y-293344000D03*
X155500000Y-294900000D03*
X277737500Y-288050000D03*
X277737500Y-286000000D03*
X154632000Y-290042000D03*
X277610000Y-269150000D03*
X186100000Y-294814322D03*
X145742000Y-288264000D03*
X258200000Y-287900000D03*
X277610000Y-273350000D03*
X146504000Y-305815400D03*
%TO.N,/adc/vcm*%
X143450000Y-294500000D03*
X142700000Y-292250000D03*
%TO.N,/adc/CSN*%
X163950000Y-296700000D03*
%TO.N,/adc/D8_N*%
X157826563Y-304996745D03*
%TO.N,/adc/D8_P*%
X158576563Y-304996745D03*
%TO.N,/adc/D0_N*%
X152031983Y-307195209D03*
%TO.N,/adc/D4_P*%
X156175000Y-305392329D03*
%TO.N,/adc/SCK*%
X164450000Y-297350000D03*
%TO.N,/adc/D0_P*%
X152781983Y-307195209D03*
%TO.N,/adc/SDI*%
X164350000Y-298250000D03*
%TO.N,/adc/SDO*%
X154400000Y-298100000D03*
%TO.N,/adc/D12_P*%
X162075001Y-304279275D03*
%TO.N,/adc/D12_N*%
X161325001Y-304279275D03*
%TO.N,/adc/D4_N*%
X155425000Y-305392329D03*
%TO.N,+3.3V*%
X256000000Y-299500000D03*
X129400000Y-311670000D03*
X268200000Y-325300000D03*
X261300000Y-325300000D03*
X185700000Y-300800000D03*
X262600000Y-305400000D03*
X258300000Y-278300000D03*
X180700000Y-298700000D03*
X185650000Y-288114322D03*
X254600000Y-305900000D03*
X270400000Y-325300000D03*
X258300000Y-283800000D03*
X255900000Y-296500000D03*
X186100000Y-286114322D03*
X263500000Y-325300000D03*
X265900000Y-325300000D03*
%TO.N,+1.8V*%
X172350000Y-302800000D03*
X167800000Y-299100000D03*
X173950000Y-304000000D03*
X153850000Y-299150000D03*
X175500000Y-303950000D03*
X255400000Y-278300000D03*
X255500000Y-283800000D03*
X168800000Y-299100000D03*
X176800000Y-303950000D03*
X173950000Y-304950000D03*
%TO.N,+5.0V*%
X272900000Y-308800000D03*
X280600000Y-319100000D03*
X280100000Y-318600000D03*
%TO.N,/Relay Board Interface/faultn*%
X220200000Y-300400000D03*
X246500000Y-296500000D03*
D25*
%TO.N,/Fault LED's/fault_led4*%
X247450000Y-278750000D03*
%TO.N,/Fault LED's/fault_led3*%
X248950000Y-278000000D03*
%TO.N,/Fault LED's/fault_led15*%
X250700000Y-287500000D03*
%TO.N,/Fault LED's/fault_led9*%
X250950000Y-282250000D03*
%TO.N,/Fault LED's/fault_led12*%
X246950000Y-285500000D03*
%TO.N,/Fault LED's/fault_led10*%
X245900000Y-283196800D03*
%TO.N,/Fault LED's/fault_led1*%
X248200000Y-275250000D03*
%TO.N,/Fault LED's/fault_led7*%
X249450000Y-281250000D03*
%TO.N,/Fault LED's/fault_led14*%
X249700000Y-286750000D03*
%TO.N,/Fault LED's/fault_led6*%
X248700000Y-280000000D03*
%TO.N,/Fault LED's/fault_led5*%
X249950000Y-279500000D03*
%TO.N,/Fault LED's/fault_led13*%
X248450000Y-286000000D03*
%TO.N,/Fault LED's/fault_led8*%
X247700000Y-281750000D03*
%TO.N,/Fault LED's/fault_led2*%
X248950000Y-276750000D03*
%TO.N,/Fault LED's/fault_led11*%
X247200000Y-284000000D03*
%TO.N,/Fault LED's/fault_led0*%
X248950000Y-274000000D03*
D24*
%TO.N,/Regulators/afe_pwrenb*%
X287000000Y-329200000D03*
%TO.N,/EEPROM/wpn*%
X237600000Y-310500000D03*
X249300000Y-308800000D03*
%TO.N,/EEPROM/sck*%
X258900000Y-308800000D03*
%TO.N,/EEPROM/holdn*%
X259000000Y-307500000D03*
%TO.N,/EEPROM/sdi*%
X236800000Y-311500000D03*
X258995000Y-310005000D03*
%TO.N,/EEPROM/sdo*%
X249450000Y-307450000D03*
X237300000Y-309200000D03*
%TO.N,/EEPROM/csn*%
X249300000Y-306100000D03*
%TO.N,/Relay Board Interface/wdi*%
X268800000Y-304700000D03*
%TD*%
D26*
%TO.N,GND*%
X255450000Y-275000000D02*
X255450000Y-274050000D01*
X255450000Y-286800000D02*
X255450000Y-287850000D01*
X255400000Y-287900000D02*
X255450000Y-287850000D01*
X270000000Y-308800000D02*
X270000000Y-310300000D01*
X254500000Y-310400000D02*
X254500000Y-309250000D01*
D27*
X149700000Y-299300000D02*
X148700000Y-299300000D01*
D26*
X254500000Y-309250000D02*
X254450000Y-309200000D01*
X129400000Y-315400000D02*
X129400000Y-317000000D01*
D27*
X150950000Y-299300000D02*
X149700000Y-299300000D01*
D26*
X255450000Y-274050000D02*
X255500000Y-274000000D01*
X258200000Y-275000000D02*
X258200000Y-274000000D01*
X258200000Y-286800000D02*
X258200000Y-287900000D01*
%TO.N,/adc/vcm*%
X143450000Y-294500000D02*
X143450000Y-293000000D01*
X143450000Y-293000000D02*
X142700000Y-292250000D01*
D28*
%TO.N,/Pulser Interface/tp_pos3*%
X241950000Y-315358000D02*
X240524000Y-316784000D01*
X241950000Y-298370000D02*
X241950000Y-315358000D01*
X211780000Y-268200000D02*
X241950000Y-298370000D01*
%TO.N,/Pulser Interface/tp_neg2*%
X244950000Y-292000000D02*
X244950000Y-314858000D01*
X244950000Y-314858000D02*
X243024000Y-316784000D01*
X221940000Y-268200000D02*
X221940000Y-268990000D01*
X221940000Y-268990000D02*
X244950000Y-292000000D01*
D29*
%TO.N,/adc/CSN*%
X167366000Y-321284000D02*
X166824000Y-321284000D01*
X163950000Y-296700000D02*
X164631841Y-296700000D01*
X168850000Y-312900000D02*
X168850000Y-319800000D01*
X166800000Y-310850000D02*
X168850000Y-312900000D01*
X166800000Y-298868159D02*
X166800000Y-310850000D01*
X164631841Y-296700000D02*
X166800000Y-298868159D01*
X168850000Y-319800000D02*
X167366000Y-321284000D01*
%TO.N,/adc/D8_N*%
X157586863Y-315886863D02*
X157426863Y-315886863D01*
X157826563Y-304996745D02*
X158041562Y-305211744D01*
X158041562Y-305211744D02*
X158041562Y-315432164D01*
X156824000Y-315284000D02*
X157426863Y-315886863D01*
X158041562Y-315432164D02*
X157586863Y-315886863D01*
%TO.N,/adc/D8_P*%
X158361564Y-315564710D02*
X157142274Y-316784000D01*
X158576563Y-304996745D02*
X158361564Y-305211744D01*
X157142274Y-316784000D02*
X156824000Y-316784000D01*
X158361564Y-305211744D02*
X158361564Y-315564710D01*
%TO.N,/adc/D0_N*%
X153040000Y-310266274D02*
X152246982Y-309473256D01*
X152246982Y-309473256D02*
X152246982Y-307410208D01*
X152435135Y-315895135D02*
X152695135Y-315895135D01*
X152695135Y-315895135D02*
X152832727Y-315757543D01*
X151824000Y-315284000D02*
X152435135Y-315895135D01*
X152246982Y-307410208D02*
X152031983Y-307195209D01*
X153040000Y-315550269D02*
X153040000Y-310266274D01*
X152832727Y-315757543D02*
X153040000Y-315550269D01*
%TO.N,/adc/D4_P*%
X155660000Y-315766274D02*
X154642274Y-316784000D01*
X155960001Y-312066273D02*
X155660000Y-312366274D01*
X156175000Y-305392329D02*
X155960001Y-305607328D01*
X154642274Y-316784000D02*
X154324000Y-316784000D01*
X155660000Y-312366274D02*
X155660000Y-315766274D01*
X155960001Y-305607328D02*
X155960001Y-312066273D01*
%TO.N,/adc/SCK*%
X165750000Y-315710000D02*
X166824000Y-316784000D01*
X165750000Y-298650000D02*
X165750000Y-315710000D01*
X164450000Y-297350000D02*
X165750000Y-298650000D01*
%TO.N,/adc/D0_P*%
X153360000Y-315682817D02*
X153121409Y-315921409D01*
X152781983Y-307195209D02*
X152566984Y-307410208D01*
X152566984Y-307410208D02*
X152566984Y-309340710D01*
X153121409Y-315921409D02*
X152258818Y-316784000D01*
X152258818Y-316784000D02*
X151824000Y-316784000D01*
X152566984Y-309340710D02*
X153360000Y-310133726D01*
X153360000Y-310133726D02*
X153360000Y-315682817D01*
%TO.N,/adc/SDI*%
X164324000Y-321284000D02*
X164566000Y-321284000D01*
X165350000Y-299250000D02*
X165350000Y-320500000D01*
X164350000Y-298250000D02*
X165350000Y-299250000D01*
X164566000Y-321284000D02*
X165350000Y-320500000D01*
%TO.N,/adc/D12_P*%
X162242274Y-316784000D02*
X161824000Y-316784000D01*
X163260000Y-306033726D02*
X163260000Y-315766274D01*
X161860002Y-304494274D02*
X161860002Y-304633728D01*
X162075001Y-304279275D02*
X161860002Y-304494274D01*
X163260000Y-315766274D02*
X162242274Y-316784000D01*
X161860002Y-304633728D02*
X163260000Y-306033726D01*
%TO.N,/adc/D12_N*%
X161540000Y-304766274D02*
X162940000Y-306166274D01*
X161540000Y-304494274D02*
X161540000Y-304766274D01*
X162426863Y-315886863D02*
X161824000Y-315284000D01*
X162686863Y-315886863D02*
X162426863Y-315886863D01*
X162940000Y-306166274D02*
X162940000Y-315633726D01*
X161325001Y-304279275D02*
X161540000Y-304494274D01*
X162940000Y-315633726D02*
X162686863Y-315886863D01*
%TO.N,/adc/D4_N*%
X155425000Y-305392329D02*
X155639999Y-305607328D01*
X155639999Y-311933727D02*
X155340000Y-312233726D01*
X155340000Y-315633726D02*
X155086863Y-315886863D01*
X154324000Y-315284000D02*
X154926863Y-315886863D01*
X154926863Y-315886863D02*
X155086863Y-315886863D01*
X155639999Y-305607328D02*
X155639999Y-311933727D01*
X155340000Y-312233726D02*
X155340000Y-315633726D01*
D28*
%TO.N,/Pulser Interface/tp_neg1*%
X244200000Y-314108000D02*
X243024000Y-315284000D01*
X244200000Y-293000000D02*
X244200000Y-314108000D01*
X219400000Y-268200000D02*
X244200000Y-293000000D01*
%TO.N,/Pulser Interface/tp_pos2*%
X241450000Y-300410000D02*
X241450000Y-314358000D01*
X241450000Y-314358000D02*
X240524000Y-315284000D01*
X209240000Y-268200000D02*
X241450000Y-300410000D01*
%TO.N,/Relay Board Interface/fault_rdbk*%
X121780000Y-275500000D02*
X113780000Y-267500000D01*
X199200000Y-275500000D02*
X121780000Y-275500000D01*
X223024000Y-315284000D02*
X222224000Y-314484000D01*
X222224000Y-314484000D02*
X222224000Y-298524000D01*
X222224000Y-298524000D02*
X199200000Y-275500000D01*
%TO.N,/Relay Board Interface/spare2*%
X226950000Y-294500000D02*
X226950000Y-318358000D01*
X204950000Y-272500000D02*
X226950000Y-294500000D01*
X226950000Y-318358000D02*
X225524000Y-319784000D01*
X134020000Y-272500000D02*
X204950000Y-272500000D01*
X129020000Y-267500000D02*
X134020000Y-272500000D01*
D26*
%TO.N,+3.3V*%
X258300000Y-284800000D02*
X258200000Y-284900000D01*
X254600000Y-307150000D02*
X254450000Y-307300000D01*
X254600000Y-305900000D02*
X254600000Y-307150000D01*
X258200000Y-278200000D02*
X258300000Y-278300000D01*
X258200000Y-276900000D02*
X258200000Y-278200000D01*
X258300000Y-283800000D02*
X258300000Y-284800000D01*
X129400000Y-313500000D02*
X129400000Y-311670000D01*
%TO.N,+1.8V*%
X255450000Y-276900000D02*
X255450000Y-278250000D01*
X153700000Y-299300000D02*
X153850000Y-299150000D01*
X255450000Y-278250000D02*
X255400000Y-278300000D01*
X255500000Y-284850000D02*
X255450000Y-284900000D01*
X255500000Y-283800000D02*
X255500000Y-284850000D01*
D30*
X152850000Y-299300000D02*
X153700000Y-299300000D01*
D28*
%TO.N,+5.0V*%
X272900000Y-308800000D02*
X271900000Y-308800000D01*
%TO.N,/Relay Board Interface/force_trip*%
X224450000Y-318358000D02*
X224450000Y-297500000D01*
X224450000Y-297500000D02*
X201450000Y-274500000D01*
X223024000Y-319784000D02*
X224450000Y-318358000D01*
X125860000Y-274500000D02*
X118860000Y-267500000D01*
X201450000Y-274500000D02*
X125860000Y-274500000D01*
%TO.N,/Relay Board Interface/faultn*%
X220524000Y-321284000D02*
X221450000Y-320358000D01*
X221450000Y-320358000D02*
X221450000Y-306150000D01*
X197923529Y-275973529D02*
X119713529Y-275973529D01*
X221450000Y-306150000D02*
X220200000Y-304900000D01*
X220200000Y-304900000D02*
X220200000Y-300400000D01*
X220200000Y-298250000D02*
X197923529Y-275973529D01*
X119713529Y-275973529D02*
X111240000Y-267500000D01*
X220200000Y-300400000D02*
X220200000Y-298250000D01*
%TO.N,/Relay Board Interface/spare1*%
X226550000Y-295350000D02*
X226550000Y-315758000D01*
X131980000Y-273000000D02*
X204200000Y-273000000D01*
X204200000Y-273000000D02*
X226550000Y-295350000D01*
X126480000Y-267500000D02*
X131980000Y-273000000D01*
X226550000Y-315758000D02*
X225524000Y-316784000D01*
%TO.N,/Relay Board Interface/fault_reset*%
X123820000Y-275000000D02*
X200450000Y-275000000D01*
X116320000Y-267500000D02*
X123820000Y-275000000D01*
X200450000Y-275000000D02*
X224050000Y-298600000D01*
X224050000Y-315758000D02*
X223024000Y-316784000D01*
X224050000Y-298600000D02*
X224050000Y-315758000D01*
%TO.N,/EEPROM/wpn*%
X233500000Y-310500000D02*
X231800000Y-312200000D01*
X237600000Y-310500000D02*
X233500000Y-310500000D01*
X231800000Y-318508000D02*
X230524000Y-319784000D01*
X231800000Y-312200000D02*
X231800000Y-318508000D01*
%TD*%
D31*
X63700000Y-258800000D02*
X305000000Y-258800000D01*
X246199000Y-335000000D02*
X246199000Y-322300000D01*
X305000000Y-258800000D02*
X305000000Y-335000000D01*
X116405000Y-322300000D02*
X116405000Y-333730000D01*
X246199000Y-322300000D02*
X116405000Y-322300000D01*
X63700000Y-335000000D02*
X63700000Y-258800000D01*
X305000000Y-335000000D02*
X246199000Y-335000000D01*
X116405000Y-333730000D02*
X116405000Y-335000000D01*
X116405000Y-335000000D02*
X63700000Y-335000000D01*
M02*
