%TF.GenerationSoftware,KiCad,Pcbnew,9.0.6*%
%TF.CreationDate,2026-06-12T03:36:08-04:00*%
%TF.ProjectId,acmi2-afe,61636d69-322d-4616-9665-2e6b69636164,rev?*%
%TF.SameCoordinates,Original*%
%TF.FileFunction,Component,L1,Top*%
%TF.FilePolarity,Positive*%
%FSLAX46Y46*%
G04 Gerber Fmt 4.6, Leading zero omitted, Abs format (unit mm)*
G04 Created by KiCad (PCBNEW 9.0.6) date 2026-06-12 03:36:08*
%MOMM*%
%LPD*%
G01*
G04 APERTURE LIST*
%TA.AperFunction,ComponentMain*%
%ADD10C,0.300000*%
%TD*%
%TA.AperFunction,ComponentOutline,Courtyard*%
%ADD11C,0.100000*%
%TD*%
%TA.AperFunction,ComponentPin*%
%ADD12P,0.360000X4X0.000000*%
%TD*%
%TA.AperFunction,ComponentPin*%
%ADD13C,0.100000*%
%TD*%
%TA.AperFunction,ComponentOutline,Footprint*%
%ADD14C,0.100000*%
%TD*%
%TA.AperFunction,Profile*%
%ADD15C,0.050000*%
%TD*%
G04 APERTURE END LIST*
D10*
%TO.C,R15*%
%TO.CFtp,R_0805_2012Metric*%
%TO.CVal,680*%
%TO.CLbN,Resistor_SMD*%
%TO.CMnt,SMD*%
%TO.CRot,0*%
X271337500Y-273350000D03*
D11*
X273012500Y-272405000D02*
X273012500Y-274295000D01*
X269662500Y-274295000D01*
X269662500Y-272405000D01*
X273012500Y-272405000D01*
D12*
%TO.P,R15,1*%
X270425000Y-273350000D03*
D13*
%TO.P,R15,2*%
X272250000Y-273350000D03*
%TD*%
D10*
%TO.C,R39*%
%TO.CFtp,R_0805_2012Metric*%
%TO.CVal,10K*%
%TO.CLbN,Resistor_SMD*%
%TO.CMnt,SMD*%
%TO.CRot,0*%
X264812500Y-308300000D03*
D11*
X266487500Y-307355000D02*
X266487500Y-309245000D01*
X263137500Y-309245000D01*
X263137500Y-307355000D01*
X266487500Y-307355000D01*
D12*
%TO.P,R39,1*%
X263900000Y-308300000D03*
D13*
%TO.P,R39,2*%
X265725000Y-308300000D03*
%TD*%
D10*
%TO.C,C21*%
%TO.CFtp,C_0805_2012Metric*%
%TO.CVal,47u*%
%TO.CLbN,My Footprints*%
%TO.CMnt,SMD*%
%TO.CRot,0*%
X183250000Y-302900000D03*
D11*
X184945000Y-301925000D02*
X184945000Y-303875000D01*
X181555000Y-303875000D01*
X181555000Y-301925000D01*
X184945000Y-301925000D01*
D12*
%TO.P,C21,1*%
X182300000Y-302900000D03*
D13*
%TO.P,C21,2*%
X184200000Y-302900000D03*
%TD*%
D10*
%TO.C,J4*%
%TO.CFtp,SMA_Amphenol_132134_Vertical*%
%TO.CVal,132134*%
%TO.CLbN,Connector_Coaxial*%
%TO.CMnt,TH*%
%TO.CRot,180*%
X110160000Y-288710000D03*
D11*
X114325000Y-284545000D02*
X114325000Y-292875000D01*
X105995000Y-292875000D01*
X105995000Y-284545000D01*
X114325000Y-284545000D01*
D12*
%TO.P,J4,1,In*%
X110160000Y-288710000D03*
D13*
%TO.P,J4,2,Ext*%
X112700000Y-291250000D03*
X112700000Y-286170000D03*
X107620000Y-291250000D03*
X107620000Y-286170000D03*
%TD*%
D10*
%TO.C,R42*%
%TO.CFtp,R_0805_2012Metric*%
%TO.CVal,1K*%
%TO.CLbN,Resistor_SMD*%
%TO.CMnt,SMD*%
%TO.CRot,180*%
X253532500Y-299500000D03*
D11*
X255207500Y-298555000D02*
X255207500Y-300445000D01*
X251857500Y-300445000D01*
X251857500Y-298555000D01*
X255207500Y-298555000D01*
D12*
%TO.P,R42,1*%
X254445000Y-299500000D03*
D13*
%TO.P,R42,2*%
X252620000Y-299500000D03*
%TD*%
D10*
%TO.C,R1*%
%TO.CFtp,R_0805_2012Metric*%
%TO.CVal,31.6*%
%TO.CLbN,Resistor_SMD*%
%TO.CMnt,SMD*%
%TO.CRot,90*%
X141450000Y-293087500D03*
D11*
X142395000Y-291412500D02*
X142395000Y-294762500D01*
X140505000Y-294762500D01*
X140505000Y-291412500D01*
X142395000Y-291412500D01*
D12*
%TO.P,R1,1*%
X141450000Y-294000000D03*
D13*
%TO.P,R1,2*%
X141450000Y-292175000D03*
%TD*%
D10*
%TO.C,C5*%
%TO.CFtp,C_0805_2012Metric*%
%TO.CVal,10p*%
%TO.CLbN,My Footprints*%
%TO.CMnt,SMD*%
%TO.CRot,90*%
X145150000Y-291100000D03*
D11*
X146125000Y-289405000D02*
X146125000Y-292795000D01*
X144175000Y-292795000D01*
X144175000Y-289405000D01*
X146125000Y-289405000D01*
D12*
%TO.P,C5,1*%
X145150000Y-292050000D03*
D13*
%TO.P,C5,2*%
X145150000Y-290150000D03*
%TD*%
D10*
%TO.C,D13*%
%TO.CFtp,LED_0805_2012Metric*%
%TO.CVal,RED*%
%TO.CLbN,LED_SMD*%
%TO.CMnt,SMD*%
%TO.CRot,180*%
X275137500Y-288050000D03*
D11*
X276812500Y-287105000D02*
X276812500Y-288995000D01*
X273462500Y-288995000D01*
X273462500Y-287105000D01*
X276812500Y-287105000D01*
D12*
%TO.P,D13,1,K*%
X276075000Y-288050000D03*
D13*
%TO.P,D13,2,A*%
X274200000Y-288050000D03*
%TD*%
D10*
%TO.C,TP3*%
%TO.CFtp,TestPoint_RCS-0C*%
%TO.CVal,GND*%
%TO.CLbN,My Footprints*%
%TO.CMnt,SMD*%
%TO.CRot,0*%
X81000000Y-326400000D03*
D11*
X83145000Y-325055000D02*
X83145000Y-327745000D01*
X78855000Y-327745000D01*
X78855000Y-325055000D01*
X83145000Y-325055000D01*
D12*
%TO.P,TP3,1,1*%
X81000000Y-326400000D03*
%TD*%
D10*
%TO.C,R7*%
%TO.CFtp,R_0805_2012Metric*%
%TO.CVal,205K*%
%TO.CLbN,Resistor_SMD*%
%TO.CMnt,SMD*%
%TO.CRot,180*%
X269600000Y-316000000D03*
D11*
X271275000Y-315055000D02*
X271275000Y-316945000D01*
X267925000Y-316945000D01*
X267925000Y-315055000D01*
X271275000Y-315055000D01*
D12*
%TO.P,R7,1*%
X270512500Y-316000000D03*
D13*
%TO.P,R7,2*%
X268687500Y-316000000D03*
%TD*%
D10*
%TO.C,C33*%
%TO.CFtp,C_0805_2012Metric*%
%TO.CVal,3.3n*%
%TO.CLbN,My Footprints*%
%TO.CMnt,SMD*%
%TO.CRot,-90*%
X285450000Y-324800000D03*
D11*
X286425000Y-323105000D02*
X286425000Y-326495000D01*
X284475000Y-326495000D01*
X284475000Y-323105000D01*
X286425000Y-323105000D01*
D12*
%TO.P,C33,1*%
X285450000Y-323850000D03*
D13*
%TO.P,C33,2*%
X285450000Y-325750000D03*
%TD*%
D10*
%TO.C,TP1*%
%TO.CFtp,TestPoint_RCS-0C*%
%TO.CVal,GND*%
%TO.CLbN,My Footprints*%
%TO.CMnt,SMD*%
%TO.CRot,0*%
X300200000Y-273750000D03*
D11*
X302345000Y-272405000D02*
X302345000Y-275095000D01*
X298055000Y-275095000D01*
X298055000Y-272405000D01*
X302345000Y-272405000D01*
D12*
%TO.P,TP1,1,1*%
X300200000Y-273750000D03*
%TD*%
D10*
%TO.C,U8*%
%TO.CFtp,SOIC127P600X175-8N*%
%TO.CVal,CAT25320VI-GT3*%
%TO.CLbN,My Footprints*%
%TO.CMnt,SMD*%
%TO.CRot,0*%
X254450000Y-308100000D03*
D14*
X250995600Y-305915600D02*
X250995600Y-310284400D01*
X257904400Y-310284400D01*
X257904400Y-305915600D01*
X250995600Y-305915600D01*
D12*
%TO.P,U8,1,~CS*%
X251986200Y-306195000D03*
D13*
%TO.P,U8,2,SO*%
X251986200Y-307465000D03*
%TO.P,U8,3,~WP*%
X251986200Y-308735000D03*
%TO.P,U8,4,VSS*%
X251986200Y-310005000D03*
%TO.P,U8,5,SI*%
X256913800Y-310005000D03*
%TO.P,U8,6,SCK*%
X256913800Y-308735000D03*
%TO.P,U8,7,~HOLD*%
X256913800Y-307465000D03*
%TO.P,U8,8,VCC*%
X256913800Y-306195000D03*
%TD*%
D10*
%TO.C,R17*%
%TO.CFtp,R_0805_2012Metric*%
%TO.CVal,680*%
%TO.CLbN,Resistor_SMD*%
%TO.CMnt,SMD*%
%TO.CRot,0*%
X271337500Y-277550000D03*
D11*
X273012500Y-276605000D02*
X273012500Y-278495000D01*
X269662500Y-278495000D01*
X269662500Y-276605000D01*
X273012500Y-276605000D01*
D12*
%TO.P,R17,1*%
X270425000Y-277550000D03*
D13*
%TO.P,R17,2*%
X272250000Y-277550000D03*
%TD*%
D10*
%TO.C,C6*%
%TO.CFtp,C_0805_2012Metric*%
%TO.CVal,0.1u*%
%TO.CLbN,My Footprints*%
%TO.CMnt,SMD*%
%TO.CRot,-90*%
X145250000Y-295550000D03*
D11*
X146225000Y-293855000D02*
X146225000Y-297245000D01*
X144275000Y-297245000D01*
X144275000Y-293855000D01*
X146225000Y-293855000D01*
D12*
%TO.P,C6,1*%
X145250000Y-294600000D03*
D13*
%TO.P,C6,2*%
X145250000Y-296500000D03*
%TD*%
D10*
%TO.C,U3*%
%TO.CFtp,QFN50P350X350X100-21N*%
%TO.CVal,TPS7A8500RGRT*%
%TO.CLbN,My Footprints*%
%TO.CMnt,SMD*%
%TO.CRot,0*%
X177500000Y-293914322D03*
D11*
X179870000Y-291544322D02*
X179870000Y-296284322D01*
X175130000Y-296284322D01*
X175130000Y-291544322D01*
X179870000Y-291544322D01*
D12*
%TO.P,U3,1,OUT*%
X175815000Y-292914322D03*
D13*
%TO.P,U3,2,SNS*%
X175815000Y-293414322D03*
%TO.P,U3,3,FB*%
X175815000Y-293914322D03*
%TO.P,U3,4,PG*%
X175815000Y-294414322D03*
%TO.P,U3,5,50MV*%
X175815000Y-294914322D03*
%TO.P,U3,6,100MV*%
X176500000Y-295599322D03*
%TO.P,U3,7,200MV*%
X177000000Y-295599322D03*
%TO.P,U3,8,GND*%
X177500000Y-295599322D03*
%TO.P,U3,9,400MV*%
X178000000Y-295599322D03*
%TO.P,U3,10,800MV*%
X178500000Y-295599322D03*
%TO.P,U3,11,1.6V*%
X179185000Y-294914322D03*
%TO.P,U3,12,BIAS*%
X179185000Y-294414322D03*
%TO.P,U3,13,NR/SS*%
X179185000Y-293914322D03*
%TO.P,U3,14,EN*%
X179185000Y-293414322D03*
%TO.P,U3,15,IN*%
X179185000Y-292914322D03*
%TO.P,U3,16,IN*%
X178500000Y-292229322D03*
%TO.P,U3,17,IN*%
X178000000Y-292229322D03*
%TO.P,U3,18,GND*%
X177500000Y-292229322D03*
%TO.P,U3,19,OUT*%
X177000000Y-292229322D03*
%TO.P,U3,20,OUT*%
X176500000Y-292229322D03*
%TO.P,U3,21,GND_TH*%
X177000000Y-293914322D03*
X177500000Y-293414322D03*
X177500000Y-293914322D03*
X177500000Y-294414322D03*
X178000000Y-293914322D03*
%TD*%
D10*
%TO.C,D12*%
%TO.CFtp,LED_0805_2012Metric*%
%TO.CVal,RED*%
%TO.CLbN,LED_SMD*%
%TO.CMnt,SMD*%
%TO.CRot,180*%
X275137500Y-285950000D03*
D11*
X276812500Y-285005000D02*
X276812500Y-286895000D01*
X273462500Y-286895000D01*
X273462500Y-285005000D01*
X276812500Y-285005000D01*
D12*
%TO.P,D12,1,K*%
X276075000Y-285950000D03*
D13*
%TO.P,D12,2,A*%
X274200000Y-285950000D03*
%TD*%
D10*
%TO.C,D9*%
%TO.CFtp,LED_0805_2012Metric*%
%TO.CVal,RED*%
%TO.CLbN,LED_SMD*%
%TO.CMnt,SMD*%
%TO.CRot,180*%
X275137500Y-279650000D03*
D11*
X276812500Y-278705000D02*
X276812500Y-280595000D01*
X273462500Y-280595000D01*
X273462500Y-278705000D01*
X276812500Y-278705000D01*
D12*
%TO.P,D9,1,K*%
X276075000Y-279650000D03*
D13*
%TO.P,D9,2,A*%
X274200000Y-279650000D03*
%TD*%
D10*
%TO.C,U6*%
%TO.CFtp,SON50P200X200X80-9N*%
%TO.CVal,TPS259540DSGR*%
%TO.CLbN,My Footprints*%
%TO.CMnt,SMD*%
%TO.CRot,180*%
X283700000Y-320250000D03*
D11*
X285180000Y-319005000D02*
X285180000Y-321495000D01*
X282220000Y-321495000D01*
X282220000Y-319005000D01*
X285180000Y-319005000D01*
D12*
%TO.P,U6,1,DVDT*%
X284685000Y-321000000D03*
D13*
%TO.P,U6,2,EN/UVLO*%
X284685000Y-320500000D03*
%TO.P,U6,3,IN*%
X284685000Y-320000000D03*
%TO.P,U6,4,IN*%
X284685000Y-319500000D03*
%TO.P,U6,5,OUT*%
X282715000Y-319500000D03*
%TO.P,U6,6,~{FLT}*%
X282715000Y-320000000D03*
%TO.P,U6,7,ILM*%
X282715000Y-320500000D03*
%TO.P,U6,8,GND*%
X282715000Y-321000000D03*
%TO.P,U6,9,GND*%
X283700000Y-320800000D03*
X283700000Y-320250000D03*
X283700000Y-319700000D03*
%TD*%
D10*
%TO.C,U1*%
%TO.CFtp,OSC_ECS-LVDS33-2000-BN*%
%TO.CVal,200MHz*%
%TO.CLbN,My Footprints*%
%TO.CMnt,SMD*%
%TO.CRot,-90*%
X129350000Y-314210000D03*
D11*
X132295000Y-310465000D02*
X132295000Y-317955000D01*
X126405000Y-317955000D01*
X126405000Y-310465000D01*
X132295000Y-310465000D01*
D12*
%TO.P,U1,1,OE*%
X127450000Y-311670000D03*
D13*
%TO.P,U1,2*%
X127450000Y-314210000D03*
%TO.P,U1,3,GND*%
X127450000Y-316750000D03*
%TO.P,U1,4,CLK_P*%
X131250000Y-316750000D03*
%TO.P,U1,5,CLK_N*%
X131250000Y-314210000D03*
%TO.P,U1,6,VDD*%
X131250000Y-311670000D03*
%TD*%
D10*
%TO.C,TP4*%
%TO.CFtp,TestPoint_RCS-0C*%
%TO.CVal,GND*%
%TO.CLbN,My Footprints*%
%TO.CMnt,SMD*%
%TO.CRot,0*%
X79052280Y-265600000D03*
D11*
X81197280Y-264255000D02*
X81197280Y-266945000D01*
X76907280Y-266945000D01*
X76907280Y-264255000D01*
X81197280Y-264255000D01*
D12*
%TO.P,TP4,1,1*%
X79052280Y-265600000D03*
%TD*%
D10*
%TO.C,R4*%
%TO.CFtp,R_0805_2012Metric*%
%TO.CVal,20*%
%TO.CLbN,Resistor_SMD*%
%TO.CMnt,SMD*%
%TO.CRot,180*%
X148250000Y-290000000D03*
D11*
X149925000Y-289055000D02*
X149925000Y-290945000D01*
X146575000Y-290945000D01*
X146575000Y-289055000D01*
X149925000Y-289055000D01*
D12*
%TO.P,R4,1*%
X149162500Y-290000000D03*
D13*
%TO.P,R4,2*%
X147337500Y-290000000D03*
%TD*%
D10*
%TO.C,D1*%
%TO.CFtp,LED_0805_2012Metric*%
%TO.CVal,GREEN*%
%TO.CLbN,LED_SMD*%
%TO.CMnt,SMD*%
%TO.CRot,-90*%
X282700000Y-315162500D03*
D11*
X283645000Y-313487500D02*
X283645000Y-316837500D01*
X281755000Y-316837500D01*
X281755000Y-313487500D01*
X283645000Y-313487500D01*
D12*
%TO.P,D1,1,K*%
X282700000Y-314225000D03*
D13*
%TO.P,D1,2,A*%
X282700000Y-316100000D03*
%TD*%
D10*
%TO.C,R18*%
%TO.CFtp,R_0805_2012Metric*%
%TO.CVal,680*%
%TO.CLbN,Resistor_SMD*%
%TO.CMnt,SMD*%
%TO.CRot,0*%
X271337500Y-279650000D03*
D11*
X273012500Y-278705000D02*
X273012500Y-280595000D01*
X269662500Y-280595000D01*
X269662500Y-278705000D01*
X273012500Y-278705000D01*
D12*
%TO.P,R18,1*%
X270425000Y-279650000D03*
D13*
%TO.P,R18,2*%
X272250000Y-279650000D03*
%TD*%
D10*
%TO.C,L2*%
%TO.CFtp,IND_LSMG_160808_TAY*%
%TO.CVal,LSMGG160808T331RG*%
%TO.CLbN,My Footprints*%
%TO.CMnt,SMD*%
%TO.CRot,0*%
X183100000Y-300800000D03*
D11*
X184555500Y-300106500D02*
X184555500Y-301493500D01*
X181644500Y-301493500D01*
X181644500Y-300106500D01*
X184555500Y-300106500D01*
D12*
%TO.P,L2,1,1*%
X182299900Y-300800000D03*
D13*
%TO.P,L2,2,2*%
X183900100Y-300800000D03*
%TD*%
D10*
%TO.C,R44*%
%TO.CFtp,R_0805_2012Metric*%
%TO.CVal,0*%
%TO.CLbN,Resistor_SMD*%
%TO.CMnt,SMD*%
%TO.CRot,180*%
X249812500Y-296550000D03*
D11*
X251487500Y-295605000D02*
X251487500Y-297495000D01*
X248137500Y-297495000D01*
X248137500Y-295605000D01*
X251487500Y-295605000D01*
D12*
%TO.P,R44,1*%
X250725000Y-296550000D03*
D13*
%TO.P,R44,2*%
X248900000Y-296550000D03*
%TD*%
D10*
%TO.C,R23*%
%TO.CFtp,R_0805_2012Metric*%
%TO.CVal,680*%
%TO.CLbN,Resistor_SMD*%
%TO.CMnt,SMD*%
%TO.CRot,0*%
X271337500Y-290150000D03*
D11*
X273012500Y-289205000D02*
X273012500Y-291095000D01*
X269662500Y-291095000D01*
X269662500Y-289205000D01*
X273012500Y-289205000D01*
D12*
%TO.P,R23,1*%
X270425000Y-290150000D03*
D13*
%TO.P,R23,2*%
X272250000Y-290150000D03*
%TD*%
D10*
%TO.C,D8*%
%TO.CFtp,LED_0805_2012Metric*%
%TO.CVal,RED*%
%TO.CLbN,LED_SMD*%
%TO.CMnt,SMD*%
%TO.CRot,180*%
X275137500Y-277550000D03*
D11*
X276812500Y-276605000D02*
X276812500Y-278495000D01*
X273462500Y-278495000D01*
X273462500Y-276605000D01*
X276812500Y-276605000D01*
D12*
%TO.P,D8,1,K*%
X276075000Y-277550000D03*
D13*
%TO.P,D8,2,A*%
X274200000Y-277550000D03*
%TD*%
D10*
%TO.C,C2*%
%TO.CFtp,C_0805_2012Metric*%
%TO.CVal,0.1u*%
%TO.CLbN,My Footprints*%
%TO.CMnt,SMD*%
%TO.CRot,0*%
X119250000Y-288820000D03*
D11*
X120945000Y-287845000D02*
X120945000Y-289795000D01*
X117555000Y-289795000D01*
X117555000Y-287845000D01*
X120945000Y-287845000D01*
D12*
%TO.P,C2,1*%
X118300000Y-288820000D03*
D13*
%TO.P,C2,2*%
X120200000Y-288820000D03*
%TD*%
D10*
%TO.C,R25*%
%TO.CFtp,R_0805_2012Metric*%
%TO.CVal,680*%
%TO.CLbN,Resistor_SMD*%
%TO.CMnt,SMD*%
%TO.CRot,0*%
X271337500Y-294350000D03*
D11*
X273012500Y-293405000D02*
X273012500Y-295295000D01*
X269662500Y-295295000D01*
X269662500Y-293405000D01*
X273012500Y-293405000D01*
D12*
%TO.P,R25,1*%
X270425000Y-294350000D03*
D13*
%TO.P,R25,2*%
X272250000Y-294350000D03*
%TD*%
D10*
%TO.C,C45*%
%TO.CFtp,C_0805_2012Metric*%
%TO.CVal,22nF*%
%TO.CLbN,My Footprints*%
%TO.CMnt,SMD*%
%TO.CRot,0*%
X276300000Y-307900000D03*
D11*
X277995000Y-306925000D02*
X277995000Y-308875000D01*
X274605000Y-308875000D01*
X274605000Y-306925000D01*
X277995000Y-306925000D01*
D12*
%TO.P,C45,1*%
X275350000Y-307900000D03*
D13*
%TO.P,C45,2*%
X277250000Y-307900000D03*
%TD*%
D10*
%TO.C,C12*%
%TO.CFtp,C_0805_2012Metric*%
%TO.CVal,47u*%
%TO.CLbN,My Footprints*%
%TO.CMnt,SMD*%
%TO.CRot,0*%
X183300000Y-292499322D03*
D11*
X184995000Y-291524322D02*
X184995000Y-293474322D01*
X181605000Y-293474322D01*
X181605000Y-291524322D01*
X184995000Y-291524322D01*
D12*
%TO.P,C12,1*%
X182350000Y-292499322D03*
D13*
%TO.P,C12,2*%
X184250000Y-292499322D03*
%TD*%
D10*
%TO.C,U4*%
%TO.CFtp,RDM0023A-MFG*%
%TO.CVal,TPSM82866AA0HRDMR*%
%TO.CLbN,My Footprints*%
%TO.CMnt,SMD*%
%TO.CRot,-90*%
X269949999Y-320650001D03*
D14*
X272149998Y-318700000D02*
X267750000Y-318700000D01*
X267750000Y-322600002D01*
X272149998Y-322600002D01*
X272149998Y-318700000D01*
D12*
%TO.P,U4,1,EN*%
X271549999Y-319250001D03*
D13*
%TO.P,U4,2,PG*%
X270950000Y-319050002D03*
%TO.P,U4,3,VSET_MODE*%
X270449998Y-319050002D03*
%TO.P,U4,4,PGND*%
X269949999Y-319050002D03*
%TO.P,U4,5,PGND*%
X269450000Y-319050002D03*
%TO.P,U4,6,PGND*%
X268949998Y-319050002D03*
%TO.P,U4,7,SW*%
X268349999Y-319250001D03*
%TO.P,U4,8,PGND*%
X268100000Y-319900000D03*
%TO.P,U4,9,PGND*%
X268100000Y-320400001D03*
%TO.P,U4,10,PGND*%
X268100000Y-320900001D03*
%TO.P,U4,11,PGND*%
X268100000Y-321400002D03*
%TO.P,U4,12,VOUT*%
X268349999Y-322050001D03*
%TO.P,U4,13,VOUT*%
X268949998Y-322250000D03*
%TO.P,U4,14,VOUT*%
X269450000Y-322250000D03*
%TO.P,U4,15,VOUT*%
X269949999Y-322250000D03*
%TO.P,U4,16,VOS*%
X270449998Y-322250000D03*
%TO.P,U4,17,FB*%
X270950000Y-322250000D03*
%TO.P,U4,18,AGND*%
X271549999Y-322050001D03*
%TO.P,U4,19,PGND*%
X271799998Y-321400002D03*
%TO.P,U4,20,PGND*%
X271799998Y-320900001D03*
%TO.P,U4,21,VIN*%
X271799998Y-320400001D03*
%TO.P,U4,22,VIN*%
X271799998Y-319900000D03*
%TO.P,U4,23,PGND*%
X269650000Y-320100002D03*
X270299998Y-320650001D03*
X269650000Y-320650001D03*
X268999998Y-320650001D03*
X269650000Y-321200000D03*
%TD*%
D10*
%TO.C,R43*%
%TO.CFtp,R_0805_2012Metric*%
%TO.CVal,1K*%
%TO.CLbN,Resistor_SMD*%
%TO.CMnt,SMD*%
%TO.CRot,180*%
X253487500Y-296500000D03*
D11*
X255162500Y-295555000D02*
X255162500Y-297445000D01*
X251812500Y-297445000D01*
X251812500Y-295555000D01*
X255162500Y-295555000D01*
D12*
%TO.P,R43,1*%
X254400000Y-296500000D03*
D13*
%TO.P,R43,2*%
X252575000Y-296500000D03*
%TD*%
D10*
%TO.C,R21*%
%TO.CFtp,R_0805_2012Metric*%
%TO.CVal,680*%
%TO.CLbN,Resistor_SMD*%
%TO.CMnt,SMD*%
%TO.CRot,0*%
X271337500Y-285950000D03*
D11*
X273012500Y-285005000D02*
X273012500Y-286895000D01*
X269662500Y-286895000D01*
X269662500Y-285005000D01*
X273012500Y-285005000D01*
D12*
%TO.P,R21,1*%
X270425000Y-285950000D03*
D13*
%TO.P,R21,2*%
X272250000Y-285950000D03*
%TD*%
D10*
%TO.C,C16*%
%TO.CFtp,C_0805_2012Metric*%
%TO.CVal,10u*%
%TO.CLbN,My Footprints*%
%TO.CMnt,SMD*%
%TO.CRot,90*%
X176500000Y-288149322D03*
D11*
X177475000Y-286454322D02*
X177475000Y-289844322D01*
X175525000Y-289844322D01*
X175525000Y-286454322D01*
X177475000Y-286454322D01*
D12*
%TO.P,C16,1*%
X176500000Y-289099322D03*
D13*
%TO.P,C16,2*%
X176500000Y-287199322D03*
%TD*%
D10*
%TO.C,C3*%
%TO.CFtp,C_0805_2012Metric*%
%TO.CVal,0.1u*%
%TO.CLbN,My Footprints*%
%TO.CMnt,SMD*%
%TO.CRot,0*%
X135400000Y-316500000D03*
D11*
X137095000Y-315525000D02*
X137095000Y-317475000D01*
X133705000Y-317475000D01*
X133705000Y-315525000D01*
X137095000Y-315525000D01*
D12*
%TO.P,C3,1*%
X134450000Y-316500000D03*
D13*
%TO.P,C3,2*%
X136350000Y-316500000D03*
%TD*%
D10*
%TO.C,Q1*%
%TO.CFtp,SOT-323_SC-70*%
%TO.CVal,NX7002BKW*%
%TO.CLbN,Package_TO_SOT_SMD*%
%TO.CMnt,SMD*%
%TO.CRot,0*%
X276700000Y-315250000D03*
D11*
X278395000Y-313955000D02*
X278395000Y-316545000D01*
X275005000Y-316545000D01*
X275005000Y-313955000D01*
X278395000Y-313955000D01*
D12*
%TO.P,Q1,1,G*%
X275700000Y-314600000D03*
D13*
%TO.P,Q1,2,S*%
X275700000Y-315900000D03*
%TO.P,Q1,3,D*%
X277700000Y-315250000D03*
%TD*%
D10*
%TO.C,TP5*%
%TO.CFtp,TestPoint_RCS-0C*%
%TO.CVal,faultn*%
%TO.CLbN,My Footprints*%
%TO.CMnt,SMD*%
%TO.CRot,0*%
X248100000Y-292500000D03*
D11*
X250245000Y-291155000D02*
X250245000Y-293845000D01*
X245955000Y-293845000D01*
X245955000Y-291155000D01*
X250245000Y-291155000D01*
D12*
%TO.P,TP5,1,1*%
X248100000Y-292500000D03*
%TD*%
D10*
%TO.C,C15*%
%TO.CFtp,C_0805_2012Metric*%
%TO.CVal,0.01u*%
%TO.CLbN,My Footprints*%
%TO.CMnt,SMD*%
%TO.CRot,-90*%
X172600000Y-294129322D03*
D11*
X173575000Y-292434322D02*
X173575000Y-295824322D01*
X171625000Y-295824322D01*
X171625000Y-292434322D01*
X173575000Y-292434322D01*
D12*
%TO.P,C15,1*%
X172600000Y-293179322D03*
D13*
%TO.P,C15,2*%
X172600000Y-295079322D03*
%TD*%
D10*
%TO.C,D6*%
%TO.CFtp,LED_0805_2012Metric*%
%TO.CVal,RED*%
%TO.CLbN,LED_SMD*%
%TO.CMnt,SMD*%
%TO.CRot,180*%
X275137500Y-273350000D03*
D11*
X276812500Y-272405000D02*
X276812500Y-274295000D01*
X273462500Y-274295000D01*
X273462500Y-272405000D01*
X276812500Y-272405000D01*
D12*
%TO.P,D6,1,K*%
X276075000Y-273350000D03*
D13*
%TO.P,D6,2,A*%
X274200000Y-273350000D03*
%TD*%
D10*
%TO.C,R3*%
%TO.CFtp,R_0805_2012Metric*%
%TO.CVal,20*%
%TO.CLbN,Resistor_SMD*%
%TO.CMnt,SMD*%
%TO.CRot,180*%
X148250000Y-292100000D03*
D11*
X149925000Y-291155000D02*
X149925000Y-293045000D01*
X146575000Y-293045000D01*
X146575000Y-291155000D01*
X149925000Y-291155000D01*
D12*
%TO.P,R3,1*%
X149162500Y-292100000D03*
D13*
%TO.P,R3,2*%
X147337500Y-292100000D03*
%TD*%
D10*
%TO.C,R38*%
%TO.CFtp,R_0805_2012Metric*%
%TO.CVal,10K*%
%TO.CLbN,Resistor_SMD*%
%TO.CMnt,SMD*%
%TO.CRot,0*%
X264812500Y-305350000D03*
D11*
X266487500Y-304405000D02*
X266487500Y-306295000D01*
X263137500Y-306295000D01*
X263137500Y-304405000D01*
X266487500Y-304405000D01*
D12*
%TO.P,R38,1*%
X263900000Y-305350000D03*
D13*
%TO.P,R38,2*%
X265725000Y-305350000D03*
%TD*%
D10*
%TO.C,D5*%
%TO.CFtp,LED_0805_2012Metric*%
%TO.CVal,RED*%
%TO.CLbN,LED_SMD*%
%TO.CMnt,SMD*%
%TO.CRot,180*%
X275137500Y-271250000D03*
D11*
X276812500Y-270305000D02*
X276812500Y-272195000D01*
X273462500Y-272195000D01*
X273462500Y-270305000D01*
X276812500Y-270305000D01*
D12*
%TO.P,D5,1,K*%
X276075000Y-271250000D03*
D13*
%TO.P,D5,2,A*%
X274200000Y-271250000D03*
%TD*%
D10*
%TO.C,C25*%
%TO.CFtp,C_0805_2012Metric*%
%TO.CVal,47u*%
%TO.CLbN,My Footprints*%
%TO.CMnt,SMD*%
%TO.CRot,90*%
X263600000Y-322150000D03*
D11*
X264575000Y-320455000D02*
X264575000Y-323845000D01*
X262625000Y-323845000D01*
X262625000Y-320455000D01*
X264575000Y-320455000D01*
D12*
%TO.P,C25,1*%
X263600000Y-323100000D03*
D13*
%TO.P,C25,2*%
X263600000Y-321200000D03*
%TD*%
D10*
%TO.C,R12*%
%TO.CFtp,R_0805_2012Metric*%
%TO.CVal,680*%
%TO.CLbN,Resistor_SMD*%
%TO.CMnt,SMD*%
%TO.CRot,0*%
X271337500Y-267050000D03*
D11*
X273012500Y-266105000D02*
X273012500Y-267995000D01*
X269662500Y-267995000D01*
X269662500Y-266105000D01*
X273012500Y-266105000D01*
D12*
%TO.P,R12,1*%
X270425000Y-267050000D03*
D13*
%TO.P,R12,2*%
X272250000Y-267050000D03*
%TD*%
D10*
%TO.C,R26*%
%TO.CFtp,R_0805_2012Metric*%
%TO.CVal,680*%
%TO.CLbN,Resistor_SMD*%
%TO.CMnt,SMD*%
%TO.CRot,0*%
X271337500Y-296450000D03*
D11*
X273012500Y-295505000D02*
X273012500Y-297395000D01*
X269662500Y-297395000D01*
X269662500Y-295505000D01*
X273012500Y-295505000D01*
D12*
%TO.P,R26,1*%
X270425000Y-296450000D03*
D13*
%TO.P,R26,2*%
X272250000Y-296450000D03*
%TD*%
D10*
%TO.C,C19*%
%TO.CFtp,C_0805_2012Metric*%
%TO.CVal,47u*%
%TO.CLbN,My Footprints*%
%TO.CMnt,SMD*%
%TO.CRot,-90*%
X276400000Y-320900000D03*
D11*
X277375000Y-319205000D02*
X277375000Y-322595000D01*
X275425000Y-322595000D01*
X275425000Y-319205000D01*
X277375000Y-319205000D01*
D12*
%TO.P,C19,1*%
X276400000Y-319950000D03*
D13*
%TO.P,C19,2*%
X276400000Y-321850000D03*
%TD*%
D10*
%TO.C,C17*%
%TO.CFtp,C_0805_2012Metric*%
%TO.CVal,47u*%
%TO.CLbN,My Footprints*%
%TO.CMnt,SMD*%
%TO.CRot,-90*%
X278600000Y-320900000D03*
D11*
X279575000Y-319205000D02*
X279575000Y-322595000D01*
X277625000Y-322595000D01*
X277625000Y-319205000D01*
X279575000Y-319205000D01*
D12*
%TO.P,C17,1*%
X278600000Y-319950000D03*
D13*
%TO.P,C17,2*%
X278600000Y-321850000D03*
%TD*%
D10*
%TO.C,C31*%
%TO.CFtp,C_0805_2012Metric*%
%TO.CVal,0.1u*%
%TO.CLbN,My Footprints*%
%TO.CMnt,SMD*%
%TO.CRot,180*%
X183350000Y-286014322D03*
D11*
X185045000Y-285039322D02*
X185045000Y-286989322D01*
X181655000Y-286989322D01*
X181655000Y-285039322D01*
X185045000Y-285039322D01*
D12*
%TO.P,C31,1*%
X184300000Y-286014322D03*
D13*
%TO.P,C31,2*%
X182400000Y-286014322D03*
%TD*%
D10*
%TO.C,R13*%
%TO.CFtp,R_0805_2012Metric*%
%TO.CVal,680*%
%TO.CLbN,Resistor_SMD*%
%TO.CMnt,SMD*%
%TO.CRot,0*%
X271337500Y-269150000D03*
D11*
X273012500Y-268205000D02*
X273012500Y-270095000D01*
X269662500Y-270095000D01*
X269662500Y-268205000D01*
X273012500Y-268205000D01*
D12*
%TO.P,R13,1*%
X270425000Y-269150000D03*
D13*
%TO.P,R13,2*%
X272250000Y-269150000D03*
%TD*%
D10*
%TO.C,C13*%
%TO.CFtp,C_0805_2012Metric*%
%TO.CVal,0.1u*%
%TO.CLbN,My Footprints*%
%TO.CMnt,SMD*%
%TO.CRot,0*%
X183350000Y-290199322D03*
D11*
X185045000Y-289224322D02*
X185045000Y-291174322D01*
X181655000Y-291174322D01*
X181655000Y-289224322D01*
X185045000Y-289224322D01*
D12*
%TO.P,C13,1*%
X182400000Y-290199322D03*
D13*
%TO.P,C13,2*%
X184300000Y-290199322D03*
%TD*%
D10*
%TO.C,R41*%
%TO.CFtp,R_0805_2012Metric*%
%TO.CVal,10K*%
%TO.CLbN,Resistor_SMD*%
%TO.CMnt,SMD*%
%TO.CRot,180*%
X279900000Y-305100000D03*
D11*
X281575000Y-304155000D02*
X281575000Y-306045000D01*
X278225000Y-306045000D01*
X278225000Y-304155000D01*
X281575000Y-304155000D01*
D12*
%TO.P,R41,1*%
X280812500Y-305100000D03*
D13*
%TO.P,R41,2*%
X278987500Y-305100000D03*
%TD*%
D10*
%TO.C,D10*%
%TO.CFtp,LED_0805_2012Metric*%
%TO.CVal,RED*%
%TO.CLbN,LED_SMD*%
%TO.CMnt,SMD*%
%TO.CRot,180*%
X275137500Y-281750000D03*
D11*
X276812500Y-280805000D02*
X276812500Y-282695000D01*
X273462500Y-282695000D01*
X273462500Y-280805000D01*
X276812500Y-280805000D01*
D12*
%TO.P,D10,1,K*%
X276075000Y-281750000D03*
D13*
%TO.P,D10,2,A*%
X274200000Y-281750000D03*
%TD*%
D10*
%TO.C,J5*%
%TO.CFtp,TE_5499922-4*%
%TO.CVal,5499922-4*%
%TO.CLbN,My Footprints*%
%TO.CMnt,TH*%
%TO.CRot,0*%
X204160000Y-267500000D03*
D11*
X238185000Y-261455000D02*
X238185000Y-270475000D01*
X192995000Y-270475000D01*
X192995000Y-261455000D01*
X238185000Y-261455000D01*
D12*
%TO.P,J5,1,1*%
X204160000Y-267500000D03*
D13*
%TO.P,J5,*%
X195270000Y-266480000D03*
X235910000Y-266480000D03*
%TO.P,J5,2,2*%
X204160000Y-264960000D03*
%TO.P,J5,3,3*%
X206700000Y-267500000D03*
%TO.P,J5,4,4*%
X206700000Y-264960000D03*
%TO.P,J5,5,5*%
X209240000Y-267500000D03*
%TO.P,J5,6,6*%
X209240000Y-264960000D03*
%TO.P,J5,7,7*%
X211780000Y-267500000D03*
%TO.P,J5,8,8*%
X211780000Y-264960000D03*
%TO.P,J5,9,9*%
X214320000Y-267500000D03*
%TO.P,J5,10,10*%
X214320000Y-264960000D03*
%TO.P,J5,11,11*%
X216860000Y-267500000D03*
%TO.P,J5,12,12*%
X216860000Y-264960000D03*
%TO.P,J5,13,13*%
X219400000Y-267500000D03*
%TO.P,J5,14,14*%
X219400000Y-264960000D03*
%TO.P,J5,15,15*%
X221940000Y-267500000D03*
%TO.P,J5,16,16*%
X221940000Y-264960000D03*
%TO.P,J5,17,17*%
X224480000Y-267500000D03*
%TO.P,J5,18,18*%
X224480000Y-264960000D03*
%TO.P,J5,19,19*%
X227020000Y-267500000D03*
%TO.P,J5,20,20*%
X227020000Y-264960000D03*
%TD*%
D10*
%TO.C,C14*%
%TO.CFtp,C_0805_2012Metric*%
%TO.CVal,0.1u*%
%TO.CLbN,My Footprints*%
%TO.CMnt,SMD*%
%TO.CRot,0*%
X183250000Y-294799322D03*
D11*
X184945000Y-293824322D02*
X184945000Y-295774322D01*
X181555000Y-295774322D01*
X181555000Y-293824322D01*
X184945000Y-293824322D01*
D12*
%TO.P,C14,1*%
X182300000Y-294799322D03*
D13*
%TO.P,C14,2*%
X184200000Y-294799322D03*
%TD*%
D10*
%TO.C,U7*%
%TO.CFtp,SOP50P810X120-48N*%
%TO.CVal,SN74LVC16T245DGGR*%
%TO.CLbN,My Footprints*%
%TO.CMnt,SMD*%
%TO.CRot,0*%
X256925000Y-281050000D03*
D11*
X261675000Y-274555000D02*
X261675000Y-287545000D01*
X252175000Y-287545000D01*
X252175000Y-274555000D01*
X261675000Y-274555000D01*
D12*
%TO.P,U7,1,1DIR*%
X253205000Y-275300000D03*
D13*
%TO.P,U7,2,1B1*%
X253205000Y-275800000D03*
%TO.P,U7,3,1B2*%
X253205000Y-276300000D03*
%TO.P,U7,4,GND*%
X253205000Y-276800000D03*
%TO.P,U7,5,1B3*%
X253205000Y-277300000D03*
%TO.P,U7,6,1B4*%
X253205000Y-277800000D03*
%TO.P,U7,7,VCCB_7*%
X253205000Y-278300000D03*
%TO.P,U7,8,1B5*%
X253205000Y-278800000D03*
%TO.P,U7,9,1B6*%
X253205000Y-279300000D03*
%TO.P,U7,10,GND*%
X253205000Y-279800000D03*
%TO.P,U7,11,1B7*%
X253205000Y-280300000D03*
%TO.P,U7,12,1B8*%
X253205000Y-280800000D03*
%TO.P,U7,13,2B1*%
X253205000Y-281300000D03*
%TO.P,U7,14,2B2*%
X253205000Y-281800000D03*
%TO.P,U7,15,GND*%
X253205000Y-282300000D03*
%TO.P,U7,16,2B3*%
X253205000Y-282800000D03*
%TO.P,U7,17,2B4*%
X253205000Y-283300000D03*
%TO.P,U7,18,VCCB_18*%
X253205000Y-283800000D03*
%TO.P,U7,19,2B5*%
X253205000Y-284300000D03*
%TO.P,U7,20,2B6*%
X253205000Y-284800000D03*
%TO.P,U7,21,GND*%
X253205000Y-285300000D03*
%TO.P,U7,22,2B7*%
X253205000Y-285800000D03*
%TO.P,U7,23,2B8*%
X253205000Y-286300000D03*
%TO.P,U7,24,2DIR*%
X253205000Y-286800000D03*
%TO.P,U7,25,2~{OE}*%
X260645000Y-286800000D03*
%TO.P,U7,26,2A8*%
X260645000Y-286300000D03*
%TO.P,U7,27,2A7*%
X260645000Y-285800000D03*
%TO.P,U7,28,GND*%
X260645000Y-285300000D03*
%TO.P,U7,29,2A6*%
X260645000Y-284800000D03*
%TO.P,U7,30,2A5*%
X260645000Y-284300000D03*
%TO.P,U7,31,VCCA_31*%
X260645000Y-283800000D03*
%TO.P,U7,32,2A4*%
X260645000Y-283300000D03*
%TO.P,U7,33,2A3*%
X260645000Y-282800000D03*
%TO.P,U7,34,GND*%
X260645000Y-282300000D03*
%TO.P,U7,35,2A2*%
X260645000Y-281800000D03*
%TO.P,U7,36,2A1*%
X260645000Y-281300000D03*
%TO.P,U7,37,1A8*%
X260645000Y-280800000D03*
%TO.P,U7,38,1A7*%
X260645000Y-280300000D03*
%TO.P,U7,39,GND*%
X260645000Y-279800000D03*
%TO.P,U7,40,1A6*%
X260645000Y-279300000D03*
%TO.P,U7,41,1A5*%
X260645000Y-278800000D03*
%TO.P,U7,42,VCCA_42*%
X260645000Y-278300000D03*
%TO.P,U7,43,1A4*%
X260645000Y-277800000D03*
%TO.P,U7,44,1A3*%
X260645000Y-277300000D03*
%TO.P,U7,45,GND*%
X260645000Y-276800000D03*
%TO.P,U7,46,1A2*%
X260645000Y-276300000D03*
%TO.P,U7,47,1A1*%
X260645000Y-275800000D03*
%TO.P,U7,48,1~{OE}*%
X260645000Y-275300000D03*
%TD*%
D10*
%TO.C,C9*%
%TO.CFtp,C_0805_2012Metric*%
%TO.CVal,0.1u*%
%TO.CLbN,My Footprints*%
%TO.CMnt,SMD*%
%TO.CRot,90*%
X160500000Y-290750000D03*
D11*
X161475000Y-289055000D02*
X161475000Y-292445000D01*
X159525000Y-292445000D01*
X159525000Y-289055000D01*
X161475000Y-289055000D01*
D12*
%TO.P,C9,1*%
X160500000Y-291700000D03*
D13*
%TO.P,C9,2*%
X160500000Y-289800000D03*
%TD*%
D10*
%TO.C,R20*%
%TO.CFtp,R_0805_2012Metric*%
%TO.CVal,680*%
%TO.CLbN,Resistor_SMD*%
%TO.CMnt,SMD*%
%TO.CRot,0*%
X271337500Y-283850000D03*
D11*
X273012500Y-282905000D02*
X273012500Y-284795000D01*
X269662500Y-284795000D01*
X269662500Y-282905000D01*
X273012500Y-282905000D01*
D12*
%TO.P,R20,1*%
X270425000Y-283850000D03*
D13*
%TO.P,R20,2*%
X272250000Y-283850000D03*
%TD*%
D10*
%TO.C,R10*%
%TO.CFtp,R_0805_2012Metric*%
%TO.CVal,10K*%
%TO.CLbN,Resistor_SMD*%
%TO.CMnt,SMD*%
%TO.CRot,90*%
X273100000Y-315687500D03*
D11*
X274045000Y-314012500D02*
X274045000Y-317362500D01*
X272155000Y-317362500D01*
X272155000Y-314012500D01*
X274045000Y-314012500D01*
D12*
%TO.P,R10,1*%
X273100000Y-316600000D03*
D13*
%TO.P,R10,2*%
X273100000Y-314775000D03*
%TD*%
D10*
%TO.C,C28*%
%TO.CFtp,C_0805_2012Metric*%
%TO.CVal,10u*%
%TO.CLbN,My Footprints*%
%TO.CMnt,SMD*%
%TO.CRot,90*%
X174350000Y-301600000D03*
D11*
X175325000Y-299905000D02*
X175325000Y-303295000D01*
X173375000Y-303295000D01*
X173375000Y-299905000D01*
X175325000Y-299905000D01*
D12*
%TO.P,C28,1*%
X174350000Y-302550000D03*
D13*
%TO.P,C28,2*%
X174350000Y-300650000D03*
%TD*%
D10*
%TO.C,C30*%
%TO.CFtp,C_0805_2012Metric*%
%TO.CVal,47u*%
%TO.CLbN,My Footprints*%
%TO.CMnt,SMD*%
%TO.CRot,180*%
X171500000Y-304500000D03*
D11*
X173195000Y-303525000D02*
X173195000Y-305475000D01*
X169805000Y-305475000D01*
X169805000Y-303525000D01*
X173195000Y-303525000D01*
D12*
%TO.P,C30,1*%
X172450000Y-304500000D03*
D13*
%TO.P,C30,2*%
X170550000Y-304500000D03*
%TD*%
D10*
%TO.C,R16*%
%TO.CFtp,R_0805_2012Metric*%
%TO.CVal,680*%
%TO.CLbN,Resistor_SMD*%
%TO.CMnt,SMD*%
%TO.CRot,0*%
X271337500Y-275450000D03*
D11*
X273012500Y-274505000D02*
X273012500Y-276395000D01*
X269662500Y-276395000D01*
X269662500Y-274505000D01*
X273012500Y-274505000D01*
D12*
%TO.P,R16,1*%
X270425000Y-275450000D03*
D13*
%TO.P,R16,2*%
X272250000Y-275450000D03*
%TD*%
D10*
%TO.C,C8*%
%TO.CFtp,C_0805_2012Metric*%
%TO.CVal,10u*%
%TO.CLbN,My Footprints*%
%TO.CMnt,SMD*%
%TO.CRot,90*%
X162600000Y-290750000D03*
D11*
X163575000Y-289055000D02*
X163575000Y-292445000D01*
X161625000Y-292445000D01*
X161625000Y-289055000D01*
X163575000Y-289055000D01*
D12*
%TO.P,C8,1*%
X162600000Y-291700000D03*
D13*
%TO.P,C8,2*%
X162600000Y-289800000D03*
%TD*%
D10*
%TO.C,U10*%
%TO.CFtp,TPS3850_DRCR*%
%TO.CVal,TPS3850H50DRCR*%
%TO.CLbN,My Footprints*%
%TO.CMnt,SMD*%
%TO.CRot,180*%
X271400000Y-305700000D03*
D11*
X273345000Y-303755000D02*
X273345000Y-307645000D01*
X269455000Y-307645000D01*
X269455000Y-303755000D01*
X273345000Y-303755000D01*
D12*
%TO.P,U10,1,VDD*%
X272800000Y-306700000D03*
D13*
%TO.P,U10,2,CWD*%
X272800000Y-306200000D03*
%TO.P,U10,3,SET0*%
X272800000Y-305700000D03*
%TO.P,U10,4,CRST*%
X272800000Y-305200000D03*
%TO.P,U10,5,GND*%
X272800000Y-304700000D03*
%TO.P,U10,6,SET1*%
X270000000Y-304700000D03*
%TO.P,U10,7,WDI*%
X270000000Y-305200000D03*
%TO.P,U10,8,WDO*%
X270000000Y-305700000D03*
%TO.P,U10,9,RESET*%
X270000000Y-306200000D03*
%TO.P,U10,10,SENSE*%
X270000000Y-306700000D03*
%TO.P,U10,11,GNDTH*%
X271975000Y-305700000D03*
X271400000Y-306650000D03*
X271400000Y-305700000D03*
X271400000Y-304750000D03*
X270825000Y-305700000D03*
%TD*%
D10*
%TO.C,C7*%
%TO.CFtp,C_0805_2012Metric*%
%TO.CVal,2.2u*%
%TO.CLbN,My Footprints*%
%TO.CMnt,SMD*%
%TO.CRot,-90*%
X151950000Y-295600000D03*
D11*
X152925000Y-293905000D02*
X152925000Y-297295000D01*
X150975000Y-297295000D01*
X150975000Y-293905000D01*
X152925000Y-293905000D01*
D12*
%TO.P,C7,1*%
X151950000Y-294650000D03*
D13*
%TO.P,C7,2*%
X151950000Y-296550000D03*
%TD*%
D10*
%TO.C,R40*%
%TO.CFtp,R_0805_2012Metric*%
%TO.CVal,10K*%
%TO.CLbN,Resistor_SMD*%
%TO.CMnt,SMD*%
%TO.CRot,180*%
X283612500Y-305100000D03*
D11*
X285287500Y-304155000D02*
X285287500Y-306045000D01*
X281937500Y-306045000D01*
X281937500Y-304155000D01*
X285287500Y-304155000D01*
D12*
%TO.P,R40,1*%
X284525000Y-305100000D03*
D13*
%TO.P,R40,2*%
X282700000Y-305100000D03*
%TD*%
D10*
%TO.C,U2*%
%TO.CFtp,QFN-48_UK_LIT*%
%TO.CVal,LTC2107CUK-PBF*%
%TO.CLbN,My Footprints*%
%TO.CMnt,SMD*%
%TO.CRot,-90*%
X159200000Y-298500000D03*
D11*
X162323600Y-294396200D02*
X162323600Y-294701000D01*
X162999000Y-294701000D01*
X162999000Y-295376400D01*
X163303800Y-295376400D01*
X163303800Y-301623600D01*
X162999000Y-301623600D01*
X162999000Y-302299000D01*
X162323600Y-302299000D01*
X162323600Y-302603800D01*
X156076400Y-302603800D01*
X156076400Y-302299000D01*
X155401000Y-302299000D01*
X155401000Y-301623600D01*
X155096200Y-301623600D01*
X155096200Y-295376400D01*
X155401000Y-295376400D01*
X155401000Y-294701000D01*
X156076400Y-294701000D01*
X156076400Y-294396200D01*
X162323600Y-294396200D01*
D12*
%TO.P,U2,1,SENSE*%
X161950000Y-295047599D03*
D13*
%TO.P,U2,2,GND*%
X161450001Y-295047599D03*
%TO.P,U2,3,GND*%
X160949999Y-295047599D03*
%TO.P,U2,4,VDD*%
X160450000Y-295047599D03*
%TO.P,U2,5,VDD*%
X159950001Y-295047599D03*
%TO.P,U2,6,VDD*%
X159450000Y-295047599D03*
%TO.P,U2,7,GND*%
X158950000Y-295047599D03*
%TO.P,U2,8,AIN+*%
X158449999Y-295047599D03*
%TO.P,U2,9,AIN-*%
X157950000Y-295047599D03*
%TO.P,U2,10,GND*%
X157450001Y-295047599D03*
%TO.P,U2,11,VCM*%
X156949999Y-295047599D03*
%TO.P,U2,12,GND*%
X156450000Y-295047599D03*
%TO.P,U2,13,GND*%
X155747599Y-295750000D03*
%TO.P,U2,14,ENC+*%
X155747599Y-296249999D03*
%TO.P,U2,15,ENC-*%
X155747599Y-296750001D03*
%TO.P,U2,16,GND*%
X155747599Y-297250000D03*
%TO.P,U2,17,SHDN*%
X155747599Y-297749999D03*
%TO.P,U2,18,SDO*%
X155747599Y-298250000D03*
%TO.P,U2,19,OGND*%
X155747599Y-298750000D03*
%TO.P,U2,20,OVDD*%
X155747599Y-299250001D03*
%TO.P,U2,21,D0_D1-*%
X155747599Y-299750000D03*
%TO.P,U2,22,D1_D0+*%
X155747599Y-300249999D03*
%TO.P,U2,23,D3_D2-*%
X155747599Y-300750001D03*
%TO.P,U2,24,D3_D2+*%
X155747599Y-301250000D03*
%TO.P,U2,25,D5_D4-*%
X156450000Y-301952401D03*
%TO.P,U2,26,D5_D4+*%
X156949999Y-301952401D03*
%TO.P,U2,27,D7_D6-*%
X157450001Y-301952401D03*
%TO.P,U2,28,D7_D6+*%
X157950000Y-301952401D03*
%TO.P,U2,29,D9_D8-*%
X158449999Y-301952401D03*
%TO.P,U2,30,D9_D8+*%
X158950000Y-301952401D03*
%TO.P,U2,31,CLKOUT-*%
X159450000Y-301952401D03*
%TO.P,U2,32,CLKOUT+*%
X159950001Y-301952401D03*
%TO.P,U2,33,D11_D10-*%
X160450000Y-301952401D03*
%TO.P,U2,34,D11_D10+*%
X160949999Y-301952401D03*
%TO.P,U2,35,D13_D12-*%
X161450001Y-301952401D03*
%TO.P,U2,36,D13_D12+*%
X161950000Y-301952401D03*
%TO.P,U2,37,D15_D14-*%
X162652401Y-301250000D03*
%TO.P,U2,38,D15_D14+*%
X162652401Y-300750001D03*
%TO.P,U2,39,OF-*%
X162652401Y-300249999D03*
%TO.P,U2,40,OF+*%
X162652401Y-299750000D03*
%TO.P,U2,41,OVDD*%
X162652401Y-299250001D03*
%TO.P,U2,42,OGND*%
X162652401Y-298750000D03*
%TO.P,U2,43,SDI*%
X162652401Y-298250000D03*
%TO.P,U2,44,SCK*%
X162652401Y-297749999D03*
%TO.P,U2,45,\u002ACS*%
X162652401Y-297250000D03*
%TO.P,U2,46,PAR/\u002ASER*%
X162652401Y-296750001D03*
%TO.P,U2,47,GND*%
X162652401Y-296249999D03*
%TO.P,U2,48,GND*%
X162652401Y-295750000D03*
%TO.P,U2,49,GND*%
X160950000Y-296500000D03*
X159700000Y-296500000D03*
X158450000Y-296500000D03*
X157200000Y-296500000D03*
X160950000Y-298000000D03*
X159700000Y-298000000D03*
X158450000Y-298000000D03*
X157200000Y-298000000D03*
X159200000Y-298500000D03*
X160950000Y-299250000D03*
X159700000Y-299250000D03*
X158450000Y-299250000D03*
X157200000Y-299250000D03*
X160950000Y-300500000D03*
X159700000Y-300500000D03*
X158450000Y-300500000D03*
X157200000Y-300500000D03*
%TD*%
D10*
%TO.C,C38*%
%TO.CFtp,C_0805_2012Metric*%
%TO.CVal,0.1u*%
%TO.CLbN,My Footprints*%
%TO.CMnt,SMD*%
%TO.CRot,-90*%
X274200000Y-320900000D03*
D11*
X275175000Y-319205000D02*
X275175000Y-322595000D01*
X273225000Y-322595000D01*
X273225000Y-319205000D01*
X275175000Y-319205000D01*
D12*
%TO.P,C38,1*%
X274200000Y-319950000D03*
D13*
%TO.P,C38,2*%
X274200000Y-321850000D03*
%TD*%
D10*
%TO.C,R45*%
%TO.CFtp,R_0805_2012Metric*%
%TO.CVal,0*%
%TO.CLbN,Resistor_SMD*%
%TO.CMnt,SMD*%
%TO.CRot,180*%
X249812500Y-299500000D03*
D11*
X251487500Y-298555000D02*
X251487500Y-300445000D01*
X248137500Y-300445000D01*
X248137500Y-298555000D01*
X251487500Y-298555000D01*
D12*
%TO.P,R45,1*%
X250725000Y-299500000D03*
D13*
%TO.P,R45,2*%
X248900000Y-299500000D03*
%TD*%
D10*
%TO.C,C18*%
%TO.CFtp,C_0805_2012Metric*%
%TO.CVal,10u*%
%TO.CLbN,My Footprints*%
%TO.CMnt,SMD*%
%TO.CRot,90*%
X174350000Y-288164322D03*
D11*
X175325000Y-286469322D02*
X175325000Y-289859322D01*
X173375000Y-289859322D01*
X173375000Y-286469322D01*
X175325000Y-286469322D01*
D12*
%TO.P,C18,1*%
X174350000Y-289114322D03*
D13*
%TO.P,C18,2*%
X174350000Y-287214322D03*
%TD*%
D10*
%TO.C,C40*%
%TO.CFtp,C_0805_2012Metric*%
%TO.CVal,0.1u*%
%TO.CLbN,My Footprints*%
%TO.CMnt,SMD*%
%TO.CRot,0*%
X119400000Y-294000000D03*
D11*
X121095000Y-293025000D02*
X121095000Y-294975000D01*
X117705000Y-294975000D01*
X117705000Y-293025000D01*
X121095000Y-293025000D01*
D12*
%TO.P,C40,1*%
X118450000Y-294000000D03*
D13*
%TO.P,C40,2*%
X120350000Y-294000000D03*
%TD*%
D10*
%TO.C,J2*%
%TO.CFtp,TE_6469028-1*%
%TO.CVal,6469028-1*%
%TO.CLbN,My Footprints*%
%TO.CMnt,TH*%
%TO.CRot,0*%
X217624000Y-321284000D03*
D11*
X218619000Y-312839000D02*
X218619000Y-333229000D01*
X193179000Y-333229000D01*
X193179000Y-312839000D01*
X218619000Y-312839000D01*
D12*
%TO.P,J2,A1,A1*%
X217624000Y-321284000D03*
D13*
%TO.P,J2,A2,A2*%
X215124000Y-321284000D03*
%TO.P,J2,A3,A3*%
X212624000Y-321284000D03*
%TO.P,J2,A4,A4*%
X210124000Y-321284000D03*
%TO.P,J2,A5,A5*%
X207624000Y-321284000D03*
%TO.P,J2,A6,A6*%
X205124000Y-321284000D03*
%TO.P,J2,A7,A7*%
X202624000Y-321284000D03*
%TO.P,J2,A8,A8*%
X200124000Y-321284000D03*
%TO.P,J2,A9,A9*%
X197624000Y-321284000D03*
%TO.P,J2,A10,A10*%
X195124000Y-321284000D03*
%TO.P,J2,B1,B1*%
X217624000Y-319784000D03*
%TO.P,J2,B2,B2*%
X215124000Y-319784000D03*
%TO.P,J2,B3,B3*%
X212624000Y-319784000D03*
%TO.P,J2,B4,B4*%
X210124000Y-319784000D03*
%TO.P,J2,B5,B5*%
X207624000Y-319784000D03*
%TO.P,J2,B6,B6*%
X205124000Y-319784000D03*
%TO.P,J2,B7,B7*%
X202624000Y-319784000D03*
%TO.P,J2,B8,B8*%
X200124000Y-319784000D03*
%TO.P,J2,B9,B9*%
X197624000Y-319784000D03*
%TO.P,J2,B10,B10*%
X195124000Y-319784000D03*
%TO.P,J2,BG1,BG1*%
X217624000Y-318284000D03*
%TO.P,J2,BG2,BG2*%
X215124000Y-318284000D03*
%TO.P,J2,BG3,BG3*%
X212624000Y-318284000D03*
%TO.P,J2,BG4,BG4*%
X210124000Y-318284000D03*
%TO.P,J2,BG5,BG5*%
X207624000Y-318284000D03*
%TO.P,J2,BG6,BG6*%
X205124000Y-318284000D03*
%TO.P,J2,BG7,BG7*%
X202624000Y-318284000D03*
%TO.P,J2,BG8,BG8*%
X200124000Y-318284000D03*
%TO.P,J2,BG9,BG9*%
X197624000Y-318284000D03*
%TO.P,J2,BG10,BG10*%
X195124000Y-318284000D03*
%TO.P,J2,C1,C1*%
X217624000Y-316784000D03*
%TO.P,J2,C2,C2*%
X215124000Y-316784000D03*
%TO.P,J2,C3,C3*%
X212624000Y-316784000D03*
%TO.P,J2,C4,C4*%
X210124000Y-316784000D03*
%TO.P,J2,C5,C5*%
X207624000Y-316784000D03*
%TO.P,J2,C6,C6*%
X205124000Y-316784000D03*
%TO.P,J2,C7,C7*%
X202624000Y-316784000D03*
%TO.P,J2,C8,C8*%
X200124000Y-316784000D03*
%TO.P,J2,C9,C9*%
X197624000Y-316784000D03*
%TO.P,J2,C10,C10*%
X195124000Y-316784000D03*
%TO.P,J2,D1,D1*%
X217624000Y-315284000D03*
%TO.P,J2,D2,D2*%
X215124000Y-315284000D03*
%TO.P,J2,D3,D3*%
X212624000Y-315284000D03*
%TO.P,J2,D4,D4*%
X210124000Y-315284000D03*
%TO.P,J2,D5,D5*%
X207624000Y-315284000D03*
%TO.P,J2,D6,D6*%
X205124000Y-315284000D03*
%TO.P,J2,D7,D7*%
X202624000Y-315284000D03*
%TO.P,J2,D8,D8*%
X200124000Y-315284000D03*
%TO.P,J2,D9,D9*%
X197624000Y-315284000D03*
%TO.P,J2,D10,D10*%
X195124000Y-315284000D03*
%TO.P,J2,DG1,DG1*%
X217624000Y-313784000D03*
%TO.P,J2,DG2,DG2*%
X215124000Y-313784000D03*
%TO.P,J2,DG3,DG3*%
X212624000Y-313784000D03*
%TO.P,J2,DG4,DG4*%
X210124000Y-313784000D03*
%TO.P,J2,DG5,DG5*%
X207624000Y-313784000D03*
%TO.P,J2,DG6,DG6*%
X205124000Y-313784000D03*
%TO.P,J2,DG7,DG7*%
X202624000Y-313784000D03*
%TO.P,J2,DG8,DG8*%
X200124000Y-313784000D03*
%TO.P,J2,DG9,DG9*%
X197624000Y-313784000D03*
%TO.P,J2,DG10,DG10*%
X195124000Y-313784000D03*
%TD*%
D10*
%TO.C,J6*%
%TO.CFtp,MOLEX_39301022*%
%TO.CVal,39301022*%
%TO.CLbN,My Footprints*%
%TO.CMnt,TH*%
%TO.CRot,90*%
X293770000Y-319750000D03*
D11*
X308935000Y-315385000D02*
X308935000Y-323715000D01*
X286465000Y-323715000D01*
X286465000Y-315385000D01*
X308935000Y-315385000D01*
D12*
%TO.P,J6,1,1*%
X293770000Y-319750000D03*
D13*
%TO.P,J6,*%
X301070000Y-319750000D03*
%TO.P,J6,2,2*%
X288270000Y-319750000D03*
%TD*%
D10*
%TO.C,J1*%
%TO.CFtp,TE_6469028-1*%
%TO.CVal,6469028-1*%
%TO.CLbN,My Footprints*%
%TO.CMnt,TH*%
%TO.CRot,0*%
X166824000Y-321284000D03*
D11*
X167819000Y-312839000D02*
X167819000Y-333229000D01*
X142379000Y-333229000D01*
X142379000Y-312839000D01*
X167819000Y-312839000D01*
D12*
%TO.P,J1,A1,A1*%
X166824000Y-321284000D03*
D13*
%TO.P,J1,A2,A2*%
X164324000Y-321284000D03*
%TO.P,J1,A3,A3*%
X161824000Y-321284000D03*
%TO.P,J1,A4,A4*%
X159324000Y-321284000D03*
%TO.P,J1,A5,A5*%
X156824000Y-321284000D03*
%TO.P,J1,A6,A6*%
X154324000Y-321284000D03*
%TO.P,J1,A7,A7*%
X151824000Y-321284000D03*
%TO.P,J1,A8,A8*%
X149324000Y-321284000D03*
%TO.P,J1,A9,A9*%
X146824000Y-321284000D03*
%TO.P,J1,A10,A10*%
X144324000Y-321284000D03*
%TO.P,J1,B1,B1*%
X166824000Y-319784000D03*
%TO.P,J1,B2,B2*%
X164324000Y-319784000D03*
%TO.P,J1,B3,B3*%
X161824000Y-319784000D03*
%TO.P,J1,B4,B4*%
X159324000Y-319784000D03*
%TO.P,J1,B5,B5*%
X156824000Y-319784000D03*
%TO.P,J1,B6,B6*%
X154324000Y-319784000D03*
%TO.P,J1,B7,B7*%
X151824000Y-319784000D03*
%TO.P,J1,B8,B8*%
X149324000Y-319784000D03*
%TO.P,J1,B9,B9*%
X146824000Y-319784000D03*
%TO.P,J1,B10,B10*%
X144324000Y-319784000D03*
%TO.P,J1,BG1,BG1*%
X166824000Y-318284000D03*
%TO.P,J1,BG2,BG2*%
X164324000Y-318284000D03*
%TO.P,J1,BG3,BG3*%
X161824000Y-318284000D03*
%TO.P,J1,BG4,BG4*%
X159324000Y-318284000D03*
%TO.P,J1,BG5,BG5*%
X156824000Y-318284000D03*
%TO.P,J1,BG6,BG6*%
X154324000Y-318284000D03*
%TO.P,J1,BG7,BG7*%
X151824000Y-318284000D03*
%TO.P,J1,BG8,BG8*%
X149324000Y-318284000D03*
%TO.P,J1,BG9,BG9*%
X146824000Y-318284000D03*
%TO.P,J1,BG10,BG10*%
X144324000Y-318284000D03*
%TO.P,J1,C1,C1*%
X166824000Y-316784000D03*
%TO.P,J1,C2,C2*%
X164324000Y-316784000D03*
%TO.P,J1,C3,C3*%
X161824000Y-316784000D03*
%TO.P,J1,C4,C4*%
X159324000Y-316784000D03*
%TO.P,J1,C5,C5*%
X156824000Y-316784000D03*
%TO.P,J1,C6,C6*%
X154324000Y-316784000D03*
%TO.P,J1,C7,C7*%
X151824000Y-316784000D03*
%TO.P,J1,C8,C8*%
X149324000Y-316784000D03*
%TO.P,J1,C9,C9*%
X146824000Y-316784000D03*
%TO.P,J1,C10,C10*%
X144324000Y-316784000D03*
%TO.P,J1,D1,D1*%
X166824000Y-315284000D03*
%TO.P,J1,D2,D2*%
X164324000Y-315284000D03*
%TO.P,J1,D3,D3*%
X161824000Y-315284000D03*
%TO.P,J1,D4,D4*%
X159324000Y-315284000D03*
%TO.P,J1,D5,D5*%
X156824000Y-315284000D03*
%TO.P,J1,D6,D6*%
X154324000Y-315284000D03*
%TO.P,J1,D7,D7*%
X151824000Y-315284000D03*
%TO.P,J1,D8,D8*%
X149324000Y-315284000D03*
%TO.P,J1,D9,D9*%
X146824000Y-315284000D03*
%TO.P,J1,D10,D10*%
X144324000Y-315284000D03*
%TO.P,J1,DG1,DG1*%
X166824000Y-313784000D03*
%TO.P,J1,DG2,DG2*%
X164324000Y-313784000D03*
%TO.P,J1,DG3,DG3*%
X161824000Y-313784000D03*
%TO.P,J1,DG4,DG4*%
X159324000Y-313784000D03*
%TO.P,J1,DG5,DG5*%
X156824000Y-313784000D03*
%TO.P,J1,DG6,DG6*%
X154324000Y-313784000D03*
%TO.P,J1,DG7,DG7*%
X151824000Y-313784000D03*
%TO.P,J1,DG8,DG8*%
X149324000Y-313784000D03*
%TO.P,J1,DG9,DG9*%
X146824000Y-313784000D03*
%TO.P,J1,DG10,DG10*%
X144324000Y-313784000D03*
%TD*%
D10*
%TO.C,C23*%
%TO.CFtp,C_0805_2012Metric*%
%TO.CVal,0.1u*%
%TO.CLbN,My Footprints*%
%TO.CMnt,SMD*%
%TO.CRot,0*%
X183250000Y-307400000D03*
D11*
X184945000Y-306425000D02*
X184945000Y-308375000D01*
X181555000Y-308375000D01*
X181555000Y-306425000D01*
X184945000Y-306425000D01*
D12*
%TO.P,C23,1*%
X182300000Y-307400000D03*
D13*
%TO.P,C23,2*%
X184200000Y-307400000D03*
%TD*%
D10*
%TO.C,C22*%
%TO.CFtp,C_0805_2012Metric*%
%TO.CVal,0.1u*%
%TO.CLbN,My Footprints*%
%TO.CMnt,SMD*%
%TO.CRot,0*%
X183250000Y-305100000D03*
D11*
X184945000Y-304125000D02*
X184945000Y-306075000D01*
X181555000Y-306075000D01*
X181555000Y-304125000D01*
X184945000Y-304125000D01*
D12*
%TO.P,C22,1*%
X182300000Y-305100000D03*
D13*
%TO.P,C22,2*%
X184200000Y-305100000D03*
%TD*%
D10*
%TO.C,D16*%
%TO.CFtp,LED_0805_2012Metric*%
%TO.CVal,RED*%
%TO.CLbN,LED_SMD*%
%TO.CMnt,SMD*%
%TO.CRot,180*%
X275137500Y-294350000D03*
D11*
X276812500Y-293405000D02*
X276812500Y-295295000D01*
X273462500Y-295295000D01*
X273462500Y-293405000D01*
X276812500Y-293405000D01*
D12*
%TO.P,D16,1,K*%
X276075000Y-294350000D03*
D13*
%TO.P,D16,2,A*%
X274200000Y-294350000D03*
%TD*%
D10*
%TO.C,J7*%
%TO.CFtp,TE_5499922-4*%
%TO.CVal,5499922-4*%
%TO.CLbN,My Footprints*%
%TO.CMnt,TH*%
%TO.CRot,0*%
X111240000Y-267500000D03*
D11*
X145265000Y-261455000D02*
X145265000Y-270475000D01*
X100075000Y-270475000D01*
X100075000Y-261455000D01*
X145265000Y-261455000D01*
D12*
%TO.P,J7,1,1*%
X111240000Y-267500000D03*
D13*
%TO.P,J7,*%
X102350000Y-266480000D03*
X142990000Y-266480000D03*
%TO.P,J7,2,2*%
X111240000Y-264960000D03*
%TO.P,J7,3,3*%
X113780000Y-267500000D03*
%TO.P,J7,4,4*%
X113780000Y-264960000D03*
%TO.P,J7,5,5*%
X116320000Y-267500000D03*
%TO.P,J7,6,6*%
X116320000Y-264960000D03*
%TO.P,J7,7,7*%
X118860000Y-267500000D03*
%TO.P,J7,8,8*%
X118860000Y-264960000D03*
%TO.P,J7,9,9*%
X121400000Y-267500000D03*
%TO.P,J7,10,10*%
X121400000Y-264960000D03*
%TO.P,J7,11,11*%
X123940000Y-267500000D03*
%TO.P,J7,12,12*%
X123940000Y-264960000D03*
%TO.P,J7,13,13*%
X126480000Y-267500000D03*
%TO.P,J7,14,14*%
X126480000Y-264960000D03*
%TO.P,J7,15,15*%
X129020000Y-267500000D03*
%TO.P,J7,16,16*%
X129020000Y-264960000D03*
%TO.P,J7,17,17*%
X131560000Y-267500000D03*
%TO.P,J7,18,18*%
X131560000Y-264960000D03*
%TO.P,J7,19,19*%
X134100000Y-267500000D03*
%TO.P,J7,20,20*%
X134100000Y-264960000D03*
%TD*%
D10*
%TO.C,R24*%
%TO.CFtp,R_0805_2012Metric*%
%TO.CVal,680*%
%TO.CLbN,Resistor_SMD*%
%TO.CMnt,SMD*%
%TO.CRot,0*%
X271337500Y-292250000D03*
D11*
X273012500Y-291305000D02*
X273012500Y-293195000D01*
X269662500Y-293195000D01*
X269662500Y-291305000D01*
X273012500Y-291305000D01*
D12*
%TO.P,R24,1*%
X270425000Y-292250000D03*
D13*
%TO.P,R24,2*%
X272250000Y-292250000D03*
%TD*%
D10*
%TO.C,U5*%
%TO.CFtp,QFN50P350X350X100-21N*%
%TO.CVal,TPS7A8500RGRT*%
%TO.CLbN,My Footprints*%
%TO.CMnt,SMD*%
%TO.CRot,0*%
X177500000Y-306800000D03*
D11*
X179870000Y-304430000D02*
X179870000Y-309170000D01*
X175130000Y-309170000D01*
X175130000Y-304430000D01*
X179870000Y-304430000D01*
D12*
%TO.P,U5,1,OUT*%
X175815000Y-305800000D03*
D13*
%TO.P,U5,2,SNS*%
X175815000Y-306300000D03*
%TO.P,U5,3,FB*%
X175815000Y-306800000D03*
%TO.P,U5,4,PG*%
X175815000Y-307300000D03*
%TO.P,U5,5,50MV*%
X175815000Y-307800000D03*
%TO.P,U5,6,100MV*%
X176500000Y-308485000D03*
%TO.P,U5,7,200MV*%
X177000000Y-308485000D03*
%TO.P,U5,8,GND*%
X177500000Y-308485000D03*
%TO.P,U5,9,400MV*%
X178000000Y-308485000D03*
%TO.P,U5,10,800MV*%
X178500000Y-308485000D03*
%TO.P,U5,11,1.6V*%
X179185000Y-307800000D03*
%TO.P,U5,12,BIAS*%
X179185000Y-307300000D03*
%TO.P,U5,13,NR/SS*%
X179185000Y-306800000D03*
%TO.P,U5,14,EN*%
X179185000Y-306300000D03*
%TO.P,U5,15,IN*%
X179185000Y-305800000D03*
%TO.P,U5,16,IN*%
X178500000Y-305115000D03*
%TO.P,U5,17,IN*%
X178000000Y-305115000D03*
%TO.P,U5,18,GND*%
X177500000Y-305115000D03*
%TO.P,U5,19,OUT*%
X177000000Y-305115000D03*
%TO.P,U5,20,OUT*%
X176500000Y-305115000D03*
%TO.P,U5,21,GND_TH*%
X177000000Y-306800000D03*
X177500000Y-306300000D03*
X177500000Y-306800000D03*
X177500000Y-307300000D03*
X178000000Y-306800000D03*
%TD*%
D10*
%TO.C,R36*%
%TO.CFtp,R_0805_2012Metric*%
%TO.CVal,10K*%
%TO.CLbN,Resistor_SMD*%
%TO.CMnt,SMD*%
%TO.CRot,180*%
X283612500Y-307900000D03*
D11*
X285287500Y-306955000D02*
X285287500Y-308845000D01*
X281937500Y-308845000D01*
X281937500Y-306955000D01*
X285287500Y-306955000D01*
D12*
%TO.P,R36,1*%
X284525000Y-307900000D03*
D13*
%TO.P,R36,2*%
X282700000Y-307900000D03*
%TD*%
D10*
%TO.C,C26*%
%TO.CFtp,C_0805_2012Metric*%
%TO.CVal,0.01u*%
%TO.CLbN,My Footprints*%
%TO.CMnt,SMD*%
%TO.CRot,-90*%
X172300000Y-307350000D03*
D11*
X173275000Y-305655000D02*
X173275000Y-309045000D01*
X171325000Y-309045000D01*
X171325000Y-305655000D01*
X173275000Y-305655000D01*
D12*
%TO.P,C26,1*%
X172300000Y-306400000D03*
D13*
%TO.P,C26,2*%
X172300000Y-308300000D03*
%TD*%
D10*
%TO.C,C24*%
%TO.CFtp,C_0805_2012Metric*%
%TO.CVal,47u*%
%TO.CLbN,My Footprints*%
%TO.CMnt,SMD*%
%TO.CRot,90*%
X265900000Y-322150000D03*
D11*
X266875000Y-320455000D02*
X266875000Y-323845000D01*
X264925000Y-323845000D01*
X264925000Y-320455000D01*
X266875000Y-320455000D01*
D12*
%TO.P,C24,1*%
X265900000Y-323100000D03*
D13*
%TO.P,C24,2*%
X265900000Y-321200000D03*
%TD*%
D10*
%TO.C,R14*%
%TO.CFtp,R_0805_2012Metric*%
%TO.CVal,680*%
%TO.CLbN,Resistor_SMD*%
%TO.CMnt,SMD*%
%TO.CRot,0*%
X271337500Y-271250000D03*
D11*
X273012500Y-270305000D02*
X273012500Y-272195000D01*
X269662500Y-272195000D01*
X269662500Y-270305000D01*
X273012500Y-270305000D01*
D12*
%TO.P,R14,1*%
X270425000Y-271250000D03*
D13*
%TO.P,R14,2*%
X272250000Y-271250000D03*
%TD*%
D10*
%TO.C,D4*%
%TO.CFtp,LED_0805_2012Metric*%
%TO.CVal,RED*%
%TO.CLbN,LED_SMD*%
%TO.CMnt,SMD*%
%TO.CRot,180*%
X275137500Y-269150000D03*
D11*
X276812500Y-268205000D02*
X276812500Y-270095000D01*
X273462500Y-270095000D01*
X273462500Y-268205000D01*
X276812500Y-268205000D01*
D12*
%TO.P,D4,1,K*%
X276075000Y-269150000D03*
D13*
%TO.P,D4,2,A*%
X274200000Y-269150000D03*
%TD*%
D10*
%TO.C,D7*%
%TO.CFtp,LED_0805_2012Metric*%
%TO.CVal,RED*%
%TO.CLbN,LED_SMD*%
%TO.CMnt,SMD*%
%TO.CRot,180*%
X275137500Y-275450000D03*
D11*
X276812500Y-274505000D02*
X276812500Y-276395000D01*
X273462500Y-276395000D01*
X273462500Y-274505000D01*
X276812500Y-274505000D01*
D12*
%TO.P,D7,1,K*%
X276075000Y-275450000D03*
D13*
%TO.P,D7,2,A*%
X274200000Y-275450000D03*
%TD*%
D10*
%TO.C,C20*%
%TO.CFtp,C_0805_2012Metric*%
%TO.CVal,47u*%
%TO.CLbN,My Footprints*%
%TO.CMnt,SMD*%
%TO.CRot,180*%
X171650000Y-291099322D03*
D11*
X173345000Y-290124322D02*
X173345000Y-292074322D01*
X169955000Y-292074322D01*
X169955000Y-290124322D01*
X173345000Y-290124322D01*
D12*
%TO.P,C20,1*%
X172600000Y-291099322D03*
D13*
%TO.P,C20,2*%
X170700000Y-291099322D03*
%TD*%
D10*
%TO.C,R2*%
%TO.CFtp,R_0805_2012Metric*%
%TO.CVal,31.6*%
%TO.CLbN,Resistor_SMD*%
%TO.CMnt,SMD*%
%TO.CRot,90*%
X141450000Y-289412500D03*
D11*
X142395000Y-287737500D02*
X142395000Y-291087500D01*
X140505000Y-291087500D01*
X140505000Y-287737500D01*
X142395000Y-287737500D01*
D12*
%TO.P,R2,1*%
X141450000Y-290325000D03*
D13*
%TO.P,R2,2*%
X141450000Y-288500000D03*
%TD*%
D10*
%TO.C,R19*%
%TO.CFtp,R_0805_2012Metric*%
%TO.CVal,680*%
%TO.CLbN,Resistor_SMD*%
%TO.CMnt,SMD*%
%TO.CRot,0*%
X271337500Y-281750000D03*
D11*
X273012500Y-280805000D02*
X273012500Y-282695000D01*
X269662500Y-282695000D01*
X269662500Y-280805000D01*
X273012500Y-280805000D01*
D12*
%TO.P,R19,1*%
X270425000Y-281750000D03*
D13*
%TO.P,R19,2*%
X272250000Y-281750000D03*
%TD*%
D10*
%TO.C,R22*%
%TO.CFtp,R_0805_2012Metric*%
%TO.CVal,680*%
%TO.CLbN,Resistor_SMD*%
%TO.CMnt,SMD*%
%TO.CRot,0*%
X271337500Y-288050000D03*
D11*
X273012500Y-287105000D02*
X273012500Y-288995000D01*
X269662500Y-288995000D01*
X269662500Y-287105000D01*
X273012500Y-287105000D01*
D12*
%TO.P,R22,1*%
X270425000Y-288050000D03*
D13*
%TO.P,R22,2*%
X272250000Y-288050000D03*
%TD*%
D10*
%TO.C,D2*%
%TO.CFtp,LED_0805_2012Metric*%
%TO.CVal,RED*%
%TO.CLbN,LED_SMD*%
%TO.CMnt,SMD*%
%TO.CRot,180*%
X275137500Y-264950000D03*
D11*
X276812500Y-264005000D02*
X276812500Y-265895000D01*
X273462500Y-265895000D01*
X273462500Y-264005000D01*
X276812500Y-264005000D01*
D12*
%TO.P,D2,1,K*%
X276075000Y-264950000D03*
D13*
%TO.P,D2,2,A*%
X274200000Y-264950000D03*
%TD*%
D10*
%TO.C,T1*%
%TO.CFtp,XFMR_T1-1T-KK81_*%
%TO.CVal,T1-1T-KK81*%
%TO.CLbN,My Footprints*%
%TO.CMnt,SMD*%
%TO.CRot,-90*%
X131020000Y-291360000D03*
D11*
X138885000Y-287305000D02*
X138885000Y-295415000D01*
X123155000Y-295415000D01*
X123155000Y-287305000D01*
X138885000Y-287305000D01*
D12*
%TO.P,T1,1*%
X137050000Y-288820000D03*
D13*
%TO.P,T1,2*%
X137050000Y-291360000D03*
%TO.P,T1,3*%
X137050000Y-293900000D03*
%TO.P,T1,4*%
X124990000Y-293900000D03*
%TO.P,T1,5*%
X124990000Y-291360000D03*
%TO.P,T1,6*%
X124990000Y-288820000D03*
%TD*%
D10*
%TO.C,D11*%
%TO.CFtp,LED_0805_2012Metric*%
%TO.CVal,RED*%
%TO.CLbN,LED_SMD*%
%TO.CMnt,SMD*%
%TO.CRot,180*%
X275137500Y-283850000D03*
D11*
X276812500Y-282905000D02*
X276812500Y-284795000D01*
X273462500Y-284795000D01*
X273462500Y-282905000D01*
X276812500Y-282905000D01*
D12*
%TO.P,D11,1,K*%
X276075000Y-283850000D03*
D13*
%TO.P,D11,2,A*%
X274200000Y-283850000D03*
%TD*%
D10*
%TO.C,C32*%
%TO.CFtp,C_0805_2012Metric*%
%TO.CVal,0.1u*%
%TO.CLbN,My Footprints*%
%TO.CMnt,SMD*%
%TO.CRot,0*%
X183250000Y-298700000D03*
D11*
X184945000Y-297725000D02*
X184945000Y-299675000D01*
X181555000Y-299675000D01*
X181555000Y-297725000D01*
X184945000Y-297725000D01*
D12*
%TO.P,C32,1*%
X182300000Y-298700000D03*
D13*
%TO.P,C32,2*%
X184200000Y-298700000D03*
%TD*%
D10*
%TO.C,D17*%
%TO.CFtp,LED_0805_2012Metric*%
%TO.CVal,RED*%
%TO.CLbN,LED_SMD*%
%TO.CMnt,SMD*%
%TO.CRot,180*%
X275137500Y-296450000D03*
D11*
X276812500Y-295505000D02*
X276812500Y-297395000D01*
X273462500Y-297395000D01*
X273462500Y-295505000D01*
X276812500Y-295505000D01*
D12*
%TO.P,D17,1,K*%
X276075000Y-296450000D03*
D13*
%TO.P,D17,2,A*%
X274200000Y-296450000D03*
%TD*%
D10*
%TO.C,R8*%
%TO.CFtp,R_0805_2012Metric*%
%TO.CVal,470*%
%TO.CLbN,Resistor_SMD*%
%TO.CMnt,SMD*%
%TO.CRot,-90*%
X281450000Y-324837500D03*
D11*
X282395000Y-323162500D02*
X282395000Y-326512500D01*
X280505000Y-326512500D01*
X280505000Y-323162500D01*
X282395000Y-323162500D01*
D12*
%TO.P,R8,1*%
X281450000Y-323925000D03*
D13*
%TO.P,R8,2*%
X281450000Y-325750000D03*
%TD*%
D10*
%TO.C,J3*%
%TO.CFtp,TE_6469028-1*%
%TO.CVal,6469028-1*%
%TO.CLbN,My Footprints*%
%TO.CMnt,TH*%
%TO.CRot,0*%
X243024000Y-321284000D03*
D11*
X244019000Y-312839000D02*
X244019000Y-333229000D01*
X218579000Y-333229000D01*
X218579000Y-312839000D01*
X244019000Y-312839000D01*
D12*
%TO.P,J3,A1,A1*%
X243024000Y-321284000D03*
D13*
%TO.P,J3,A2,A2*%
X240524000Y-321284000D03*
%TO.P,J3,A3,A3*%
X238024000Y-321284000D03*
%TO.P,J3,A4,A4*%
X235524000Y-321284000D03*
%TO.P,J3,A5,A5*%
X233024000Y-321284000D03*
%TO.P,J3,A6,A6*%
X230524000Y-321284000D03*
%TO.P,J3,A7,A7*%
X228024000Y-321284000D03*
%TO.P,J3,A8,A8*%
X225524000Y-321284000D03*
%TO.P,J3,A9,A9*%
X223024000Y-321284000D03*
%TO.P,J3,A10,A10*%
X220524000Y-321284000D03*
%TO.P,J3,B1,B1*%
X243024000Y-319784000D03*
%TO.P,J3,B2,B2*%
X240524000Y-319784000D03*
%TO.P,J3,B3,B3*%
X238024000Y-319784000D03*
%TO.P,J3,B4,B4*%
X235524000Y-319784000D03*
%TO.P,J3,B5,B5*%
X233024000Y-319784000D03*
%TO.P,J3,B6,B6*%
X230524000Y-319784000D03*
%TO.P,J3,B7,B7*%
X228024000Y-319784000D03*
%TO.P,J3,B8,B8*%
X225524000Y-319784000D03*
%TO.P,J3,B9,B9*%
X223024000Y-319784000D03*
%TO.P,J3,B10,B10*%
X220524000Y-319784000D03*
%TO.P,J3,BG1,BG1*%
X243024000Y-318284000D03*
%TO.P,J3,BG2,BG2*%
X240524000Y-318284000D03*
%TO.P,J3,BG3,BG3*%
X238024000Y-318284000D03*
%TO.P,J3,BG4,BG4*%
X235524000Y-318284000D03*
%TO.P,J3,BG5,BG5*%
X233024000Y-318284000D03*
%TO.P,J3,BG6,BG6*%
X230524000Y-318284000D03*
%TO.P,J3,BG7,BG7*%
X228024000Y-318284000D03*
%TO.P,J3,BG8,BG8*%
X225524000Y-318284000D03*
%TO.P,J3,BG9,BG9*%
X223024000Y-318284000D03*
%TO.P,J3,BG10,BG10*%
X220524000Y-318284000D03*
%TO.P,J3,C1,C1*%
X243024000Y-316784000D03*
%TO.P,J3,C2,C2*%
X240524000Y-316784000D03*
%TO.P,J3,C3,C3*%
X238024000Y-316784000D03*
%TO.P,J3,C4,C4*%
X235524000Y-316784000D03*
%TO.P,J3,C5,C5*%
X233024000Y-316784000D03*
%TO.P,J3,C6,C6*%
X230524000Y-316784000D03*
%TO.P,J3,C7,C7*%
X228024000Y-316784000D03*
%TO.P,J3,C8,C8*%
X225524000Y-316784000D03*
%TO.P,J3,C9,C9*%
X223024000Y-316784000D03*
%TO.P,J3,C10,C10*%
X220524000Y-316784000D03*
%TO.P,J3,D1,D1*%
X243024000Y-315284000D03*
%TO.P,J3,D2,D2*%
X240524000Y-315284000D03*
%TO.P,J3,D3,D3*%
X238024000Y-315284000D03*
%TO.P,J3,D4,D4*%
X235524000Y-315284000D03*
%TO.P,J3,D5,D5*%
X233024000Y-315284000D03*
%TO.P,J3,D6,D6*%
X230524000Y-315284000D03*
%TO.P,J3,D7,D7*%
X228024000Y-315284000D03*
%TO.P,J3,D8,D8*%
X225524000Y-315284000D03*
%TO.P,J3,D9,D9*%
X223024000Y-315284000D03*
%TO.P,J3,D10,D10*%
X220524000Y-315284000D03*
%TO.P,J3,DG1,DG1*%
X243024000Y-313784000D03*
%TO.P,J3,DG2,DG2*%
X240524000Y-313784000D03*
%TO.P,J3,DG3,DG3*%
X238024000Y-313784000D03*
%TO.P,J3,DG4,DG4*%
X235524000Y-313784000D03*
%TO.P,J3,DG5,DG5*%
X233024000Y-313784000D03*
%TO.P,J3,DG6,DG6*%
X230524000Y-313784000D03*
%TO.P,J3,DG7,DG7*%
X228024000Y-313784000D03*
%TO.P,J3,DG8,DG8*%
X225524000Y-313784000D03*
%TO.P,J3,DG9,DG9*%
X223024000Y-313784000D03*
%TO.P,J3,DG10,DG10*%
X220524000Y-313784000D03*
%TD*%
D10*
%TO.C,C27*%
%TO.CFtp,C_0805_2012Metric*%
%TO.CVal,47u*%
%TO.CLbN,My Footprints*%
%TO.CMnt,SMD*%
%TO.CRot,90*%
X261300000Y-322150000D03*
D11*
X262275000Y-320455000D02*
X262275000Y-323845000D01*
X260325000Y-323845000D01*
X260325000Y-320455000D01*
X262275000Y-320455000D01*
D12*
%TO.P,C27,1*%
X261300000Y-323100000D03*
D13*
%TO.P,C27,2*%
X261300000Y-321200000D03*
%TD*%
D10*
%TO.C,D3*%
%TO.CFtp,LED_0805_2012Metric*%
%TO.CVal,RED*%
%TO.CLbN,LED_SMD*%
%TO.CMnt,SMD*%
%TO.CRot,180*%
X275137500Y-267050000D03*
D11*
X276812500Y-266105000D02*
X276812500Y-267995000D01*
X273462500Y-267995000D01*
X273462500Y-266105000D01*
X276812500Y-266105000D01*
D12*
%TO.P,D3,1,K*%
X276075000Y-267050000D03*
D13*
%TO.P,D3,2,A*%
X274200000Y-267050000D03*
%TD*%
D10*
%TO.C,R6*%
%TO.CFtp,R_0805_2012Metric*%
%TO.CVal,200*%
%TO.CLbN,Resistor_SMD*%
%TO.CMnt,SMD*%
%TO.CRot,90*%
X151450000Y-291000000D03*
D11*
X152395000Y-289325000D02*
X152395000Y-292675000D01*
X150505000Y-292675000D01*
X150505000Y-289325000D01*
X152395000Y-289325000D01*
D12*
%TO.P,R6,1*%
X151450000Y-291912500D03*
D13*
%TO.P,R6,2*%
X151450000Y-290087500D03*
%TD*%
D10*
%TO.C,C29*%
%TO.CFtp,C_0805_2012Metric*%
%TO.CVal,10u*%
%TO.CLbN,My Footprints*%
%TO.CMnt,SMD*%
%TO.CRot,90*%
X176500000Y-301600000D03*
D11*
X177475000Y-299905000D02*
X177475000Y-303295000D01*
X175525000Y-303295000D01*
X175525000Y-299905000D01*
X177475000Y-299905000D01*
D12*
%TO.P,C29,1*%
X176500000Y-302550000D03*
D13*
%TO.P,C29,2*%
X176500000Y-300650000D03*
%TD*%
D10*
%TO.C,L1*%
%TO.CFtp,IND_LSMG_160808_TAY*%
%TO.CVal,LSMGG160808T331RG*%
%TO.CLbN,My Footprints*%
%TO.CMnt,SMD*%
%TO.CRot,0*%
X183150100Y-288114322D03*
D11*
X184605600Y-287420822D02*
X184605600Y-288807822D01*
X181694600Y-288807822D01*
X181694600Y-287420822D01*
X184605600Y-287420822D01*
D12*
%TO.P,L1,1,1*%
X182350000Y-288114322D03*
D13*
%TO.P,L1,2,2*%
X183950200Y-288114322D03*
%TD*%
D10*
%TO.C,TP2*%
%TO.CFtp,TestPoint_RCS-0C*%
%TO.CVal,GND*%
%TO.CLbN,My Footprints*%
%TO.CMnt,SMD*%
%TO.CRot,0*%
X259450000Y-332000000D03*
D11*
X261595000Y-330655000D02*
X261595000Y-333345000D01*
X257305000Y-333345000D01*
X257305000Y-330655000D01*
X261595000Y-330655000D01*
D12*
%TO.P,TP2,1,1*%
X259450000Y-332000000D03*
%TD*%
D10*
%TO.C,R11*%
%TO.CFtp,R_0805_2012Metric*%
%TO.CVal,680*%
%TO.CLbN,Resistor_SMD*%
%TO.CMnt,SMD*%
%TO.CRot,0*%
X271327500Y-264950000D03*
D11*
X273002500Y-264005000D02*
X273002500Y-265895000D01*
X269652500Y-265895000D01*
X269652500Y-264005000D01*
X273002500Y-264005000D01*
D12*
%TO.P,R11,1*%
X270415000Y-264950000D03*
D13*
%TO.P,R11,2*%
X272240000Y-264950000D03*
%TD*%
D10*
%TO.C,C10*%
%TO.CFtp,C_0805_2012Metric*%
%TO.CVal,0.1u*%
%TO.CLbN,My Footprints*%
%TO.CMnt,SMD*%
%TO.CRot,90*%
X166200000Y-298150000D03*
D11*
X167175000Y-296455000D02*
X167175000Y-299845000D01*
X165225000Y-299845000D01*
X165225000Y-296455000D01*
X167175000Y-296455000D01*
D12*
%TO.P,C10,1*%
X166200000Y-299100000D03*
D13*
%TO.P,C10,2*%
X166200000Y-297200000D03*
%TD*%
D10*
%TO.C,R9*%
%TO.CFtp,R_0805_2012Metric*%
%TO.CVal,10K*%
%TO.CLbN,Resistor_SMD*%
%TO.CMnt,SMD*%
%TO.CRot,-90*%
X285450000Y-330112500D03*
D11*
X286395000Y-328437500D02*
X286395000Y-331787500D01*
X284505000Y-331787500D01*
X284505000Y-328437500D01*
X286395000Y-328437500D01*
D12*
%TO.P,R9,1*%
X285450000Y-329200000D03*
D13*
%TO.P,R9,2*%
X285450000Y-331025000D03*
%TD*%
D10*
%TO.C,C44*%
%TO.CFtp,C_0805_2012Metric*%
%TO.CVal,0.1u*%
%TO.CLbN,My Footprints*%
%TO.CMnt,SMD*%
%TO.CRot,0*%
X276250000Y-305100000D03*
D11*
X277945000Y-304125000D02*
X277945000Y-306075000D01*
X274555000Y-306075000D01*
X274555000Y-304125000D01*
X277945000Y-304125000D01*
D12*
%TO.P,C44,1*%
X275300000Y-305100000D03*
D13*
%TO.P,C44,2*%
X277200000Y-305100000D03*
%TD*%
D10*
%TO.C,R37*%
%TO.CFtp,R_0805_2012Metric*%
%TO.CVal,10K*%
%TO.CLbN,Resistor_SMD*%
%TO.CMnt,SMD*%
%TO.CRot,180*%
X280000000Y-307900000D03*
D11*
X281675000Y-306955000D02*
X281675000Y-308845000D01*
X278325000Y-308845000D01*
X278325000Y-306955000D01*
X281675000Y-306955000D01*
D12*
%TO.P,R37,1*%
X280912500Y-307900000D03*
D13*
%TO.P,R37,2*%
X279087500Y-307900000D03*
%TD*%
D10*
%TO.C,D15*%
%TO.CFtp,LED_0805_2012Metric*%
%TO.CVal,RED*%
%TO.CLbN,LED_SMD*%
%TO.CMnt,SMD*%
%TO.CRot,180*%
X275137500Y-292250000D03*
D11*
X276812500Y-291305000D02*
X276812500Y-293195000D01*
X273462500Y-293195000D01*
X273462500Y-291305000D01*
X276812500Y-291305000D01*
D12*
%TO.P,D15,1,K*%
X276075000Y-292250000D03*
D13*
%TO.P,D15,2,A*%
X274200000Y-292250000D03*
%TD*%
D10*
%TO.C,R27*%
%TO.CFtp,R_0805_2012Metric*%
%TO.CVal,1K*%
%TO.CLbN,Resistor_SMD*%
%TO.CMnt,SMD*%
%TO.CRot,-90*%
X280100000Y-315087500D03*
D11*
X281045000Y-313412500D02*
X281045000Y-316762500D01*
X279155000Y-316762500D01*
X279155000Y-313412500D01*
X281045000Y-313412500D01*
D12*
%TO.P,R27,1*%
X280100000Y-314175000D03*
D13*
%TO.P,R27,2*%
X280100000Y-316000000D03*
%TD*%
D10*
%TO.C,R5*%
%TO.CFtp,R_0805_2012Metric*%
%TO.CVal,10*%
%TO.CLbN,Resistor_SMD*%
%TO.CMnt,SMD*%
%TO.CRot,180*%
X148762500Y-294600000D03*
D11*
X150437500Y-293655000D02*
X150437500Y-295545000D01*
X147087500Y-295545000D01*
X147087500Y-293655000D01*
X150437500Y-293655000D01*
D12*
%TO.P,R5,1*%
X149675000Y-294600000D03*
D13*
%TO.P,R5,2*%
X147850000Y-294600000D03*
%TD*%
D10*
%TO.C,D14*%
%TO.CFtp,LED_0805_2012Metric*%
%TO.CVal,RED*%
%TO.CLbN,LED_SMD*%
%TO.CMnt,SMD*%
%TO.CRot,180*%
X275137500Y-290150000D03*
D11*
X276812500Y-289205000D02*
X276812500Y-291095000D01*
X273462500Y-291095000D01*
X273462500Y-289205000D01*
X276812500Y-289205000D01*
D12*
%TO.P,D14,1,K*%
X276075000Y-290150000D03*
D13*
%TO.P,D14,2,A*%
X274200000Y-290150000D03*
%TD*%
D10*
%TO.C,C4*%
%TO.CFtp,C_0805_2012Metric*%
%TO.CVal,0.1u*%
%TO.CLbN,My Footprints*%
%TO.CMnt,SMD*%
%TO.CRot,0*%
X135350000Y-314200000D03*
D11*
X137045000Y-313225000D02*
X137045000Y-315175000D01*
X133655000Y-315175000D01*
X133655000Y-313225000D01*
X137045000Y-313225000D01*
D12*
%TO.P,C4,1*%
X134400000Y-314200000D03*
D13*
%TO.P,C4,2*%
X136300000Y-314200000D03*
%TD*%
D15*
X63700000Y-258800000D02*
X305000000Y-258800000D01*
X246199000Y-335000000D02*
X246199000Y-322300000D01*
X305000000Y-258800000D02*
X305000000Y-335000000D01*
X116405000Y-322300000D02*
X116405000Y-333730000D01*
X246199000Y-322300000D02*
X116405000Y-322300000D01*
X63700000Y-335000000D02*
X63700000Y-258800000D01*
X305000000Y-335000000D02*
X246199000Y-335000000D01*
X116405000Y-333730000D02*
X116405000Y-335000000D01*
X116405000Y-335000000D02*
X63700000Y-335000000D01*
M02*
