%TF.GenerationSoftware,KiCad,Pcbnew,9.0.6*%
%TF.CreationDate,2026-06-05T01:12:05-04:00*%
%TF.ProjectId,acmi2-afe,61636d69-322d-4616-9665-2e6b69636164,rev?*%
%TF.SameCoordinates,Original*%
%TF.FileFunction,Paste,Top*%
%TF.FilePolarity,Positive*%
%FSLAX46Y46*%
G04 Gerber Fmt 4.6, Leading zero omitted, Abs format (unit mm)*
G04 Created by KiCad (PCBNEW 9.0.6) date 2026-06-05 01:12:05*
%MOMM*%
%LPD*%
G01*
G04 APERTURE LIST*
G04 Aperture macros list*
%AMRoundRect*
0 Rectangle with rounded corners*
0 $1 Rounding radius*
0 $2 $3 $4 $5 $6 $7 $8 $9 X,Y pos of 4 corners*
0 Add a 4 corners polygon primitive as box body*
4,1,4,$2,$3,$4,$5,$6,$7,$8,$9,$2,$3,0*
0 Add four circle primitives for the rounded corners*
1,1,$1+$1,$2,$3*
1,1,$1+$1,$4,$5*
1,1,$1+$1,$6,$7*
1,1,$1+$1,$8,$9*
0 Add four rect primitives between the rounded corners*
20,1,$1+$1,$2,$3,$4,$5,0*
20,1,$1+$1,$4,$5,$6,$7,0*
20,1,$1+$1,$6,$7,$8,$9,0*
20,1,$1+$1,$8,$9,$2,$3,0*%
%AMFreePoly0*
4,1,17,0.275001,0.550001,0.275001,-0.174999,0.225001,-0.225001,-0.499999,-0.224999,-0.550001,-0.174999,-0.549999,-0.024999,-0.499999,0.025001,-0.275000,0.025001,-0.225001,0.075000,-0.225001,0.225000,-0.175001,0.275000,-0.025001,0.275000,0.024999,0.325000,0.024999,0.550001,0.074999,0.599998,0.224999,0.599998,0.275001,0.550001,0.275001,0.550001,$1*%
%AMFreePoly1*
4,1,17,0.275001,0.174999,0.275001,-0.550001,0.224999,-0.599998,0.074999,-0.599998,0.024999,-0.550001,0.025001,-0.325000,-0.025001,-0.275000,-0.175001,-0.275000,-0.225001,-0.225000,-0.224998,-0.075000,-0.275000,-0.025001,-0.499999,-0.025001,-0.549999,0.024999,-0.550001,0.174999,-0.499999,0.224999,0.225001,0.224999,0.275001,0.174999,0.275001,0.174999,$1*%
%AMFreePoly2*
4,1,17,0.499999,0.224999,0.550001,0.174999,0.549999,0.024999,0.499999,-0.025001,0.275000,-0.025001,0.224998,-0.075000,0.225001,-0.225000,0.175001,-0.275000,0.024998,-0.275000,-0.025001,-0.325000,-0.024999,-0.550001,-0.074999,-0.599998,-0.225001,-0.599998,-0.275001,-0.550001,-0.275001,0.174999,-0.225001,0.225001,0.499999,0.224999,0.499999,0.224999,$1*%
%AMFreePoly3*
4,1,17,-0.024999,0.550001,-0.025001,0.325000,0.024998,0.275000,0.175001,0.275000,0.225001,0.225000,0.224998,0.075000,0.275000,0.025001,0.499999,0.025001,0.549999,-0.024999,0.550001,-0.174999,0.499999,-0.224999,-0.225001,-0.225001,-0.275001,-0.175002,-0.275001,0.550001,-0.225001,0.599998,-0.074999,0.599998,-0.024999,0.550001,-0.024999,0.550001,$1*%
G04 Aperture macros list end*
%ADD10C,0.150000*%
%ADD11C,0.010000*%
%ADD12C,0.000000*%
%ADD13RoundRect,0.250000X-0.262500X-0.450000X0.262500X-0.450000X0.262500X0.450000X-0.262500X0.450000X0*%
%ADD14RoundRect,0.250000X-0.250000X-0.475000X0.250000X-0.475000X0.250000X0.475000X-0.250000X0.475000X0*%
%ADD15RoundRect,0.250000X0.262500X0.450000X-0.262500X0.450000X-0.262500X-0.450000X0.262500X-0.450000X0*%
%ADD16RoundRect,0.250000X0.450000X-0.262500X0.450000X0.262500X-0.450000X0.262500X-0.450000X-0.262500X0*%
%ADD17RoundRect,0.250000X0.475000X-0.250000X0.475000X0.250000X-0.475000X0.250000X-0.475000X-0.250000X0*%
%ADD18RoundRect,0.243750X0.243750X0.456250X-0.243750X0.456250X-0.243750X-0.456250X0.243750X-0.456250X0*%
%ADD19RoundRect,0.222222X-1.552778X-0.577778X1.552778X-0.577778X1.552778X0.577778X-1.552778X0.577778X0*%
%ADD20RoundRect,0.250000X-0.475000X0.250000X-0.475000X-0.250000X0.475000X-0.250000X0.475000X0.250000X0*%
%ADD21R,1.981200X0.558800*%
%ADD22O,0.880000X0.260000*%
%ADD23O,0.260000X0.880000*%
%ADD24RoundRect,0.031250X0.218750X0.093750X-0.218750X0.093750X-0.218750X-0.093750X0.218750X-0.093750X0*%
%ADD25R,1.600000X1.600000*%
%ADD26RoundRect,0.243750X-0.456250X0.243750X-0.456250X-0.243750X0.456250X-0.243750X0.456250X0.243750X0*%
%ADD27R,0.812800X0.889000*%
%ADD28FreePoly0,270.000000*%
%ADD29R,0.249999X0.700001*%
%ADD30FreePoly1,270.000000*%
%ADD31R,0.700001X0.249999*%
%ADD32FreePoly2,270.000000*%
%ADD33FreePoly3,270.000000*%
%ADD34RoundRect,0.125000X-0.487500X-0.125000X0.487500X-0.125000X0.487500X0.125000X-0.487500X0.125000X0*%
%ADD35RoundRect,0.250000X0.250000X0.475000X-0.250000X0.475000X-0.250000X-0.475000X0.250000X-0.475000X0*%
%ADD36RoundRect,0.035000X-0.750000X-0.105000X0.750000X-0.105000X0.750000X0.105000X-0.750000X0.105000X0*%
%ADD37RoundRect,0.030000X0.270000X0.090000X-0.270000X0.090000X-0.270000X-0.090000X0.270000X-0.090000X0*%
%ADD38R,0.249200X0.804800*%
%ADD39R,0.804800X0.249200*%
%ADD40R,5.250000X5.250000*%
%ADD41R,3.180000X1.270000*%
%ADD42RoundRect,0.250000X-0.450000X0.262500X-0.450000X-0.262500X0.450000X-0.262500X0.450000X0.262500X0*%
%TA.AperFunction,Profile*%
%ADD43C,0.050000*%
%TD*%
G04 APERTURE END LIST*
D10*
G36*
X173456103Y-351857663D02*
G01*
X173543829Y-351867798D01*
X173647972Y-351895455D01*
X173729300Y-351937865D01*
X173775097Y-351976067D01*
X173815160Y-352023875D01*
X173849651Y-352082579D01*
X173874785Y-352145941D01*
X173890053Y-352213779D01*
X173895263Y-352287010D01*
X173887333Y-352380738D01*
X173864312Y-352464806D01*
X173826557Y-352541012D01*
X173773356Y-352610693D01*
X173723602Y-352653700D01*
X173658445Y-352689549D01*
X173574504Y-352717574D01*
X173467580Y-352736195D01*
X173332803Y-352743042D01*
X172947479Y-352743042D01*
X172947479Y-353360000D01*
X172748727Y-353360000D01*
X172748727Y-352568653D01*
X172947479Y-352568653D01*
X173335825Y-352568653D01*
X173435265Y-352562953D01*
X173510937Y-352547712D01*
X173567653Y-352525128D01*
X173609408Y-352496479D01*
X173653438Y-352443372D01*
X173680649Y-352376934D01*
X173690374Y-352293147D01*
X173684796Y-352231342D01*
X173668786Y-352177669D01*
X173642747Y-352130573D01*
X173607320Y-352090331D01*
X173565799Y-352060857D01*
X173517176Y-352041271D01*
X173456411Y-352032082D01*
X173331704Y-352027899D01*
X172947479Y-352027899D01*
X172947479Y-352568653D01*
X172748727Y-352568653D01*
X172748727Y-351853510D01*
X173315309Y-351853510D01*
X173456103Y-351857663D01*
G37*
G36*
X175233775Y-353360000D02*
G01*
X175007271Y-353360000D01*
X174832057Y-352902777D01*
X174203925Y-352902777D01*
X174038970Y-353360000D01*
X173827852Y-353360000D01*
X174065809Y-352738646D01*
X174261353Y-352738646D01*
X174770599Y-352738646D01*
X174613795Y-352322731D01*
X174548277Y-352141235D01*
X174507275Y-352011321D01*
X174472844Y-352154743D01*
X174426309Y-352298184D01*
X174261353Y-352738646D01*
X174065809Y-352738646D01*
X174404785Y-351853510D01*
X174618925Y-351853510D01*
X175233775Y-353360000D01*
G37*
G36*
X175324725Y-352872369D02*
G01*
X175512304Y-352855882D01*
X175525905Y-352931180D01*
X175546816Y-352993349D01*
X175574219Y-353044468D01*
X175611015Y-353088831D01*
X175660601Y-353128558D01*
X175725345Y-353163628D01*
X175795010Y-353188452D01*
X175871512Y-353203768D01*
X175955971Y-353209057D01*
X176065542Y-353200157D01*
X176156739Y-353175169D01*
X176212045Y-353148481D01*
X176254552Y-353117453D01*
X176286340Y-353082204D01*
X176318395Y-353020015D01*
X176328930Y-352953152D01*
X176318521Y-352886321D01*
X176287897Y-352829412D01*
X176237239Y-352783122D01*
X176152709Y-352740478D01*
X176073826Y-352715369D01*
X175885263Y-352667021D01*
X175694723Y-352613783D01*
X175595285Y-352572957D01*
X175527426Y-352530628D01*
X175474666Y-352483922D01*
X175434909Y-352432732D01*
X175405717Y-352374994D01*
X175388141Y-352312891D01*
X175382153Y-352245245D01*
X175389277Y-352171038D01*
X175410557Y-352100373D01*
X175446633Y-352032021D01*
X175495291Y-351972189D01*
X175557458Y-351922109D01*
X175635219Y-351881445D01*
X175719313Y-351853327D01*
X175810825Y-351836020D01*
X175910908Y-351830062D01*
X176021211Y-351836446D01*
X176118824Y-351854717D01*
X176205465Y-351883918D01*
X176285420Y-351926353D01*
X176350175Y-351978962D01*
X176401653Y-352042187D01*
X176440175Y-352114376D01*
X176464782Y-352192757D01*
X176475475Y-352278767D01*
X176284874Y-352293147D01*
X176265276Y-352202184D01*
X176230364Y-352131702D01*
X176180827Y-352077450D01*
X176117601Y-352039127D01*
X176032510Y-352013860D01*
X175919060Y-352004452D01*
X175800007Y-352013334D01*
X175715228Y-352036559D01*
X175656193Y-352070580D01*
X175609325Y-352119170D01*
X175582661Y-352171644D01*
X175573761Y-352230040D01*
X175580413Y-352281412D01*
X175599704Y-352325209D01*
X175632197Y-352363306D01*
X175676184Y-352391505D01*
X175767536Y-352426965D01*
X175931882Y-352470467D01*
X176154435Y-352527206D01*
X176264358Y-352566271D01*
X176347498Y-352612428D01*
X176411008Y-352663553D01*
X176457982Y-352719595D01*
X176492463Y-352783919D01*
X176513361Y-352854638D01*
X176520538Y-352933368D01*
X176512992Y-353011385D01*
X176490363Y-353086339D01*
X176451845Y-353159507D01*
X176400382Y-353224025D01*
X176335287Y-353278913D01*
X176254649Y-353324554D01*
X176167145Y-353356757D01*
X176071119Y-353376599D01*
X175965130Y-353383447D01*
X175829959Y-353376069D01*
X175717207Y-353355531D01*
X175623404Y-353323729D01*
X175537314Y-353276594D01*
X175465808Y-353216930D01*
X175407249Y-353143936D01*
X175363462Y-353060947D01*
X175335956Y-352970987D01*
X175324725Y-352872369D01*
G37*
G36*
X177174132Y-353360000D02*
G01*
X177174132Y-352027899D01*
X176679174Y-352027899D01*
X176679174Y-351853510D01*
X177869858Y-351853510D01*
X177869858Y-352027899D01*
X177372885Y-352027899D01*
X177372885Y-353360000D01*
X177174132Y-353360000D01*
G37*
G36*
X178078228Y-353360000D02*
G01*
X178078228Y-351853510D01*
X179164406Y-351853510D01*
X179164406Y-352027899D01*
X178277072Y-352027899D01*
X178277072Y-352492449D01*
X179108078Y-352492449D01*
X179108078Y-352666838D01*
X178277072Y-352666838D01*
X178277072Y-353185610D01*
X179199302Y-353185610D01*
X179199302Y-353360000D01*
X178078228Y-353360000D01*
G37*
G36*
X180050824Y-353360000D02*
G01*
X180050824Y-351853510D01*
X180349961Y-351853510D01*
X180705517Y-352920637D01*
X180777233Y-353143753D01*
X180857192Y-352902136D01*
X181216870Y-351853510D01*
X181484316Y-351853510D01*
X181484316Y-353360000D01*
X181292708Y-353360000D01*
X181292708Y-352098424D01*
X180856185Y-353360000D01*
X180676849Y-353360000D01*
X180242433Y-352076900D01*
X180242433Y-353360000D01*
X180050824Y-353360000D01*
G37*
G36*
X183046127Y-353360000D02*
G01*
X182819622Y-353360000D01*
X182644409Y-352902777D01*
X182016277Y-352902777D01*
X181851322Y-353360000D01*
X181640204Y-353360000D01*
X181878160Y-352738646D01*
X182073705Y-352738646D01*
X182582951Y-352738646D01*
X182426147Y-352322731D01*
X182360629Y-352141235D01*
X182319627Y-352011321D01*
X182285196Y-352154743D01*
X182238660Y-352298184D01*
X182073705Y-352738646D01*
X181878160Y-352738646D01*
X182217136Y-351853510D01*
X182431276Y-351853510D01*
X183046127Y-353360000D01*
G37*
G36*
X183137077Y-352872369D02*
G01*
X183324656Y-352855882D01*
X183338256Y-352931180D01*
X183359168Y-352993349D01*
X183386571Y-353044468D01*
X183423367Y-353088831D01*
X183472953Y-353128558D01*
X183537696Y-353163628D01*
X183607362Y-353188452D01*
X183683864Y-353203768D01*
X183768323Y-353209057D01*
X183877893Y-353200157D01*
X183969090Y-353175169D01*
X184024397Y-353148481D01*
X184066903Y-353117453D01*
X184098692Y-353082204D01*
X184130746Y-353020015D01*
X184141281Y-352953152D01*
X184130873Y-352886321D01*
X184100249Y-352829412D01*
X184049591Y-352783122D01*
X183965060Y-352740478D01*
X183886178Y-352715369D01*
X183697614Y-352667021D01*
X183507075Y-352613783D01*
X183407637Y-352572957D01*
X183339777Y-352530628D01*
X183287017Y-352483922D01*
X183247261Y-352432732D01*
X183218069Y-352374994D01*
X183200493Y-352312891D01*
X183194505Y-352245245D01*
X183201629Y-352171038D01*
X183222909Y-352100373D01*
X183258985Y-352032021D01*
X183307643Y-351972189D01*
X183369810Y-351922109D01*
X183447571Y-351881445D01*
X183531665Y-351853327D01*
X183623176Y-351836020D01*
X183723260Y-351830062D01*
X183833563Y-351836446D01*
X183931176Y-351854717D01*
X184017817Y-351883918D01*
X184097772Y-351926353D01*
X184162527Y-351978962D01*
X184214005Y-352042187D01*
X184252527Y-352114376D01*
X184277133Y-352192757D01*
X184287827Y-352278767D01*
X184097226Y-352293147D01*
X184077628Y-352202184D01*
X184042716Y-352131702D01*
X183993179Y-352077450D01*
X183929953Y-352039127D01*
X183844861Y-352013860D01*
X183731411Y-352004452D01*
X183612359Y-352013334D01*
X183527580Y-352036559D01*
X183468545Y-352070580D01*
X183421677Y-352119170D01*
X183395013Y-352171644D01*
X183386113Y-352230040D01*
X183392765Y-352281412D01*
X183412056Y-352325209D01*
X183444548Y-352363306D01*
X183488536Y-352391505D01*
X183579888Y-352426965D01*
X183744234Y-352470467D01*
X183966787Y-352527206D01*
X184076710Y-352566271D01*
X184159850Y-352612428D01*
X184223360Y-352663553D01*
X184270333Y-352719595D01*
X184304815Y-352783919D01*
X184325712Y-352854638D01*
X184332890Y-352933368D01*
X184325344Y-353011385D01*
X184302715Y-353086339D01*
X184264197Y-353159507D01*
X184212733Y-353224025D01*
X184147639Y-353278913D01*
X184067001Y-353324554D01*
X183979496Y-353356757D01*
X183883471Y-353376599D01*
X183777482Y-353383447D01*
X183642311Y-353376069D01*
X183529559Y-353355531D01*
X183435755Y-353323729D01*
X183349665Y-353276594D01*
X183278159Y-353216930D01*
X183219601Y-353143936D01*
X183175813Y-353060947D01*
X183148308Y-352970987D01*
X183137077Y-352872369D01*
G37*
G36*
X184596031Y-353360000D02*
G01*
X184596031Y-351853510D01*
X184794875Y-351853510D01*
X184794875Y-352601534D01*
X185540793Y-351853510D01*
X185810254Y-351853510D01*
X185180107Y-352464147D01*
X185837914Y-353360000D01*
X185575598Y-353360000D01*
X185040797Y-352597412D01*
X184794875Y-352838297D01*
X184794875Y-353360000D01*
X184596031Y-353360000D01*
G37*
G36*
X186931145Y-353360000D02*
G01*
X186931145Y-352027899D01*
X186436187Y-352027899D01*
X186436187Y-351853510D01*
X187626871Y-351853510D01*
X187626871Y-352027899D01*
X187129898Y-352027899D01*
X187129898Y-353360000D01*
X186931145Y-353360000D01*
G37*
G36*
X188555042Y-351836486D02*
G01*
X188651248Y-351855327D01*
X188741573Y-351886267D01*
X188826897Y-351929439D01*
X188905572Y-351984072D01*
X188973782Y-352047995D01*
X189032307Y-352121785D01*
X189081520Y-352206410D01*
X189129459Y-352327615D01*
X189158976Y-352461172D01*
X189169173Y-352609319D01*
X189158472Y-352759294D01*
X189127450Y-352894719D01*
X189076941Y-353017907D01*
X189025256Y-353103662D01*
X188964780Y-353177019D01*
X188895189Y-353239147D01*
X188815723Y-353290757D01*
X188700066Y-353342243D01*
X188579028Y-353373051D01*
X188450916Y-353383447D01*
X188345727Y-353376797D01*
X188248191Y-353357341D01*
X188157178Y-353325460D01*
X188071729Y-353281048D01*
X187993012Y-353224941D01*
X187925064Y-353160060D01*
X187867082Y-353085881D01*
X187818663Y-353001512D01*
X187770836Y-352880992D01*
X187742262Y-352756521D01*
X187732856Y-352629378D01*
X187937548Y-352629378D01*
X187947714Y-352764995D01*
X187976360Y-352879375D01*
X188021735Y-352976191D01*
X188083544Y-353058299D01*
X188161650Y-353127123D01*
X188247511Y-353175478D01*
X188342791Y-353204814D01*
X188449908Y-353214919D01*
X188559140Y-353204643D01*
X188655531Y-353174912D01*
X188741659Y-353126073D01*
X188819295Y-353056741D01*
X188879970Y-352974121D01*
X188925099Y-352874231D01*
X188953945Y-352753579D01*
X188964284Y-352607762D01*
X188956899Y-352486445D01*
X188935839Y-352380184D01*
X188902277Y-352286827D01*
X188853824Y-352201151D01*
X188793613Y-352130843D01*
X188720926Y-352074153D01*
X188638585Y-352032360D01*
X188549824Y-352007177D01*
X188452931Y-351998590D01*
X188350153Y-352007849D01*
X188256545Y-352034953D01*
X188170184Y-352079885D01*
X188089681Y-352143945D01*
X188039261Y-352203425D01*
X187997853Y-352278339D01*
X187965990Y-352371695D01*
X187945129Y-352487251D01*
X187937548Y-352629378D01*
X187732856Y-352629378D01*
X187732659Y-352626721D01*
X187741737Y-352475098D01*
X187767526Y-352343387D01*
X187808435Y-352228742D01*
X187863702Y-352128753D01*
X187933426Y-352041546D01*
X188018058Y-351965702D01*
X188110830Y-351907210D01*
X188212901Y-351865034D01*
X188325917Y-351839051D01*
X188451923Y-351830062D01*
X188555042Y-351836486D01*
G37*
G36*
X190133005Y-351857663D02*
G01*
X190220730Y-351867798D01*
X190324873Y-351895455D01*
X190406202Y-351937865D01*
X190451998Y-351976067D01*
X190492062Y-352023875D01*
X190526553Y-352082579D01*
X190551687Y-352145941D01*
X190566955Y-352213779D01*
X190572165Y-352287010D01*
X190564235Y-352380738D01*
X190541214Y-352464806D01*
X190503459Y-352541012D01*
X190450257Y-352610693D01*
X190400504Y-352653700D01*
X190335346Y-352689549D01*
X190251406Y-352717574D01*
X190144482Y-352736195D01*
X190009704Y-352743042D01*
X189624381Y-352743042D01*
X189624381Y-353360000D01*
X189425628Y-353360000D01*
X189425628Y-352568653D01*
X189624381Y-352568653D01*
X190012727Y-352568653D01*
X190112167Y-352562953D01*
X190187838Y-352547712D01*
X190244554Y-352525128D01*
X190286309Y-352496479D01*
X190330340Y-352443372D01*
X190357550Y-352376934D01*
X190367276Y-352293147D01*
X190361697Y-352231342D01*
X190345688Y-352177669D01*
X190319649Y-352130573D01*
X190284221Y-352090331D01*
X190242701Y-352060857D01*
X190194077Y-352041271D01*
X190133313Y-352032082D01*
X190008605Y-352027899D01*
X189624381Y-352027899D01*
X189624381Y-352568653D01*
X189425628Y-352568653D01*
X189425628Y-351853510D01*
X189992210Y-351853510D01*
X190133005Y-351857663D01*
G37*
G36*
X176121201Y-357912369D02*
G01*
X176308779Y-357895882D01*
X176322380Y-357971180D01*
X176343292Y-358033349D01*
X176370695Y-358084468D01*
X176407491Y-358128831D01*
X176457076Y-358168558D01*
X176521820Y-358203628D01*
X176591485Y-358228452D01*
X176667988Y-358243768D01*
X176752446Y-358249057D01*
X176862017Y-358240157D01*
X176953214Y-358215169D01*
X177008521Y-358188481D01*
X177051027Y-358157453D01*
X177082815Y-358122204D01*
X177114870Y-358060015D01*
X177125405Y-357993152D01*
X177114997Y-357926321D01*
X177084372Y-357869412D01*
X177033715Y-357823122D01*
X176949184Y-357780478D01*
X176870301Y-357755369D01*
X176681738Y-357707021D01*
X176491199Y-357653783D01*
X176391761Y-357612957D01*
X176323901Y-357570628D01*
X176271141Y-357523922D01*
X176231385Y-357472732D01*
X176202193Y-357414994D01*
X176184617Y-357352891D01*
X176178628Y-357285245D01*
X176185752Y-357211038D01*
X176207033Y-357140373D01*
X176243108Y-357072021D01*
X176291766Y-357012189D01*
X176353933Y-356962109D01*
X176431694Y-356921445D01*
X176515789Y-356893327D01*
X176607300Y-356876020D01*
X176707384Y-356870062D01*
X176817687Y-356876446D01*
X176915299Y-356894717D01*
X177001940Y-356923918D01*
X177081895Y-356966353D01*
X177146651Y-357018962D01*
X177198128Y-357082187D01*
X177236650Y-357154376D01*
X177261257Y-357232757D01*
X177271951Y-357318767D01*
X177081350Y-357333147D01*
X177061751Y-357242184D01*
X177026840Y-357171702D01*
X176977302Y-357117450D01*
X176914077Y-357079127D01*
X176828985Y-357053860D01*
X176715535Y-357044452D01*
X176596483Y-357053334D01*
X176511704Y-357076559D01*
X176452669Y-357110580D01*
X176405800Y-357159170D01*
X176379137Y-357211644D01*
X176370237Y-357270040D01*
X176376889Y-357321412D01*
X176396180Y-357365209D01*
X176428672Y-357403306D01*
X176472659Y-357431505D01*
X176564012Y-357466965D01*
X176728358Y-357510467D01*
X176950911Y-357567206D01*
X177060833Y-357606271D01*
X177143973Y-357652428D01*
X177207484Y-357703553D01*
X177254457Y-357759595D01*
X177288939Y-357823919D01*
X177309836Y-357894638D01*
X177317014Y-357973368D01*
X177309467Y-358051385D01*
X177286839Y-358126339D01*
X177248320Y-358199507D01*
X177196857Y-358264025D01*
X177131763Y-358318913D01*
X177051125Y-358364554D01*
X176963620Y-358396757D01*
X176867595Y-358416599D01*
X176761605Y-358423447D01*
X176626435Y-358416069D01*
X176513682Y-358395531D01*
X176419879Y-358363729D01*
X176333789Y-358316594D01*
X176262283Y-358256930D01*
X176203724Y-358183936D01*
X176159937Y-358100947D01*
X176132431Y-358010987D01*
X176121201Y-357912369D01*
G37*
G36*
X177580155Y-358400000D02*
G01*
X177580155Y-356893510D01*
X177778999Y-356893510D01*
X177778999Y-357641534D01*
X178524917Y-356893510D01*
X178794378Y-356893510D01*
X178164231Y-357504147D01*
X178822038Y-358400000D01*
X178559721Y-358400000D01*
X178024921Y-357637412D01*
X177778999Y-357878297D01*
X177778999Y-358400000D01*
X177580155Y-358400000D01*
G37*
G36*
X178892563Y-357948639D02*
G01*
X178892563Y-357761060D01*
X179459237Y-357761060D01*
X179459237Y-357948639D01*
X178892563Y-357948639D01*
G37*
G36*
X180581411Y-358225610D02*
G01*
X180581411Y-358400000D01*
X179588564Y-358400000D01*
X179592907Y-358334696D01*
X179610088Y-358272138D01*
X179658050Y-358173891D01*
X179731446Y-358072745D01*
X179826500Y-357973552D01*
X179972788Y-357845690D01*
X180134869Y-357705475D01*
X180240464Y-357601458D01*
X180303707Y-357526038D01*
X180353833Y-357444216D01*
X180381226Y-357370613D01*
X180389802Y-357303013D01*
X180380954Y-357232931D01*
X180355104Y-357171775D01*
X180311400Y-357117267D01*
X180255114Y-357075845D01*
X180188018Y-357050460D01*
X180107061Y-357041521D01*
X180021557Y-357051078D01*
X179951641Y-357078091D01*
X179893837Y-357122029D01*
X179850575Y-357180253D01*
X179823239Y-357253145D01*
X179812962Y-357344870D01*
X179623368Y-357325270D01*
X179641144Y-357219615D01*
X179672046Y-357132028D01*
X179714967Y-357059468D01*
X179769914Y-356999664D01*
X179836135Y-356952218D01*
X179913564Y-356917379D01*
X180004320Y-356895420D01*
X180111091Y-356887648D01*
X180218499Y-356895969D01*
X180309553Y-356919491D01*
X180387113Y-356956920D01*
X180453367Y-357008182D01*
X180508792Y-357072420D01*
X180547711Y-357142630D01*
X180571290Y-357220120D01*
X180579396Y-357306769D01*
X180570275Y-357396078D01*
X180542485Y-357484913D01*
X180495862Y-357571077D01*
X180420027Y-357669286D01*
X180318225Y-357772733D01*
X180135729Y-357934900D01*
X179985313Y-358065210D01*
X179922505Y-358125135D01*
X179878789Y-358176166D01*
X179844744Y-358225610D01*
X180581411Y-358225610D01*
G37*
G36*
X181397224Y-356894337D02*
G01*
X181473733Y-356913458D01*
X181540802Y-356944213D01*
X181599904Y-356986658D01*
X181649847Y-357039599D01*
X181689061Y-357101802D01*
X181717833Y-357174695D01*
X181735642Y-357260240D01*
X181552276Y-357274528D01*
X181520168Y-357177098D01*
X181482575Y-357119190D01*
X181428636Y-357075930D01*
X181367912Y-357050304D01*
X181298111Y-357041521D01*
X181240985Y-357047113D01*
X181189849Y-357063412D01*
X181143414Y-357090430D01*
X181090968Y-357137394D01*
X181045161Y-357198163D01*
X181006027Y-357275078D01*
X180980089Y-357357789D01*
X180961726Y-357470477D01*
X180953820Y-357620651D01*
X181002605Y-357557720D01*
X181056746Y-357508056D01*
X181116669Y-357470259D01*
X181182326Y-357442805D01*
X181249384Y-357426518D01*
X181318627Y-357421074D01*
X181408004Y-357429695D01*
X181488996Y-357454936D01*
X181563465Y-357496924D01*
X181632693Y-357557178D01*
X181688545Y-357628808D01*
X181728729Y-357709984D01*
X181753606Y-357802531D01*
X181762295Y-357908888D01*
X181755401Y-358001950D01*
X181735057Y-358089416D01*
X181701295Y-358172396D01*
X181654736Y-358248341D01*
X181599071Y-358309934D01*
X181533775Y-358358784D01*
X181460406Y-358394395D01*
X181380329Y-358416026D01*
X181291974Y-358423447D01*
X181180167Y-358412454D01*
X181081940Y-358380656D01*
X180994472Y-358328302D01*
X180915902Y-358253637D01*
X180868578Y-358185999D01*
X180828991Y-358100211D01*
X180798137Y-357992607D01*
X180785371Y-357908705D01*
X180982488Y-357908705D01*
X180992589Y-358001922D01*
X181022971Y-358091246D01*
X181054287Y-358145764D01*
X181091926Y-358189562D01*
X181136178Y-358223961D01*
X181211449Y-358258377D01*
X181288860Y-358269574D01*
X181362646Y-358259242D01*
X181428800Y-358228524D01*
X181489720Y-358175327D01*
X181534950Y-358107860D01*
X181563458Y-358023908D01*
X181573709Y-357918963D01*
X181563594Y-357818240D01*
X181535460Y-357737898D01*
X181490727Y-357673499D01*
X181430552Y-357623589D01*
X181361819Y-357593947D01*
X181281716Y-357583740D01*
X181202139Y-357593831D01*
X181132276Y-357623392D01*
X181069591Y-357673499D01*
X181022002Y-357738002D01*
X180992791Y-357815208D01*
X180982488Y-357908705D01*
X180785371Y-357908705D01*
X180777784Y-357858846D01*
X180770363Y-357694016D01*
X180778492Y-357510062D01*
X180800868Y-357359492D01*
X180834921Y-357237203D01*
X180878763Y-357138666D01*
X180931289Y-357060022D01*
X180991477Y-356997852D01*
X181058242Y-356950245D01*
X181132478Y-356916039D01*
X181215584Y-356894962D01*
X181309377Y-356887648D01*
X181397224Y-356894337D01*
G37*
G36*
X182514326Y-356893373D02*
G01*
X182584515Y-356909824D01*
X182646973Y-356936374D01*
X182703885Y-356973361D01*
X182753940Y-357019920D01*
X182797640Y-357076967D01*
X182849356Y-357175636D01*
X182890880Y-357300632D01*
X182915092Y-357443932D01*
X182924677Y-357656097D01*
X182917668Y-357833055D01*
X182898678Y-357973444D01*
X182870363Y-358083369D01*
X182826377Y-358186966D01*
X182772161Y-358269685D01*
X182707972Y-358334695D01*
X182631600Y-358383063D01*
X182541745Y-358412934D01*
X182434939Y-358423447D01*
X182329241Y-358413106D01*
X182239044Y-358383554D01*
X182161204Y-358335469D01*
X182093671Y-358267467D01*
X182045578Y-358193342D01*
X182005156Y-358099435D01*
X181973570Y-357981775D01*
X181952714Y-357835729D01*
X181945110Y-357656097D01*
X181945132Y-357655547D01*
X182134704Y-357655547D01*
X182142304Y-357852814D01*
X182161855Y-357991878D01*
X182189181Y-358086207D01*
X182221257Y-358147300D01*
X182269378Y-358202960D01*
X182320323Y-358240343D01*
X182374968Y-358262205D01*
X182434939Y-358269574D01*
X182494831Y-358262183D01*
X182549433Y-358240242D01*
X182600375Y-358202699D01*
X182648530Y-358146750D01*
X182680681Y-358085397D01*
X182708034Y-357990976D01*
X182727582Y-357852125D01*
X182735175Y-357655547D01*
X182727553Y-357457659D01*
X182707961Y-357318413D01*
X182680606Y-357224182D01*
X182648530Y-357163337D01*
X182600455Y-357108054D01*
X182549206Y-357070790D01*
X182493885Y-357048916D01*
X182432833Y-357041521D01*
X182372067Y-357048341D01*
X182319067Y-357068131D01*
X182272037Y-357101086D01*
X182229959Y-357148957D01*
X182193875Y-357217478D01*
X182163848Y-357317899D01*
X182142779Y-357460094D01*
X182134704Y-357655547D01*
X181945132Y-357655547D01*
X181952197Y-357477638D01*
X181971363Y-357336624D01*
X181999882Y-357226718D01*
X182044212Y-357123130D01*
X182098614Y-357040608D01*
X182162822Y-356975942D01*
X182239202Y-356927793D01*
X182328779Y-356898089D01*
X182434939Y-356887648D01*
X182514326Y-356893373D01*
G37*
G36*
X183806332Y-358400000D02*
G01*
X183621868Y-358400000D01*
X183621868Y-357221589D01*
X183548466Y-357282660D01*
X183447204Y-357348992D01*
X183340637Y-357406654D01*
X183253031Y-357444521D01*
X183253031Y-357268667D01*
X183353355Y-357215296D01*
X183443238Y-357155932D01*
X183523499Y-357090614D01*
X183597133Y-357017232D01*
X183650687Y-356949865D01*
X183687447Y-356887648D01*
X183806332Y-356887648D01*
X183806332Y-358400000D01*
G37*
G36*
X184257602Y-357948639D02*
G01*
X184257602Y-357761060D01*
X184824276Y-357761060D01*
X184824276Y-357948639D01*
X184257602Y-357948639D01*
G37*
G36*
X184977141Y-358001395D02*
G01*
X185170765Y-357985000D01*
X185192983Y-358076151D01*
X185226647Y-358145781D01*
X185270690Y-358198224D01*
X185326408Y-358237792D01*
X185388735Y-358261450D01*
X185459734Y-358269574D01*
X185524176Y-358263199D01*
X185582363Y-358244545D01*
X185635702Y-358213488D01*
X185685140Y-358168824D01*
X185724468Y-358116060D01*
X185753118Y-358055045D01*
X185771054Y-357984219D01*
X185777372Y-357901561D01*
X185771245Y-357822962D01*
X185753937Y-357756470D01*
X185726411Y-357699955D01*
X185688712Y-357651792D01*
X185624602Y-357601551D01*
X185548450Y-357571007D01*
X185456712Y-357560293D01*
X185371124Y-357570790D01*
X185295786Y-357601509D01*
X185231307Y-357649204D01*
X185183129Y-357708304D01*
X185009931Y-357685772D01*
X185155469Y-356911095D01*
X185902394Y-356911095D01*
X185902394Y-357085484D01*
X185303022Y-357085484D01*
X185222056Y-357494164D01*
X185315796Y-357439580D01*
X185409795Y-357408029D01*
X185505896Y-357397627D01*
X185601702Y-357406423D01*
X185687729Y-357432036D01*
X185765968Y-357474316D01*
X185837822Y-357534464D01*
X185896405Y-357606846D01*
X185938303Y-357688330D01*
X185964115Y-357780692D01*
X185973102Y-357886357D01*
X185965365Y-357987228D01*
X185942843Y-358078826D01*
X185905942Y-358162753D01*
X185854217Y-358240265D01*
X185792077Y-358306334D01*
X185722789Y-358356899D01*
X185645399Y-358393239D01*
X185558379Y-358415655D01*
X185459734Y-358423447D01*
X185358275Y-358415633D01*
X185270103Y-358393311D01*
X185192973Y-358357416D01*
X185125152Y-358307859D01*
X185067823Y-358246047D01*
X185024295Y-358175396D01*
X184993941Y-358094507D01*
X184977141Y-358001395D01*
G37*
G36*
X186838363Y-358400000D02*
G01*
X186653899Y-358400000D01*
X186653899Y-357221589D01*
X186580497Y-357282660D01*
X186479235Y-357348992D01*
X186372667Y-357406654D01*
X186285061Y-357444521D01*
X186285061Y-357268667D01*
X186385385Y-357215296D01*
X186475269Y-357155932D01*
X186555530Y-357090614D01*
X186629164Y-357017232D01*
X186682717Y-356949865D01*
X186719478Y-356887648D01*
X186838363Y-356887648D01*
X186838363Y-358400000D01*
G37*
G36*
X179267162Y-359418970D02*
G01*
X179366482Y-359433287D01*
X179437714Y-359453810D01*
X179502283Y-359487247D01*
X179557606Y-359534169D01*
X179604684Y-359596142D01*
X179639372Y-359666312D01*
X179660181Y-359740981D01*
X179667241Y-359821456D01*
X179660515Y-359899327D01*
X179640994Y-359969033D01*
X179608957Y-360032122D01*
X179563743Y-360089726D01*
X179509227Y-360136363D01*
X179439827Y-360175499D01*
X179352644Y-360206613D01*
X179244090Y-360228395D01*
X179317078Y-360268796D01*
X179363891Y-360304050D01*
X179446647Y-360392531D01*
X179528939Y-360506283D01*
X179790156Y-360920000D01*
X179540204Y-360920000D01*
X179341360Y-360603461D01*
X179197928Y-360393900D01*
X179140897Y-360328478D01*
X179096995Y-360292143D01*
X179051386Y-360267221D01*
X179006320Y-360251659D01*
X178895678Y-360244424D01*
X178665143Y-360244424D01*
X178665143Y-360920000D01*
X178466299Y-360920000D01*
X178466299Y-360075896D01*
X178665143Y-360075896D01*
X179092416Y-360075896D01*
X179220993Y-360067934D01*
X179305548Y-360047961D01*
X179353618Y-360024966D01*
X179392098Y-359995173D01*
X179422327Y-359958293D01*
X179452317Y-359893862D01*
X179462260Y-359824387D01*
X179453466Y-359757284D01*
X179427941Y-359700068D01*
X179384866Y-359650273D01*
X179329049Y-359614851D01*
X179250156Y-359591058D01*
X179140592Y-359582037D01*
X178665143Y-359582037D01*
X178665143Y-360075896D01*
X178466299Y-360075896D01*
X178466299Y-359413510D01*
X179132349Y-359413510D01*
X179267162Y-359418970D01*
G37*
G36*
X179982589Y-360920000D02*
G01*
X179982589Y-359413510D01*
X181068768Y-359413510D01*
X181068768Y-359587899D01*
X180181433Y-359587899D01*
X180181433Y-360052449D01*
X181012439Y-360052449D01*
X181012439Y-360226838D01*
X180181433Y-360226838D01*
X180181433Y-360745610D01*
X181103664Y-360745610D01*
X181103664Y-360920000D01*
X179982589Y-360920000D01*
G37*
G36*
X181807358Y-360920000D02*
G01*
X181225388Y-359413510D01*
X181440536Y-359413510D01*
X181830988Y-360508298D01*
X181909848Y-360755044D01*
X181990815Y-360508298D01*
X182396563Y-359413510D01*
X182599438Y-359413510D01*
X182011331Y-360920000D01*
X181807358Y-360920000D01*
G37*
G36*
X182566465Y-360468639D02*
G01*
X182566465Y-360281060D01*
X183133139Y-360281060D01*
X183133139Y-360468639D01*
X182566465Y-360468639D01*
G37*
G36*
X183980722Y-360920000D02*
G01*
X183796258Y-360920000D01*
X183796258Y-359741589D01*
X183722856Y-359802660D01*
X183621594Y-359868992D01*
X183515027Y-359926654D01*
X183427421Y-359964521D01*
X183427421Y-359788667D01*
X183527745Y-359735296D01*
X183617628Y-359675932D01*
X183697889Y-359610614D01*
X183771523Y-359537232D01*
X183825077Y-359469865D01*
X183861837Y-359407648D01*
X183980722Y-359407648D01*
X183980722Y-360920000D01*
G37*
D11*
%TO.C,U3*%
X177350000Y-293764322D02*
X176530000Y-293764322D01*
X176530000Y-292944322D01*
X177350000Y-292944322D01*
X177350000Y-293764322D01*
G36*
X177350000Y-293764322D02*
G01*
X176530000Y-293764322D01*
X176530000Y-292944322D01*
X177350000Y-292944322D01*
X177350000Y-293764322D01*
G37*
X177350000Y-294884322D02*
X176530000Y-294884322D01*
X176530000Y-294064322D01*
X177350000Y-294064322D01*
X177350000Y-294884322D01*
G36*
X177350000Y-294884322D02*
G01*
X176530000Y-294884322D01*
X176530000Y-294064322D01*
X177350000Y-294064322D01*
X177350000Y-294884322D01*
G37*
X178470000Y-293764322D02*
X177650000Y-293764322D01*
X177650000Y-292944322D01*
X178470000Y-292944322D01*
X178470000Y-293764322D01*
G36*
X178470000Y-293764322D02*
G01*
X177650000Y-293764322D01*
X177650000Y-292944322D01*
X178470000Y-292944322D01*
X178470000Y-293764322D01*
G37*
X178470000Y-294884322D02*
X177650000Y-294884322D01*
X177650000Y-294064322D01*
X178470000Y-294064322D01*
X178470000Y-294884322D01*
G36*
X178470000Y-294884322D02*
G01*
X177650000Y-294884322D01*
X177650000Y-294064322D01*
X178470000Y-294064322D01*
X178470000Y-294884322D01*
G37*
%TO.C,U6*%
X284108000Y-319451000D02*
X284110000Y-319451000D01*
X284113000Y-319452000D01*
X284115000Y-319452000D01*
X284118000Y-319453000D01*
X284120000Y-319454000D01*
X284123000Y-319455000D01*
X284125000Y-319457000D01*
X284127000Y-319458000D01*
X284129000Y-319460000D01*
X284131000Y-319461000D01*
X284133000Y-319463000D01*
X284135000Y-319465000D01*
X284137000Y-319467000D01*
X284139000Y-319469000D01*
X284140000Y-319471000D01*
X284142000Y-319473000D01*
X284143000Y-319475000D01*
X284145000Y-319477000D01*
X284146000Y-319480000D01*
X284147000Y-319482000D01*
X284148000Y-319485000D01*
X284148000Y-319487000D01*
X284149000Y-319490000D01*
X284149000Y-319492000D01*
X284150000Y-319495000D01*
X284150000Y-319497000D01*
X284150000Y-319500000D01*
X284150000Y-320100000D01*
X284150000Y-320103000D01*
X284150000Y-320105000D01*
X284149000Y-320108000D01*
X284149000Y-320110000D01*
X284148000Y-320113000D01*
X284148000Y-320115000D01*
X284147000Y-320118000D01*
X284146000Y-320120000D01*
X284145000Y-320123000D01*
X284143000Y-320125000D01*
X284142000Y-320127000D01*
X284140000Y-320129000D01*
X284139000Y-320131000D01*
X284137000Y-320133000D01*
X284135000Y-320135000D01*
X284133000Y-320137000D01*
X284131000Y-320139000D01*
X284129000Y-320140000D01*
X284127000Y-320142000D01*
X284125000Y-320143000D01*
X284123000Y-320145000D01*
X284120000Y-320146000D01*
X284118000Y-320147000D01*
X284115000Y-320148000D01*
X284113000Y-320148000D01*
X284110000Y-320149000D01*
X284108000Y-320149000D01*
X284105000Y-320150000D01*
X284103000Y-320150000D01*
X284100000Y-320150000D01*
X283300000Y-320150000D01*
X283297000Y-320150000D01*
X283295000Y-320150000D01*
X283292000Y-320149000D01*
X283290000Y-320149000D01*
X283287000Y-320148000D01*
X283285000Y-320148000D01*
X283282000Y-320147000D01*
X283280000Y-320146000D01*
X283277000Y-320145000D01*
X283275000Y-320143000D01*
X283273000Y-320142000D01*
X283271000Y-320140000D01*
X283269000Y-320139000D01*
X283267000Y-320137000D01*
X283265000Y-320135000D01*
X283263000Y-320133000D01*
X283261000Y-320131000D01*
X283260000Y-320129000D01*
X283258000Y-320127000D01*
X283257000Y-320125000D01*
X283255000Y-320123000D01*
X283254000Y-320120000D01*
X283253000Y-320118000D01*
X283252000Y-320115000D01*
X283252000Y-320113000D01*
X283251000Y-320110000D01*
X283251000Y-320108000D01*
X283250000Y-320105000D01*
X283250000Y-320103000D01*
X283250000Y-320100000D01*
X283250000Y-319500000D01*
X283250000Y-319497000D01*
X283250000Y-319495000D01*
X283251000Y-319492000D01*
X283251000Y-319490000D01*
X283252000Y-319487000D01*
X283252000Y-319485000D01*
X283253000Y-319482000D01*
X283254000Y-319480000D01*
X283255000Y-319477000D01*
X283257000Y-319475000D01*
X283258000Y-319473000D01*
X283260000Y-319471000D01*
X283261000Y-319469000D01*
X283263000Y-319467000D01*
X283265000Y-319465000D01*
X283267000Y-319463000D01*
X283269000Y-319461000D01*
X283271000Y-319460000D01*
X283273000Y-319458000D01*
X283275000Y-319457000D01*
X283277000Y-319455000D01*
X283280000Y-319454000D01*
X283282000Y-319453000D01*
X283285000Y-319452000D01*
X283287000Y-319452000D01*
X283290000Y-319451000D01*
X283292000Y-319451000D01*
X283295000Y-319450000D01*
X283297000Y-319450000D01*
X283300000Y-319450000D01*
X284100000Y-319450000D01*
X284103000Y-319450000D01*
X284105000Y-319450000D01*
X284108000Y-319451000D01*
G36*
X284108000Y-319451000D02*
G01*
X284110000Y-319451000D01*
X284113000Y-319452000D01*
X284115000Y-319452000D01*
X284118000Y-319453000D01*
X284120000Y-319454000D01*
X284123000Y-319455000D01*
X284125000Y-319457000D01*
X284127000Y-319458000D01*
X284129000Y-319460000D01*
X284131000Y-319461000D01*
X284133000Y-319463000D01*
X284135000Y-319465000D01*
X284137000Y-319467000D01*
X284139000Y-319469000D01*
X284140000Y-319471000D01*
X284142000Y-319473000D01*
X284143000Y-319475000D01*
X284145000Y-319477000D01*
X284146000Y-319480000D01*
X284147000Y-319482000D01*
X284148000Y-319485000D01*
X284148000Y-319487000D01*
X284149000Y-319490000D01*
X284149000Y-319492000D01*
X284150000Y-319495000D01*
X284150000Y-319497000D01*
X284150000Y-319500000D01*
X284150000Y-320100000D01*
X284150000Y-320103000D01*
X284150000Y-320105000D01*
X284149000Y-320108000D01*
X284149000Y-320110000D01*
X284148000Y-320113000D01*
X284148000Y-320115000D01*
X284147000Y-320118000D01*
X284146000Y-320120000D01*
X284145000Y-320123000D01*
X284143000Y-320125000D01*
X284142000Y-320127000D01*
X284140000Y-320129000D01*
X284139000Y-320131000D01*
X284137000Y-320133000D01*
X284135000Y-320135000D01*
X284133000Y-320137000D01*
X284131000Y-320139000D01*
X284129000Y-320140000D01*
X284127000Y-320142000D01*
X284125000Y-320143000D01*
X284123000Y-320145000D01*
X284120000Y-320146000D01*
X284118000Y-320147000D01*
X284115000Y-320148000D01*
X284113000Y-320148000D01*
X284110000Y-320149000D01*
X284108000Y-320149000D01*
X284105000Y-320150000D01*
X284103000Y-320150000D01*
X284100000Y-320150000D01*
X283300000Y-320150000D01*
X283297000Y-320150000D01*
X283295000Y-320150000D01*
X283292000Y-320149000D01*
X283290000Y-320149000D01*
X283287000Y-320148000D01*
X283285000Y-320148000D01*
X283282000Y-320147000D01*
X283280000Y-320146000D01*
X283277000Y-320145000D01*
X283275000Y-320143000D01*
X283273000Y-320142000D01*
X283271000Y-320140000D01*
X283269000Y-320139000D01*
X283267000Y-320137000D01*
X283265000Y-320135000D01*
X283263000Y-320133000D01*
X283261000Y-320131000D01*
X283260000Y-320129000D01*
X283258000Y-320127000D01*
X283257000Y-320125000D01*
X283255000Y-320123000D01*
X283254000Y-320120000D01*
X283253000Y-320118000D01*
X283252000Y-320115000D01*
X283252000Y-320113000D01*
X283251000Y-320110000D01*
X283251000Y-320108000D01*
X283250000Y-320105000D01*
X283250000Y-320103000D01*
X283250000Y-320100000D01*
X283250000Y-319500000D01*
X283250000Y-319497000D01*
X283250000Y-319495000D01*
X283251000Y-319492000D01*
X283251000Y-319490000D01*
X283252000Y-319487000D01*
X283252000Y-319485000D01*
X283253000Y-319482000D01*
X283254000Y-319480000D01*
X283255000Y-319477000D01*
X283257000Y-319475000D01*
X283258000Y-319473000D01*
X283260000Y-319471000D01*
X283261000Y-319469000D01*
X283263000Y-319467000D01*
X283265000Y-319465000D01*
X283267000Y-319463000D01*
X283269000Y-319461000D01*
X283271000Y-319460000D01*
X283273000Y-319458000D01*
X283275000Y-319457000D01*
X283277000Y-319455000D01*
X283280000Y-319454000D01*
X283282000Y-319453000D01*
X283285000Y-319452000D01*
X283287000Y-319452000D01*
X283290000Y-319451000D01*
X283292000Y-319451000D01*
X283295000Y-319450000D01*
X283297000Y-319450000D01*
X283300000Y-319450000D01*
X284100000Y-319450000D01*
X284103000Y-319450000D01*
X284105000Y-319450000D01*
X284108000Y-319451000D01*
G37*
X284108000Y-320351000D02*
X284110000Y-320351000D01*
X284113000Y-320352000D01*
X284115000Y-320352000D01*
X284118000Y-320353000D01*
X284120000Y-320354000D01*
X284123000Y-320355000D01*
X284125000Y-320357000D01*
X284127000Y-320358000D01*
X284129000Y-320360000D01*
X284131000Y-320361000D01*
X284133000Y-320363000D01*
X284135000Y-320365000D01*
X284137000Y-320367000D01*
X284139000Y-320369000D01*
X284140000Y-320371000D01*
X284142000Y-320373000D01*
X284143000Y-320375000D01*
X284145000Y-320377000D01*
X284146000Y-320380000D01*
X284147000Y-320382000D01*
X284148000Y-320385000D01*
X284148000Y-320387000D01*
X284149000Y-320390000D01*
X284149000Y-320392000D01*
X284150000Y-320395000D01*
X284150000Y-320397000D01*
X284150000Y-320400000D01*
X284150000Y-321000000D01*
X284150000Y-321003000D01*
X284150000Y-321005000D01*
X284149000Y-321008000D01*
X284149000Y-321010000D01*
X284148000Y-321013000D01*
X284148000Y-321015000D01*
X284147000Y-321018000D01*
X284146000Y-321020000D01*
X284145000Y-321023000D01*
X284143000Y-321025000D01*
X284142000Y-321027000D01*
X284140000Y-321029000D01*
X284139000Y-321031000D01*
X284137000Y-321033000D01*
X284135000Y-321035000D01*
X284133000Y-321037000D01*
X284131000Y-321039000D01*
X284129000Y-321040000D01*
X284127000Y-321042000D01*
X284125000Y-321043000D01*
X284123000Y-321045000D01*
X284120000Y-321046000D01*
X284118000Y-321047000D01*
X284115000Y-321048000D01*
X284113000Y-321048000D01*
X284110000Y-321049000D01*
X284108000Y-321049000D01*
X284105000Y-321050000D01*
X284103000Y-321050000D01*
X284100000Y-321050000D01*
X283300000Y-321050000D01*
X283297000Y-321050000D01*
X283295000Y-321050000D01*
X283292000Y-321049000D01*
X283290000Y-321049000D01*
X283287000Y-321048000D01*
X283285000Y-321048000D01*
X283282000Y-321047000D01*
X283280000Y-321046000D01*
X283277000Y-321045000D01*
X283275000Y-321043000D01*
X283273000Y-321042000D01*
X283271000Y-321040000D01*
X283269000Y-321039000D01*
X283267000Y-321037000D01*
X283265000Y-321035000D01*
X283263000Y-321033000D01*
X283261000Y-321031000D01*
X283260000Y-321029000D01*
X283258000Y-321027000D01*
X283257000Y-321025000D01*
X283255000Y-321023000D01*
X283254000Y-321020000D01*
X283253000Y-321018000D01*
X283252000Y-321015000D01*
X283252000Y-321013000D01*
X283251000Y-321010000D01*
X283251000Y-321008000D01*
X283250000Y-321005000D01*
X283250000Y-321003000D01*
X283250000Y-321000000D01*
X283250000Y-320400000D01*
X283250000Y-320397000D01*
X283250000Y-320395000D01*
X283251000Y-320392000D01*
X283251000Y-320390000D01*
X283252000Y-320387000D01*
X283252000Y-320385000D01*
X283253000Y-320382000D01*
X283254000Y-320380000D01*
X283255000Y-320377000D01*
X283257000Y-320375000D01*
X283258000Y-320373000D01*
X283260000Y-320371000D01*
X283261000Y-320369000D01*
X283263000Y-320367000D01*
X283265000Y-320365000D01*
X283267000Y-320363000D01*
X283269000Y-320361000D01*
X283271000Y-320360000D01*
X283273000Y-320358000D01*
X283275000Y-320357000D01*
X283277000Y-320355000D01*
X283280000Y-320354000D01*
X283282000Y-320353000D01*
X283285000Y-320352000D01*
X283287000Y-320352000D01*
X283290000Y-320351000D01*
X283292000Y-320351000D01*
X283295000Y-320350000D01*
X283297000Y-320350000D01*
X283300000Y-320350000D01*
X284100000Y-320350000D01*
X284103000Y-320350000D01*
X284105000Y-320350000D01*
X284108000Y-320351000D01*
G36*
X284108000Y-320351000D02*
G01*
X284110000Y-320351000D01*
X284113000Y-320352000D01*
X284115000Y-320352000D01*
X284118000Y-320353000D01*
X284120000Y-320354000D01*
X284123000Y-320355000D01*
X284125000Y-320357000D01*
X284127000Y-320358000D01*
X284129000Y-320360000D01*
X284131000Y-320361000D01*
X284133000Y-320363000D01*
X284135000Y-320365000D01*
X284137000Y-320367000D01*
X284139000Y-320369000D01*
X284140000Y-320371000D01*
X284142000Y-320373000D01*
X284143000Y-320375000D01*
X284145000Y-320377000D01*
X284146000Y-320380000D01*
X284147000Y-320382000D01*
X284148000Y-320385000D01*
X284148000Y-320387000D01*
X284149000Y-320390000D01*
X284149000Y-320392000D01*
X284150000Y-320395000D01*
X284150000Y-320397000D01*
X284150000Y-320400000D01*
X284150000Y-321000000D01*
X284150000Y-321003000D01*
X284150000Y-321005000D01*
X284149000Y-321008000D01*
X284149000Y-321010000D01*
X284148000Y-321013000D01*
X284148000Y-321015000D01*
X284147000Y-321018000D01*
X284146000Y-321020000D01*
X284145000Y-321023000D01*
X284143000Y-321025000D01*
X284142000Y-321027000D01*
X284140000Y-321029000D01*
X284139000Y-321031000D01*
X284137000Y-321033000D01*
X284135000Y-321035000D01*
X284133000Y-321037000D01*
X284131000Y-321039000D01*
X284129000Y-321040000D01*
X284127000Y-321042000D01*
X284125000Y-321043000D01*
X284123000Y-321045000D01*
X284120000Y-321046000D01*
X284118000Y-321047000D01*
X284115000Y-321048000D01*
X284113000Y-321048000D01*
X284110000Y-321049000D01*
X284108000Y-321049000D01*
X284105000Y-321050000D01*
X284103000Y-321050000D01*
X284100000Y-321050000D01*
X283300000Y-321050000D01*
X283297000Y-321050000D01*
X283295000Y-321050000D01*
X283292000Y-321049000D01*
X283290000Y-321049000D01*
X283287000Y-321048000D01*
X283285000Y-321048000D01*
X283282000Y-321047000D01*
X283280000Y-321046000D01*
X283277000Y-321045000D01*
X283275000Y-321043000D01*
X283273000Y-321042000D01*
X283271000Y-321040000D01*
X283269000Y-321039000D01*
X283267000Y-321037000D01*
X283265000Y-321035000D01*
X283263000Y-321033000D01*
X283261000Y-321031000D01*
X283260000Y-321029000D01*
X283258000Y-321027000D01*
X283257000Y-321025000D01*
X283255000Y-321023000D01*
X283254000Y-321020000D01*
X283253000Y-321018000D01*
X283252000Y-321015000D01*
X283252000Y-321013000D01*
X283251000Y-321010000D01*
X283251000Y-321008000D01*
X283250000Y-321005000D01*
X283250000Y-321003000D01*
X283250000Y-321000000D01*
X283250000Y-320400000D01*
X283250000Y-320397000D01*
X283250000Y-320395000D01*
X283251000Y-320392000D01*
X283251000Y-320390000D01*
X283252000Y-320387000D01*
X283252000Y-320385000D01*
X283253000Y-320382000D01*
X283254000Y-320380000D01*
X283255000Y-320377000D01*
X283257000Y-320375000D01*
X283258000Y-320373000D01*
X283260000Y-320371000D01*
X283261000Y-320369000D01*
X283263000Y-320367000D01*
X283265000Y-320365000D01*
X283267000Y-320363000D01*
X283269000Y-320361000D01*
X283271000Y-320360000D01*
X283273000Y-320358000D01*
X283275000Y-320357000D01*
X283277000Y-320355000D01*
X283280000Y-320354000D01*
X283282000Y-320353000D01*
X283285000Y-320352000D01*
X283287000Y-320352000D01*
X283290000Y-320351000D01*
X283292000Y-320351000D01*
X283295000Y-320350000D01*
X283297000Y-320350000D01*
X283300000Y-320350000D01*
X284100000Y-320350000D01*
X284103000Y-320350000D01*
X284105000Y-320350000D01*
X284108000Y-320351000D01*
G37*
D12*
%TO.C,U4*%
G36*
X270464999Y-319965001D02*
G01*
X270464999Y-321335001D01*
X270414999Y-321385001D01*
X268885000Y-321385001D01*
X268835000Y-321335001D01*
X268835000Y-319965001D01*
X268885000Y-319915001D01*
X270414999Y-319915001D01*
X270464999Y-319965001D01*
G37*
D11*
%TO.C,U10*%
X271275000Y-304340000D02*
X271025000Y-304340000D01*
X271025000Y-304000000D01*
X271275000Y-304000000D01*
X271275000Y-304340000D01*
G36*
X271275000Y-304340000D02*
G01*
X271025000Y-304340000D01*
X271025000Y-304000000D01*
X271275000Y-304000000D01*
X271275000Y-304340000D01*
G37*
X271275000Y-307400000D02*
X271025000Y-307400000D01*
X271025000Y-307060000D01*
X271275000Y-307060000D01*
X271275000Y-307400000D01*
G36*
X271275000Y-307400000D02*
G01*
X271025000Y-307400000D01*
X271025000Y-307060000D01*
X271275000Y-307060000D01*
X271275000Y-307400000D01*
G37*
X271775000Y-304340000D02*
X271525000Y-304340000D01*
X271525000Y-304000000D01*
X271775000Y-304000000D01*
X271775000Y-304340000D01*
G36*
X271775000Y-304340000D02*
G01*
X271525000Y-304340000D01*
X271525000Y-304000000D01*
X271775000Y-304000000D01*
X271775000Y-304340000D01*
G37*
X271775000Y-307400000D02*
X271525000Y-307400000D01*
X271525000Y-307060000D01*
X271775000Y-307060000D01*
X271775000Y-307400000D01*
G36*
X271775000Y-307400000D02*
G01*
X271525000Y-307400000D01*
X271525000Y-307060000D01*
X271775000Y-307060000D01*
X271775000Y-307400000D01*
G37*
X272150000Y-305600000D02*
X270650000Y-305600000D01*
X270650000Y-304540000D01*
X272150000Y-304540000D01*
X272150000Y-305600000D01*
G36*
X272150000Y-305600000D02*
G01*
X270650000Y-305600000D01*
X270650000Y-304540000D01*
X272150000Y-304540000D01*
X272150000Y-305600000D01*
G37*
X272150000Y-306860000D02*
X270650000Y-306860000D01*
X270650000Y-305800000D01*
X272150000Y-305800000D01*
X272150000Y-306860000D01*
G36*
X272150000Y-306860000D02*
G01*
X270650000Y-306860000D01*
X270650000Y-305800000D01*
X272150000Y-305800000D01*
X272150000Y-306860000D01*
G37*
D12*
%TO.C,U2*%
G36*
X157787500Y-297087500D02*
G01*
X156675000Y-297087500D01*
X156675000Y-295975000D01*
X157787500Y-295975000D01*
X157787500Y-297087500D01*
G37*
G36*
X157787500Y-298400000D02*
G01*
X156675000Y-298400000D01*
X156675000Y-297287500D01*
X157787500Y-297287500D01*
X157787500Y-298400000D01*
G37*
G36*
X157787500Y-299712500D02*
G01*
X156675000Y-299712500D01*
X156675000Y-298600000D01*
X157787500Y-298600000D01*
X157787500Y-299712500D01*
G37*
G36*
X157787500Y-301025000D02*
G01*
X156675000Y-301025000D01*
X156675000Y-299912500D01*
X157787500Y-299912500D01*
X157787500Y-301025000D01*
G37*
G36*
X159100000Y-297087500D02*
G01*
X157987500Y-297087500D01*
X157987500Y-295975000D01*
X159100000Y-295975000D01*
X159100000Y-297087500D01*
G37*
G36*
X159100000Y-298400000D02*
G01*
X157987500Y-298400000D01*
X157987500Y-297287500D01*
X159100000Y-297287500D01*
X159100000Y-298400000D01*
G37*
G36*
X159100000Y-299712500D02*
G01*
X157987500Y-299712500D01*
X157987500Y-298600000D01*
X159100000Y-298600000D01*
X159100000Y-299712500D01*
G37*
G36*
X159100000Y-301025000D02*
G01*
X157987500Y-301025000D01*
X157987500Y-299912500D01*
X159100000Y-299912500D01*
X159100000Y-301025000D01*
G37*
G36*
X160412500Y-297087500D02*
G01*
X159300000Y-297087500D01*
X159300000Y-295975000D01*
X160412500Y-295975000D01*
X160412500Y-297087500D01*
G37*
G36*
X160412500Y-298400000D02*
G01*
X159300000Y-298400000D01*
X159300000Y-297287500D01*
X160412500Y-297287500D01*
X160412500Y-298400000D01*
G37*
G36*
X160412500Y-299712500D02*
G01*
X159300000Y-299712500D01*
X159300000Y-298600000D01*
X160412500Y-298600000D01*
X160412500Y-299712500D01*
G37*
G36*
X160412500Y-301025000D02*
G01*
X159300000Y-301025000D01*
X159300000Y-299912500D01*
X160412500Y-299912500D01*
X160412500Y-301025000D01*
G37*
G36*
X161725000Y-297087500D02*
G01*
X160612500Y-297087500D01*
X160612500Y-295975000D01*
X161725000Y-295975000D01*
X161725000Y-297087500D01*
G37*
G36*
X161725000Y-298400000D02*
G01*
X160612500Y-298400000D01*
X160612500Y-297287500D01*
X161725000Y-297287500D01*
X161725000Y-298400000D01*
G37*
G36*
X161725000Y-299712500D02*
G01*
X160612500Y-299712500D01*
X160612500Y-298600000D01*
X161725000Y-298600000D01*
X161725000Y-299712500D01*
G37*
G36*
X161725000Y-301025000D02*
G01*
X160612500Y-301025000D01*
X160612500Y-299912500D01*
X161725000Y-299912500D01*
X161725000Y-301025000D01*
G37*
D11*
%TO.C,U5*%
X177350000Y-306650000D02*
X176530000Y-306650000D01*
X176530000Y-305830000D01*
X177350000Y-305830000D01*
X177350000Y-306650000D01*
G36*
X177350000Y-306650000D02*
G01*
X176530000Y-306650000D01*
X176530000Y-305830000D01*
X177350000Y-305830000D01*
X177350000Y-306650000D01*
G37*
X177350000Y-307770000D02*
X176530000Y-307770000D01*
X176530000Y-306950000D01*
X177350000Y-306950000D01*
X177350000Y-307770000D01*
G36*
X177350000Y-307770000D02*
G01*
X176530000Y-307770000D01*
X176530000Y-306950000D01*
X177350000Y-306950000D01*
X177350000Y-307770000D01*
G37*
X178470000Y-306650000D02*
X177650000Y-306650000D01*
X177650000Y-305830000D01*
X178470000Y-305830000D01*
X178470000Y-306650000D01*
G36*
X178470000Y-306650000D02*
G01*
X177650000Y-306650000D01*
X177650000Y-305830000D01*
X178470000Y-305830000D01*
X178470000Y-306650000D01*
G37*
X178470000Y-307770000D02*
X177650000Y-307770000D01*
X177650000Y-306950000D01*
X178470000Y-306950000D01*
X178470000Y-307770000D01*
G36*
X178470000Y-307770000D02*
G01*
X177650000Y-307770000D01*
X177650000Y-306950000D01*
X178470000Y-306950000D01*
X178470000Y-307770000D01*
G37*
%TD*%
D13*
%TO.C,R15*%
X270425000Y-273350000D03*
X272250000Y-273350000D03*
%TD*%
%TO.C,R39*%
X263900000Y-308300000D03*
X265725000Y-308300000D03*
%TD*%
D14*
%TO.C,C21*%
X182300000Y-302900000D03*
X184200000Y-302900000D03*
%TD*%
D15*
%TO.C,R42*%
X254445000Y-299500000D03*
X252620000Y-299500000D03*
%TD*%
D16*
%TO.C,R1*%
X141450000Y-294000000D03*
X141450000Y-292175000D03*
%TD*%
D17*
%TO.C,C5*%
X145150000Y-292050000D03*
X145150000Y-290150000D03*
%TD*%
D18*
%TO.C,D13*%
X276075000Y-288050000D03*
X274200000Y-288050000D03*
%TD*%
D19*
%TO.C,TP3*%
X81000000Y-326400000D03*
%TD*%
D15*
%TO.C,R7*%
X270512500Y-316000000D03*
X268687500Y-316000000D03*
%TD*%
D20*
%TO.C,C33*%
X285450000Y-323850000D03*
X285450000Y-325750000D03*
%TD*%
D19*
%TO.C,TP1*%
X300200000Y-273750000D03*
%TD*%
D21*
%TO.C,U8*%
X251986200Y-306195000D03*
X251986200Y-307465000D03*
X251986200Y-308735000D03*
X251986200Y-310005000D03*
X256913800Y-310005000D03*
X256913800Y-308735000D03*
X256913800Y-307465000D03*
X256913800Y-306195000D03*
%TD*%
D13*
%TO.C,R17*%
X270425000Y-277550000D03*
X272250000Y-277550000D03*
%TD*%
D20*
%TO.C,C6*%
X145250000Y-294600000D03*
X145250000Y-296500000D03*
%TD*%
D22*
%TO.C,U3*%
X175815000Y-292914322D03*
X175815000Y-293414322D03*
X175815000Y-293914322D03*
X175815000Y-294414322D03*
X175815000Y-294914322D03*
D23*
X176500000Y-295599322D03*
X177000000Y-295599322D03*
X177500000Y-295599322D03*
X178000000Y-295599322D03*
X178500000Y-295599322D03*
D22*
X179185000Y-294914322D03*
X179185000Y-294414322D03*
X179185000Y-293914322D03*
X179185000Y-293414322D03*
X179185000Y-292914322D03*
D23*
X178500000Y-292229322D03*
X178000000Y-292229322D03*
X177500000Y-292229322D03*
X177000000Y-292229322D03*
X176500000Y-292229322D03*
%TD*%
D18*
%TO.C,D12*%
X276075000Y-285950000D03*
X274200000Y-285950000D03*
%TD*%
%TO.C,D9*%
X276075000Y-279650000D03*
X274200000Y-279650000D03*
%TD*%
D24*
%TO.C,U6*%
X284685000Y-321000000D03*
X284685000Y-320500000D03*
X284685000Y-320000000D03*
X284685000Y-319500000D03*
X282715000Y-319500000D03*
X282715000Y-320000000D03*
X282715000Y-320500000D03*
X282715000Y-321000000D03*
%TD*%
D25*
%TO.C,U1*%
X127450000Y-311670000D03*
X127450000Y-314210000D03*
X127450000Y-316750000D03*
X131250000Y-316750000D03*
X131250000Y-314210000D03*
X131250000Y-311670000D03*
%TD*%
D19*
%TO.C,TP4*%
X79052280Y-265600000D03*
%TD*%
D15*
%TO.C,R4*%
X149162500Y-290000000D03*
X147337500Y-290000000D03*
%TD*%
D26*
%TO.C,D1*%
X282700000Y-314225000D03*
X282700000Y-316100000D03*
%TD*%
D13*
%TO.C,R18*%
X270425000Y-279650000D03*
X272250000Y-279650000D03*
%TD*%
D27*
%TO.C,L2*%
X182299900Y-300800000D03*
X183900100Y-300800000D03*
%TD*%
D15*
%TO.C,R44*%
X250725000Y-296550000D03*
X248900000Y-296550000D03*
%TD*%
D13*
%TO.C,R23*%
X270425000Y-290150000D03*
X272250000Y-290150000D03*
%TD*%
D18*
%TO.C,D8*%
X276075000Y-277550000D03*
X274200000Y-277550000D03*
%TD*%
D14*
%TO.C,C2*%
X118300000Y-288820000D03*
X120200000Y-288820000D03*
%TD*%
D13*
%TO.C,R25*%
X270425000Y-294350000D03*
X272250000Y-294350000D03*
%TD*%
D14*
%TO.C,C45*%
X275350000Y-307900000D03*
X277250000Y-307900000D03*
%TD*%
%TO.C,C12*%
X182350000Y-292499322D03*
X184250000Y-292499322D03*
%TD*%
D28*
%TO.C,U4*%
X271549999Y-319250001D03*
D29*
X270950000Y-319050002D03*
X270449998Y-319050002D03*
X269949999Y-319050002D03*
X269450000Y-319050002D03*
X268949998Y-319050002D03*
D30*
X268349999Y-319250001D03*
D31*
X268100000Y-319900000D03*
X268100000Y-320400001D03*
X268100000Y-320900001D03*
X268100000Y-321400002D03*
D32*
X268349999Y-322050001D03*
D29*
X268949998Y-322250000D03*
X269450000Y-322250000D03*
X269949999Y-322250000D03*
X270449998Y-322250000D03*
X270950000Y-322250000D03*
D33*
X271549999Y-322050001D03*
D31*
X271799998Y-321400002D03*
X271799998Y-320900001D03*
X271799998Y-320400001D03*
X271799998Y-319900000D03*
%TD*%
D15*
%TO.C,R43*%
X254400000Y-296500000D03*
X252575000Y-296500000D03*
%TD*%
D13*
%TO.C,R21*%
X270425000Y-285950000D03*
X272250000Y-285950000D03*
%TD*%
D17*
%TO.C,C16*%
X176500000Y-289099322D03*
X176500000Y-287199322D03*
%TD*%
D14*
%TO.C,C3*%
X134450000Y-316500000D03*
X136350000Y-316500000D03*
%TD*%
D34*
%TO.C,Q1*%
X275762500Y-314600000D03*
X275762500Y-315900000D03*
X277637500Y-315250000D03*
%TD*%
D19*
%TO.C,TP5*%
X248100000Y-292500000D03*
%TD*%
D20*
%TO.C,C15*%
X172600000Y-293179322D03*
X172600000Y-295079322D03*
%TD*%
D18*
%TO.C,D6*%
X276075000Y-273350000D03*
X274200000Y-273350000D03*
%TD*%
D15*
%TO.C,R3*%
X149162500Y-292100000D03*
X147337500Y-292100000D03*
%TD*%
D13*
%TO.C,R38*%
X263900000Y-305350000D03*
X265725000Y-305350000D03*
%TD*%
D18*
%TO.C,D5*%
X276075000Y-271250000D03*
X274200000Y-271250000D03*
%TD*%
D17*
%TO.C,C25*%
X263600000Y-323100000D03*
X263600000Y-321200000D03*
%TD*%
D13*
%TO.C,R12*%
X270425000Y-267050000D03*
X272250000Y-267050000D03*
%TD*%
%TO.C,R26*%
X270425000Y-296450000D03*
X272250000Y-296450000D03*
%TD*%
D20*
%TO.C,C19*%
X276400000Y-319950000D03*
X276400000Y-321850000D03*
%TD*%
%TO.C,C17*%
X278600000Y-319950000D03*
X278600000Y-321850000D03*
%TD*%
D35*
%TO.C,C31*%
X184300000Y-286014322D03*
X182400000Y-286014322D03*
%TD*%
D13*
%TO.C,R13*%
X270425000Y-269150000D03*
X272250000Y-269150000D03*
%TD*%
D14*
%TO.C,C13*%
X182400000Y-290199322D03*
X184300000Y-290199322D03*
%TD*%
D15*
%TO.C,R41*%
X280812500Y-305100000D03*
X278987500Y-305100000D03*
%TD*%
D18*
%TO.C,D10*%
X276075000Y-281750000D03*
X274200000Y-281750000D03*
%TD*%
D14*
%TO.C,C14*%
X182300000Y-294799322D03*
X184200000Y-294799322D03*
%TD*%
D36*
%TO.C,U7*%
X253205000Y-275300000D03*
X253205000Y-275800000D03*
X253205000Y-276300000D03*
X253205000Y-276800000D03*
X253205000Y-277300000D03*
X253205000Y-277800000D03*
X253205000Y-278300000D03*
X253205000Y-278800000D03*
X253205000Y-279300000D03*
X253205000Y-279800000D03*
X253205000Y-280300000D03*
X253205000Y-280800000D03*
X253205000Y-281300000D03*
X253205000Y-281800000D03*
X253205000Y-282300000D03*
X253205000Y-282800000D03*
X253205000Y-283300000D03*
X253205000Y-283800000D03*
X253205000Y-284300000D03*
X253205000Y-284800000D03*
X253205000Y-285300000D03*
X253205000Y-285800000D03*
X253205000Y-286300000D03*
X253205000Y-286800000D03*
X260645000Y-286800000D03*
X260645000Y-286300000D03*
X260645000Y-285800000D03*
X260645000Y-285300000D03*
X260645000Y-284800000D03*
X260645000Y-284300000D03*
X260645000Y-283800000D03*
X260645000Y-283300000D03*
X260645000Y-282800000D03*
X260645000Y-282300000D03*
X260645000Y-281800000D03*
X260645000Y-281300000D03*
X260645000Y-280800000D03*
X260645000Y-280300000D03*
X260645000Y-279800000D03*
X260645000Y-279300000D03*
X260645000Y-278800000D03*
X260645000Y-278300000D03*
X260645000Y-277800000D03*
X260645000Y-277300000D03*
X260645000Y-276800000D03*
X260645000Y-276300000D03*
X260645000Y-275800000D03*
X260645000Y-275300000D03*
%TD*%
D17*
%TO.C,C9*%
X160500000Y-291700000D03*
X160500000Y-289800000D03*
%TD*%
D13*
%TO.C,R20*%
X270425000Y-283850000D03*
X272250000Y-283850000D03*
%TD*%
D16*
%TO.C,R10*%
X273100000Y-316600000D03*
X273100000Y-314775000D03*
%TD*%
D17*
%TO.C,C28*%
X174350000Y-302550000D03*
X174350000Y-300650000D03*
%TD*%
D35*
%TO.C,C30*%
X172450000Y-304500000D03*
X170550000Y-304500000D03*
%TD*%
D13*
%TO.C,R16*%
X270425000Y-275450000D03*
X272250000Y-275450000D03*
%TD*%
D17*
%TO.C,C8*%
X162600000Y-291700000D03*
X162600000Y-289800000D03*
%TD*%
D37*
%TO.C,U10*%
X272800000Y-306700000D03*
X272800000Y-306200000D03*
X272800000Y-305700000D03*
X272800000Y-305200000D03*
X272800000Y-304700000D03*
X270000000Y-304700000D03*
X270000000Y-305200000D03*
X270000000Y-305700000D03*
X270000000Y-306200000D03*
X270000000Y-306700000D03*
%TD*%
D20*
%TO.C,C7*%
X151950000Y-294650000D03*
X151950000Y-296550000D03*
%TD*%
D15*
%TO.C,R40*%
X284525000Y-305100000D03*
X282700000Y-305100000D03*
%TD*%
D38*
%TO.C,U2*%
X161950000Y-295047599D03*
X161450001Y-295047599D03*
X160949999Y-295047599D03*
X160450000Y-295047599D03*
X159950001Y-295047599D03*
X159450000Y-295047599D03*
X158950000Y-295047599D03*
X158449999Y-295047599D03*
X157950000Y-295047599D03*
X157450001Y-295047599D03*
X156949999Y-295047599D03*
X156450000Y-295047599D03*
D39*
X155747599Y-295750000D03*
X155747599Y-296249999D03*
X155747599Y-296750001D03*
X155747599Y-297250000D03*
X155747599Y-297749999D03*
X155747599Y-298250000D03*
X155747599Y-298750000D03*
X155747599Y-299250001D03*
X155747599Y-299750000D03*
X155747599Y-300249999D03*
X155747599Y-300750001D03*
X155747599Y-301250000D03*
D38*
X156450000Y-301952401D03*
X156949999Y-301952401D03*
X157450001Y-301952401D03*
X157950000Y-301952401D03*
X158449999Y-301952401D03*
X158950000Y-301952401D03*
X159450000Y-301952401D03*
X159950001Y-301952401D03*
X160450000Y-301952401D03*
X160949999Y-301952401D03*
X161450001Y-301952401D03*
X161950000Y-301952401D03*
D39*
X162652401Y-301250000D03*
X162652401Y-300750001D03*
X162652401Y-300249999D03*
X162652401Y-299750000D03*
X162652401Y-299250001D03*
X162652401Y-298750000D03*
X162652401Y-298250000D03*
X162652401Y-297749999D03*
X162652401Y-297250000D03*
X162652401Y-296750001D03*
X162652401Y-296249999D03*
X162652401Y-295750000D03*
D40*
X159200000Y-298500000D03*
%TD*%
D20*
%TO.C,C38*%
X274200000Y-319950000D03*
X274200000Y-321850000D03*
%TD*%
D15*
%TO.C,R45*%
X250725000Y-299500000D03*
X248900000Y-299500000D03*
%TD*%
D17*
%TO.C,C18*%
X174350000Y-289114322D03*
X174350000Y-287214322D03*
%TD*%
D14*
%TO.C,C40*%
X118450000Y-294000000D03*
X120350000Y-294000000D03*
%TD*%
%TO.C,C23*%
X182300000Y-307400000D03*
X184200000Y-307400000D03*
%TD*%
%TO.C,C22*%
X182300000Y-305100000D03*
X184200000Y-305100000D03*
%TD*%
D18*
%TO.C,D16*%
X276075000Y-294350000D03*
X274200000Y-294350000D03*
%TD*%
D13*
%TO.C,R24*%
X270425000Y-292250000D03*
X272250000Y-292250000D03*
%TD*%
D22*
%TO.C,U5*%
X175815000Y-305800000D03*
X175815000Y-306300000D03*
X175815000Y-306800000D03*
X175815000Y-307300000D03*
X175815000Y-307800000D03*
D23*
X176500000Y-308485000D03*
X177000000Y-308485000D03*
X177500000Y-308485000D03*
X178000000Y-308485000D03*
X178500000Y-308485000D03*
D22*
X179185000Y-307800000D03*
X179185000Y-307300000D03*
X179185000Y-306800000D03*
X179185000Y-306300000D03*
X179185000Y-305800000D03*
D23*
X178500000Y-305115000D03*
X178000000Y-305115000D03*
X177500000Y-305115000D03*
X177000000Y-305115000D03*
X176500000Y-305115000D03*
%TD*%
D15*
%TO.C,R36*%
X284525000Y-307900000D03*
X282700000Y-307900000D03*
%TD*%
D20*
%TO.C,C26*%
X172300000Y-306400000D03*
X172300000Y-308300000D03*
%TD*%
D17*
%TO.C,C24*%
X265900000Y-323100000D03*
X265900000Y-321200000D03*
%TD*%
D13*
%TO.C,R14*%
X270425000Y-271250000D03*
X272250000Y-271250000D03*
%TD*%
D18*
%TO.C,D4*%
X276075000Y-269150000D03*
X274200000Y-269150000D03*
%TD*%
%TO.C,D7*%
X276075000Y-275450000D03*
X274200000Y-275450000D03*
%TD*%
D35*
%TO.C,C20*%
X172600000Y-291099322D03*
X170700000Y-291099322D03*
%TD*%
D16*
%TO.C,R2*%
X141450000Y-290325000D03*
X141450000Y-288500000D03*
%TD*%
D13*
%TO.C,R19*%
X270425000Y-281750000D03*
X272250000Y-281750000D03*
%TD*%
%TO.C,R22*%
X270425000Y-288050000D03*
X272250000Y-288050000D03*
%TD*%
D18*
%TO.C,D2*%
X276075000Y-264950000D03*
X274200000Y-264950000D03*
%TD*%
D41*
%TO.C,T1*%
X137050000Y-288820000D03*
X137050000Y-291360000D03*
X137050000Y-293900000D03*
X124990000Y-293900000D03*
X124990000Y-291360000D03*
X124990000Y-288820000D03*
%TD*%
D18*
%TO.C,D11*%
X276075000Y-283850000D03*
X274200000Y-283850000D03*
%TD*%
D14*
%TO.C,C32*%
X182300000Y-298700000D03*
X184200000Y-298700000D03*
%TD*%
D18*
%TO.C,D17*%
X276075000Y-296450000D03*
X274200000Y-296450000D03*
%TD*%
D42*
%TO.C,R8*%
X281450000Y-323925000D03*
X281450000Y-325750000D03*
%TD*%
D17*
%TO.C,C27*%
X261300000Y-323100000D03*
X261300000Y-321200000D03*
%TD*%
D18*
%TO.C,D3*%
X276075000Y-267050000D03*
X274200000Y-267050000D03*
%TD*%
D16*
%TO.C,R6*%
X151450000Y-291912500D03*
X151450000Y-290087500D03*
%TD*%
D17*
%TO.C,C29*%
X176500000Y-302550000D03*
X176500000Y-300650000D03*
%TD*%
D27*
%TO.C,L1*%
X182350000Y-288114322D03*
X183950200Y-288114322D03*
%TD*%
D19*
%TO.C,TP2*%
X259450000Y-332000000D03*
%TD*%
D13*
%TO.C,R11*%
X270415000Y-264950000D03*
X272240000Y-264950000D03*
%TD*%
D17*
%TO.C,C10*%
X166200000Y-299100000D03*
X166200000Y-297200000D03*
%TD*%
D42*
%TO.C,R9*%
X285450000Y-329200000D03*
X285450000Y-331025000D03*
%TD*%
D14*
%TO.C,C44*%
X275300000Y-305100000D03*
X277200000Y-305100000D03*
%TD*%
D15*
%TO.C,R37*%
X280912500Y-307900000D03*
X279087500Y-307900000D03*
%TD*%
D18*
%TO.C,D15*%
X276075000Y-292250000D03*
X274200000Y-292250000D03*
%TD*%
D42*
%TO.C,R27*%
X280100000Y-314175000D03*
X280100000Y-316000000D03*
%TD*%
D15*
%TO.C,R5*%
X149675000Y-294600000D03*
X147850000Y-294600000D03*
%TD*%
D18*
%TO.C,D14*%
X276075000Y-290150000D03*
X274200000Y-290150000D03*
%TD*%
D14*
%TO.C,C4*%
X134400000Y-314200000D03*
X136300000Y-314200000D03*
%TD*%
D43*
X63700000Y-258800000D02*
X305000000Y-258800000D01*
X63700000Y-335000000D02*
X63700000Y-258800000D01*
X116405000Y-322300000D02*
X116405000Y-333730000D01*
X116405000Y-333730000D02*
X116405000Y-335000000D01*
X116405000Y-335000000D02*
X63700000Y-335000000D01*
X246199000Y-322300000D02*
X116405000Y-322300000D01*
X246199000Y-335000000D02*
X246199000Y-322300000D01*
X305000000Y-258800000D02*
X305000000Y-335000000D01*
X305000000Y-335000000D02*
X246199000Y-335000000D01*
M02*
