%TF.GenerationSoftware,KiCad,Pcbnew,9.0.6*%
%TF.CreationDate,2026-06-05T01:13:28-04:00*%
%TF.ProjectId,acmi2-afe,61636d69-322d-4616-9665-2e6b69636164,rev?*%
%TF.SameCoordinates,Original*%
%TF.FileFunction,Component,L6,Bot*%
%TF.FilePolarity,Positive*%
%FSLAX46Y46*%
G04 Gerber Fmt 4.6, Leading zero omitted, Abs format (unit mm)*
G04 Created by KiCad (PCBNEW 9.0.6) date 2026-06-05 01:13:28*
%MOMM*%
%LPD*%
G01*
G04 APERTURE LIST*
%TA.AperFunction,ComponentMain*%
%ADD10C,0.300000*%
%TD*%
%TA.AperFunction,ComponentOutline,Courtyard*%
%ADD11C,0.100000*%
%TD*%
%TA.AperFunction,ComponentPin*%
%ADD12P,0.360000X4X0.000000*%
%TD*%
%TA.AperFunction,ComponentPin*%
%ADD13C,0.100000*%
%TD*%
%TA.AperFunction,Profile*%
%ADD14C,0.050000*%
%TD*%
G04 APERTURE END LIST*
D10*
%TO.C,C34*%
%TO.CFtp,C_0805_2012Metric*%
%TO.CVal,0.1u*%
%TO.CLbN,Capacitor_SMD*%
%TO.CMnt,SMD*%
%TO.CRot,90*%
X255450000Y-285850000D03*
D11*
X256425000Y-284155000D02*
X256425000Y-287545000D01*
X254475000Y-287545000D01*
X254475000Y-284155000D01*
X256425000Y-284155000D01*
D12*
%TO.P,C34,1*%
X255450000Y-284900000D03*
D13*
%TO.P,C34,2*%
X255450000Y-286800000D03*
%TD*%
D10*
%TO.C,C36*%
%TO.CFtp,C_0805_2012Metric*%
%TO.CVal,0.1u*%
%TO.CLbN,Capacitor_SMD*%
%TO.CMnt,SMD*%
%TO.CRot,90*%
X258200000Y-285850000D03*
D11*
X259175000Y-284155000D02*
X259175000Y-287545000D01*
X257225000Y-287545000D01*
X257225000Y-284155000D01*
X259175000Y-284155000D01*
D12*
%TO.P,C36,1*%
X258200000Y-284900000D03*
D13*
%TO.P,C36,2*%
X258200000Y-286800000D03*
%TD*%
D10*
%TO.C,C35*%
%TO.CFtp,C_0805_2012Metric*%
%TO.CVal,0.1u*%
%TO.CLbN,Capacitor_SMD*%
%TO.CMnt,SMD*%
%TO.CRot,-90*%
X255450000Y-275950000D03*
D11*
X256425000Y-274255000D02*
X256425000Y-277645000D01*
X254475000Y-277645000D01*
X254475000Y-274255000D01*
X256425000Y-274255000D01*
D12*
%TO.P,C35,1*%
X255450000Y-276900000D03*
D13*
%TO.P,C35,2*%
X255450000Y-275000000D03*
%TD*%
D10*
%TO.C,C11*%
%TO.CFtp,C_0805_2012Metric*%
%TO.CVal,10u*%
%TO.CLbN,Capacitor_SMD*%
%TO.CMnt,SMD*%
%TO.CRot,0*%
X151900000Y-299300000D03*
D11*
X153595000Y-298325000D02*
X153595000Y-300275000D01*
X150205000Y-300275000D01*
X150205000Y-298325000D01*
X153595000Y-298325000D01*
D12*
%TO.P,C11,1*%
X152850000Y-299300000D03*
D13*
%TO.P,C11,2*%
X150950000Y-299300000D03*
%TD*%
D10*
%TO.C,C37*%
%TO.CFtp,C_0805_2012Metric*%
%TO.CVal,0.1u*%
%TO.CLbN,Capacitor_SMD*%
%TO.CMnt,SMD*%
%TO.CRot,-90*%
X258200000Y-275950000D03*
D11*
X259175000Y-274255000D02*
X259175000Y-277645000D01*
X257225000Y-277645000D01*
X257225000Y-274255000D01*
X259175000Y-274255000D01*
D12*
%TO.P,C37,1*%
X258200000Y-276900000D03*
D13*
%TO.P,C37,2*%
X258200000Y-275000000D03*
%TD*%
D10*
%TO.C,C1*%
%TO.CFtp,C_0805_2012Metric*%
%TO.CVal,0.1u*%
%TO.CLbN,Capacitor_SMD*%
%TO.CMnt,SMD*%
%TO.CRot,90*%
X129400000Y-314450000D03*
D11*
X130375000Y-312755000D02*
X130375000Y-316145000D01*
X128425000Y-316145000D01*
X128425000Y-312755000D01*
X130375000Y-312755000D01*
D12*
%TO.P,C1,1*%
X129400000Y-313500000D03*
D13*
%TO.P,C1,2*%
X129400000Y-315400000D03*
%TD*%
D10*
%TO.C,C46*%
%TO.CFtp,C_0805_2012Metric*%
%TO.CVal,0.1u*%
%TO.CLbN,Capacitor_SMD*%
%TO.CMnt,SMD*%
%TO.CRot,0*%
X270950000Y-308800000D03*
D11*
X272645000Y-307825000D02*
X272645000Y-309775000D01*
X269255000Y-309775000D01*
X269255000Y-307825000D01*
X272645000Y-307825000D01*
D12*
%TO.P,C46,1*%
X271900000Y-308800000D03*
D13*
%TO.P,C46,2*%
X270000000Y-308800000D03*
%TD*%
D10*
%TO.C,C39*%
%TO.CFtp,C_0805_2012Metric*%
%TO.CVal,0.1u*%
%TO.CLbN,Capacitor_SMD*%
%TO.CMnt,SMD*%
%TO.CRot,90*%
X254450000Y-308250000D03*
D11*
X255425000Y-306555000D02*
X255425000Y-309945000D01*
X253475000Y-309945000D01*
X253475000Y-306555000D01*
X255425000Y-306555000D01*
D12*
%TO.P,C39,1*%
X254450000Y-307300000D03*
D13*
%TO.P,C39,2*%
X254450000Y-309200000D03*
%TD*%
D14*
X63700000Y-258800000D02*
X305000000Y-258800000D01*
X63700000Y-335000000D02*
X63700000Y-258800000D01*
X116405000Y-322300000D02*
X116405000Y-333730000D01*
X116405000Y-333730000D02*
X116405000Y-335000000D01*
X116405000Y-335000000D02*
X63700000Y-335000000D01*
X246199000Y-322300000D02*
X116405000Y-322300000D01*
X246199000Y-335000000D02*
X246199000Y-322300000D01*
X305000000Y-258800000D02*
X305000000Y-335000000D01*
X305000000Y-335000000D02*
X246199000Y-335000000D01*
M02*
