%TF.GenerationSoftware,KiCad,Pcbnew,9.0.6*%
%TF.CreationDate,2026-06-05T01:12:05-04:00*%
%TF.ProjectId,acmi2-afe,61636d69-322d-4616-9665-2e6b69636164,rev?*%
%TF.SameCoordinates,Original*%
%TF.FileFunction,Paste,Bot*%
%TF.FilePolarity,Positive*%
%FSLAX46Y46*%
G04 Gerber Fmt 4.6, Leading zero omitted, Abs format (unit mm)*
G04 Created by KiCad (PCBNEW 9.0.6) date 2026-06-05 01:12:05*
%MOMM*%
%LPD*%
G01*
G04 APERTURE LIST*
G04 Aperture macros list*
%AMRoundRect*
0 Rectangle with rounded corners*
0 $1 Rounding radius*
0 $2 $3 $4 $5 $6 $7 $8 $9 X,Y pos of 4 corners*
0 Add a 4 corners polygon primitive as box body*
4,1,4,$2,$3,$4,$5,$6,$7,$8,$9,$2,$3,0*
0 Add four circle primitives for the rounded corners*
1,1,$1+$1,$2,$3*
1,1,$1+$1,$4,$5*
1,1,$1+$1,$6,$7*
1,1,$1+$1,$8,$9*
0 Add four rect primitives between the rounded corners*
20,1,$1+$1,$2,$3,$4,$5,0*
20,1,$1+$1,$4,$5,$6,$7,0*
20,1,$1+$1,$6,$7,$8,$9,0*
20,1,$1+$1,$8,$9,$2,$3,0*%
G04 Aperture macros list end*
%ADD10C,0.150000*%
%ADD11RoundRect,0.250000X-0.475000X0.250000X-0.475000X-0.250000X0.475000X-0.250000X0.475000X0.250000X0*%
%ADD12RoundRect,0.250000X0.475000X-0.250000X0.475000X0.250000X-0.475000X0.250000X-0.475000X-0.250000X0*%
%ADD13RoundRect,0.250000X0.250000X0.475000X-0.250000X0.475000X-0.250000X-0.475000X0.250000X-0.475000X0*%
%TA.AperFunction,Profile*%
%ADD14C,0.050000*%
%TD*%
G04 APERTURE END LIST*
D10*
G36*
X171105510Y-351857663D02*
G01*
X171193236Y-351867798D01*
X171297379Y-351895455D01*
X171378707Y-351937865D01*
X171424504Y-351976067D01*
X171464567Y-352023875D01*
X171499058Y-352082579D01*
X171524192Y-352145941D01*
X171539460Y-352213779D01*
X171544670Y-352287010D01*
X171536740Y-352380738D01*
X171513719Y-352464806D01*
X171475964Y-352541012D01*
X171422763Y-352610693D01*
X171373009Y-352653700D01*
X171307852Y-352689549D01*
X171223911Y-352717574D01*
X171116987Y-352736195D01*
X170982210Y-352743042D01*
X170596886Y-352743042D01*
X170596886Y-353360000D01*
X170398134Y-353360000D01*
X170398134Y-352568653D01*
X170596886Y-352568653D01*
X170985232Y-352568653D01*
X171084672Y-352562953D01*
X171160344Y-352547712D01*
X171217060Y-352525128D01*
X171258815Y-352496479D01*
X171302845Y-352443372D01*
X171330056Y-352376934D01*
X171339781Y-352293147D01*
X171334203Y-352231342D01*
X171318193Y-352177669D01*
X171292154Y-352130573D01*
X171256727Y-352090331D01*
X171215206Y-352060857D01*
X171166583Y-352041271D01*
X171105818Y-352032082D01*
X170981111Y-352027899D01*
X170596886Y-352027899D01*
X170596886Y-352568653D01*
X170398134Y-352568653D01*
X170398134Y-351853510D01*
X170964716Y-351853510D01*
X171105510Y-351857663D01*
G37*
G36*
X172883182Y-353360000D02*
G01*
X172656678Y-353360000D01*
X172481464Y-352902777D01*
X171853332Y-352902777D01*
X171688377Y-353360000D01*
X171477259Y-353360000D01*
X171715216Y-352738646D01*
X171910760Y-352738646D01*
X172420006Y-352738646D01*
X172263202Y-352322731D01*
X172197684Y-352141235D01*
X172156682Y-352011321D01*
X172122251Y-352154743D01*
X172075716Y-352298184D01*
X171910760Y-352738646D01*
X171715216Y-352738646D01*
X172054192Y-351853510D01*
X172268332Y-351853510D01*
X172883182Y-353360000D01*
G37*
G36*
X172974132Y-352872369D02*
G01*
X173161711Y-352855882D01*
X173175312Y-352931180D01*
X173196223Y-352993349D01*
X173223626Y-353044468D01*
X173260422Y-353088831D01*
X173310008Y-353128558D01*
X173374752Y-353163628D01*
X173444417Y-353188452D01*
X173520919Y-353203768D01*
X173605378Y-353209057D01*
X173714949Y-353200157D01*
X173806146Y-353175169D01*
X173861452Y-353148481D01*
X173903959Y-353117453D01*
X173935747Y-353082204D01*
X173967802Y-353020015D01*
X173978337Y-352953152D01*
X173967928Y-352886321D01*
X173937304Y-352829412D01*
X173886646Y-352783122D01*
X173802116Y-352740478D01*
X173723233Y-352715369D01*
X173534670Y-352667021D01*
X173344130Y-352613783D01*
X173244692Y-352572957D01*
X173176833Y-352530628D01*
X173124073Y-352483922D01*
X173084316Y-352432732D01*
X173055124Y-352374994D01*
X173037548Y-352312891D01*
X173031560Y-352245245D01*
X173038684Y-352171038D01*
X173059964Y-352100373D01*
X173096040Y-352032021D01*
X173144698Y-351972189D01*
X173206865Y-351922109D01*
X173284626Y-351881445D01*
X173368720Y-351853327D01*
X173460232Y-351836020D01*
X173560315Y-351830062D01*
X173670618Y-351836446D01*
X173768231Y-351854717D01*
X173854872Y-351883918D01*
X173934827Y-351926353D01*
X173999582Y-351978962D01*
X174051060Y-352042187D01*
X174089582Y-352114376D01*
X174114189Y-352192757D01*
X174124882Y-352278767D01*
X173934281Y-352293147D01*
X173914683Y-352202184D01*
X173879771Y-352131702D01*
X173830234Y-352077450D01*
X173767008Y-352039127D01*
X173681917Y-352013860D01*
X173568467Y-352004452D01*
X173449414Y-352013334D01*
X173364635Y-352036559D01*
X173305600Y-352070580D01*
X173258732Y-352119170D01*
X173232068Y-352171644D01*
X173223168Y-352230040D01*
X173229820Y-352281412D01*
X173249111Y-352325209D01*
X173281604Y-352363306D01*
X173325591Y-352391505D01*
X173416943Y-352426965D01*
X173581289Y-352470467D01*
X173803842Y-352527206D01*
X173913765Y-352566271D01*
X173996905Y-352612428D01*
X174060415Y-352663553D01*
X174107389Y-352719595D01*
X174141870Y-352783919D01*
X174162768Y-352854638D01*
X174169945Y-352933368D01*
X174162399Y-353011385D01*
X174139770Y-353086339D01*
X174101252Y-353159507D01*
X174049789Y-353224025D01*
X173984694Y-353278913D01*
X173904056Y-353324554D01*
X173816552Y-353356757D01*
X173720526Y-353376599D01*
X173614537Y-353383447D01*
X173479366Y-353376069D01*
X173366614Y-353355531D01*
X173272811Y-353323729D01*
X173186721Y-353276594D01*
X173115215Y-353216930D01*
X173056656Y-353143936D01*
X173012869Y-353060947D01*
X172985363Y-352970987D01*
X172974132Y-352872369D01*
G37*
G36*
X174823539Y-353360000D02*
G01*
X174823539Y-352027899D01*
X174328581Y-352027899D01*
X174328581Y-351853510D01*
X175519265Y-351853510D01*
X175519265Y-352027899D01*
X175022292Y-352027899D01*
X175022292Y-353360000D01*
X174823539Y-353360000D01*
G37*
G36*
X175727635Y-353360000D02*
G01*
X175727635Y-351853510D01*
X176813813Y-351853510D01*
X176813813Y-352027899D01*
X175926479Y-352027899D01*
X175926479Y-352492449D01*
X176757485Y-352492449D01*
X176757485Y-352666838D01*
X175926479Y-352666838D01*
X175926479Y-353185610D01*
X176848709Y-353185610D01*
X176848709Y-353360000D01*
X175727635Y-353360000D01*
G37*
G36*
X177700231Y-353360000D02*
G01*
X177700231Y-351853510D01*
X177999368Y-351853510D01*
X178354924Y-352920637D01*
X178426640Y-353143753D01*
X178506599Y-352902136D01*
X178866277Y-351853510D01*
X179133723Y-351853510D01*
X179133723Y-353360000D01*
X178942115Y-353360000D01*
X178942115Y-352098424D01*
X178505592Y-353360000D01*
X178326256Y-353360000D01*
X177891840Y-352076900D01*
X177891840Y-353360000D01*
X177700231Y-353360000D01*
G37*
G36*
X180695534Y-353360000D02*
G01*
X180469029Y-353360000D01*
X180293816Y-352902777D01*
X179665684Y-352902777D01*
X179500729Y-353360000D01*
X179289611Y-353360000D01*
X179527567Y-352738646D01*
X179723112Y-352738646D01*
X180232358Y-352738646D01*
X180075554Y-352322731D01*
X180010036Y-352141235D01*
X179969034Y-352011321D01*
X179934603Y-352154743D01*
X179888067Y-352298184D01*
X179723112Y-352738646D01*
X179527567Y-352738646D01*
X179866543Y-351853510D01*
X180080683Y-351853510D01*
X180695534Y-353360000D01*
G37*
G36*
X180786484Y-352872369D02*
G01*
X180974063Y-352855882D01*
X180987663Y-352931180D01*
X181008575Y-352993349D01*
X181035978Y-353044468D01*
X181072774Y-353088831D01*
X181122360Y-353128558D01*
X181187103Y-353163628D01*
X181256769Y-353188452D01*
X181333271Y-353203768D01*
X181417730Y-353209057D01*
X181527300Y-353200157D01*
X181618497Y-353175169D01*
X181673804Y-353148481D01*
X181716310Y-353117453D01*
X181748099Y-353082204D01*
X181780153Y-353020015D01*
X181790688Y-352953152D01*
X181780280Y-352886321D01*
X181749656Y-352829412D01*
X181698998Y-352783122D01*
X181614467Y-352740478D01*
X181535585Y-352715369D01*
X181347021Y-352667021D01*
X181156482Y-352613783D01*
X181057044Y-352572957D01*
X180989184Y-352530628D01*
X180936424Y-352483922D01*
X180896668Y-352432732D01*
X180867476Y-352374994D01*
X180849900Y-352312891D01*
X180843912Y-352245245D01*
X180851036Y-352171038D01*
X180872316Y-352100373D01*
X180908392Y-352032021D01*
X180957050Y-351972189D01*
X181019217Y-351922109D01*
X181096978Y-351881445D01*
X181181072Y-351853327D01*
X181272583Y-351836020D01*
X181372667Y-351830062D01*
X181482970Y-351836446D01*
X181580583Y-351854717D01*
X181667224Y-351883918D01*
X181747179Y-351926353D01*
X181811934Y-351978962D01*
X181863412Y-352042187D01*
X181901934Y-352114376D01*
X181926540Y-352192757D01*
X181937234Y-352278767D01*
X181746633Y-352293147D01*
X181727035Y-352202184D01*
X181692123Y-352131702D01*
X181642586Y-352077450D01*
X181579360Y-352039127D01*
X181494268Y-352013860D01*
X181380818Y-352004452D01*
X181261766Y-352013334D01*
X181176987Y-352036559D01*
X181117952Y-352070580D01*
X181071084Y-352119170D01*
X181044420Y-352171644D01*
X181035520Y-352230040D01*
X181042172Y-352281412D01*
X181061463Y-352325209D01*
X181093955Y-352363306D01*
X181137943Y-352391505D01*
X181229295Y-352426965D01*
X181393641Y-352470467D01*
X181616194Y-352527206D01*
X181726117Y-352566271D01*
X181809257Y-352612428D01*
X181872767Y-352663553D01*
X181919740Y-352719595D01*
X181954222Y-352783919D01*
X181975119Y-352854638D01*
X181982297Y-352933368D01*
X181974751Y-353011385D01*
X181952122Y-353086339D01*
X181913604Y-353159507D01*
X181862140Y-353224025D01*
X181797046Y-353278913D01*
X181716408Y-353324554D01*
X181628903Y-353356757D01*
X181532878Y-353376599D01*
X181426889Y-353383447D01*
X181291718Y-353376069D01*
X181178966Y-353355531D01*
X181085162Y-353323729D01*
X180999072Y-353276594D01*
X180927566Y-353216930D01*
X180869008Y-353143936D01*
X180825220Y-353060947D01*
X180797715Y-352970987D01*
X180786484Y-352872369D01*
G37*
G36*
X182245438Y-353360000D02*
G01*
X182245438Y-351853510D01*
X182444282Y-351853510D01*
X182444282Y-352601534D01*
X183190200Y-351853510D01*
X183459661Y-351853510D01*
X182829514Y-352464147D01*
X183487321Y-353360000D01*
X183225005Y-353360000D01*
X182690204Y-352597412D01*
X182444282Y-352838297D01*
X182444282Y-353360000D01*
X182245438Y-353360000D01*
G37*
G36*
X184906409Y-351859379D02*
G01*
X184997027Y-351875302D01*
X185067908Y-351899214D01*
X185132620Y-351935351D01*
X185186547Y-351981907D01*
X185230849Y-352039714D01*
X185263962Y-352104875D01*
X185283322Y-352170655D01*
X185289742Y-352238101D01*
X185283968Y-352300952D01*
X185266698Y-352361176D01*
X185237444Y-352419726D01*
X185197866Y-352471582D01*
X185145926Y-352517311D01*
X185079724Y-352557112D01*
X185165900Y-352591353D01*
X185234858Y-352636982D01*
X185289284Y-352694041D01*
X185329665Y-352761697D01*
X185354124Y-352837174D01*
X185362557Y-352922561D01*
X185351287Y-353025345D01*
X185317952Y-353119665D01*
X185266634Y-353202172D01*
X185207768Y-353260165D01*
X185136127Y-353302472D01*
X185043270Y-353334812D01*
X184938743Y-353353121D01*
X184801012Y-353360000D01*
X184228202Y-353360000D01*
X184228202Y-353185610D01*
X184427046Y-353185610D01*
X184801012Y-353185610D01*
X184936292Y-353178283D01*
X185001065Y-353160999D01*
X185050964Y-353136700D01*
X185092317Y-353101700D01*
X185126802Y-353051887D01*
X185148858Y-352993045D01*
X185156569Y-352923293D01*
X185151571Y-352867728D01*
X185137138Y-352818720D01*
X185113521Y-352775007D01*
X185081302Y-352737342D01*
X185041865Y-352708004D01*
X184994086Y-352686530D01*
X184909266Y-352668374D01*
X184774359Y-352660976D01*
X184427046Y-352660976D01*
X184427046Y-353185610D01*
X184228202Y-353185610D01*
X184228202Y-352486587D01*
X184427046Y-352486587D01*
X184751828Y-352486587D01*
X184874656Y-352481262D01*
X184941421Y-352469002D01*
X185009300Y-352437769D01*
X185055635Y-352393439D01*
X185083995Y-352335549D01*
X185094104Y-352260907D01*
X185084878Y-352188892D01*
X185058200Y-352127825D01*
X185030870Y-352093533D01*
X184997053Y-352067508D01*
X184955709Y-352049148D01*
X184877220Y-352034407D01*
X184727190Y-352027899D01*
X184427046Y-352027899D01*
X184427046Y-352486587D01*
X184228202Y-352486587D01*
X184228202Y-351853510D01*
X184791761Y-351853510D01*
X184906409Y-351859379D01*
G37*
G36*
X186397890Y-351836486D02*
G01*
X186494096Y-351855327D01*
X186584421Y-351886267D01*
X186669745Y-351929439D01*
X186748420Y-351984072D01*
X186816629Y-352047995D01*
X186875155Y-352121785D01*
X186924368Y-352206410D01*
X186972306Y-352327615D01*
X187001824Y-352461172D01*
X187012020Y-352609319D01*
X187001319Y-352759294D01*
X186970297Y-352894719D01*
X186919788Y-353017907D01*
X186868104Y-353103662D01*
X186807627Y-353177019D01*
X186738036Y-353239147D01*
X186658571Y-353290757D01*
X186542913Y-353342243D01*
X186421876Y-353373051D01*
X186293763Y-353383447D01*
X186188574Y-353376797D01*
X186091039Y-353357341D01*
X186000026Y-353325460D01*
X185914576Y-353281048D01*
X185835859Y-353224941D01*
X185767911Y-353160060D01*
X185709929Y-353085881D01*
X185661510Y-353001512D01*
X185613684Y-352880992D01*
X185585109Y-352756521D01*
X185575703Y-352629378D01*
X185780395Y-352629378D01*
X185790561Y-352764995D01*
X185819207Y-352879375D01*
X185864583Y-352976191D01*
X185926392Y-353058299D01*
X186004498Y-353127123D01*
X186090358Y-353175478D01*
X186185638Y-353204814D01*
X186292756Y-353214919D01*
X186401987Y-353204643D01*
X186498378Y-353174912D01*
X186584507Y-353126073D01*
X186662143Y-353056741D01*
X186722818Y-352974121D01*
X186767946Y-352874231D01*
X186796792Y-352753579D01*
X186807131Y-352607762D01*
X186799746Y-352486445D01*
X186778687Y-352380184D01*
X186745124Y-352286827D01*
X186696672Y-352201151D01*
X186636461Y-352130843D01*
X186563774Y-352074153D01*
X186481432Y-352032360D01*
X186392671Y-352007177D01*
X186295778Y-351998590D01*
X186193001Y-352007849D01*
X186099392Y-352034953D01*
X186013032Y-352079885D01*
X185932528Y-352143945D01*
X185882108Y-352203425D01*
X185840700Y-352278339D01*
X185808837Y-352371695D01*
X185787976Y-352487251D01*
X185780395Y-352629378D01*
X185575703Y-352629378D01*
X185575506Y-352626721D01*
X185584584Y-352475098D01*
X185610373Y-352343387D01*
X185651282Y-352228742D01*
X185706549Y-352128753D01*
X185776274Y-352041546D01*
X185860905Y-351965702D01*
X185953677Y-351907210D01*
X186055748Y-351865034D01*
X186168764Y-351839051D01*
X186294771Y-351830062D01*
X186397890Y-351836486D01*
G37*
G36*
X187650685Y-353360000D02*
G01*
X187650685Y-352027899D01*
X187155727Y-352027899D01*
X187155727Y-351853510D01*
X188346411Y-351853510D01*
X188346411Y-352027899D01*
X187849438Y-352027899D01*
X187849438Y-353360000D01*
X187650685Y-353360000D01*
G37*
G36*
X188932960Y-353360000D02*
G01*
X188932960Y-352027899D01*
X188438002Y-352027899D01*
X188438002Y-351853510D01*
X189628686Y-351853510D01*
X189628686Y-352027899D01*
X189131713Y-352027899D01*
X189131713Y-353360000D01*
X188932960Y-353360000D01*
G37*
G36*
X190556857Y-351836486D02*
G01*
X190653063Y-351855327D01*
X190743388Y-351886267D01*
X190828712Y-351929439D01*
X190907387Y-351984072D01*
X190975596Y-352047995D01*
X191034122Y-352121785D01*
X191083335Y-352206410D01*
X191131274Y-352327615D01*
X191160791Y-352461172D01*
X191170988Y-352609319D01*
X191160286Y-352759294D01*
X191129264Y-352894719D01*
X191078755Y-353017907D01*
X191027071Y-353103662D01*
X190966594Y-353177019D01*
X190897003Y-353239147D01*
X190817538Y-353290757D01*
X190701881Y-353342243D01*
X190580843Y-353373051D01*
X190452731Y-353383447D01*
X190347541Y-353376797D01*
X190250006Y-353357341D01*
X190158993Y-353325460D01*
X190073543Y-353281048D01*
X189994826Y-353224941D01*
X189926878Y-353160060D01*
X189868896Y-353085881D01*
X189820477Y-353001512D01*
X189772651Y-352880992D01*
X189744076Y-352756521D01*
X189734670Y-352629378D01*
X189939363Y-352629378D01*
X189949529Y-352764995D01*
X189978175Y-352879375D01*
X190023550Y-352976191D01*
X190085359Y-353058299D01*
X190163465Y-353127123D01*
X190249325Y-353175478D01*
X190344605Y-353204814D01*
X190451723Y-353214919D01*
X190560954Y-353204643D01*
X190657345Y-353174912D01*
X190743474Y-353126073D01*
X190821110Y-353056741D01*
X190881785Y-352974121D01*
X190926913Y-352874231D01*
X190955759Y-352753579D01*
X190966098Y-352607762D01*
X190958713Y-352486445D01*
X190937654Y-352380184D01*
X190904091Y-352286827D01*
X190855639Y-352201151D01*
X190795428Y-352130843D01*
X190722741Y-352074153D01*
X190640399Y-352032360D01*
X190551638Y-352007177D01*
X190454746Y-351998590D01*
X190351968Y-352007849D01*
X190258359Y-352034953D01*
X190171999Y-352079885D01*
X190091495Y-352143945D01*
X190041075Y-352203425D01*
X189999667Y-352278339D01*
X189967804Y-352371695D01*
X189946943Y-352487251D01*
X189939363Y-352629378D01*
X189734670Y-352629378D01*
X189734473Y-352626721D01*
X189743552Y-352475098D01*
X189769340Y-352343387D01*
X189810249Y-352228742D01*
X189865516Y-352128753D01*
X189935241Y-352041546D01*
X190019872Y-351965702D01*
X190112644Y-351907210D01*
X190214715Y-351865034D01*
X190327731Y-351839051D01*
X190453738Y-351830062D01*
X190556857Y-351836486D01*
G37*
G36*
X191421306Y-353360000D02*
G01*
X191421306Y-351853510D01*
X191720442Y-351853510D01*
X192075999Y-352920637D01*
X192147715Y-353143753D01*
X192227674Y-352902136D01*
X192587352Y-351853510D01*
X192854798Y-351853510D01*
X192854798Y-353360000D01*
X192663189Y-353360000D01*
X192663189Y-352098424D01*
X192226666Y-353360000D01*
X192047331Y-353360000D01*
X191612915Y-352076900D01*
X191612915Y-353360000D01*
X191421306Y-353360000D01*
G37*
G36*
X176121201Y-357912369D02*
G01*
X176308779Y-357895882D01*
X176322380Y-357971180D01*
X176343292Y-358033349D01*
X176370695Y-358084468D01*
X176407491Y-358128831D01*
X176457076Y-358168558D01*
X176521820Y-358203628D01*
X176591485Y-358228452D01*
X176667988Y-358243768D01*
X176752446Y-358249057D01*
X176862017Y-358240157D01*
X176953214Y-358215169D01*
X177008521Y-358188481D01*
X177051027Y-358157453D01*
X177082815Y-358122204D01*
X177114870Y-358060015D01*
X177125405Y-357993152D01*
X177114997Y-357926321D01*
X177084372Y-357869412D01*
X177033715Y-357823122D01*
X176949184Y-357780478D01*
X176870301Y-357755369D01*
X176681738Y-357707021D01*
X176491199Y-357653783D01*
X176391761Y-357612957D01*
X176323901Y-357570628D01*
X176271141Y-357523922D01*
X176231385Y-357472732D01*
X176202193Y-357414994D01*
X176184617Y-357352891D01*
X176178628Y-357285245D01*
X176185752Y-357211038D01*
X176207033Y-357140373D01*
X176243108Y-357072021D01*
X176291766Y-357012189D01*
X176353933Y-356962109D01*
X176431694Y-356921445D01*
X176515789Y-356893327D01*
X176607300Y-356876020D01*
X176707384Y-356870062D01*
X176817687Y-356876446D01*
X176915299Y-356894717D01*
X177001940Y-356923918D01*
X177081895Y-356966353D01*
X177146651Y-357018962D01*
X177198128Y-357082187D01*
X177236650Y-357154376D01*
X177261257Y-357232757D01*
X177271951Y-357318767D01*
X177081350Y-357333147D01*
X177061751Y-357242184D01*
X177026840Y-357171702D01*
X176977302Y-357117450D01*
X176914077Y-357079127D01*
X176828985Y-357053860D01*
X176715535Y-357044452D01*
X176596483Y-357053334D01*
X176511704Y-357076559D01*
X176452669Y-357110580D01*
X176405800Y-357159170D01*
X176379137Y-357211644D01*
X176370237Y-357270040D01*
X176376889Y-357321412D01*
X176396180Y-357365209D01*
X176428672Y-357403306D01*
X176472659Y-357431505D01*
X176564012Y-357466965D01*
X176728358Y-357510467D01*
X176950911Y-357567206D01*
X177060833Y-357606271D01*
X177143973Y-357652428D01*
X177207484Y-357703553D01*
X177254457Y-357759595D01*
X177288939Y-357823919D01*
X177309836Y-357894638D01*
X177317014Y-357973368D01*
X177309467Y-358051385D01*
X177286839Y-358126339D01*
X177248320Y-358199507D01*
X177196857Y-358264025D01*
X177131763Y-358318913D01*
X177051125Y-358364554D01*
X176963620Y-358396757D01*
X176867595Y-358416599D01*
X176761605Y-358423447D01*
X176626435Y-358416069D01*
X176513682Y-358395531D01*
X176419879Y-358363729D01*
X176333789Y-358316594D01*
X176262283Y-358256930D01*
X176203724Y-358183936D01*
X176159937Y-358100947D01*
X176132431Y-358010987D01*
X176121201Y-357912369D01*
G37*
G36*
X177580155Y-358400000D02*
G01*
X177580155Y-356893510D01*
X177778999Y-356893510D01*
X177778999Y-357641534D01*
X178524917Y-356893510D01*
X178794378Y-356893510D01*
X178164231Y-357504147D01*
X178822038Y-358400000D01*
X178559721Y-358400000D01*
X178024921Y-357637412D01*
X177778999Y-357878297D01*
X177778999Y-358400000D01*
X177580155Y-358400000D01*
G37*
G36*
X178892563Y-357948639D02*
G01*
X178892563Y-357761060D01*
X179459237Y-357761060D01*
X179459237Y-357948639D01*
X178892563Y-357948639D01*
G37*
G36*
X180581411Y-358225610D02*
G01*
X180581411Y-358400000D01*
X179588564Y-358400000D01*
X179592907Y-358334696D01*
X179610088Y-358272138D01*
X179658050Y-358173891D01*
X179731446Y-358072745D01*
X179826500Y-357973552D01*
X179972788Y-357845690D01*
X180134869Y-357705475D01*
X180240464Y-357601458D01*
X180303707Y-357526038D01*
X180353833Y-357444216D01*
X180381226Y-357370613D01*
X180389802Y-357303013D01*
X180380954Y-357232931D01*
X180355104Y-357171775D01*
X180311400Y-357117267D01*
X180255114Y-357075845D01*
X180188018Y-357050460D01*
X180107061Y-357041521D01*
X180021557Y-357051078D01*
X179951641Y-357078091D01*
X179893837Y-357122029D01*
X179850575Y-357180253D01*
X179823239Y-357253145D01*
X179812962Y-357344870D01*
X179623368Y-357325270D01*
X179641144Y-357219615D01*
X179672046Y-357132028D01*
X179714967Y-357059468D01*
X179769914Y-356999664D01*
X179836135Y-356952218D01*
X179913564Y-356917379D01*
X180004320Y-356895420D01*
X180111091Y-356887648D01*
X180218499Y-356895969D01*
X180309553Y-356919491D01*
X180387113Y-356956920D01*
X180453367Y-357008182D01*
X180508792Y-357072420D01*
X180547711Y-357142630D01*
X180571290Y-357220120D01*
X180579396Y-357306769D01*
X180570275Y-357396078D01*
X180542485Y-357484913D01*
X180495862Y-357571077D01*
X180420027Y-357669286D01*
X180318225Y-357772733D01*
X180135729Y-357934900D01*
X179985313Y-358065210D01*
X179922505Y-358125135D01*
X179878789Y-358176166D01*
X179844744Y-358225610D01*
X180581411Y-358225610D01*
G37*
G36*
X181397224Y-356894337D02*
G01*
X181473733Y-356913458D01*
X181540802Y-356944213D01*
X181599904Y-356986658D01*
X181649847Y-357039599D01*
X181689061Y-357101802D01*
X181717833Y-357174695D01*
X181735642Y-357260240D01*
X181552276Y-357274528D01*
X181520168Y-357177098D01*
X181482575Y-357119190D01*
X181428636Y-357075930D01*
X181367912Y-357050304D01*
X181298111Y-357041521D01*
X181240985Y-357047113D01*
X181189849Y-357063412D01*
X181143414Y-357090430D01*
X181090968Y-357137394D01*
X181045161Y-357198163D01*
X181006027Y-357275078D01*
X180980089Y-357357789D01*
X180961726Y-357470477D01*
X180953820Y-357620651D01*
X181002605Y-357557720D01*
X181056746Y-357508056D01*
X181116669Y-357470259D01*
X181182326Y-357442805D01*
X181249384Y-357426518D01*
X181318627Y-357421074D01*
X181408004Y-357429695D01*
X181488996Y-357454936D01*
X181563465Y-357496924D01*
X181632693Y-357557178D01*
X181688545Y-357628808D01*
X181728729Y-357709984D01*
X181753606Y-357802531D01*
X181762295Y-357908888D01*
X181755401Y-358001950D01*
X181735057Y-358089416D01*
X181701295Y-358172396D01*
X181654736Y-358248341D01*
X181599071Y-358309934D01*
X181533775Y-358358784D01*
X181460406Y-358394395D01*
X181380329Y-358416026D01*
X181291974Y-358423447D01*
X181180167Y-358412454D01*
X181081940Y-358380656D01*
X180994472Y-358328302D01*
X180915902Y-358253637D01*
X180868578Y-358185999D01*
X180828991Y-358100211D01*
X180798137Y-357992607D01*
X180785371Y-357908705D01*
X180982488Y-357908705D01*
X180992589Y-358001922D01*
X181022971Y-358091246D01*
X181054287Y-358145764D01*
X181091926Y-358189562D01*
X181136178Y-358223961D01*
X181211449Y-358258377D01*
X181288860Y-358269574D01*
X181362646Y-358259242D01*
X181428800Y-358228524D01*
X181489720Y-358175327D01*
X181534950Y-358107860D01*
X181563458Y-358023908D01*
X181573709Y-357918963D01*
X181563594Y-357818240D01*
X181535460Y-357737898D01*
X181490727Y-357673499D01*
X181430552Y-357623589D01*
X181361819Y-357593947D01*
X181281716Y-357583740D01*
X181202139Y-357593831D01*
X181132276Y-357623392D01*
X181069591Y-357673499D01*
X181022002Y-357738002D01*
X180992791Y-357815208D01*
X180982488Y-357908705D01*
X180785371Y-357908705D01*
X180777784Y-357858846D01*
X180770363Y-357694016D01*
X180778492Y-357510062D01*
X180800868Y-357359492D01*
X180834921Y-357237203D01*
X180878763Y-357138666D01*
X180931289Y-357060022D01*
X180991477Y-356997852D01*
X181058242Y-356950245D01*
X181132478Y-356916039D01*
X181215584Y-356894962D01*
X181309377Y-356887648D01*
X181397224Y-356894337D01*
G37*
G36*
X182514326Y-356893373D02*
G01*
X182584515Y-356909824D01*
X182646973Y-356936374D01*
X182703885Y-356973361D01*
X182753940Y-357019920D01*
X182797640Y-357076967D01*
X182849356Y-357175636D01*
X182890880Y-357300632D01*
X182915092Y-357443932D01*
X182924677Y-357656097D01*
X182917668Y-357833055D01*
X182898678Y-357973444D01*
X182870363Y-358083369D01*
X182826377Y-358186966D01*
X182772161Y-358269685D01*
X182707972Y-358334695D01*
X182631600Y-358383063D01*
X182541745Y-358412934D01*
X182434939Y-358423447D01*
X182329241Y-358413106D01*
X182239044Y-358383554D01*
X182161204Y-358335469D01*
X182093671Y-358267467D01*
X182045578Y-358193342D01*
X182005156Y-358099435D01*
X181973570Y-357981775D01*
X181952714Y-357835729D01*
X181945110Y-357656097D01*
X181945132Y-357655547D01*
X182134704Y-357655547D01*
X182142304Y-357852814D01*
X182161855Y-357991878D01*
X182189181Y-358086207D01*
X182221257Y-358147300D01*
X182269378Y-358202960D01*
X182320323Y-358240343D01*
X182374968Y-358262205D01*
X182434939Y-358269574D01*
X182494831Y-358262183D01*
X182549433Y-358240242D01*
X182600375Y-358202699D01*
X182648530Y-358146750D01*
X182680681Y-358085397D01*
X182708034Y-357990976D01*
X182727582Y-357852125D01*
X182735175Y-357655547D01*
X182727553Y-357457659D01*
X182707961Y-357318413D01*
X182680606Y-357224182D01*
X182648530Y-357163337D01*
X182600455Y-357108054D01*
X182549206Y-357070790D01*
X182493885Y-357048916D01*
X182432833Y-357041521D01*
X182372067Y-357048341D01*
X182319067Y-357068131D01*
X182272037Y-357101086D01*
X182229959Y-357148957D01*
X182193875Y-357217478D01*
X182163848Y-357317899D01*
X182142779Y-357460094D01*
X182134704Y-357655547D01*
X181945132Y-357655547D01*
X181952197Y-357477638D01*
X181971363Y-357336624D01*
X181999882Y-357226718D01*
X182044212Y-357123130D01*
X182098614Y-357040608D01*
X182162822Y-356975942D01*
X182239202Y-356927793D01*
X182328779Y-356898089D01*
X182434939Y-356887648D01*
X182514326Y-356893373D01*
G37*
G36*
X183806332Y-358400000D02*
G01*
X183621868Y-358400000D01*
X183621868Y-357221589D01*
X183548466Y-357282660D01*
X183447204Y-357348992D01*
X183340637Y-357406654D01*
X183253031Y-357444521D01*
X183253031Y-357268667D01*
X183353355Y-357215296D01*
X183443238Y-357155932D01*
X183523499Y-357090614D01*
X183597133Y-357017232D01*
X183650687Y-356949865D01*
X183687447Y-356887648D01*
X183806332Y-356887648D01*
X183806332Y-358400000D01*
G37*
G36*
X184257602Y-357948639D02*
G01*
X184257602Y-357761060D01*
X184824276Y-357761060D01*
X184824276Y-357948639D01*
X184257602Y-357948639D01*
G37*
G36*
X184977141Y-358001395D02*
G01*
X185170765Y-357985000D01*
X185192983Y-358076151D01*
X185226647Y-358145781D01*
X185270690Y-358198224D01*
X185326408Y-358237792D01*
X185388735Y-358261450D01*
X185459734Y-358269574D01*
X185524176Y-358263199D01*
X185582363Y-358244545D01*
X185635702Y-358213488D01*
X185685140Y-358168824D01*
X185724468Y-358116060D01*
X185753118Y-358055045D01*
X185771054Y-357984219D01*
X185777372Y-357901561D01*
X185771245Y-357822962D01*
X185753937Y-357756470D01*
X185726411Y-357699955D01*
X185688712Y-357651792D01*
X185624602Y-357601551D01*
X185548450Y-357571007D01*
X185456712Y-357560293D01*
X185371124Y-357570790D01*
X185295786Y-357601509D01*
X185231307Y-357649204D01*
X185183129Y-357708304D01*
X185009931Y-357685772D01*
X185155469Y-356911095D01*
X185902394Y-356911095D01*
X185902394Y-357085484D01*
X185303022Y-357085484D01*
X185222056Y-357494164D01*
X185315796Y-357439580D01*
X185409795Y-357408029D01*
X185505896Y-357397627D01*
X185601702Y-357406423D01*
X185687729Y-357432036D01*
X185765968Y-357474316D01*
X185837822Y-357534464D01*
X185896405Y-357606846D01*
X185938303Y-357688330D01*
X185964115Y-357780692D01*
X185973102Y-357886357D01*
X185965365Y-357987228D01*
X185942843Y-358078826D01*
X185905942Y-358162753D01*
X185854217Y-358240265D01*
X185792077Y-358306334D01*
X185722789Y-358356899D01*
X185645399Y-358393239D01*
X185558379Y-358415655D01*
X185459734Y-358423447D01*
X185358275Y-358415633D01*
X185270103Y-358393311D01*
X185192973Y-358357416D01*
X185125152Y-358307859D01*
X185067823Y-358246047D01*
X185024295Y-358175396D01*
X184993941Y-358094507D01*
X184977141Y-358001395D01*
G37*
G36*
X186838363Y-358400000D02*
G01*
X186653899Y-358400000D01*
X186653899Y-357221589D01*
X186580497Y-357282660D01*
X186479235Y-357348992D01*
X186372667Y-357406654D01*
X186285061Y-357444521D01*
X186285061Y-357268667D01*
X186385385Y-357215296D01*
X186475269Y-357155932D01*
X186555530Y-357090614D01*
X186629164Y-357017232D01*
X186682717Y-356949865D01*
X186719478Y-356887648D01*
X186838363Y-356887648D01*
X186838363Y-358400000D01*
G37*
G36*
X179267162Y-359418970D02*
G01*
X179366482Y-359433287D01*
X179437714Y-359453810D01*
X179502283Y-359487247D01*
X179557606Y-359534169D01*
X179604684Y-359596142D01*
X179639372Y-359666312D01*
X179660181Y-359740981D01*
X179667241Y-359821456D01*
X179660515Y-359899327D01*
X179640994Y-359969033D01*
X179608957Y-360032122D01*
X179563743Y-360089726D01*
X179509227Y-360136363D01*
X179439827Y-360175499D01*
X179352644Y-360206613D01*
X179244090Y-360228395D01*
X179317078Y-360268796D01*
X179363891Y-360304050D01*
X179446647Y-360392531D01*
X179528939Y-360506283D01*
X179790156Y-360920000D01*
X179540204Y-360920000D01*
X179341360Y-360603461D01*
X179197928Y-360393900D01*
X179140897Y-360328478D01*
X179096995Y-360292143D01*
X179051386Y-360267221D01*
X179006320Y-360251659D01*
X178895678Y-360244424D01*
X178665143Y-360244424D01*
X178665143Y-360920000D01*
X178466299Y-360920000D01*
X178466299Y-360075896D01*
X178665143Y-360075896D01*
X179092416Y-360075896D01*
X179220993Y-360067934D01*
X179305548Y-360047961D01*
X179353618Y-360024966D01*
X179392098Y-359995173D01*
X179422327Y-359958293D01*
X179452317Y-359893862D01*
X179462260Y-359824387D01*
X179453466Y-359757284D01*
X179427941Y-359700068D01*
X179384866Y-359650273D01*
X179329049Y-359614851D01*
X179250156Y-359591058D01*
X179140592Y-359582037D01*
X178665143Y-359582037D01*
X178665143Y-360075896D01*
X178466299Y-360075896D01*
X178466299Y-359413510D01*
X179132349Y-359413510D01*
X179267162Y-359418970D01*
G37*
G36*
X179982589Y-360920000D02*
G01*
X179982589Y-359413510D01*
X181068768Y-359413510D01*
X181068768Y-359587899D01*
X180181433Y-359587899D01*
X180181433Y-360052449D01*
X181012439Y-360052449D01*
X181012439Y-360226838D01*
X180181433Y-360226838D01*
X180181433Y-360745610D01*
X181103664Y-360745610D01*
X181103664Y-360920000D01*
X179982589Y-360920000D01*
G37*
G36*
X181807358Y-360920000D02*
G01*
X181225388Y-359413510D01*
X181440536Y-359413510D01*
X181830988Y-360508298D01*
X181909848Y-360755044D01*
X181990815Y-360508298D01*
X182396563Y-359413510D01*
X182599438Y-359413510D01*
X182011331Y-360920000D01*
X181807358Y-360920000D01*
G37*
G36*
X182566465Y-360468639D02*
G01*
X182566465Y-360281060D01*
X183133139Y-360281060D01*
X183133139Y-360468639D01*
X182566465Y-360468639D01*
G37*
G36*
X183980722Y-360920000D02*
G01*
X183796258Y-360920000D01*
X183796258Y-359741589D01*
X183722856Y-359802660D01*
X183621594Y-359868992D01*
X183515027Y-359926654D01*
X183427421Y-359964521D01*
X183427421Y-359788667D01*
X183527745Y-359735296D01*
X183617628Y-359675932D01*
X183697889Y-359610614D01*
X183771523Y-359537232D01*
X183825077Y-359469865D01*
X183861837Y-359407648D01*
X183980722Y-359407648D01*
X183980722Y-360920000D01*
G37*
D11*
%TO.C,C34*%
X255450000Y-284900000D03*
X255450000Y-286800000D03*
%TD*%
%TO.C,C36*%
X258200000Y-284900000D03*
X258200000Y-286800000D03*
%TD*%
D12*
%TO.C,C35*%
X255450000Y-276900000D03*
X255450000Y-275000000D03*
%TD*%
D13*
%TO.C,C11*%
X152850000Y-299300000D03*
X150950000Y-299300000D03*
%TD*%
D12*
%TO.C,C37*%
X258200000Y-276900000D03*
X258200000Y-275000000D03*
%TD*%
D11*
%TO.C,C1*%
X129400000Y-313500000D03*
X129400000Y-315400000D03*
%TD*%
D13*
%TO.C,C46*%
X271900000Y-308800000D03*
X270000000Y-308800000D03*
%TD*%
D11*
%TO.C,C39*%
X254450000Y-307300000D03*
X254450000Y-309200000D03*
%TD*%
D14*
X63700000Y-258800000D02*
X305000000Y-258800000D01*
X63700000Y-335000000D02*
X63700000Y-258800000D01*
X116405000Y-322300000D02*
X116405000Y-333730000D01*
X116405000Y-333730000D02*
X116405000Y-335000000D01*
X116405000Y-335000000D02*
X63700000Y-335000000D01*
X246199000Y-322300000D02*
X116405000Y-322300000D01*
X246199000Y-335000000D02*
X246199000Y-322300000D01*
X305000000Y-258800000D02*
X305000000Y-335000000D01*
X305000000Y-335000000D02*
X246199000Y-335000000D01*
M02*
